<svg xmlns="http://www.w3.org/2000/svg" xmlns:xlink="http://www.w3.org/1999/xlink" width="292" height="185" viewBox="0 0 292 185">
  <defs>
    <clipPath id="clip-path">
      <rect id="Rectangle_451" data-name="Rectangle 451" width="292" height="185" transform="translate(0)" fill="none"/>
    </clipPath>
  </defs>
  <g id="about_cover_4" clip-path="url(#clip-path)">
    <g id="Group_404" data-name="Group 404" transform="translate(0 0)">
      <path id="Path_1752" data-name="Path 1752" d="M0,0H291.957V185.056H0Z" transform="translate(0 0)" fill="#285db0"/>
      <g id="conti_logo" data-name="conti logo" transform="translate(47.191 68.884)">
        <path id="Path_1753" data-name="Path 1753" d="M9081.808,4524.45l4.884-8.66h-32.479s-4.854-.108-6.645,2.7l-12.147,23.448s-3.782,6.866.647,6.9H9070l4.42-8.753h-25.079s-2.133.329,0-3.381l4.874-10.176s.382-2.124,3.72-2.078Z" transform="translate(-9033.916 -4501.282)" fill="#aaf3dd"/>
        <path id="Path_1754" data-name="Path 1754" d="M9089.1,4515.789h31.692s2.931.059,1.649,2.657l-13.53,26.65s-1.818,3.636-4.941,3.6h-31.732s-3.786-.421-.939-5.591l11.734-22.966S9085.029,4515.736,9089.1,4515.789Z" transform="translate(-9028.958 -4501.282)" fill="#aaf3dd"/>
        <path id="Path_1755" data-name="Path 1755" d="M9092.3,4523.207h10.923s2.494-.138,1.524,1.824l-6.521,12.625a2.841,2.841,0,0,1-2.481,1.589H9084.88s-2.745.312-.847-2.646l5.968-11.569S9090.816,4523.124,9092.3,4523.207Z" transform="translate(-9027.167 -4500.875)" fill="#285db0" opacity="0.8"/>
        <path id="Path_1756" data-name="Path 1756" d="M9118.827,4548.089H9106.36l16.338-32.467h32.8s5.484-.656,3.006,3.817l-13.977,28.65h-12.3l11.234-22.79s.579-1.385-.8-1.359h-11.3s-.937-.145-1.77,1.639Z" transform="translate(-9024.025 -4501.308)" fill="#aaf3dd"/>
        <path id="Path_1757" data-name="Path 1757" d="M9178.926,4548.753l4.526-8.676H9168.9s-2.97.3-.727-2.993l6.611-12.411h16.107l4.815-8.458h-16.78l3.727-5.327-11.74-.243-3.61,5.569h-10.236l-4.382,8.458h10.949l-9.019,17.467s-3.8,6.546,1.145,6.613Z" transform="translate(-9017.706 -4501.974)" fill="#aaf3dd"/>
        <path id="Path_1758" data-name="Path 1758" d="M9179.994,4548.086h11.373l15.407-32.476h-10.443Z" transform="translate(-9013.98 -4501.306)" fill="#aaf3dd"/>
        <ellipse id="Ellipse_250" data-name="Ellipse 250" cx="6.251" cy="6.238" rx="6.251" ry="6.238" transform="translate(185.342)" fill="#aaf3dd"/>
      </g>
      <g id="Group_403" data-name="Group 403" transform="translate(69.607 16.485)" opacity="0.595">
        <g id="Ellipse_251" data-name="Ellipse 251" fill="none" stroke="#aaf3dd" stroke-linecap="round" stroke-linejoin="round" stroke-width="1">
          <ellipse cx="76.676" cy="76.527" rx="76.676" ry="76.527" stroke="none"/>
          <ellipse cx="76.676" cy="76.527" rx="76.176" ry="76.027" fill="none"/>
        </g>
        <path id="Path_1759" data-name="Path 1759" d="M9412.326,3569.25c-21.752,5.154-53.821,40.365-53.821,40.365s57.748,20.019,108,10.909a71.378,71.378,0,0,0,7.109-1.448" transform="translate(-9325.092 -3568.152)" fill="none" stroke="#aaf3dd" stroke-linecap="round" stroke-linejoin="round" stroke-width="1"/>
        <path id="Path_1760" data-name="Path 1760" d="M9408.642,3603.009s48.655-5.033,66.533-2.078" transform="translate(-9351.127 -3584.186)" fill="none" stroke="#aaf3dd" stroke-linecap="round" stroke-width="1"/>
        <path id="Path_1761" data-name="Path 1761" d="M9416.295,3747.188c-105.04,11.416-91.658-94.024-91.658-94.024s-35.53,11.942-30.956,53.172" transform="translate(-9291.225 -3611.823)" fill="none" stroke="#aaf3dd" stroke-linecap="round" stroke-linejoin="round" stroke-width="1"/>
        <path id="Path_1762" data-name="Path 1762" d="M9418.315,3669.526s28.339,69.676,89.553,41.088" transform="translate(-9356.149 -3620.334)" fill="none" stroke="#aaf3dd" stroke-linecap="round" stroke-width="1"/>
        <path id="Path_1763" data-name="Path 1763" d="M9349.83,3717.06s-37.419,53.052,32.74,79.363c0,0,3.111,1.077,3.464,1.134" transform="translate(-9315.423 -3645.04)" fill="none" stroke="#aaf3dd" stroke-linecap="round" stroke-linejoin="round" stroke-width="1"/>
        <path id="Path_1764" data-name="Path 1764" d="M9292.929,3691.144s2.594-3.793,9.12-2.628" transform="translate(-9291.026 -3630.098)" fill="none" stroke="#aaf3dd" stroke-linecap="round" stroke-width="1"/>
        <path id="Path_1765" data-name="Path 1765" d="M9335.051,3615.156s8.739,4.514,11.312,18.191" transform="translate(-9312.912 -3592.05)" fill="none" stroke="#aaf3dd" stroke-linecap="round" stroke-width="1"/>
        <path id="Path_1766" data-name="Path 1766" d="M9343.793,3602.182s7.267-12.66,16.6-18.311" transform="translate(-9317.452 -3575.776)" fill="none" stroke="#aaf3dd" stroke-linecap="round" stroke-width="1"/>
        <path id="Path_1767" data-name="Path 1767" d="M9451.632,3632.663l1.025-1.937-8.1.349a2.538,2.538,0,0,0-2.144,1.333c-.6,1.3-2.2,5.18-2.2,5.18s-.927,1.936,1.719,1.556,7.354-.723,7.354-.723.273-.085.412-1.108l.056-.365s.141-.576-1.206-.472-4.828.472-4.828.472-1.215.316-.711-.7,1.138-2.386,1.138-2.386a1.638,1.638,0,0,1,1.486-.963C9446.756,3632.868,9451.632,3632.663,9451.632,3632.663Z" transform="translate(-9367.438 -3600.15)" fill="none" stroke="#aaf3dd" stroke-linecap="round" stroke-linejoin="round" stroke-width="1"/>
        <path id="Path_1768" data-name="Path 1768" d="M9467.181,3630.178h7.162s1.347-.128.783,1.073l-1.859,4.88a2.5,2.5,0,0,1-2.476,1.483l-6.416.164s-2.14.214-.965-2.22l1.785-3.821A2.028,2.028,0,0,1,9467.181,3630.178Z" transform="translate(-9379.383 -3599.864)" fill="none" stroke="#aaf3dd" stroke-linecap="round" stroke-linejoin="round" stroke-width="1"/>
        <path id="Path_1769" data-name="Path 1769" d="M9464.846,3630.176h3.11s.584-.061.341.512l-.81,2.329a1.1,1.1,0,0,1-1.074.708l-2.784.079s-.931.1-.421-1.059l.777-1.823S9464.146,3630.155,9464.846,3630.176Z" transform="translate(-9375.816 -3598.06)" fill="none" stroke="#aaf3dd" stroke-linecap="round" stroke-linejoin="round" stroke-width="1"/>
        <path id="Path_1770" data-name="Path 1770" d="M9486.822,3637.4h1.585s.8.071,1.181-1.1,1.1-3.563,1.1-3.563a.861.861,0,0,1,.966-.743c.894.025,2.393.057,2.393.057s.648-.037.367.966-1.225,3.575-1.225,3.575-.56,1.078.166,1.038,1.9,0,1.9,0,.615.02.784-.9l1.241-3.839.284-.894s.709-1.7-1.048-1.686h-6.845s-1.049-.089-1.352.747-1.934,5.246-1.934,5.246S9485.862,3637.359,9486.822,3637.4Z" transform="translate(-9391.421 -3599.93)" fill="none" stroke="#aaf3dd" stroke-linecap="round" stroke-linejoin="round" stroke-width="1"/>
        <path id="Path_1771" data-name="Path 1771" d="M9512.16,3630.377l2.534.283.363-1.1,2.575.316-.353,1.2,3.414.486-.254,1.836-3.974-.583-.648,2.358s-.491,1.072.648,1.1l1.849.1a.769.769,0,0,1,.824.988,1.137,1.137,0,0,1-1.348,1.06c-1.3-.108-4.3-.5-4.3-.5s-1.378-.176-.686-2.385l1.026-3.17-2.1-.212Z" transform="translate(-9404.662 -3599.543)" fill="none" stroke="#aaf3dd" stroke-linecap="round" stroke-linejoin="round" stroke-width="1"/>
        <path id="Path_1772" data-name="Path 1772" d="M9530.807,3635.259l-1.209,4.643s-.7,1.709.488,1.773l1.172.121s.581.163.863-1.616l1.076-4.465s.318-.7-.945-.887C9532.252,3634.828,9530.974,3634.46,9530.807,3635.259Z" transform="translate(-9413.829 -3602.24)" fill="none" stroke="#aaf3dd" stroke-linecap="round" stroke-linejoin="round" stroke-width="1"/>
        <g id="Path_1797" data-name="Path 1797" transform="translate(118.256 29.05) rotate(45)" fill="none" stroke-linecap="round">
          <path d="M1.679-.005c.928,0,1.68.449,1.68,1S2.605,2.006,1.677,2.007,0,1.558,0,1,.75,0,1.679-.005Z" stroke="none"/>
          <path d="M 1.681530714035034 -0.005262374877929688 C 2.608619689941406 -0.005262374877929688 3.359218597412109 0.44413161277771 3.358679294586182 0.9992790222167969 C 3.358138561248779 1.555521726608276 2.602948665618896 2.007099866867065 1.674007654190063 2.007100343704224 C 0.7469186782836914 2.007100343704224 -0.003680229187011719 1.557706356048584 -0.003140926361083984 1.002558946609497 C -0.002600431442260742 0.4463163614273071 0.7526521682739258 -0.005250930786132812 1.681530714035034 -0.005262374877929688 Z" stroke="none" fill="#aaf3dd"/>
        </g>
        <path id="Path_1773" data-name="Path 1773" d="M9394.219,3725.322s8.179,13.78,24.718,32.481c0,0,1.237,1.267.874,1.549s-.63.5-1.333-.306-19.142-22.633-25.094-33.024c0,0-.509-.824,0-1.106C9393.384,3724.916,9393.833,3724.534,9394.219,3725.322Z" transform="translate(-9343.084 -3649.101)" fill="none" stroke="#aaf3dd" stroke-linecap="round" stroke-linejoin="round" stroke-width="1"/>
        <path id="Path_1774" data-name="Path 1774" d="M9398.2,3717.583l3.684,5.143s.034.122,1.1-.493a.975.975,0,0,0,.434-1.6l-2.728-3.764a1.979,1.979,0,0,1,.589-2.319l2.139-1.356a1.483,1.483,0,0,1,2.3.26l2.936,4.132s1.222,2.16,0,3.047l-4.722,3.2s-1.565,1.513-2.654,0l-3.858-5.49s-.475-.464,0-.753C9397.425,3717.583,9397.615,3717.2,9398.2,3717.583Z" transform="translate(-9345.191 -3642.822)" fill="none" stroke="#aaf3dd" stroke-linecap="round" stroke-linejoin="round" stroke-width="1"/>
        <path id="Path_1775" data-name="Path 1775" d="M.988,4.831,4.673,9.974s.033.122,1.1-.492a.975.975,0,0,0,.434-1.6L3.482,4.114A1.978,1.978,0,0,1,4.071,1.8L6.209.439A1.483,1.483,0,0,1,8.51.7l2.937,4.132s1.221,2.161,0,3.047l-4.721,3.2s-1.565,1.513-2.654,0L.213,5.584s-.475-.465,0-.753C.213,4.831.4,4.449.988,4.831Z" transform="translate(61.865 84.166) rotate(-3)" fill="none" stroke="#aaf3dd" stroke-linecap="round" stroke-linejoin="round" stroke-width="1"/>
        <g id="Path_1798" data-name="Path 1798" transform="matrix(0.574, 0.819, -0.819, 0.574, 59.433, 71.108)" fill="none" stroke-linecap="round">
          <path d="M1.917-.006l1.92,0a1.922,1.922,0,0,1,0,3.843l-1.92,0a1.922,1.922,0,0,1,0-3.843Z" stroke="none"/>
          <path d="M 3.837832450866699 0.9925911426544189 L 1.917422294616699 0.9943411350250244 C 1.408902168273926 0.9948010444641113 0.9948124885559082 1.409471035003662 0.9943523406982422 1.918691158294678 C 0.9941225051879883 2.164531230926514 1.089402198791504 2.395461082458496 1.262632369995117 2.568961143493652 C 1.43568229675293 2.742261171340942 1.666012287139893 2.837711095809937 1.912092447280884 2.837711095809937 L 3.832502365112305 2.835961103439331 C 4.341022491455078 2.835501194000244 4.755112171173096 2.420831203460693 4.755572319030762 1.911611080169678 C 4.755802154541016 1.665771007537842 4.6605224609375 1.434841156005859 4.487292289733887 1.261341094970703 C 4.314242362976074 1.088041067123413 4.083912372589111 0.9925911426544189 3.838712215423584 0.9925911426544189 L 3.837832450866699 0.9925911426544189 M 3.838715791702271 -0.007409572601318359 C 4.898521423339844 -0.007409572601318359 5.756541728973389 0.8517842292785645 5.755572319030762 1.912521123886108 C 5.754602432250977 2.973831176757812 4.894022464752197 3.834991216659546 3.833412170410156 3.835961103439331 L 1.913002252578735 3.837711095809937 C 0.8529543876647949 3.83868145942688 -0.006617546081542969 2.979101181030273 -0.005647659301757812 1.917781114578247 C -0.004677772521972656 0.856471061706543 0.8559021949768066 -0.00468897819519043 1.916512250900269 -0.005658864974975586 L 3.836922168731689 -0.007408857345581055 C 3.837504863739014 -0.007409334182739258 3.838133335113525 -0.007409572601318359 3.838715791702271 -0.007409572601318359 Z" stroke="none" fill="#aaf3dd"/>
        </g>
        <g id="Path_1799" data-name="Path 1799" transform="translate(69.329 84.955) rotate(52)" fill="none" stroke-linecap="round">
          <path d="M1.917-.006l1.921,0a1.921,1.921,0,0,1,0,3.843l-1.921,0a1.921,1.921,0,0,1,0-3.843Z" stroke="none"/>
          <path d="M 3.838108062744141 0.9923539161682129 L 1.917517900466919 0.994163990020752 C 1.408857822418213 0.9946439266204834 0.9946479797363281 1.409263849258423 0.9941678047180176 1.918413877487183 C 0.9939379692077637 2.164154052734375 1.089188098907471 2.394993782043457 1.262377738952637 2.568423748016357 C 1.43543815612793 2.741714000701904 1.665827751159668 2.837153911590576 1.912008047103882 2.837153911590576 L 3.832597970962524 2.835343837738037 C 4.34125804901123 2.834863901138306 4.755467891693115 2.420243740081787 4.755948066711426 1.911093950271606 C 4.75617790222168 1.665354013442993 4.660927772521973 1.43450403213501 4.487737655639648 1.261083841323853 C 4.314687728881836 1.087793827056885 4.084307670593262 0.9923539161682129 3.839037895202637 0.9923539161682129 L 3.838108062744141 0.9923539161682129 M 3.839035511016846 -0.007647037506103516 C 4.898941516876221 -0.007647037506103516 5.75694751739502 0.8514068126678467 5.755948066711426 1.912033915519714 C 5.754948139190674 2.973243951797485 4.89425802230835 3.834343910217285 3.833538055419922 3.835343837738037 L 1.9129478931427 3.837153911590576 C 0.8518152236938477 3.838155031204224 -0.006832122802734375 2.978683948516846 -0.005832195281982422 1.917473912239075 C -0.004832267761230469 0.8562638759613037 0.8558578491210938 -0.004836082458496094 1.916578054428101 -0.005836009979248047 L 3.837167978286743 -0.007646083831787109 C 3.837750434875488 -0.007646560668945312 3.838453054428101 -0.007647037506103516 3.839035511016846 -0.007647037506103516 Z" stroke="none" fill="#aaf3dd"/>
        </g>
        <g id="Path_1800" data-name="Path 1800" transform="translate(79.525 96.35) rotate(51)" fill="none" stroke-linecap="round">
          <path d="M4.792-.015A4.8,4.8,0,1,1-.015,4.793,4.792,4.792,0,0,1,4.792-.015Z" stroke="none"/>
          <path d="M 4.792464256286621 0.9852924346923828 C 2.695184230804443 0.9872827529907227 0.9872941970825195 2.696042537689209 0.9853048324584961 4.794392585754395 C 0.9843339920043945 5.809493064880371 1.37823486328125 6.763472557067871 2.094424247741699 7.480612754821777 C 2.810474395751953 8.197592735290527 3.763404369354248 8.592453002929688 4.781424522399902 8.592453002929688 C 6.878704071044922 8.590462684631348 8.586594581604004 6.881702423095703 8.588583946228027 4.783352851867676 C 8.589554786682129 3.768252849578857 8.195653915405273 2.814262866973877 7.479464530944824 2.097132682800293 C 6.763424396514893 1.380152702331543 5.810484409332275 0.9852924346923828 4.796194553375244 0.9852924346923828 L 4.792464256286621 0.9852924346923828 M 4.79619312286377 -0.01470947265625 C 7.446052551269531 -0.01470947265625 9.591102600097656 2.132810115814209 9.588583946228027 4.784302711486816 C 9.586064338684082 7.43724250793457 7.434244155883789 9.589932441711426 4.782374382019043 9.592453002929688 C 2.130411624908447 9.594983100891113 -0.01721572875976562 7.446382522583008 -0.01469516754150391 4.793442726135254 C -0.01217555999755859 2.140492916107178 2.139644622802734 -0.01218700408935547 4.79151439666748 -0.01470756530761719 C 4.792971134185791 -0.01470851898193359 4.794736862182617 -0.01470947265625 4.79619312286377 -0.01470947265625 Z" stroke="none" fill="#aaf3dd"/>
        </g>
        <g id="Path_1801" data-name="Path 1801" transform="translate(80.291 98.81) rotate(51)" fill="none" stroke-linecap="round">
          <path d="M1.985-.006h.824A1.985,1.985,0,0,1,4.8,1.981l0,3.706A1.994,1.994,0,0,1,2.8,7.679H1.978A1.985,1.985,0,0,1-.01,5.692l0-3.706A1.994,1.994,0,0,1,1.985-.006Z" stroke="none"/>
          <path d="M 2.809389352798462 0.9931221008300781 L 1.985769271850586 0.9939122200012207 C 1.439379453659058 0.9944319725036621 0.994429349899292 1.439732074737549 0.9939093589782715 1.986572265625 L 0.990389347076416 5.692672252655029 C 0.9901394844055176 5.956632137298584 1.092469453811646 6.204602241516113 1.278539419174194 6.390912055969238 C 1.464489459991455 6.577102184295654 1.712039470672607 6.679642200469971 1.976549386978149 6.679642200469971 L 2.800159454345703 6.678852081298828 C 3.346559524536133 6.678332328796387 3.791509389877319 6.2330322265625 3.79202938079834 5.686192035675049 L 3.795549392700195 1.98009204864502 C 3.795799255371094 1.716132164001465 3.693469524383545 1.468162059783936 3.507399320602417 1.281852245330811 C 3.321449279785156 1.095662117004395 3.073899269104004 0.9931221008300781 2.810349464416504 0.9931221008300781 L 2.809389352798462 0.9931221008300781 M 2.810352802276611 -0.006878852844238281 C 3.908019781112671 -0.006878852844238281 4.7965989112854 0.8827056884765625 4.795549392700195 1.981051921844482 L 4.79202938079834 5.687142372131348 C 4.790979385375977 6.786092281341553 3.899619340896606 7.677812099456787 2.801109313964844 7.678852081298828 L 1.977509260177612 7.679642200469971 C 0.8797237873077393 7.680681705474854 -0.01066064834594727 6.790662288665771 -0.009610652923583984 5.691712379455566 L -0.006090641021728516 1.985621929168701 C -0.005040645599365234 0.8866720199584961 0.8863193988800049 -0.005047798156738281 1.984819412231445 -0.006087779998779297 L 2.80842924118042 -0.006877899169921875 C 2.809032917022705 -0.006878376007080078 2.809749603271484 -0.006878852844238281 2.810352802276611 -0.006878852844238281 Z" stroke="none" fill="#aaf3dd"/>
        </g>
        <path id="Path_1776" data-name="Path 1776" d="M9383.93,3731.216l3.321-2.366,2.032,2.642a1.341,1.341,0,0,1-.531,1.885,1.42,1.42,0,0,1-2.061-.163l-1.061-1.611-.94.705Z" transform="translate(-9338.295 -3651.194)" fill="none" stroke="#aaf3dd" stroke-linecap="round" stroke-linejoin="round" stroke-width="1"/>
        <g id="Path_1802" data-name="Path 1802" transform="translate(48.997 78.918) rotate(56)" fill="none" stroke-linecap="round">
          <path d="M.719,0h.96a.721.721,0,0,1,0,1.441H.717A.721.721,0,0,1,.719,0Z" stroke="none"/>
          <path d="M 1.679531812667847 -0.002961635589599609 C 2.076940298080444 -0.002961635589599609 2.398695945739746 0.3192572593688965 2.398346185684204 0.7170486450195312 C 2.397986173629761 1.11504864692688 2.075276136398315 1.437988638877869 1.677566170692444 1.438348650932312 L 0.7173862457275391 1.439218640327454 C 0.3195629119873047 1.439579010009766 -0.002443790435791016 1.117218613624573 -0.002093791961669922 0.7192085981369019 C -0.001733779907226562 0.3212085962295532 0.3209762573242188 -0.001731395721435547 0.7186862230300903 -0.002091407775878906 L 1.678866147994995 -0.002961397171020508 C 1.679084658622742 -0.002961635589599609 1.6793133020401 -0.002961635589599609 1.679531812667847 -0.002961635589599609 Z" stroke="none" fill="#aaf3dd"/>
        </g>
        <g id="Path_1803" data-name="Path 1803" transform="translate(52.362 83.543) rotate(56)" fill="none" stroke-linecap="round">
          <path d="M.719,0h1.44a.721.721,0,0,1,0,1.441H.717A.721.721,0,0,1,.719,0Z" stroke="none"/>
          <path d="M 2.159615039825439 -0.003388285636901855 C 2.557033538818359 -0.003388285636901855 2.878789186477661 0.318820595741272 2.878429412841797 0.7166120409965515 C 2.878069400787354 1.114621996879578 2.55536937713623 1.437561988830566 2.157649517059326 1.437911987304688 L 0.7173895835876465 1.439211964607239 C 0.3194816112518311 1.439571976661682 -0.002450227737426758 1.11722195148468 -0.0020904541015625 0.7192119956016541 C -0.001730442047119141 0.3212020397186279 0.3209695816040039 -0.00173795223236084 0.7186894416809082 -0.002087950706481934 L 2.158949375152588 -0.003387928009033203 C 2.159168004989624 -0.003388166427612305 2.159396648406982 -0.003388285636901855 2.159615039825439 -0.003388285636901855 Z" stroke="none" fill="#aaf3dd"/>
        </g>
        <path id="Path_1777" data-name="Path 1777" d="M9390.211,3741.456s3.086-2.9,4.16-1.637a17.789,17.789,0,0,1,1.64,2.227,1.023,1.023,0,0,1-.313,1.567c-1.021.772-2.433,1.884-2.433,1.884l-.906-1.133,1.132-.888-1.372-1.8-1.157.812Z" transform="translate(-9341.556 -3656.735)" fill="none" stroke="#aaf3dd" stroke-linecap="round" stroke-linejoin="round" stroke-width="1"/>
        <path id="Path_1778" data-name="Path 1778" d="M9397.748,3751.512l2.8,3.74.888-.723-2.1-2.559.755-.578,2.03,2.678.661-.53-1.983-2.587.551-.416,2,2.609.69-.5-2.922-3.65Z" transform="translate(-9345.469 -3661.675)" fill="none" stroke="#aaf3dd" stroke-linecap="round" stroke-linejoin="round" stroke-width="1"/>
        <path id="Path_1779" data-name="Path 1779" d="M9405.395,3761.316l3.426-2.538,1.209,1.613-1.4,2.753,3.393-.094,1.04,1.365-3.447,2.518-.9-1.179,1.953-1.339h-2.965l-.749-1.066,1.3-2.467-2.154,1.436Z" transform="translate(-9349.442 -3666.763)" fill="none" stroke="#aaf3dd" stroke-linecap="round" stroke-linejoin="round" stroke-width="1"/>
        <g id="Path_1804" data-name="Path 1804" transform="translate(60.636 101.363) rotate(-36)" fill="none" stroke-linecap="round">
          <path d="M.915.009l2.977,0a.913.913,0,1,1,0,1.826l-2.977,0a.913.913,0,1,1,0-1.826Z" stroke="none"/>
          <path d="M 0.9144413471221924 0.008858799934387207 C 0.9147493839263916 0.008858799934387207 0.915003776550293 0.008858919143676758 0.9153115749359131 0.008859157562255859 L 3.892561435699463 0.01160919666290283 C 4.397021770477295 0.01207923889160156 4.806341648101807 0.4211591482162476 4.806811809539795 0.9253091812133789 C 4.807271480560303 1.429469227790833 4.398708343505859 1.837788820266724 3.894251585006714 1.837319254875183 L 0.917001485824585 1.834569215774536 C 0.412541389465332 1.834099173545837 0.003221511840820312 1.425029277801514 0.002751350402832031 0.9208692312240601 C 0.002291679382324219 0.417016863822937 0.4104065895080566 0.008858799934387207 0.9144413471221924 0.008858799934387207 Z" stroke="none" fill="#aaf3dd"/>
        </g>
        <path id="Path_1780" data-name="Path 1780" d="M9422.909,3777.123l.817,1-1.793,1.271s-.771.338-.142,1.135l.78.968a.747.747,0,0,0,1.154,0c.7-.6,1.183-.968,1.183-.968a.569.569,0,0,1,.924,0s.617.5-.154,1.044l-1.8,1.292a1.413,1.413,0,0,1-2.088-.318l-1.606-2.132s-.766-.889.5-1.731S9422.752,3776.979,9422.909,3777.123Z" transform="translate(-9357.002 -3676.299)" fill="none" stroke="#aaf3dd" stroke-linecap="round" stroke-linejoin="round" stroke-width="1"/>
        <path id="Path_1781" data-name="Path 1781" d="M9428.435,3789.483c.41-.356,2.18-1.613,2.18-1.613a.681.681,0,0,1,1.06.077s1.037.859.481,1.536l-1.043,2.109,2.944-.2a1.015,1.015,0,0,1,.922.452s.558.553.205.892l-2.437,1.912a.7.7,0,0,1-1-.229.508.508,0,0,1,0-.81c.487-.377,1.634-1.087,1.634-1.087l-2.764.565-1.107-1.351,1.335-2.332-1.976,1.5-.57-.756S9428.026,3789.84,9428.435,3789.483Z" transform="translate(-9361.286 -3681.78)" fill="none" stroke="#aaf3dd" stroke-linecap="round" stroke-linejoin="round" stroke-width="1"/>
        <path id="Path_1782" data-name="Path 1782" d="M9316.229,3764.091a60.173,60.173,0,0,1,1.429-35.495l-.669-.263s-7.248,16.6-1.6,35.334Z" transform="translate(-9300.059 -3650.927)" fill="none" stroke="#aaf3dd" stroke-linecap="round" stroke-linejoin="round" stroke-width="1"/>
        <path id="Path_1783" data-name="Path 1783" d="M9310.652,3789.016s-1.3-5.843-1.105-6.331-4.975-3.8-4.975-3.8l.308,5.027,3.761,3.12-.251-4.014h.482l1.288,5.549Z" transform="translate(-9296.786 -3677.223)" fill="none" stroke="#aaf3dd" stroke-linecap="round" stroke-linejoin="round" stroke-width="1"/>
        <path id="Path_1784" data-name="Path 1784" d="M9306.314,3783.062l.228,2.422,1.567,1.321v-2.427Z" transform="translate(-9297.442 -3679.397)" fill="none" stroke="#aaf3dd" stroke-linecap="round" stroke-linejoin="round" stroke-width="1"/>
        <path id="Path_1785" data-name="Path 1785" d="M9308.2,3760.919s-.138-4.094,0-7.02l-4.746-3.285s-1.729,4.011-.665,6.491l3.115,2.237v-5.865l1.423,1.176v5.678Z" transform="translate(-9295.979 -3662.517)" fill="none" stroke="#aaf3dd" stroke-linecap="round" stroke-linejoin="round" stroke-width="1"/>
        <path id="Path_1786" data-name="Path 1786" d="M9305.639,3754.505l-1.162-.764s-.975,3.048-.229,4.27l1.146.851Z" transform="translate(-9296.559 -3664.144)" fill="none" stroke="#aaf3dd" stroke-linecap="round" stroke-linejoin="round" stroke-width="1"/>
        <path id="Path_1787" data-name="Path 1787" d="M9310.449,3730.327a71.184,71.184,0,0,1,2.463-7.287l-5.013-3.252s-2.907,4.69-1.771,7.4A37.4,37.4,0,0,0,9310.449,3730.327Z" transform="translate(-9297.271 -3646.481)" fill="none" stroke="#aaf3dd" stroke-linecap="round" stroke-linejoin="round" stroke-width="1"/>
        <path id="Path_1788" data-name="Path 1788" d="M9308.539,3726.5a47.984,47.984,0,0,1,1.441-4.637l-2.93-2.071s-1.7,2.985-1.031,4.708A21.963,21.963,0,0,0,9308.539,3726.5Z" transform="translate(-9296.01 -3644.723)" fill="none" stroke="#aaf3dd" stroke-linecap="round" stroke-linejoin="round" stroke-width="1"/>
        <path id="Path_1789" data-name="Path 1789" d="M9319.045,3799.474s-.624-2.64-.4-2.64a19.055,19.055,0,0,1,2.169,1.311l.151,1.509,1.147.6-.514.865Z" transform="translate(-9302.082 -3686.561)" fill="none" stroke="#aaf3dd" stroke-linecap="round" stroke-linejoin="round" stroke-width="1"/>
        <path id="Path_1790" data-name="Path 1790" d="M9317.662,3790.019c.342.221,2.867,1.554,2.867,1.554v-.868l-1.4-.731v-1.287l1.4.346v-.787l-3.331-1.523S9317.317,3789.8,9317.662,3790.019Z" transform="translate(-9301.556 -3681.301)" fill="none" stroke="#aaf3dd" stroke-linecap="round" stroke-linejoin="round" stroke-width="1"/>
        <path id="Path_1791" data-name="Path 1791" d="M9316.809,3780.743l3.531,1.426.213-3.26-.7-.19-.193,2.221-.817-.345.257-2.054-.727-.2-.267,1.987-.64-.2.147-1.987-1-.407Z" transform="translate(-9301.335 -3676.626)" fill="none" stroke="#aaf3dd" stroke-linecap="round" stroke-linejoin="round" stroke-width="1"/>
        <path id="Path_1792" data-name="Path 1792" d="M9316.787,3768.207l3.766,1.471v-.728l-2.99-1.3v-.356h2.151V3766.2l-1.923-1.778.1-.323,2.866,1.4v-1.081l-3.966-1.947v2.166l1.984,1.74v.154h-1.984Z" transform="translate(-9301.399 -3668.688)" fill="none" stroke="#aaf3dd" stroke-linecap="round" stroke-linejoin="round" stroke-width="1"/>
        <path id="Path_1793" data-name="Path 1793" d="M9317.062,3758.612l3.928,2.087v-1.259l-3.8-1.917Z" transform="translate(-9301.503 -3666.111)" fill="none" stroke="#aaf3dd" stroke-linecap="round" stroke-linejoin="round" stroke-width="1"/>
        <path id="Path_1794" data-name="Path 1794" d="M9317.627,3750.841l3.677,1.785.132-4.211-3.2-1.711-.162,1.076,2.237,1.129-.081,2.138-2.472-1.239Z" transform="translate(-9301.717 -3660.483)" fill="none" stroke="#aaf3dd" stroke-linecap="round" stroke-linejoin="round" stroke-width="1"/>
        <path id="Path_1795" data-name="Path 1795" d="M9319.19,3737.378l3.207,1.7.2-1.1-1.537-.991,2.223-.384.268-1.142-1.41-1.861,1.864.524.289-.95-3.569-1.738-.672,1.819,2.088,2.308-2.743.212Z" transform="translate(-9302.309 -3652.541)" fill="none" stroke="#aaf3dd" stroke-linecap="round" stroke-linejoin="round" stroke-width="1"/>
        <path id="Path_1796" data-name="Path 1796" d="M9296.315,3773.938" transform="translate(-9292.8 -3674.65)" fill="none" stroke="#aaf3dd" stroke-linecap="round" stroke-width="1"/>
      </g>
    </g>
  </g>
</svg>
