<svg xmlns="http://www.w3.org/2000/svg" width="496.282" height="187.045" viewBox="0 0 496.282 187.045">
  <g id="about_title_certificate" transform="translate(-1280.312 -1518.646)">
    <g id="Group_161" data-name="Group 161" transform="translate(1280.326 1519.185)">
      <path id="Path_520" data-name="Path 520" d="M0,0H496V186H0Z" fill="#fffdf7"/>
    </g>
    <g id="Group_284" data-name="Group 284" transform="translate(1347 1528.759)" opacity="0.597">
      <path id="Path_1629" data-name="Path 1629" d="M9731.671,1566.9l69.578,26.058,87.843-44.091-74.956-19.106Z" transform="translate(-9616.03 -1529.759)" fill="#3db5c7"/>
      <circle id="Ellipse_224" data-name="Ellipse 224" cx="21.5" cy="21.5" r="21.5" transform="translate(0 70.227)" fill="#3db5c7"/>
      <path id="Path_1630" data-name="Path 1630" d="M9940.025,1698.2l-32.859-52.7,100.941-60.4,43.867,68.87v44.126Z" transform="translate(-9623.072 -1521.928)" fill="#3db5c7"/>
    </g>
    <g id="Group_285" data-name="Group 285" transform="translate(1281.572 1519.991)">
      <g id="Group_156" data-name="Group 156" transform="translate(145.452 10.099)">
        <path id="Path_434" data-name="Path 434" d="M9705.434,2435.511h.366l69.339,24.449s5.553,3.674,14.115,0l75.959-38.355s4.959-5.075-4.1-5.928l-31.96-9.091-37.794-8.79-82.851,35.767-1.134.577-1.944.99" transform="translate(-9695.865 -2397.796)" fill="none" stroke="#4f5052" stroke-linecap="round" stroke-linejoin="round" stroke-width="2"/>
        <path id="Path_436" data-name="Path 436" d="M9866.419,2419.879l-1.5,6.289-73.051,37.16a23.147,23.147,0,0,1-17.766,0l-70.726-23.524" transform="translate(-9695.865 -2397.796)" fill="none" stroke="#4f5052" stroke-linecap="round" stroke-linejoin="round" stroke-width="2"/>
        <path id="Path_437" data-name="Path 437" d="M9859.7,2429.173s-3.219,8.623,1.82,11.528l-79.5,42.084-79.893-28.343" transform="translate(-9695.865 -2397.803)" fill="none" stroke="#4f5052" stroke-linecap="round" stroke-linejoin="round" stroke-width="2"/>
        <path id="Path_438" data-name="Path 438" d="M9708.5,2442.087s-8.231,3.413-1.712,13.735" transform="translate(-9695.865 -2397.804)" fill="none" stroke="#4f5052" stroke-linecap="round" stroke-width="2"/>
        <path id="Path_439" data-name="Path 439" d="M9859.247,2435.343s12.119,3.814,5.949,7.35l-78.13,43.805s-3.069,3.273-11.149,0l-70.419-24.684s-11.569-1.978-9.35-16.95c0,0,1.027-6,9.35-9.521" transform="translate(-9695.865 -2397.805)" fill="none" stroke="#4f5052" stroke-linecap="round" stroke-linejoin="round" stroke-width="2"/>
        <path id="Path_440" data-name="Path 440" d="M9781.406,2465.089s-6.878,8.612,0,17.118" transform="translate(-9695.865 -2397.808)" fill="none" stroke="#4f5052" stroke-linecap="round" stroke-width="2"/>
        <path id="Path_441" data-name="Path 441" d="M9848.054,2452.687l8.249,3.467a43.637,43.637,0,0,1,1.093,16.114l-97.036,40.221-58.39-28.145s-.378-3.037,5.6-4.466" transform="translate(-9695.865 -2397.81)" fill="none" stroke="#4f5052" stroke-linecap="round" stroke-linejoin="round" stroke-width="2"/>
        <path id="Path_442" data-name="Path 442" d="M9710.567,2446.558l22.841,8.151" transform="translate(-9695.865 -2397.804)" fill="none" stroke="#4f5052" stroke-linecap="round" stroke-width="2"/>
        <path id="Path_445" data-name="Path 445" d="M9710.567,2446.558l22.841,8.151" transform="translate(-9692.865 -2392.687)" fill="none" stroke="#4f5052" stroke-linecap="round" stroke-width="2"/>
        <path id="Path_446" data-name="Path 446" d="M9710.567,2446.558l33.666,12.059" transform="translate(-9666.865 -2381.689)" fill="none" stroke="#4f5052" stroke-linecap="round" stroke-width="2"/>
        <path id="Path_444" data-name="Path 444" d="M0,0,19.4,6.25" transform="matrix(0.999, 0.035, -0.035, 0.999, 53.817, 63.504)" fill="none" stroke="#4f5052" stroke-linecap="round" stroke-width="2"/>
        <path id="Path_447" data-name="Path 447" d="M9781.406,2476.414l19.817-9.708" transform="translate(-9695.865 -2397.808)" fill="none" stroke="#4f5052" stroke-linecap="round" stroke-width="2"/>
        <path id="Path_448" data-name="Path 448" d="M9804.81,2462.677l36.918-18.888" transform="translate(-9695.865 -2397.804)" fill="none" stroke="#4f5052" stroke-linecap="round" stroke-width="2"/>
        <path id="Path_449" data-name="Path 449" d="M9846.768,2443.789l9.258-4.629" transform="translate(-9695.865 -2397.803)" fill="none" stroke="#4f5052" stroke-linecap="round" stroke-width="2"/>
        <path id="Path_450" data-name="Path 450" d="M9846.768,2445.19l11.939-6.031" transform="translate(-9698.547 -2402.432)" fill="none" stroke="#4f5052" stroke-linecap="round" stroke-width="2"/>
        <path id="Path_451" data-name="Path 451" d="M9710.567,2463.781l-4.28,1.631s-2.607,1.94,1.2,3.639l51.692,21.469s12.069,6.819,1.019,21.646" transform="translate(-9695.865 -2397.811)" fill="none" stroke="#4f5052" stroke-linecap="round" stroke-linejoin="round" stroke-width="2"/>
        <path id="Path_452" data-name="Path 452" d="M9708.112,2469.761v13.473l54.042,25.081" transform="translate(-9695.865 -2397.811)" fill="none" stroke="#4f5052" stroke-linecap="round" stroke-linejoin="round" stroke-width="2"/>
        <path id="Path_453" data-name="Path 453" d="M9761.478,2492.106l16.157-4.9" transform="translate(-9695.865 -2397.811)" fill="none" stroke="#4f5052" stroke-linecap="round" stroke-width="2"/>
        <path id="Path_454" data-name="Path 454" d="M9805.595,2476.386l50.758-19.812" transform="translate(-9695.865 -2397.807)" fill="none" stroke="#4f5052" stroke-linecap="round" stroke-width="2"/>
        <path id="Path_455" data-name="Path 455" d="M9766.842,2500.258" transform="translate(-9695.865 -2397.813)" fill="none" stroke="#4f5052" stroke-linecap="round" stroke-width="2"/>
        <path id="Path_456" data-name="Path 456" d="M9710.567,2474.736l10.646,5.114" transform="translate(-9695.865 -2397.809)" fill="none" stroke="#4f5052" stroke-linecap="round" stroke-width="2"/>
        <path id="Path_457" data-name="Path 457" d="M9710.567,2478.621l27.726,12.986" transform="translate(-9695.865 -2397.81)" fill="none" stroke="#4f5052" stroke-linecap="round" stroke-width="2"/>
        <path id="Path_458" data-name="Path 458" d="M9730.76,2484.112l13.871,6.383" transform="translate(-9695.865 -2397.811)" fill="none" stroke="#4f5052" stroke-linecap="round" stroke-width="2"/>
        <path id="Path_459" data-name="Path 459" d="M9747.229,2492.43l17.081,8.2" transform="translate(-9695.865 -2397.812)" fill="none" stroke="#4f5052" stroke-linecap="round" stroke-width="2"/>
        <path id="Path_461" data-name="Path 461" d="M9707.25,2487.3s-6.615,2.089-7.843,4.547c0,0-6.129,8.963,1.728,19.56l81.873,30.463L9829.1,2517" transform="translate(-9695.865 -2397.823)" fill="none" stroke="#4f5052" stroke-linecap="round" stroke-linejoin="round" stroke-width="2"/>
        <path id="Path_462" data-name="Path 462" d="M9703.379,2492.43l37.968,10.939" transform="translate(-9695.865 -2397.813)" fill="none" stroke="#4f5052" stroke-linecap="round" stroke-width="2"/>
        <path id="Path_463" data-name="Path 463" d="M9708.112,2494.15s-8.962,6.163.67,15.181l73.9,27.346,63.543-35.526" transform="translate(-9695.865 -2397.817)" fill="none" stroke="#4f5052" stroke-linecap="round" stroke-linejoin="round" stroke-width="2"/>
        <path id="Path_464" data-name="Path 464" d="M9765.631,2510.5l12.041,4.561s6.6,2.739,13.768-2.85l73.736-36.9s4.284-3.4,0-5.562c0,0-6.272-2.909-7.173-2.829" transform="translate(-9695.865 -2397.812)" fill="none" stroke="#4f5052" stroke-linecap="round" stroke-linejoin="round" stroke-width="2"/>
        <path id="Path_465" data-name="Path 465" d="M9782.542,2516.138s-6.217,11.362,0,19.069" transform="translate(-9695.865 -2397.818)" fill="none" stroke="#4f5052" stroke-linecap="round" stroke-linejoin="round" stroke-width="2"/>
        <path id="Path_467" data-name="Path 467" d="M9704.721,2499.371l24.65,7.847" transform="translate(-9695.865 -2397.813)" fill="none" stroke="#4f5052" stroke-linecap="round" stroke-width="2"/>
        <path id="Path_468" data-name="Path 468" d="M9737.7,2509.437l35.007,11.916" transform="translate(-9695.865 -2397.816)" fill="none" stroke="#4f5052" stroke-linecap="round" stroke-width="2"/>
        <path id="Path_469" data-name="Path 469" d="M9713.567,2507.218l30.71,10.186" transform="translate(-9695.865 -2397.815)" fill="none" stroke="#4f5052" stroke-linecap="round" stroke-width="2"/>
        <path id="Path_470" data-name="Path 470" d="M9748.5,2518.566l25.935,9.26" transform="translate(-9695.865 -2397.817)" fill="none" stroke="#4f5052" stroke-linecap="round" stroke-width="2"/>
        <path id="Path_471" data-name="Path 471" d="M9780.933,2522.307l30.521-14.694" transform="translate(-9695.765 -2397.816)" fill="none" stroke="#4f5052" stroke-linecap="round" stroke-width="2"/>
        <path id="Path_472" data-name="Path 472" d="M9836.647,2494.15l22.211-11.45" transform="translate(-9695.865 -2397.811)" fill="none" stroke="#4f5052" stroke-linecap="round" stroke-width="2"/>
        <path id="Path_473" data-name="Path 473" d="M9779.878,2528.466l15.923-7.884" transform="translate(-9695.865 -2397.817)" fill="none" stroke="#4f5052" stroke-linecap="round" stroke-width="2"/>
        <path id="Path_474" data-name="Path 474" d="M9800.219,2519.2l26.706-13.056" transform="translate(-9695.865 -2397.815)" fill="none" stroke="#4f5052" stroke-linecap="round" stroke-width="2"/>
        <path id="Path_475" data-name="Path 475" d="M9821.192,2504.943l23.343-11.44" transform="translate(-9695.865 -2397.813)" fill="none" stroke="#4f5052" stroke-linecap="round" stroke-width="2"/>
        <path id="Path_476" data-name="Path 476" d="M9860.424,2477.779a13.525,13.525,0,0,0-1.316,10.208" transform="translate(-9695.865 -2397.81)" fill="none" stroke="#4f5052" stroke-linecap="round" stroke-width="2"/>
        <path id="Path_477" data-name="Path 477" d="M9853.9,2492.43s.142-4.247,7.98-2.96c0,0,20.024,2.6,15.689,20.357,0,0-.927-17.725-22.76-17.4Z" transform="translate(-9695.865 -2397.813)" fill="none" stroke="#4f5052" stroke-linecap="round" stroke-linejoin="round" stroke-width="2"/>
        <path id="Path_478" data-name="Path 478" d="M9878.187,2509.437a6.552,6.552,0,0,1,7.116-1.024s3.525,3.558-.878,5.355c0,0-2.68-3.589-6.238-3.589" transform="translate(-9695.865 -2397.814)" fill="none" stroke="#4f5052" stroke-linecap="round" stroke-linejoin="round" stroke-width="2"/>
        <path id="Path_479" data-name="Path 479" d="M9877.011,2509.437s-2.069,5.336-1.324,7.467c0,0,.395,3.213,3.127,3.537,0,0,4.548,2.061,1.764-3.537S9877.011,2509.437,9877.011,2509.437Z" transform="translate(-9695.865 -2397.815)" fill="none" stroke="#4f5052" stroke-linecap="round" stroke-linejoin="round" stroke-width="2"/>
        <path id="Path_480" data-name="Path 480" d="M9858.636,2489.111l20.765-29.324s1.711-6.54,9.781-5.547c0,0,16.888,4.144,14.878,18.119,0,0-.727,2.937-2.817,4.019,0,0-20.714,20.362-23.33,30.937" transform="translate(-9695.865 -2397.81)" fill="none" stroke="#4f5052" stroke-linecap="round" stroke-linejoin="round" stroke-width="2"/>
        <path id="Path_481" data-name="Path 481" d="M9876.754,2507.315s-15.757,30.928-19.834,44.455" transform="translate(-9695.865 -2397.823)" fill="none" stroke="#4f5052" stroke-linecap="round" stroke-width="2"/>
        <path id="Path_482" data-name="Path 482" d="M9854.8,2493.5s-34.651,31.426-37.965,34.916" transform="translate(-9695.865 -2397.816)" fill="none" stroke="#4f5052" stroke-linecap="round" stroke-width="2"/>
        <path id="Path_483" data-name="Path 483" d="M9831.91,2558.532s8.461,6.788,19.983,1.4c0,0,10.708-4.693.566-17.495,0,0-15.081-19.592-35.487-13.932,0,0-10.987,17.844,11.757,28.9,0,0,22.147,7.681,26.748-8.84" transform="translate(-9695.986 -2397.823)" fill="none" stroke="#4f5052" stroke-linecap="round" stroke-linejoin="round" stroke-width="2"/>
        <path id="Path_484" data-name="Path 484" d="M9828.028,2527.988s-2,4.824-3.78,5.375,26.792-4.842,25.205,22.958" transform="translate(-9695.865 -2397.823)" fill="none" stroke="#4f5052" stroke-linecap="round" stroke-linejoin="round" stroke-width="2"/>
      </g>
      <g id="Group_157" data-name="Group 157" transform="translate(350.777 49.657)">
        <path id="Path_485" data-name="Path 485" d="M9903.61,2527.213l-41.313-67.182,110.418-66.891,32.442,49.9" transform="translate(-9862.297 -2393.14)" fill="none" stroke="#4f5052" stroke-linecap="round" stroke-linejoin="round" stroke-width="2"/>
        <path id="Path_486" data-name="Path 486" d="M9901.618,2495.128,9991.21,2440" transform="translate(-9871.735 -2404.388)" fill="none" stroke="#4f5052" stroke-linecap="round" stroke-width="2"/>
        <path id="Path_487" data-name="Path 487" d="M9901.618,2495.128,9991.21,2440" transform="translate(-9867.176 -2397.676)" fill="none" stroke="#4f5052" stroke-linecap="round" stroke-width="2"/>
        <path id="Path_488" data-name="Path 488" d="M9901.618,2495.128,9991.21,2440" transform="translate(-9863.376 -2390.836)" fill="none" stroke="#4f5052" stroke-linecap="round" stroke-width="2"/>
        <path id="Path_489" data-name="Path 489" d="M9901.618,2495.128,9991.21,2440" transform="translate(-9858.816 -2383.237)" fill="none" stroke="#4f5052" stroke-linecap="round" stroke-width="2"/>
        <path id="Path_490" data-name="Path 490" d="M9901.618,2495.128,9991.21,2440" transform="translate(-9855.017 -2375.359)" fill="none" stroke="#4f5052" stroke-linecap="round" stroke-width="2"/>
        <path id="Path_491" data-name="Path 491" d="M9901.618,2495.128,9991.21,2440" transform="translate(-9850.167 -2370.111)" fill="none" stroke="#4f5052" stroke-linecap="round" stroke-width="2"/>
        <path id="Path_492" data-name="Path 492" d="M9901.618,2493.208l85.69-53.209" transform="translate(-9844.449 -2360.922)" fill="none" stroke="#4f5052" stroke-linecap="round" stroke-width="2"/>
        <path id="Path_493" data-name="Path 493" d="M9901.618,2484.886,9974.579,2440" transform="translate(-9831.719 -2350.8)" fill="none" stroke="#4f5052" stroke-linecap="round" stroke-width="2"/>
        <path id="Path_494" data-name="Path 494" d="M9901.619,2475.78,9959.55,2440" transform="translate(-9816.689 -2341.694)" fill="none" stroke="#4f5052" stroke-linecap="round" stroke-width="2"/>
        <path id="Path_495" data-name="Path 495" d="M9901.618,2466.324,9944.463,2440" transform="translate(-9801.604 -2332.237)" fill="none" stroke="#4f5052" stroke-linecap="round" stroke-width="2"/>
        <path id="Path_496" data-name="Path 496" d="M9901.618,2456.467l27.5-16.468" transform="translate(-9786.258 -2322.381)" fill="none" stroke="#4f5052" stroke-linecap="round" stroke-width="2"/>
        <path id="Path_497" data-name="Path 497" d="M9901.618,2448.19l13-8.191" transform="translate(-9771.764 -2313.527)" fill="none" stroke="#4f5052" stroke-linecap="round" stroke-width="2"/>
      </g>
      <g id="Group_159" data-name="Group 159">
        <path id="Path_498" data-name="Path 498" d="M9556.729,2418.029c18.638-6.283,73.148-24.573,73.148-24.573s1.4-4.715,0-7.465" transform="translate(-9556.572 -2385.991)" fill="none" stroke="#4f5052" stroke-linecap="round" stroke-linejoin="round" stroke-width="2"/>
        <path id="Path_499" data-name="Path 499" d="M9556.572,2397.674l33.8-11.056" transform="translate(-9556.572 -2385.991)" fill="none" stroke="#4f5052" stroke-linecap="round" stroke-width="2"/>
        <path id="Path_500" data-name="Path 500" d="M9556.823,2476.336s35.493,31.93,37.167,56.34c0,0-4.151,15.235-18.172,9.694a16.125,16.125,0,0,1-10.276-13.674l24.669-9.213" transform="translate(-9556.572 -2386.018)" fill="none" stroke="#4f5052" stroke-linecap="round" stroke-linejoin="round" stroke-width="2"/>
        <path id="Path_501" data-name="Path 501" d="M9619.128,2397.912s-.5,16.912,19.685,33.436,35.417,34.043,39.843,42.848,4.4,21.841-5.226,25.508" transform="translate(-9556.572 -2385.991)" fill="none" stroke="#4f5052" stroke-linecap="round" stroke-linejoin="round" stroke-width="2"/>
        <path id="Path_502" data-name="Path 502" d="M9587.346,2542.4s52.233-21.743,64.839-29.458" transform="translate(-9556.572 -2386.018)" fill="none" stroke="#4f5052" stroke-linecap="round" stroke-width="2"/>
        <g id="Group_158" data-name="Group 158" transform="translate(74.733 77.119)">
          <path id="Path_509" data-name="Path 509" d="M10053.507,2807.21s7.327.6,12.141-5.172a16.45,16.45,0,0,0,13.646,2.572s2.811,7.337,9.483,10.077c0,0-2.691,6.031,1.651,13.96,0,0-6.7,3.192-6.08,11.956,0,0-8.743-1.277-12.423,5.549,0,0-6.833-6.026-13.981-2.14,0,0-.674-7.328-9.4-11.052,0,0,2.962-5.013-1.314-13.941A12.351,12.351,0,0,0,10053.507,2807.21Z" transform="translate(-10047.227 -2802.038)" fill="none" stroke="#4f5052" stroke-linecap="round" stroke-linejoin="round" stroke-width="2"/>
          <path id="Path_510" data-name="Path 510" d="M10052.259,2806.182a12.309,12.309,0,0,0,9.728-4.144,13.181,13.181,0,0,0,10.934,2.061s2.252,5.879,7.6,8.074c0,0-2.157,4.832,1.323,11.186a9.688,9.688,0,0,0-4.872,9.58s-7.006-1.023-9.954,4.446c0,0-5.476-4.829-11.2-1.715,0,0-.54-5.872-7.533-8.856,0,0,2.373-4.017-1.054-11.17A9.9,9.9,0,0,0,10052.259,2806.182Z" transform="translate(-10042.935 -2797.655)" fill="none" stroke="#4f5052" stroke-linecap="round" stroke-linejoin="round" stroke-width="2"/>
          <path id="Path_511" data-name="Path 511" d="M10049.764,2804.127a6.206,6.206,0,0,0,4.9-2.089,6.647,6.647,0,0,0,5.514,1.039,7.838,7.838,0,0,0,3.831,4.071,6.676,6.676,0,0,0,.667,5.64,4.885,4.885,0,0,0-2.456,4.83s-3.532-.516-5.02,2.242c0,0-2.76-2.435-5.648-.865a5.866,5.866,0,0,0-3.8-4.465s1.2-2.026-.531-5.632A4.987,4.987,0,0,0,10049.764,2804.127Z" transform="translate(-10034.353 -2788.892)" fill="none" stroke="#4f5052" stroke-linecap="round" stroke-linejoin="round" stroke-width="2"/>
          <path id="Path_512" data-name="Path 512" d="M10089.545,2839.8l17.231,16.481h-10.169l-.611,10.055-16.229-18.883" transform="translate(-10051.278 -2806.74)" fill="none" stroke="#4f5052" stroke-linecap="round" stroke-linejoin="round" stroke-width="2"/>
          <path id="Path_513" data-name="Path 513" d="M10070.458,2850.407l4.578,22.183,6.009-7.363,8.829,5.368-3.259-12.253" transform="translate(-10050.118 -2808.06)" fill="none" stroke="#4f5052" stroke-linecap="round" stroke-linejoin="round" stroke-width="2"/>
          <path id="Path_514" data-name="Path 514" d="M10073.468,2851.341l4.028,18.548" transform="translate(-10050.493 -2808.176)" fill="none" stroke="#4f5052" stroke-width="2"/>
          <path id="Path_515" data-name="Path 515" d="M10088.486,2869.9l-3.8-14.476" transform="translate(-10051.891 -2809.273)" fill="none" stroke="#4f5052" stroke-linecap="round" stroke-width="2"/>
          <path id="Path_516" data-name="Path 516" d="M10081.867,2847.417l13.309,15.656" transform="translate(-10050.664 -2807.687)" fill="none" stroke="#4f5052" stroke-linecap="round" stroke-width="2"/>
          <path id="Path_517" data-name="Path 517" d="M10089.988,2842.625l14.322,13.895" transform="translate(-10052.55 -2807.091)" fill="none" stroke="#4f5052" stroke-linecap="round" stroke-width="2"/>
        </g>
      </g>
    </g>
  </g>
</svg>
