<svg xmlns="http://www.w3.org/2000/svg" width="42.887" height="31.435" viewBox="0 0 42.887 31.435">
  <g id="about_phase_icon" transform="translate(-5125.5 500.5)">
    <g id="mic_2" transform="translate(5130.114 -486.492)">
      <path id="Ellipse_8" data-name="Ellipse 8" d="M4.6,1.207c-.754,0-1.552.673-2.19,1.848a9.421,9.421,0,0,0-.87,2.384,13.528,13.528,0,0,0-.331,3.024,13.528,13.528,0,0,0,.331,3.024,9.421,9.421,0,0,0,.87,2.384c.638,1.174,1.436,1.848,2.19,1.848s1.552-.673,2.19-1.848a9.421,9.421,0,0,0,.87-2.384,13.528,13.528,0,0,0,.331-3.024,13.528,13.528,0,0,0-.331-3.024,9.421,9.421,0,0,0-.87-2.384C6.15,1.881,5.352,1.207,4.6,1.207M4.6,0C7.137,0,9.2,3.789,9.2,8.463s-2.059,8.463-4.6,8.463S0,13.137,0,8.463,2.059,0,4.6,0Z" transform="translate(28.577 0)" fill="#333" stroke="#333" stroke-linecap="round" stroke-linejoin="round" stroke-width="1"/>
      <path id="Path_15" data-name="Path 15" d="M-1169.821,785.077a.6.6,0,0,1-.143-.017l-31.786-7.718a.6.6,0,0,1-.461-.587.6.6,0,0,1,.462-.586l31.786-7.653a.6.6,0,0,1,.728.446.6.6,0,0,1-.446.728l-29.358,7.068,29.359,7.129a.6.6,0,0,1,.444.729A.6.6,0,0,1-1169.821,785.077Z" transform="translate(1202.211 -768.316)" fill="#333" stroke="#333" stroke-linecap="round" stroke-linejoin="round" stroke-width="1"/>
    </g>
    <g id="mic_1" transform="translate(5126 -500)">
      <path id="Ellipse_8-2" data-name="Ellipse 8" d="M4.6,1.207c-.754,0-1.552.673-2.19,1.848a9.421,9.421,0,0,0-.87,2.384,13.528,13.528,0,0,0-.331,3.024,13.528,13.528,0,0,0,.331,3.024,9.421,9.421,0,0,0,.87,2.384c.638,1.174,1.436,1.848,2.19,1.848s1.552-.673,2.19-1.848a9.421,9.421,0,0,0,.87-2.384,13.528,13.528,0,0,0,.331-3.024,13.528,13.528,0,0,0-.331-3.024,9.421,9.421,0,0,0-.87-2.384C6.15,1.881,5.352,1.207,4.6,1.207M4.6,0C7.137,0,9.2,3.789,9.2,8.463s-2.059,8.463-4.6,8.463S0,13.137,0,8.463,2.059,0,4.6,0Z" transform="translate(0 0)" fill="#333" stroke="#333" stroke-linecap="round" stroke-linejoin="round" stroke-width="1"/>
      <path id="Path_15-2" data-name="Path 15" d="M-1201.608,785.122a.6.6,0,0,1-.586-.461.6.6,0,0,1,.444-.729l29.356-7.151-29.354-7.09a.6.6,0,0,1-.445-.729.6.6,0,0,1,.729-.445l31.774,7.675a.6.6,0,0,1,.462.586.6.6,0,0,1-.461.587l-31.774,7.74A.607.607,0,0,1-1201.608,785.122Z" transform="translate(1207.004 -768.328)" fill="#333" stroke="#333" stroke-linecap="round" stroke-linejoin="round" stroke-width="1"/>
    </g>
  </g>
</svg>
