<svg xmlns="http://www.w3.org/2000/svg" width="121.289" height="117.906" viewBox="0 0 121.289 117.906">
  <g id="contact_icon_phone" transform="translate(-234 -12234.764)">
    <ellipse id="Ellipse_235" data-name="Ellipse 235" cx="52.335" cy="52.335" rx="52.335" ry="52.335" transform="translate(234 12248)" fill="#6e9ec6"/>
    <g id="Group_390" data-name="Group 390" transform="translate(-9400.349 -1581.463)">
      <g id="Ellipse_245" data-name="Ellipse 245" transform="translate(9687.894 13828.186)" fill="none" stroke="#4f5052" stroke-linecap="round" stroke-linejoin="round" stroke-width="4">
        <ellipse cx="14.49" cy="14.297" rx="14.49" ry="14.297" stroke="none"/>
        <ellipse cx="14.49" cy="14.297" rx="12.49" ry="12.297" fill="none"/>
      </g>
      <g id="Ellipse_244" data-name="Ellipse 244" transform="translate(9696.78 13835.527)" fill="none" stroke="#4f5052" stroke-linecap="round" stroke-linejoin="round" stroke-width="4">
        <circle cx="5.603" cy="5.603" r="5.603" stroke="none"/>
        <circle cx="5.603" cy="5.603" r="3.603" fill="none"/>
      </g>
      <path id="Path_1743" data-name="Path 1743" d="M9828.054,14013.039s2.577-5.447,7.806-5.207,7.7,5.457,7.7,5.457" transform="translate(-133.69 -161.12)" fill="none" stroke="#4f5052" stroke-linecap="round" stroke-linejoin="round" stroke-width="4"/>
      <path id="Path_1744" data-name="Path 1744" d="M9796.149,14132.153h26.795" transform="translate(-110.059 -265.962)" fill="none" stroke="#4f5052" stroke-linecap="round" stroke-width="4"/>
      <path id="Path_1745" data-name="Path 1745" d="M9796.149,14132.153h26.795" transform="translate(-110.059 -255.952)" fill="none" stroke="#4f5052" stroke-linecap="round" stroke-width="4"/>
      <path id="Path_1746" data-name="Path 1746" d="M9796.149,14132.153h26.795" transform="translate(-110.059 -245.943)" fill="none" stroke="#4f5052" stroke-linecap="round" stroke-width="4"/>
      <g id="Ellipse_246" data-name="Ellipse 246" transform="translate(9677.461 13864.508)" fill="#4f5052" stroke="#4f5052" stroke-linecap="round" stroke-linejoin="round" stroke-width="4">
        <circle cx="1.546" cy="1.546" r="1.546" stroke="none"/>
        <circle cx="1.546" cy="1.546" r="0.454" fill="none"/>
      </g>
      <g id="Ellipse_247" data-name="Ellipse 247" transform="translate(9677.461 13874.554)" fill="#4f5052" stroke="#4f5052" stroke-linecap="round" stroke-linejoin="round" stroke-width="4">
        <circle cx="1.546" cy="1.546" r="1.546" stroke="none"/>
        <circle cx="1.546" cy="1.546" r="0.454" fill="none"/>
      </g>
      <g id="Ellipse_248" data-name="Ellipse 248" transform="translate(9677.461 13884.601)" fill="#4f5052" stroke="#4f5052" stroke-linecap="round" stroke-linejoin="round" stroke-width="4">
        <circle cx="1.546" cy="1.546" r="1.546" stroke="none"/>
        <circle cx="1.546" cy="1.546" r="0.454" fill="none"/>
      </g>
      <path id="Path_1747" data-name="Path 1747" d="M9894.851,14332.132h11.594" transform="translate(-193.791 -435.912)" fill="none" stroke="#4f5052" stroke-linecap="round" stroke-width="4"/>
      <path id="Path_1748" data-name="Path 1748" d="M10015.527,14236.5l9.961,5.822-11.283,8.264Z" transform="translate(-295.045 -354.838)" fill="none" stroke="#4f5052" stroke-linecap="round" stroke-linejoin="round" stroke-width="4"/>
      <path id="Path_1749" data-name="Path 1749" d="M10033.107,14050.074l20.131-34.437-9.49-5.674-20.562,34.4" transform="translate(-302.665 -162.658)" fill="none" stroke="#4f5052" stroke-linecap="round" stroke-linejoin="round" stroke-width="4"/>
      <path id="Path_1750" data-name="Path 1750" d="M10158.973,13973.082s2.861-5.3,4.468-6.055a5.4,5.4,0,0,1,5.219.277c1.547,1.046,3.357,2.984,2.616,5.158a64.994,64.994,0,0,1-2.83,6.221" transform="translate(-417.858 -125.777)" fill="none" stroke="#4f5052" stroke-linecap="round" stroke-linejoin="round" stroke-width="4"/>
      <path id="Path_1751" data-name="Path 1751" d="M9737.92,13887.416v12.9s.678,5.681-4.92,5.5-60.425,0-60.425,0-6.144.919-6.14-5.5,0-77.185,0-77.185-.7-5.045,6.14-4.9,60.425,0,60.425,0,4.974.275,4.92,4.023,0,20.1,0,20.1" fill="none" stroke="#4f5052" stroke-linecap="round" stroke-linejoin="round" stroke-width="4"/>
    </g>
  </g>
</svg>
