<svg xmlns="http://www.w3.org/2000/svg" width="164.143" height="320.532" viewBox="0 0 164.143 320.532">
  <g id="podcast_mic" transform="translate(-7288.5 -11355.5)">
    <g id="Group_383" data-name="Group 383" transform="translate(7317.586 11561.143)">
      <path id="Rectangle_426" data-name="Rectangle 426" d="M6.352,3.811A2.544,2.544,0,0,0,3.811,6.352v10.8h98.464V6.352a2.544,2.544,0,0,0-2.541-2.541H6.352M6.352,0H99.734a6.352,6.352,0,0,1,6.352,6.352V20.963H0V6.352A6.352,6.352,0,0,1,6.352,0Z" transform="translate(0 93.426)" fill="#f76bc5" stroke="#f76bc5" stroke-linecap="round" stroke-width="1"/>
      <path id="Path_1732" data-name="Path 1732" d="M7422.552,11814.664a1.907,1.907,0,0,1-1.9-1.906v-15.234c-.129-2.8-2.961-3.129-3.529-3.168-.027,0-5.518-.043-11.041-.043-2.795,0-5.592.012-7.672.043-4.137.063-4.555,2.746-4.6,3.285l0,15.117a1.907,1.907,0,0,1-3.814,0v-15.234c.113-2.434,2-6.879,8.348-6.977,6.246-.094,18.895,0,18.895,0,2.447.113,6.986,1.711,7.215,6.895l0,15.316A1.906,1.906,0,0,1,7422.552,11814.664Z" transform="translate(-7354.425 -11719.332)" fill="#f76bc5" stroke="#f76bc5" stroke-linecap="round" stroke-width="1"/>
      <path id="Path_1733" data-name="Path 1733" d="M7397.269,11694.471c-5.477,0-7.15-3.176-7.264-4.875l-.006-8.762a1.907,1.907,0,0,1,3.814,0v8.641c.082.316.949,1.211,3.613,1.176h22.27c.268,0,1.811-.105,1.8-1.168v-8.648a1.905,1.905,0,0,1,3.811,0v8.641c.027,3.6-3.324,4.961-5.588,5h-22.455Z" transform="translate(-7354.425 -11678.932)" fill="#f76bc5" stroke="#f76bc5" stroke-linecap="round" stroke-width="1"/>
      <path id="Path_1734" data-name="Path 1734" d="M7401.451,11760.529a1.906,1.906,0,0,1-1.9-1.906v-59.328a1.9,1.9,0,1,1,3.809,0v59.328A1.907,1.907,0,0,1,7401.451,11760.529Z" transform="translate(-7357.907 -11685.66)" fill="#f76bc5" stroke="#f76bc5" stroke-linecap="round" stroke-width="1"/>
      <path id="Path_1735" data-name="Path 1735" d="M7431.381,11760.389a1.907,1.907,0,0,1-1.9-1.906v-59.187a1.905,1.905,0,1,1,3.811,0v59.188A1.908,1.908,0,0,1,7431.381,11760.389Z" transform="translate(-7368.827 -11685.66)" fill="#f76bc5" stroke="#f76bc5" stroke-linecap="round" stroke-width="1"/>
    </g>
    <g id="Group_384" data-name="Group 384" transform="translate(7289 11356)">
      <path id="Rectangle_427" data-name="Rectangle 427" d="M38.291-3H54.808A41.338,41.338,0,0,1,96.1,38.291V141.2a41.338,41.338,0,0,1-41.291,41.291H38.291A41.338,41.338,0,0,1-3,141.2V38.291A41.338,41.338,0,0,1,38.291-3ZM54.808,178.681a37.522,37.522,0,0,0,37.48-37.48V38.291A37.522,37.522,0,0,0,54.808.811H38.291A37.522,37.522,0,0,0,.811,38.291V141.2a37.522,37.522,0,0,0,37.48,37.48Z" transform="translate(35.658 3)" fill="#f76bc5" stroke="#f76bc5" stroke-linecap="round" stroke-width="1"/>
      <path id="Subtraction_1" data-name="Subtraction 1" d="M83.853,120.062a56.978,56.978,0,0,0,11.257-1.12,56.2,56.2,0,0,0,20-8.3,56.735,56.735,0,0,0,20.5-24.338,56.228,56.228,0,0,0,3.416-10.4,56.829,56.829,0,0,0,1.346-11.187q0-.12.012-.239V6.352a2.544,2.544,0,0,0-2.541-2.541h-1.906A2.544,2.544,0,0,0,133.4,6.352V63.525a49.026,49.026,0,0,1-4.174,20.095,47.066,47.066,0,0,1-11.4,15.723A50.274,50.274,0,0,1,110,105.177a53.285,53.285,0,0,1-8.95,4.311,58.2,58.2,0,0,1-20.369,3.587H63.525a58.2,58.2,0,0,1-20.369-3.587,53.283,53.283,0,0,1-8.95-4.311,50.269,50.269,0,0,1-7.834-5.834,47.065,47.065,0,0,1-11.4-15.723A49.026,49.026,0,0,1,10.8,63.525V6.352A2.544,2.544,0,0,0,8.258,3.812H6.352A2.544,2.544,0,0,0,3.812,6.352V64.477q.01.119.012.239A56.831,56.831,0,0,0,5.17,75.9a56.234,56.234,0,0,0,8.687,19.8A56.7,56.7,0,0,0,38.6,115.73a56.226,56.226,0,0,0,10.489,3.213,56.982,56.982,0,0,0,11.257,1.12h23.5m0,3.812h-23.5a60.8,60.8,0,0,1-12.012-1.2,60.009,60.009,0,0,1-21.36-8.864A60.546,60.546,0,0,1,5.1,87.84,60.1,60.1,0,0,1,.013,64.8H0V6.352A6.36,6.36,0,0,1,6.352,0H8.258a6.36,6.36,0,0,1,6.353,6.352V63.525a45.24,45.24,0,0,0,3.844,18.543A43.277,43.277,0,0,0,28.937,96.524a46.449,46.449,0,0,0,7.239,5.39,49.46,49.46,0,0,0,8.309,4,54.4,54.4,0,0,0,19.04,3.348H80.677a54.4,54.4,0,0,0,19.04-3.348,49.461,49.461,0,0,0,8.309-4,46.451,46.451,0,0,0,7.239-5.39,43.277,43.277,0,0,0,10.483-14.456,45.24,45.24,0,0,0,3.844-18.543V6.352A6.36,6.36,0,0,1,135.944,0h1.906A6.36,6.36,0,0,1,144.2,6.352V64.8h-.013a60.424,60.424,0,0,1-37.122,54.452,60.043,60.043,0,0,1-11.2,3.431A60.8,60.8,0,0,1,83.853,123.874Z" transform="translate(9.789 84.488)" fill="#f76bc5" stroke="#f76bc5" stroke-linecap="round" stroke-width="1"/>
      <path id="Path_1736" data-name="Path 1736" d="M7335.925,11556.842h-10.418a1.906,1.906,0,1,1,0-3.812h10.418a1.906,1.906,0,1,1,0,3.813Z" transform="translate(-7301.362 -11427.866)" fill="#f76bc5" stroke="#f76bc5" stroke-linecap="round" stroke-width="1"/>
      <path id="Path_1740" data-name="Path 1740" d="M7335.481,11556.842h-9.975a1.906,1.906,0,1,1,0-3.812h9.975a1.906,1.906,0,1,1,0,3.813Z" transform="translate(-7195.655 -11427.866)" fill="#f76bc5" stroke="#f76bc5" stroke-linecap="round" stroke-width="1"/>
      <path id="Path_1737" data-name="Path 1737" d="M7335.925,11556.842h-10.418a1.906,1.906,0,1,1,0-3.812h10.418a1.906,1.906,0,1,1,0,3.813Z" transform="translate(-7301.362 -11417.066)" fill="#f76bc5" stroke="#f76bc5" stroke-linecap="round" stroke-width="1"/>
      <path id="Path_1741" data-name="Path 1741" d="M7335.481,11556.842h-9.975a1.906,1.906,0,1,1,0-3.812h9.975a1.906,1.906,0,1,1,0,3.813Z" transform="translate(-7195.655 -11417.066)" fill="#f76bc5" stroke="#f76bc5" stroke-linecap="round" stroke-width="1"/>
      <path id="Path_1738" data-name="Path 1738" d="M7298.384,11567.756a1.862,1.862,0,0,1-.293-.02,8.8,8.8,0,0,0-.908-.062c-2.268-.1-8.291-.371-8.584-7.6a6.41,6.41,0,0,1,2.047-5.312c2.865-2.539,7.52-1.863,8.041-1.777a1.906,1.906,0,0,1-.611,3.762c-.863-.133-3.625-.266-4.906.875a2.6,2.6,0,0,0-.764,2.3c.141,3.461,2.051,3.813,4.945,3.938.516.027.967.055,1.318.109a1.9,1.9,0,0,1-.285,3.785Z" transform="translate(-7288.591 -11427.8)" fill="#f76bc5" stroke="#f76bc5" stroke-linecap="round" stroke-width="1"/>
      <path id="Path_1739" data-name="Path 1739" d="M7290.494,11567.756a1.905,1.905,0,0,1-.283-3.789c.346-.055.8-.074,1.313-.1,2.9-.129,4.807-.477,4.945-3.941a2.613,2.613,0,0,0-.762-2.3c-1.277-1.137-4.043-1.008-4.908-.871a1.905,1.905,0,0,1-.609-3.762c.521-.086,5.174-.762,8.041,1.777a6.4,6.4,0,0,1,2.047,5.313c-.291,7.227-6.314,7.5-8.582,7.6a7.794,7.794,0,0,0-.91.063A1.822,1.822,0,0,1,7290.494,11567.756Z" transform="translate(-7137.143 -11427.687)" fill="#f76bc5" stroke="#f76bc5" stroke-linecap="round" stroke-width="1"/>
      <path id="Path_1742" data-name="Path 1742" d="M7412.4,11403.426h-.02c-6.053-.016-8-5.211-8.189-7.957l0-37.566a1.905,1.905,0,0,1,3.811,0v37.438c.053.594.545,4.266,4.387,4.273h.014c4.01,0,4.7-4.062,4.768-4.527l-.02-37.184a1.906,1.906,0,0,1,3.813,0v37.438C7420.6,11398.3,7418.357,11403.426,7412.4,11403.426Z" transform="translate(-7330.757 -11356)" fill="#f76bc5" stroke="#f76bc5" stroke-linecap="round" stroke-width="1"/>
      <path id="Path_1743" data-name="Path 1743" d="M7449.022,11404.176h-.234c-5.891-.125-7.832-4.535-8.037-6.848l-.006-37.357a1.905,1.905,0,0,1,3.811,0v37.189c.053.363.551,3.125,4.311,3.2,3.836.066,4.133-2.984,4.16-3.336l-.006-32.1a1.906,1.906,0,0,1,3.813,0v32.23A7.424,7.424,0,0,1,7449.022,11404.176Z" transform="translate(-7344.09 -11356.754)" fill="#f76bc5" stroke="#f76bc5" stroke-linecap="round" stroke-width="1"/>
      <path id="Path_1744" data-name="Path 1744" d="M7448.554,11404.176a7.406,7.406,0,0,1-7.807-6.883l0-32.363a1.905,1.905,0,0,1,3.811,0v32.23c.066.656.574,3.258,4.152,3.2,3.76-.078,4.262-2.84,4.322-3.391l-.012-37a1.907,1.907,0,0,1,3.814,0v37.189c-.211,2.48-2.154,6.891-8.045,7.016Z" transform="translate(-7389.85 -11356.754)" fill="#f76bc5" stroke="#f76bc5" stroke-linecap="round" stroke-width="1"/>
      <path id="Path_1745" data-name="Path 1745" d="M7341.9,11463.9a1.906,1.906,0,0,1,0-3.812h23.047c.393-.016,2.563-.3,2.834-4,.268-3.6-2.3-4.266-3.094-4.383l-22.787.016a1.9,1.9,0,1,1,0-3.809h23.047a7.479,7.479,0,0,1,6.639,8.461c-.439,5.945-4.531,7.523-6.633,7.527Z" transform="translate(-7307.342 -11389.526)" fill="#f76bc5" stroke="#f76bc5" stroke-linecap="round" stroke-width="1"/>
      <path id="Path_1750" data-name="Path 1750" d="M7369.711,11463.9h-23.045c-2.105,0-6.2-1.582-6.637-7.527-.439-5.977,3.99-8.141,6.393-8.445l23.289-.016a1.9,1.9,0,1,1,0,3.809h-23.045c-.533.1-3.1.77-2.836,4.367.293,3.953,2.732,4,2.838,4h23.043a1.906,1.906,0,1,1,0,3.813Z" transform="translate(-7239.862 -11389.526)" fill="#f76bc5" stroke="#f76bc5" stroke-linecap="round" stroke-width="1"/>
      <path id="Path_1746" data-name="Path 1746" d="M7341.9,11463.9a1.906,1.906,0,0,1,0-3.812h23.047c.393-.016,2.563-.3,2.834-4,.268-3.6-2.3-4.266-3.094-4.383l-22.787.016a1.9,1.9,0,1,1,0-3.809h23.047a7.479,7.479,0,0,1,6.639,8.461c-.439,5.945-4.531,7.523-6.633,7.527Z" transform="translate(-7307.342 -11366.655)" fill="#f76bc5" stroke="#f76bc5" stroke-linecap="round" stroke-width="1"/>
      <path id="Path_1749" data-name="Path 1749" d="M7369.711,11463.9h-23.045c-2.105,0-6.2-1.582-6.637-7.527-.439-5.977,3.99-8.141,6.393-8.445l23.289-.016a1.9,1.9,0,1,1,0,3.809h-23.045c-.533.1-3.1.77-2.836,4.367.293,3.953,2.732,4,2.838,4h23.043a1.906,1.906,0,1,1,0,3.813Z" transform="translate(-7239.862 -11366.655)" fill="#f76bc5" stroke="#f76bc5" stroke-linecap="round" stroke-width="1"/>
      <path id="Path_1747" data-name="Path 1747" d="M7341.9,11463.9a1.906,1.906,0,0,1,0-3.812h23.047c.393-.016,2.563-.3,2.834-4,.268-3.6-2.3-4.266-3.094-4.383l-22.787.016a1.9,1.9,0,1,1,0-3.809h23.047a7.479,7.479,0,0,1,6.639,8.461c-.439,5.945-4.531,7.523-6.633,7.527Z" transform="translate(-7307.342 -11343.787)" fill="#f76bc5" stroke="#f76bc5" stroke-linecap="round" stroke-width="1"/>
      <path id="Path_1748" data-name="Path 1748" d="M7369.711,11463.9h-23.045c-2.105,0-6.2-1.582-6.637-7.527-.439-5.977,3.99-8.141,6.393-8.445l23.289-.016a1.9,1.9,0,1,1,0,3.809h-23.045c-.533.1-3.1.77-2.836,4.367.293,3.953,2.732,4,2.838,4h23.043a1.906,1.906,0,1,1,0,3.813Z" transform="translate(-7239.862 -11343.787)" fill="#f76bc5" stroke="#f76bc5" stroke-linecap="round" stroke-width="1"/>
    </g>
  </g>
</svg>
