<svg xmlns="http://www.w3.org/2000/svg" width="1200" height="628"><path data-name="Rectangle 431" fill="#dfe0db" d="M0 0h1200v628H0z"/><g fill="none" stroke="#3db5c7" stroke-linejoin="round" stroke-width="3"><g data-name="Ellipse 8" transform="translate(704.957 295.287)"><ellipse cx="49.793" cy="91.649" rx="49.793" ry="91.649" stroke="none"/><ellipse cx="49.793" cy="91.649" rx="48.293" ry="90.149"/></g><path data-name="Path 15" d="m746.241 298.118-344.216 88.564 344.216 89.319"/></g><g fill="none" stroke="#3db5c7" stroke-linejoin="round" stroke-width="4"><g data-name="Ellipse 8" transform="translate(350.935 149)"><ellipse cx="49.793" cy="91.649" rx="49.793" ry="91.649" stroke="none"/><ellipse cx="49.793" cy="91.649" rx="47.793" ry="89.649"/></g><path data-name="Path 15" d="m409.37 152.529 344.084 88.036-344.084 88.786"/></g><path data-name="Rectangle 311" fill="#f76bc5" d="M686.374 340.011h54.282v93.041h-54.282z"/><path data-name="Path 1647" d="M704.743 340.322h-18.369v92.73h18.369v-55.791l35.708 55.791v-36.127Z" fill="#4f5052" stroke="#4f5052"/><g data-name="letter_N"><path data-name="Rectangle 311" fill="#f76bc5" d="M354.011 195.165h54.282v93.041h-54.282z"/><path data-name="Path 1647" d="M372.38 195.476h-18.369v92.73h18.369v-55.791l35.708 55.791v-36.127Z" fill="#4f5052" stroke="#4f5052"/></g><g data-name="letter_N"><path data-name="Rectangle 311" fill="#f76bc5" d="M724.349 195.165h54.282v93.041h-54.282z"/><path data-name="Path 1647" d="M742.718 195.476h-18.369v92.73h18.369v-55.791l35.708 55.791v-36.127Z" fill="#4f5052" stroke="#4f5052"/></g><path data-name="Rectangle 312" fill="#f76bc5" d="M511.866 386.936h25.544v46.923h-25.544z"/><g data-name="Rectangle 313" fill="#4f5052" stroke="#4f5052"><path d="M497.497 340.013h19.158v93.847h-19.158z" stroke="none"/><path fill="none" d="M497.997 340.513h18.158v92.847h-18.158z"/></g><g data-name="Rectangle 314" fill="#4f5052" stroke="#4f5052"><path d="M533.419 340.013h19.158v93.847h-19.158z" stroke="none"/><path fill="none" d="M533.919 340.513h18.158v92.847h-18.158z"/></g><path data-name="Path 1640" d="M547.404 194.589h59.508l-26.773 53.047Z" fill="#f76bc5"/><path data-name="Path 1648" d="M531.727 195.019h19.084l29.072 52.526v40.9h-18.16v-40.9Z" fill="#4f5052" stroke="#4f5052"/><path data-name="Path 1645" d="M436.172 416.087v-59.049h-29.74v59.049Z" fill="#f76bc5"/><path data-name="Path 1649" d="m455.016 366.219 12.617-13.241s-22.807-23.3-55.57-7.435-21.156 57.2-21.156 57.2 11 32.556 45.225 30.605v-18.83s-34.41 1.254-27.391-38.467c0 0 4.029-15.443 22.877-17.594-.001 0 14.195-2.137 23.398 7.762Z" fill="#4f5052" stroke="#4f5052"/><path data-name="Rectangle 307" fill="#f76bc5" d="M606.61 340.013h29.046v79.668H606.61z"/><path data-name="Path 1650" d="M592.139 340.588h18.18v59.181s-.111 15.744 9.275 15.673 8.943-9.149 8.666-15.673 0-59.181 0-59.181h18.369v60.777s3.984 31.923-25.23 31.361-29.26-31.361-29.26-31.361Z" fill="#4f5052"/><path data-name="Path 1646" d="M807.313 382.198v-42.171s-41.633-2.107-45.268 42.171l14.969 35.493h56.254l1.328-35.493Z" fill="#f76bc5"/><path data-name="Path 1651" d="M829.316 399.483h-22.121v-17.284h40.932s6.25 51.179-40.932 50.853-45.207-50.853-45.207-50.853h18.162s-2.219 35.6 27.045 34.637c0 0 19.884-.475 22.121-17.353Z" fill="#4f5052" stroke="#4f5052"/><path fill="#4f5052" d="M462.502 195.165h19.158v93.041h-19.158z"/><path data-name="letter_I" fill="#4f5052" d="M650.98 195.165h19.158v93.041H650.98z"/><text data-name="鍾 妮 吟" transform="translate(887.609 398.803)" fill="#f76bc5" font-size="24" font-family="STHeitiTC-Light, Heiti TC" font-weight="300" letter-spacing=".018em"><tspan x="0" y="0">鍾 妮 吟</tspan></text><path data-name="Line 330" fill="none" stroke="#f76bc5" stroke-width="2" d="m865.098 370.683 135.214-34.655"/><path data-name="Line 329" fill="none" stroke="#f76bc5" stroke-width="2" d="m865.091 409.489 135.214 34.655"/></svg>