<svg xmlns="http://www.w3.org/2000/svg" width="971.924" height="200.152" viewBox="0 0 971.924 200.152">
  <g id="contact_logo" transform="translate(-473.752 -12603.815)">
    <g id="Group_308" data-name="Group 308" transform="translate(160.543 3327.254)">
      <g id="Group_307" data-name="Group 307" transform="translate(648.405 9276.562)">
        <g id="mic_2" transform="translate(31.026 88.838)">
          <g id="Ellipse_8" data-name="Ellipse 8" transform="translate(183.967 0)" fill="none" stroke="#3db5c7" stroke-linejoin="round" stroke-width="3">
            <ellipse cx="30.239" cy="55.657" rx="30.239" ry="55.657" stroke="none"/>
            <ellipse cx="30.239" cy="55.657" rx="28.739" ry="54.157" fill="none"/>
          </g>
          <path id="Path_15" data-name="Path 15" d="M-991.673,770l-209.038,53.784,209.038,54.243" transform="translate(1200.711 -768.281)" fill="none" stroke="#3db5c7" stroke-linejoin="round" stroke-width="3"/>
        </g>
        <g id="mic_1" transform="translate(0 0)">
          <g id="Ellipse_8-2" data-name="Ellipse 8" transform="translate(0 0)" fill="none" stroke="#3db5c7" stroke-linejoin="round" stroke-width="4">
            <ellipse cx="30.239" cy="55.657" rx="30.239" ry="55.657" stroke="none"/>
            <ellipse cx="30.239" cy="55.657" rx="28.239" ry="53.657" fill="none"/>
          </g>
          <path id="Path_15-2" data-name="Path 15" d="M-1200.711,770l208.958,53.463-208.958,53.919" transform="translate(1236.198 -767.857)" fill="none" stroke="#3db5c7" stroke-linejoin="round" stroke-width="4"/>
        </g>
        <g id="letter_N" transform="translate(203.708 115.998)">
          <rect id="Rectangle_311" data-name="Rectangle 311" width="32.965" height="56.503" fill="#f76bc5"/>
          <path id="Path_1647" data-name="Path 1647" d="M14483.093-1067.856h-11.155v56.314h11.155v-33.881l21.685,33.881v-21.94Z" transform="translate(-14471.938 1068.045)" fill="#4f5052" stroke="#4f5052" stroke-width="1"/>
        </g>
        <g id="letter_N-2" data-name="letter_N" transform="translate(1.868 28.036)">
          <rect id="Rectangle_311-2" data-name="Rectangle 311" width="32.965" height="56.503" fill="#f76bc5"/>
          <path id="Path_1647-2" data-name="Path 1647" d="M14483.093-1067.856h-11.155v56.314h11.155v-33.881l21.685,33.881v-21.94Z" transform="translate(-14471.938 1068.045)" fill="#4f5052" stroke="#4f5052" stroke-width="1"/>
        </g>
        <g id="letter_N-3" data-name="letter_N" transform="translate(226.77 28.036)">
          <rect id="Rectangle_311-3" data-name="Rectangle 311" width="32.965" height="56.503" fill="#f76bc5"/>
          <path id="Path_1647-3" data-name="Path 1647" d="M14483.093-1067.856h-11.155v56.314h11.155v-33.881l21.685,33.881v-21.94Z" transform="translate(-14471.938 1068.045)" fill="#4f5052" stroke="#4f5052" stroke-width="1"/>
        </g>
        <g id="letter_H" transform="translate(89.005 116)">
          <rect id="Rectangle_312" data-name="Rectangle 312" width="15.513" height="28.496" transform="translate(8.726 28.496)" fill="#f76bc5"/>
          <g id="Rectangle_313" data-name="Rectangle 313" transform="translate(0)" fill="#4f5052" stroke="#4f5052" stroke-width="1">
            <rect width="11.635" height="56.992" stroke="none"/>
            <rect x="0.5" y="0.5" width="10.635" height="55.992" fill="none"/>
          </g>
          <g id="Rectangle_314" data-name="Rectangle 314" transform="translate(21.815)" fill="#4f5052" stroke="#4f5052" stroke-width="1">
            <rect width="11.635" height="56.992" stroke="none"/>
            <rect x="0.5" y="0.5" width="10.635" height="55.992" fill="none"/>
          </g>
        </g>
        <g id="letter_Y" transform="translate(109.793 27.685)">
          <path id="Path_1640" data-name="Path 1640" d="M14864.991-599.752h36.14l-16.261,32.215Z" transform="translate(-14855.472 599.752)" fill="#f76bc5"/>
          <path id="Path_1648" data-name="Path 1648" d="M14845.354-599.214h11.59l17.652,31.9v24.841h-11.027v-24.841Z" transform="translate(-14845.354 599.475)" fill="#4f5052" stroke="#4f5052" stroke-width="1"/>
        </g>
        <g id="letter_C" transform="translate(23.062 115.998)">
          <path id="Path_1645" data-name="Path 1645" d="M15076.416-1716.463v-35.86h-18.061v35.86Z" transform="translate(-15047.715 1762.662)" fill="#f76bc5"/>
          <path id="Path_1649" data-name="Path 1649" d="M15076.552-1758.681l7.662-8.041s-13.85-14.149-33.747-4.515-12.849,34.737-12.849,34.737,6.684,19.771,27.466,18.586v-11.435s-20.9.762-16.634-23.36c0,0,2.445-9.379,13.892-10.685C15062.342-1763.394,15070.964-1764.692,15076.552-1758.681Z" transform="translate(-15036.406 1774.596)" fill="#4f5052" stroke="#4f5052" stroke-width="1"/>
        </g>
        <g id="letter_U" transform="translate(146.48 116)">
          <rect id="Rectangle_307" data-name="Rectangle 307" width="17.639" height="48.381" transform="translate(8.788)" fill="#f76bc5"/>
          <path id="Path_1650" data-name="Path 1650" d="M14853.563-832.307h11.04v35.94s-.066,9.561,5.632,9.518,5.434-5.556,5.264-9.518,0-35.94,0-35.94h11.156V-795.4s2.418,19.386-15.321,19.045-17.771-19.045-17.771-19.045Z" transform="translate(-14853.563 832.656)" fill="#4f5052"/>
        </g>
        <g id="letter_G" transform="translate(249.62 115.998)">
          <path id="Path_1646" data-name="Path 1646" d="M15054.414-1517.324v-25.61s-25.283-1.28-27.49,25.61l9.09,21.555h34.163l.8-21.555Z" transform="translate(-15026.883 1542.943)" fill="#f76bc5"/>
          <path id="Path_1651" data-name="Path 1651" d="M15067.73-1478.314H15054.3v-10.5h24.859s3.794,31.081-24.859,30.882-27.452-30.882-27.452-30.882h11.029s-1.347,21.618,16.423,21.035C15054.3-1467.776,15066.372-1468.064,15067.73-1478.314Z" transform="translate(-15026.837 1514.43)" fill="#4f5052" stroke="#4f5052" stroke-width="1"/>
        </g>
        <rect id="letter_I" width="11.635" height="56.503" transform="translate(67.753 28.036)" fill="#4f5052"/>
        <rect id="letter_I-2" data-name="letter_I" width="11.635" height="56.503" transform="translate(182.213 28.036)" fill="#4f5052"/>
      </g>
    </g>
    <g id="contact_plane" transform="translate(-8189.137 -608.575)">
      <g id="Group_371" data-name="Group 371" transform="translate(9564.325 13220.014)">
        <path id="Path_1682" data-name="Path 1682" d="M7844.931,12523.047l11.4,11.449,57.587-15.82Z" transform="translate(-7844.931 -12518.676)" fill="none" stroke="#4f5052" stroke-linecap="round" stroke-linejoin="round" stroke-width="3"/>
        <path id="Path_1683" data-name="Path 1683" d="M7974.738,12518.676l-36.669,44.121-16.564-22.172Z" transform="translate(-7905.751 -12518.676)" fill="none" stroke="#4f5052" stroke-linecap="round" stroke-linejoin="round" stroke-width="3"/>
        <path id="Path_1684" data-name="Path 1684" d="M7898.6,12595.574l-.467,18.058,9.843-5.13" transform="translate(-7887.184 -12579.754)" fill="none" stroke="#4f5052" stroke-linecap="round" stroke-linejoin="round" stroke-width="3"/>
        <path id="Path_1685" data-name="Path 1685" d="M7902.794,12626.095l-4.3,11.165" transform="translate(-7887.184 -12603.844)" fill="none" stroke="#4f5052" stroke-linecap="round" stroke-width="3"/>
      </g>
      <path id="Path_1686" data-name="Path 1686" d="M9197.6,12388.782c117.363-75.076,128.718,35.482,177.188-23.447s61.589-36.465,61.589-36.465" transform="translate(127.948 923.684)" fill="none" stroke="#4f5052" stroke-linecap="round" stroke-linejoin="round" stroke-width="3"/>
    </g>
    <g id="contact_plane-2" data-name="contact_plane" transform="translate(-8849.723 -608.575)" opacity="0">
      <g id="Group_371-2" data-name="Group 371" transform="translate(9564.325 13220.014)">
        <path id="Path_1682-2" data-name="Path 1682" d="M7844.931,12523.047l11.4,11.449,57.587-15.82Z" transform="translate(-7844.931 -12518.676)" fill="none" stroke="#4f5052" stroke-linecap="round" stroke-linejoin="round" stroke-width="3"/>
        <path id="Path_1683-2" data-name="Path 1683" d="M7974.738,12518.676l-36.669,44.121-16.564-22.172Z" transform="translate(-7905.751 -12518.676)" fill="none" stroke="#4f5052" stroke-linecap="round" stroke-linejoin="round" stroke-width="3"/>
        <path id="Path_1684-2" data-name="Path 1684" d="M7898.6,12595.574l-.467,18.058,9.843-5.13" transform="translate(-7887.184 -12579.754)" fill="none" stroke="#4f5052" stroke-linecap="round" stroke-linejoin="round" stroke-width="3"/>
        <path id="Path_1685-2" data-name="Path 1685" d="M7902.794,12626.095l-4.3,11.165" transform="translate(-7887.184 -12603.844)" fill="none" stroke="#4f5052" stroke-linecap="round" stroke-width="3"/>
      </g>
      <path id="Path_1686-2" data-name="Path 1686" d="M9197.6,12388.782c117.363-75.076,128.718,35.482,177.188-23.447s61.589-36.465,61.589-36.465" transform="translate(127.948 923.684)" fill="none" stroke="#4f5052" stroke-linecap="round" stroke-linejoin="round" stroke-width="3"/>
    </g>
  </g>
</svg>
