<svg xmlns="http://www.w3.org/2000/svg" viewBox="0 0 300 189"><path fill="#263438" d="M0 0h300v189H0z"/><g fill-opacity=".5" transform="translate(.6 .6) scale(1.17188)"><circle r="1" fill="#fff" transform="matrix(-21.9798 -128.01965 166.33393 -28.55801 119 93.6)"/><circle r="1" fill="#fff" transform="matrix(244.15311 -73.58164 18.7985 62.37581 95.9 85.6)"/><path fill="#fff" d="M5 177 271 70-16 39z"/><ellipse cx="211" cy="45" fill="#fff" rx="47" ry="63"/><path fill="#33afd4" d="M10.1-52.5 157.3-37l-9.4 89.5L.7 37z"/><circle r="1" fill="#2f9dc0" transform="matrix(12.8332 37.69728 -55.43058 18.87011 232.2 140.9)"/><circle r="1" fill="#fff" transform="matrix(-105.30838 15.00393 -7.43429 -52.17916 27.5 106.6)"/><circle r="1" fill="#fff" transform="matrix(-32.32 -57.8345 37.3208 -20.8562 222 41.4)"/></g></svg>