<svg xmlns="http://www.w3.org/2000/svg" viewBox="0 0 300 189"><path fill="#546484" d="M0 0h300v189H0z"/><circle r="1" fill="#5ef" fill-opacity=".5" transform="matrix(199.3522 -47.12487 47.34048 200.26432 155 56.9)"/><path fill="#fff" fill-opacity=".5" d="m265.5 140.2-81.8 43.5-12-22.8 81.7-43.4z"/><path fill="#fff" fill-opacity=".5" d="m210 185.3-166.4-96L51.3 76l166.4 96.1z"/><circle r="1" fill="#04207f" fill-opacity=".5" transform="matrix(-56.71068 -28.2749 11.7498 -23.56644 158.4 103.5)"/><circle r="1" fill="#fff" fill-opacity=".5" transform="matrix(-40.88838 22.26835 -4.95046 -9.08986 100.3 65.5)"/><circle r="1" fill="#49afff" fill-opacity=".5" transform="rotate(25.5 10 531.7) scale(298.82813 54.26631)"/><circle r="1" fill="#31a9ff" fill-opacity=".5" transform="rotate(-62.8 153.2 43) scale(60.09208 268.80699)"/><circle r="1" fill="#35a8ff" fill-opacity=".5" transform="rotate(-126.7 22 22.2) scale(51.41144 189.757)"/></svg>