<svg xmlns="http://www.w3.org/2000/svg" viewBox="0 0 300 217"><path fill="#522d48" d="M0 0h300v217H0z"/><circle r="1" fill="#020000" fill-opacity=".5" transform="matrix(-149.26776 110.0185 -76.90465 -104.3405 150.9 110.4)"/><circle r="1" fill="#ff83f9" fill-opacity=".5" transform="matrix(158.8419 -37.39955 1.22175 5.18896 184 121.5)"/><circle r="1" fill="#ff95ff" fill-opacity=".5" transform="matrix(-111.12999 26.2725 -1.2006 -5.07845 126.8 95.6)"/><path fill="#ff79e7" fill-opacity=".5" d="m246.2 183.5 26 39.6-40.4-16 7.4-92.3z"/><circle r="1" fill="#ffa9ff" fill-opacity=".5" transform="matrix(85.22391 22.05532 -.86562 3.34484 90 18.8)"/><circle r="1" fill="#ff80f2" fill-opacity=".5" transform="rotate(-166.6 80 83.5) scale(146.11011 5.25163)"/><path fill="#ff7be9" fill-opacity=".5" d="M162.3 31 283 59.3 238.5 72z"/><path fill="#ff8dff" fill-opacity=".5" d="m63 102.7-9.3-.5 4-74.9 9.3.5z"/></svg>