<svg xmlns="http://www.w3.org/2000/svg" viewBox="0 0 300 300"><path fill="#172581" d="M0 0h300v300H0z"/><circle r="1" fill="#fff" fill-opacity=".5" transform="matrix(-190.39938 29.56378 -33.05719 -212.89793 148 144)"/><circle r="1" fill="#fffbff" fill-opacity=".5" transform="rotate(46 -103 251.5) scale(196.44279 197.48701)"/><circle r="1" fill="#fffff8" fill-opacity=".5" transform="matrix(31.51992 -13.83628 35.74197 81.42249 228.6 16.7)"/><circle r="1" fill="#ffb7b8" fill-opacity=".5" transform="matrix(50.24281 -27.80943 38.67039 69.86511 79.3 7.6)"/><circle r="1" fill="#9eacff" fill-opacity=".5" transform="matrix(79.0911 86.3128 -42.47828 38.92417 42.8 155.8)"/><circle r="1" fill="#fffff1" fill-opacity=".5" transform="matrix(-131.57894 -2.75619 .66258 -31.63126 136.6 287.4)"/><circle r="1" fill="#ff98db" fill-opacity=".5" transform="matrix(.48125 137.86848 -13.3016 .04643 287.7 140.9)"/><path fill-opacity=".5" d="m24.7-4-39 33.8-9.2-10.6 39-33.8z"/></svg>