<svg version="1.0" xmlns="http://www.w3.org/2000/svg" width="933.333" height="933.333" viewBox="0 0 700 700"><path d="M78.9 102.4c-.2.2-2.1.6-4.3.9-5.9.8-17.9 7.2-24.2 13-8.3 7.5-16.9 19.6-23 32.2-5.4 11.1-11.7 28.8-12.8 35.9-.3 2.1-.8 4.1-1 4.5-.2.3-.7 2.2-1 4.1-.3 1.9-1 6.2-1.6 9.5-2.5 14.8-3.4 47.1-1.7 63 7 66.7 39 114.7 75.4 113 6-.2 7.2-.5 27.9-5.6 6.6-1.6 12.9-3.1 14-3.3 1-.3 7.5-1.8 14.4-3.6 6.9-1.7 13.4-3.3 14.5-3.6 1.1-.2 4.7-1 8-1.8 33.6-8.3 69.9-17.1 74.5-18.1.8-.2 10-2.4 20.3-5 10.3-2.5 19.5-4.8 20.5-5 .9-.2 16.5-4 34.6-8.4 18.1-4.5 33.8-8.3 35-8.6 5-1 6.9-1.5 8.6-2 1-.3 2.7-.8 3.7-1 1.5-.3 11.3-2.7 53.8-13.1 3.3-.8 6.9-1.6 8-1.9 1.1-.2 10.3-2.4 20.5-4.9 10.2-2.5 28.6-7.1 41-10.1 12.4-3 31.7-7.8 43-10.5 21.1-5.2 44.1-10.8 47.3-11.5 1-.2 2.6-.6 3.5-.9.9-.3 2.8-.7 4.2-1 1.4-.3 10.6-2.5 20.5-5 15.1-3.7 18.3-4.9 20.2-7.1 4.3-5 2.1-12.8-4.4-15.3-2.2-.9-15.7-4.3-26.3-6.7-7.9-1.8-22.3-5.3-76.5-18.5-11.5-2.8-21.9-5.3-23-5.6-1.1-.2-9.4-2.2-18.5-4.4s-24.1-5.8-33.5-8.1c-9.3-2.2-25.3-6.1-35.5-8.5-17.4-4.3-74.7-18.1-78-18.9-3.8-.9-38-9.1-62-15-32.3-7.8-72.9-17.6-75-18-.8-.2-10-2.4-20.5-5-34.6-8.5-57.4-13.9-62.6-15-.9-.2-4.7-1.3-8.4-2.4-6-1.9-18.7-3.6-19.6-2.7zm15.7 22.9c15.4 8 29.7 31.4 37.3 61.3 1.1 4.4 2.3 9.8 2.6 12 .4 2.1.8 4.6 1 5.4 3.2 11.9 3.8 53.3 1 67.5-.3 1.1-.7 3.8-1 5.9-1.5 10.7-6.2 28.5-9.5 36.1-7.8 17.9-13 26.4-21.3 34.6-6.6 6.7-12.6 9.8-20 10.6-19.7 2-41.8-27.4-51.3-68.2-1.7-7.6-1.8-7.8-3.3-18-2.6-17.9-2.9-46.9-.6-60 .3-1.7.8-5 1.1-7.5 1-7.9 5.1-24.2 8.4-33.5 5.6-15.8 12.6-28 21.2-37.2 11.5-12.1 22.6-15 34.4-9zm44.4 10.2c1.5.3 10.9 2.6 37.5 9 8.3 2 15.7 3.8 16.5 4 .8.2 10.8 2.6 22.1 5.4 11.4 2.7 21.7 5.2 23 5.5 2.8.6 58.9 14.1 76.9 18.6 6.9 1.7 13.4 3.2 14.5 3.4 1.1.3 10.3 2.5 20.5 5 20.3 4.9 41.7 10.1 58 14 5.8 1.4 20 4.8 31.5 7.6 11.6 2.9 21.7 5.3 22.5 5.5.8.2 8.3 1.9 16.5 4 14.2 3.4 26.1 6.3 29.5 7 .8.2 12.5 3 26 6.3s27 6.5 30 7.2c8.7 2 8.8 2.5.8 4.4-4 1-16.3 4-27.3 6.7s-20.9 5.1-22 5.3c-1.1.3-11.2 2.7-22.4 5.5s-21.3 5.3-22.5 5.5c-1.1.2-2.8.7-3.6 1-.8.3-2.6.7-4 1-1.4.2-9.2 2.1-17.4 4.1-8.2 2-15.6 3.8-16.5 4-.9.2-8.1 2-16.1 4-8 2-15.5 3.8-16.7 4-2.7.6-46.6 11.3-63.3 15.5-6.9 1.7-13.6 3.3-15 3.6-1.4.3-4.3 1-6.5 1.6-2.2.5-4.7 1.1-5.5 1.3-.8.2-3.5.8-6 1.5s-5.6 1.4-7 1.6c-1.4.3-3.2.7-4 1-.8.3-2.5.8-3.6 1-1.2.2-15.8 3.7-32.5 7.8-39.4 9.7-72 17.7-73.9 18.1-.8.2-11.8 2.8-24.4 5.9-12.6 3.1-23.1 5.4-23.4 5.1-.3-.3.2-1.3 1-2.2 2.9-3.2 12.5-24.6 15.6-34.4 3.1-9.8 6.5-24.6 7.7-32.9.3-2.5.8-5.6 1-7 1.7-11.3 2.3-39.2 1-51.2-1.3-12.5-1.6-14.4-3.1-22.8-3.6-20.1-10.8-41.2-18.9-55.4l-4.4-7.8 3.2.6c1.8.4 3.9.9 4.7 1.1zm465.5 189.6c-3.3 1-8.9 2.6-12.5 3.4-3.6.9-9 2.2-12 3-3 .8-11.3 2.9-18.5 4.6-7.1 1.7-22.2 5.3-33.5 8-11.3 2.8-22.5 5.5-25 6-2.5.6-5.2 1.2-6 1.4-3.2.7-28.4 6.8-47.5 11.5-16.8 4-24.4 5.8-27.5 6.5-.3.1-1.4.4-2.5.8-1.1.3-3.1.8-4.5 1.1-1.4.2-10.1 2.3-19.5 4.6-9.3 2.3-17.8 4.3-18.9 4.5-1 .3-5.5 1.3-10 2.4-15.7 3.9-47.6 11.5-52.6 12.6-.8.2-8.2 2-16.5 4-8.2 2-15.7 3.8-16.5 4-1.9.5-26.9 6.5-46 11.1-17.2 4.2-17.8 4.4-21 5-1.4.3-5 1.1-8 1.9-9.1 2.4-29.3 7.3-32 7.8-1.4.3-10.1 2.4-19.5 4.7-15.1 3.7-27.1 6.5-31.5 7.5-11.8 2.7-40.1 9.8-42.2 10.6-3.4 1.4-6.2 7-5.3 10.8 1.2 5.4 3.9 6.7 24 11.6 10.5 2.6 19.8 4.8 20.8 5 1.1.2 8.5 2.1 16.5 4.1 8.1 1.9 15.4 3.7 16.2 3.9.8.2 8.3 2 16.5 4 8.3 2 15.7 3.8 16.5 4 .8.2 9.2 2.2 18.5 4.5 19.3 4.7 44 10.7 59.5 14.4 5.8 1.4 21.8 5.2 35.5 8.6 13.8 3.4 30.4 7.4 37 9 6.6 1.6 23.3 5.7 37 9 13.8 3.4 25.7 6.3 26.5 6.5.8.2 3.8.9 6.5 1.5 2.8.6 5.7 1.3 6.5 1.5.8.2 10.7 2.6 22 5.4 20.6 5 46.6 11.3 89.5 21.7 21.1 5.2 80.3 19.8 85 21 3.4.9 14.2.5 18.7-.7 17.1-4.6 35-22.9 46.6-48 15.7-33.8 21.6-84.9 14.5-126.4-.2-1.7-.6-3.9-.8-5-3.6-23.1-12.6-47.3-24-64.5-9-13.6-21.6-24.5-33-28.5-7.4-2.6-19.6-2.8-27-.4zm23.9 20.6c21.3 10.8 39.7 51.3 43.2 95.3 1.3 15.4.8 38.6-1.1 51-5.2 35.2-16.8 62.7-32.9 77.8-19.2 18.1-39.5 10.4-56.9-21.8-6.8-12.7-13.7-34.7-16.2-52-.4-2.5-1.1-7-1.5-10-.9-5.7-.7-48 .3-51.5.2-1.1.8-4.6 1.1-7.7.9-7.9 5.9-27.9 9-36.1 10.4-27.2 25.4-44.9 40.6-47.7 4-.7 9.8.4 14.4 2.7zM566 360.2c-8.2 14.1-16.6 37.2-19.4 53.3-.3 1.6-.9 5.6-1.5 8.7-3.4 19.3-3.6 52.8-.5 75.3 1.1 8.1 5.6 26.6 8.6 35.7 3.4 10.4 10.5 26.2 13.8 30.9 1.2 1.6 2 3.2 1.8 3.5-.3.2-14.2-2.9-30.9-7s-36-8.8-42.9-10.5c-17.2-4.1-44.8-10.9-74.5-18.1-13.7-3.3-27-6.6-29.5-7.1-2.5-.6-5.2-1.2-6-1.4-.8-.2-11.6-2.8-24-5.9-23.7-5.7-71.8-17.4-74.8-18.1-.9-.2-7.1-1.7-13.7-3.3-42.8-10.5-68.4-16.7-85-20.7-10.4-2.5-23.7-5.7-29.5-7.1-5.8-1.4-11.3-2.8-12.3-3-1-.2-2.7-.6-3.7-.9-1-.3-2.7-.7-3.7-.9-1-.2-3.8-1-6.3-1.6l-4.5-1.3 5.5-1.3c3-.7 6.4-1.5 7.5-1.8 1.1-.2 9.9-2.3 19.5-4.6s18.1-4.3 19-4.5c1.5-.3 20.4-4.9 52-12.6 9.1-2.3 17.2-4.2 18-4.4.8-.2 3.8-.9 6.5-1.5 2.8-.6 5.7-1.3 6.5-1.5.8-.2 8-1.9 16-3.9 25.4-6.1 87.9-21.1 106.5-25.6 7.2-1.7 17.5-4.2 23-5.6 5.5-1.4 11-2.8 12.3-3 1.2-.2 9.8-2.3 19-4.5s17.5-4.2 18.5-4.4c1-.2 2.7-.7 3.7-1 1-.3 2.7-.7 3.7-1 5.1-1 60.8-14.4 87.3-21 18.4-4.5 17.7-4.6 14 1.7z"/></svg>