<svg xmlns="http://www.w3.org/2000/svg" width="292" height="185"><defs><clipPath id="a"><path data-name="Rectangle 451" fill="none" d="M0 0h292v185H0z"/></clipPath></defs><g data-name="Group 404" clip-path="url(#a)"><path data-name="Path 1752" d="M0 0h291.957v185.056H0Z" fill="#285db0"/><g data-name="conti logo" transform="translate(47.191 68.884)"><path data-name="Path 1753" d="m47.892 23.168 4.884-8.66H20.297s-4.854-.108-6.645 2.7L1.505 40.656s-3.782 6.866.647 6.9h33.932l4.42-8.753H15.425s-2.133.329 0-3.381l4.874-10.176s.382-2.124 3.72-2.078Z" fill="#aaf3dd"/><path data-name="Path 1754" d="M60.142 14.507h31.692s2.931.059 1.649 2.657l-13.53 26.65s-1.818 3.636-4.941 3.6H43.28s-3.786-.421-.939-5.591l11.734-22.966s1.996-4.403 6.067-4.35Z" fill="#aaf3dd"/><path data-name="Path 1755" d="M65.133 22.332h10.923s2.494-.138 1.524 1.824l-6.521 12.625a2.841 2.841 0 0 1-2.481 1.589H57.713s-2.745.312-.847-2.646l5.968-11.569s.815-1.906 2.299-1.823Z" fill="#285db0" opacity=".8"/><path data-name="Path 1756" d="M94.802 46.781H82.335l16.338-32.467h32.8s5.484-.656 3.006 3.817l-13.977 28.65h-12.3l11.234-22.79s.579-1.385-.8-1.359h-11.3s-.937-.145-1.77 1.639Z" fill="#aaf3dd"/><path data-name="Path 1757" d="m161.22 46.779 4.526-8.676h-14.552s-2.97.3-.727-2.993l6.611-12.411h16.107L178 14.241h-16.78l3.727-5.327-11.74-.243-3.61 5.569h-10.236l-4.382 8.458h10.949l-9.019 17.467s-3.8 6.546 1.145 6.613Z" fill="#aaf3dd"/><path data-name="Path 1758" d="M166.014 46.78h11.373l15.407-32.476h-10.443Z" fill="#aaf3dd"/><ellipse data-name="Ellipse 250" cx="6.251" cy="6.238" rx="6.251" ry="6.238" transform="translate(185.342)" fill="#aaf3dd"/></g><g data-name="Group 403" opacity=".595" fill="none" stroke-linecap="round"><g data-name="Ellipse 251" stroke="#aaf3dd" stroke-linejoin="round" transform="translate(69.607 16.485)"><ellipse cx="76.676" cy="76.527" rx="76.676" ry="76.527" stroke="none"/><ellipse cx="76.676" cy="76.527" rx="76.176" ry="76.027"/></g><path data-name="Path 1759" d="M156.841 17.583c-21.752 5.154-53.821 40.365-53.821 40.365s57.748 20.019 108 10.909a71.378 71.378 0 0 0 7.109-1.448" stroke="#aaf3dd" stroke-linejoin="round"/><path data-name="Path 1760" d="M127.122 35.308s48.655-5.033 66.533-2.078" stroke="#aaf3dd"/><path data-name="Path 1761" d="M194.677 151.85c-105.04 11.416-91.658-94.024-91.658-94.024s-35.53 11.942-30.956 53.172" stroke="#aaf3dd" stroke-linejoin="round"/><path data-name="Path 1762" d="M131.773 65.677s28.339 69.676 89.553 41.088" stroke="#aaf3dd"/><path data-name="Path 1763" d="M104.014 88.505s-37.419 53.052 32.74 79.363c0 0 3.111 1.077 3.464 1.134" stroke="#aaf3dd" stroke-linejoin="round"/><path data-name="Path 1764" d="M71.51 77.531s2.594-3.793 9.12-2.628" stroke="#aaf3dd"/><path data-name="Path 1765" d="M91.746 39.591s8.739 4.514 11.312 18.191" stroke="#aaf3dd"/><path data-name="Path 1766" d="M95.948 42.891s7.267-12.66 16.6-18.311" stroke="#aaf3dd"/><path data-name="Path 1767" d="m153.801 48.998 1.025-1.937-8.1.349a2.538 2.538 0 0 0-2.144 1.333c-.6 1.3-2.2 5.18-2.2 5.18s-.927 1.936 1.719 1.556 7.354-.723 7.354-.723.273-.085.412-1.108l.056-.365s.141-.576-1.206-.472-4.828.472-4.828.472-1.215.316-.711-.7 1.138-2.386 1.138-2.386a1.638 1.638 0 0 1 1.486-.963c1.123-.031 5.999-.236 5.999-.236Z" stroke="#aaf3dd" stroke-linejoin="round"/><path data-name="Path 1768" d="M157.405 46.799h7.162s1.347-.128.783 1.073l-1.859 4.88a2.5 2.5 0 0 1-2.476 1.483l-6.416.164s-2.14.214-.965-2.22l1.785-3.821a2.028 2.028 0 0 1 1.986-1.559Z" stroke="#aaf3dd" stroke-linejoin="round"/><path data-name="Path 1769" d="M158.637 48.601h3.11s.584-.061.341.512l-.81 2.329a1.1 1.1 0 0 1-1.074.708l-2.784.079s-.931.1-.421-1.059l.777-1.823s.161-.767.861-.746Z" stroke="#aaf3dd" stroke-linejoin="round"/><path data-name="Path 1770" d="M165.008 53.955h1.585s.8.071 1.181-1.1 1.1-3.563 1.1-3.563a.861.861 0 0 1 .966-.743c.894.025 2.393.057 2.393.057s.648-.037.367.966-1.225 3.575-1.225 3.575-.56 1.078.166 1.038 1.9 0 1.9 0 .615.02.784-.9l1.241-3.839.284-.894s.709-1.7-1.048-1.686h-6.845s-1.049-.089-1.352.747-1.934 5.246-1.934 5.246-.523 1.055.437 1.096Z" stroke="#aaf3dd" stroke-linejoin="round"/><path data-name="Path 1771" d="m177.105 47.319 2.534.283.363-1.1 2.575.316-.353 1.2 3.414.486-.254 1.836-3.974-.583-.648 2.358s-.491 1.072.648 1.1l1.849.1a.769.769 0 0 1 .824.988 1.137 1.137 0 0 1-1.348 1.06c-1.3-.108-4.3-.5-4.3-.5s-1.378-.176-.686-2.385l1.026-3.17-2.1-.212Z" stroke="#aaf3dd" stroke-linejoin="round"/><path data-name="Path 1772" d="m186.585 49.504-1.209 4.643s-.7 1.709.488 1.773l1.172.121s.581.163.863-1.616l1.076-4.465s.318-.7-.945-.887c0 0-1.278-.368-1.445.431Z" stroke="#aaf3dd" stroke-linejoin="round"/><g data-name="Path 1797"><path d="M189.054 46.719c.656.656.87 1.505.48 1.895s-1.247.181-1.904-.474-.869-1.503-.474-1.898 1.237-.177 1.898.477Z"/><path d="M189.056 46.72c.655.656.868 1.504.475 1.897-.393.392-1.247.178-1.904-.48-.655-.655-.868-1.503-.475-1.895.394-.393 1.247-.179 1.904.478Z" fill="#aaf3dd"/></g><path data-name="Path 1773" d="M120.742 92.706s8.179 13.78 24.718 32.481c0 0 1.237 1.267.874 1.549s-.63.5-1.333-.306-19.142-22.633-25.094-33.024c0 0-.509-.824 0-1.106 0 0 .449-.382.835.406Z" stroke="#aaf3dd" stroke-linejoin="round"/><path data-name="Path 1774" d="m122.616 91.246 3.684 5.143s.034.122 1.1-.493a.975.975 0 0 0 .434-1.6l-2.728-3.764a1.979 1.979 0 0 1 .589-2.319l2.139-1.356a1.483 1.483 0 0 1 2.3.26l2.936 4.132s1.222 2.16 0 3.047l-4.722 3.2s-1.565 1.513-2.654 0l-3.858-5.49s-.475-.464 0-.753c.005-.007.195-.39.78-.007Z" stroke="#aaf3dd" stroke-linejoin="round"/><path data-name="Path 1775" d="m132.711 105.424 3.95 4.943s.039.12 1.072-.55a.975.975 0 0 0 .35-1.62l-2.918-3.62a1.978 1.978 0 0 1 .467-2.342l2.063-1.47a1.483 1.483 0 0 1 2.312.14l3.15 3.972s1.332 2.094.159 3.043l-4.547 3.443s-1.484 1.593-2.65.139l-4.142-5.286s-.499-.44-.04-.752c0 0 .167-.391.774-.04Z" stroke="#aaf3dd" stroke-linejoin="round"/><g data-name="Path 1798"><path d="m130.145 89.16 1.102 1.572a1.922 1.922 0 0 1-3.147 2.206l-1.102-1.573a1.922 1.922 0 0 1 3.147-2.205Z"/><path d="m130.43 91.306-1.104-1.572a.926.926 0 0 0-1.665.368.911.911 0 0 0 .152.686l1.104 1.572a.926.926 0 0 0 1.666-.368.91.91 0 0 0-.153-.685v-.001m.82-.573a1.917 1.917 0 0 1-.473 2.672 1.926 1.926 0 0 1-2.678-.47l-1.104-1.572a1.917 1.917 0 0 1 .471-2.674 1.926 1.926 0 0 1 2.679.47l1.103 1.572.001.002Z" fill="#aaf3dd"/></g><g data-name="Path 1799"><path d="m140.121 102.947 1.183 1.514a1.922 1.922 0 0 1-3.029 2.366l-1.182-1.514a1.922 1.922 0 0 1 3.028-2.366Z"/><path d="m140.517 105.075-1.184-1.512a.926.926 0 0 0-1.297-.158.912.912 0 0 0-.159 1.288l1.184 1.513c.314.4.896.471 1.297.158a.912.912 0 0 0 .16-1.288h-.001m.789-.616c.652.836.503 2.04-.333 2.693a1.925 1.925 0 0 1-2.7-.33l-1.183-1.513a1.916 1.916 0 0 1 .331-2.694 1.925 1.925 0 0 1 2.7.33l1.183 1.513.002.001Z" fill="#aaf3dd"/></g><g data-name="Path 1800"><path d="M152.16 116.55a4.8 4.8 0 1 1-6.762-.71 4.792 4.792 0 0 1 6.761.71Z"/><path d="M151.382 117.18a3.818 3.818 0 0 0-5.356-.562 3.77 3.77 0 0 0-1.39 2.552 3.77 3.77 0 0 0 .827 2.788 3.818 3.818 0 0 0 5.357.562 3.77 3.77 0 0 0 1.39-2.553 3.767 3.767 0 0 0-.825-2.785l-.003-.002m.78-.627a4.791 4.791 0 0 1-.714 6.745 4.814 4.814 0 0 1-6.761-.71 4.792 4.792 0 0 1 .71-6.748 4.814 4.814 0 0 1 6.765.713Z" fill="#aaf3dd"/></g><g data-name="Path 1801"><path d="m151.152 116.834.518.64a1.985 1.985 0 0 1-.29 2.798l-2.88 2.332a1.994 1.994 0 0 1-2.808-.3l-.517-.64a1.985 1.985 0 0 1 .293-2.795l2.88-2.332a1.994 1.994 0 0 1 2.804.297Z"/><path d="m150.894 118.103-.519-.64a.995.995 0 0 0-1.395-.145l-2.883 2.33a.98.98 0 0 0-.361.663.98.98 0 0 0 .215.724l.519.64c.344.424.97.49 1.395.145l2.883-2.33a.98.98 0 0 0 .361-.663.979.979 0 0 0-.214-.723m.777-.63c.69.854.559 2.104-.296 2.795l-2.882 2.33a1.994 1.994 0 0 1-2.8-.295l-.52-.64a1.985 1.985 0 0 1 .295-2.795l2.882-2.33a1.994 1.994 0 0 1 2.8.295l.52.64h.001Z" fill="#aaf3dd"/></g><path data-name="Path 1776" d="m115.242 96.507 3.321-2.366 2.032 2.642a1.341 1.341 0 0 1-.531 1.885 1.42 1.42 0 0 1-2.061-.163l-1.061-1.611-.94.705Z" stroke="#aaf3dd" stroke-linejoin="round"/><g data-name="Path 1802"><path d="m119.006 96 .537.795a.721.721 0 0 1-1.195.806l-.538-.798a.721.721 0 0 1 1.196-.804Z"/><path d="M119.546 96.794a.719.719 0 0 1-.195.998.722.722 0 0 1-1.001-.194l-.538-.795a.719.719 0 0 1 .195-1 .722.722 0 0 1 1 .195l.538.795Z" fill="#aaf3dd"/></g><g data-name="Path 1803"><path d="m122.371 100.624.805 1.194a.721.721 0 0 1-1.194.806l-.807-1.196a.721.721 0 0 1 1.196-.804Z"/><path d="M123.18 101.817a.719.719 0 0 1-.196.998.722.722 0 0 1-1-.194l-.807-1.193a.719.719 0 0 1 .195-1 .722.722 0 0 1 1 .195l.807 1.193Z" fill="#aaf3dd"/></g><path data-name="Path 1777" d="M118.262 101.206s3.086-2.9 4.16-1.637a17.789 17.789 0 0 1 1.64 2.227 1.023 1.023 0 0 1-.313 1.567c-1.021.772-2.433 1.884-2.433 1.884l-.906-1.133 1.132-.888-1.372-1.8-1.157.812Z" stroke="#aaf3dd" stroke-linejoin="round"/><path data-name="Path 1778" d="m121.886 106.322 2.8 3.74.888-.723-2.1-2.559.755-.578 2.03 2.678.661-.53-1.983-2.587.551-.416 2 2.609.69-.5-2.922-3.65Z" stroke="#aaf3dd" stroke-linejoin="round"/><path data-name="Path 1779" d="m125.56 111.038 3.426-2.538 1.209 1.613-1.4 2.753 3.393-.094 1.04 1.365-3.447 2.518-.9-1.179 1.953-1.339h-2.965l-.749-1.066 1.3-2.467-2.154 1.436Z" stroke="#aaf3dd" stroke-linejoin="round"/><g data-name="Path 1804"><path d="m130.989 117.317 2.408-1.75a.913.913 0 1 1 1.073 1.478l-2.408 1.75a.913.913 0 1 1-1.073-1.478Z"/><path d="m130.988 117.318 2.411-1.749a.915.915 0 0 1 1.277.202.911.911 0 0 1-.203 1.274l-2.41 1.748a.915.915 0 0 1-1.277-.202.911.911 0 0 1 .202-1.273Z" fill="#aaf3dd"/></g><path data-name="Path 1780" d="m135.514 117.309.817 1-1.793 1.271s-.771.338-.142 1.135l.78.968a.747.747 0 0 0 1.154 0c.7-.6 1.183-.968 1.183-.968a.569.569 0 0 1 .924 0s.617.5-.154 1.044l-1.8 1.292a1.413 1.413 0 0 1-2.088-.318l-1.606-2.132s-.766-.889.5-1.731 2.068-1.705 2.225-1.561Z" stroke="#aaf3dd" stroke-linejoin="round"/><path data-name="Path 1781" d="M136.756 124.188c.41-.356 2.18-1.613 2.18-1.613a.681.681 0 0 1 1.06.077s1.037.859.481 1.536l-1.043 2.109 2.944-.2a1.015 1.015 0 0 1 .922.452s.558.553.205.892l-2.437 1.912a.7.7 0 0 1-1-.229.508.508 0 0 1 0-.81c.487-.377 1.634-1.087 1.634-1.087l-2.764.565-1.107-1.351 1.335-2.332-1.976 1.5-.57-.756s-.273-.308.136-.665Z" stroke="#aaf3dd" stroke-linejoin="round"/><path data-name="Path 1782" d="M85.777 129.649a60.173 60.173 0 0 1 1.429-35.495l-.669-.263s-7.248 16.6-1.6 35.334Z" stroke="#aaf3dd" stroke-linejoin="round"/><path data-name="Path 1783" d="M83.473 128.278s-1.3-5.843-1.105-6.331-4.975-3.8-4.975-3.8l.308 5.027 3.761 3.12-.251-4.014h.482l1.288 5.549Z" stroke="#aaf3dd" stroke-linejoin="round"/><path data-name="Path 1784" d="m78.479 120.15.228 2.422 1.567 1.321v-2.427Z" stroke="#aaf3dd" stroke-linejoin="round"/><path data-name="Path 1785" d="M81.828 114.887s-.138-4.094 0-7.02l-4.746-3.285s-1.729 4.011-.665 6.491l3.115 2.237v-5.865l1.423 1.176v5.678Z" stroke="#aaf3dd" stroke-linejoin="round"/><path data-name="Path 1786" d="m78.687 106.846-1.162-.764s-.975 3.048-.229 4.27l1.146.851Z" stroke="#aaf3dd" stroke-linejoin="round"/><path data-name="Path 1787" d="M82.785 100.331a71.184 71.184 0 0 1 2.463-7.287l-5.013-3.252s-2.907 4.69-1.771 7.4a37.4 37.4 0 0 0 4.321 3.139Z" stroke="#aaf3dd" stroke-linejoin="round"/><path data-name="Path 1788" d="M82.136 98.262a47.984 47.984 0 0 1 1.441-4.637l-2.93-2.071s-1.7 2.985-1.031 4.708a21.963 21.963 0 0 0 2.52 2Z" stroke="#aaf3dd" stroke-linejoin="round"/><path data-name="Path 1789" d="M86.57 129.398s-.624-2.64-.4-2.64a19.055 19.055 0 0 1 2.169 1.311l.151 1.509 1.147.6-.514.865Z" stroke="#aaf3dd" stroke-linejoin="round"/><path data-name="Path 1790" d="M85.713 125.203c.342.221 2.867 1.554 2.867 1.554v-.868l-1.4-.731v-1.287l1.4.346v-.787l-3.331-1.523s.119 3.077.464 3.296Z" stroke="#aaf3dd" stroke-linejoin="round"/><path data-name="Path 1791" d="m85.081 120.602 3.531 1.426.213-3.26-.7-.19-.193 2.221-.817-.345.257-2.054-.727-.2-.267 1.987-.64-.2.147-1.987-1-.407Z" stroke="#aaf3dd" stroke-linejoin="round"/><path data-name="Path 1792" d="m84.995 116.004 3.766 1.471v-.728l-2.99-1.3v-.356h2.151v-1.094l-1.923-1.778.1-.323 2.866 1.4v-1.081l-3.966-1.947v2.166l1.984 1.74v.154h-1.984Z" stroke="#aaf3dd" stroke-linejoin="round"/><path data-name="Path 1793" d="m85.166 108.986 3.928 2.087v-1.259l-3.8-1.917Z" stroke="#aaf3dd" stroke-linejoin="round"/><path data-name="Path 1794" d="m85.517 106.843 3.677 1.785.132-4.211-3.2-1.711-.162 1.076 2.237 1.129-.081 2.138-2.472-1.239Z" stroke="#aaf3dd" stroke-linejoin="round"/><path data-name="Path 1795" d="m86.488 101.322 3.207 1.7.2-1.1-1.537-.991 2.223-.384.268-1.142-1.41-1.861 1.864.524.289-.95-3.569-1.738-.672 1.819 2.088 2.308-2.743.212Z" stroke="#aaf3dd" stroke-linejoin="round"/></g></g></svg>