<svg xmlns="http://www.w3.org/2000/svg" width="495.75" height="314.7"><g opacity=".999"><path data-name="Rectangle 169" fill="#fbd0a4" d="M0 0h495.75v314.7H0z"/><g data-name="Group 226"><g data-name="Rectangle 170" transform="translate(379.16 31.949)" fill="none" stroke="#1f2829"><rect width="79" height="52" rx="5" stroke="none"/><rect x=".5" y=".5" width="78" height="51" rx="4.5"/></g><g data-name="Rectangle 171" transform="translate(385.16 37.949)" fill="none" stroke="#1f2829"><rect width="54" height="41" rx="6" stroke="none"/><rect x=".5" y=".5" width="53" height="40" rx="5.5"/></g><g data-name="Rectangle 172" transform="translate(441.16 35.949)" fill="none" stroke="#1f2829"><rect width="14" height="29" rx="3" stroke="none"/><rect x=".5" y=".5" width="13" height="28" rx="2.5"/></g><path data-name="Path 1052" d="M441.76 67.074h13.4" fill="none" stroke="#1f2829" stroke-linecap="round"/><path data-name="Path 1053" d="M441.76 69.199h13.4" fill="none" stroke="#1f2829" stroke-linecap="round"/><path data-name="Path 1054" d="M441.76 71.199h13.4" fill="none" stroke="#1f2829" stroke-linecap="round"/><path data-name="Path 1055" d="M441.76 73.199h13.4" fill="none" stroke="#1f2829" stroke-linecap="round"/><path data-name="Path 1056" d="M441.76 75.199h13.4" fill="none" stroke="#1f2829" stroke-linecap="round"/><path data-name="Path 1057" d="M445.78 46.499s-2.1-2.58-.38-4.879a4.079 4.079 0 0 1 4.264-1.556" fill="#e58458" stroke="#1f2829"/><path data-name="Path 1060" d="M449.301 60.194s-3.313.298-4.257-2.413a4.079 4.079 0 0 1 1.094-4.406" fill="#61b3b1" stroke="#1f2829"/><path data-name="Path 1058" d="M441.918 49.66a3.665 3.665 0 0 0 4.054-1.89 3.841 3.841 0 0 0-.587-4.43" fill="#e58458" stroke="#1f2829"/><path data-name="Path 1059" d="M451.38 59.118a3.665 3.665 0 0 0 .7-4.418 3.841 3.841 0 0 0-4.003-1.989" fill="#61b3b1" stroke="#1f2829"/><path data-name="Path 1061" d="M439.698 83.683s5.6 17.115 5.294 18.047-9.745-14.63-11.5-18.047" fill="none" stroke="#1f2829"/><path data-name="Path 1062" d="M391.797 83.683s-5.6 17.115-5.294 18.047 9.745-14.63 11.5-18.047" fill="none" stroke="#1f2829"/><path data-name="Path 1063" d="M409.989 32.349s-.206-4.491 5.712-4.4 5.438 4.4 5.438 4.4" fill="#f34530" stroke="#1f2829"/><path data-name="Path 1064" d="m397.752 9.759 15.724 18.259" fill="none" stroke="#1f2829"/><path data-name="Path 1065" d="m417.64 28.018 17.022-15.113" fill="none" stroke="#1f2829"/><g data-name="Ellipse 94" transform="translate(395.16 6.949)" fill="none" stroke="#1f2829"><circle cx="2" cy="2" r="2" stroke="none"/><circle cx="2" cy="2" r="1.5"/></g><g data-name="Ellipse 95" transform="translate(434.16 9.949)" fill="none" stroke="#1f2829"><circle cx="2" cy="2" r="2" stroke="none"/><circle cx="2" cy="2" r="1.5"/></g><g data-name="Path 1184" fill="#e5e058"><path d="m451.306 60.238-.875.485a.5.5 0 0 1-.68-.195l-3.878-6.997a.5.5 0 0 1 .195-.68l.875-.484a.5.5 0 0 1 .68.195l3.878 6.997a.5.5 0 0 1-.195.68Z"/><path d="m446.31 53.289 3.879 6.997.875-.485-3.879-6.997-.875.485m-.484-.875.874-.485a1 1 0 0 1 1.36.39l3.878 6.997a1 1 0 0 1-.39 1.36l-.874.484a1 1 0 0 1-1.36-.39l-3.878-6.996a1 1 0 0 1 .39-1.36Z" fill="#1f2829"/></g><g data-name="Rectangle 174" transform="rotate(27 143.868 955.314)" fill="#e5e058" stroke="#1f2829"><rect width="3" height="10" rx="1" stroke="none"/><rect x=".5" y=".5" width="2" height="9" rx=".5" fill="none"/></g></g><g data-name="Group 227" stroke="#1f2829" stroke-linecap="round"><path data-name="Path 1066" d="M427.441 283.363v-3.906H392v-58.521h78.744v58.521h-35.857v3.906h15.644l3.051 3.85h-44.49l4.621-3.85Z" fill="none" stroke-linejoin="round"/><path data-name="Path 1067" d="M408 289.177h46.339" fill="none"/><g data-name="Ellipse 96" transform="translate(428.5 274.377)" fill="#61b3b1" stroke-linejoin="round"><circle cx="2.5" cy="2.5" r="2.5" stroke="none"/><circle cx="2.5" cy="2.5" r="2" fill="none"/></g><path data-name="Path 1068" d="M397.959 276.215h31.073" fill="none"/><path data-name="Path 1069" d="M432.959 276.215h31.073" fill="none"/><g data-name="Rectangle 176" transform="translate(394.5 223.377)" fill="none" stroke-linejoin="round"><rect width="73" height="50" rx="5" stroke="none"/><rect x=".5" y=".5" width="72" height="49" rx="4.5"/></g></g><path data-name="Path 1070" d="m342.467 300.177 2.842-4.588s10.668-.582 11.615-12.848 2-27.16 0-41.971c0 0 2.273-14.7-32.332-16 0 0-20.9-1.135-27.7 0s2.818-3.193 2.818-3.193l-30.941-33.969s-5.279.288-2.754-3.851c0 0 2.537-1.774 3.949 0a2.783 2.783 0 0 1 .465 2.357l33 34.143a23.6 23.6 0 0 1 14.873 0l38.182-22.526s-.473-2.379 1.053-3.118c0 0 3.1-.987 3.5 1.184 0 0 .512 2.647-.461 3.057a6 6 0 0 1-2.793 0l-37.506 23.318s5.557 2.436 5.863 5.264c0 0-33.553-2.673-51.816 1.356 0 0-8.453 1.467-9.723 9.173 0 0-3.994 24.294 0 48.8 0 0 .369 5.591 14.693 6.354 0 0 33.875 3.725 48.146 0 0 0 9.334-1.621 10.029-10.372 0 0-.518-2.583 5.955-2.463h9.2s2.867.474 2.859-.8-3.223-1.246-3.223-1.246h-12.4s-2.639.411-2.389-1.4c0 0-.328-1.215 2.389-1.141s13.941 0 13.941 0 1.668.265 1.684-.911c0 0 .293-1.613-2.033-1.539s-13.83 0-13.83 0-1.732.426-1.553-1.17c0 0-.152-1.131 1.791-1.035h13.941s2.2.343 2.109-1.221c0 0 .016-1.019-2.109-.949h-14.566s-1.824.147-1.166-1.651c0 0-.26-.424 1.553-.361s14.5 0 14.5 0 2.109.132 2.064-1.231-2.385-1.048-2.385-1.048h-14.566s-1.248.2-1.166-1.012c0 0-.3-1.277 1.3-1.214h14.992s1.676.293 1.545-1.611c0 0 .023-.828-1.789-.724H339.23s-1.531.167-1.322-.978 1.709-.976 1.709-.976h14.744s1.912.379 1.82-.935-2.064-1.05-2.064-1.05H342.56s-6.363.377-3.5-7.444c0 0 1.816-5.776 6.193-5.63a26.329 26.329 0 0 1 5.373.466s1.682.388 1.438 1.4-3.135.792-3.135.792h-5.652s-2.979.224-2.525-2.517c0 0 .678-5.262 5.672-5.033 0 0 5.906-.117 5.641 5.033 0 0 1.076 6.953-5.445 6.969 0 0-4.006.293-7-4.452 0 0-2.709-5.628-3.307-6.614s-2.387-4.826-9.84-5.746c0 0-15.189-2.962-25.221-3.123 0 0-20.1.758-27.875 3.7 0 0-5.742 1.03-6.77 9.121 0 0-5.6 41.255 3.543 45.06s30.105 3.869 30.105 3.869 33.383 1.7 34.406-9.388 3.748-43.135-2.492-44.585-21.488-7.874-48.348-3.308c0 0-12.381.71-13.672 5.282s-4.891 21.564-1.514 42.807c0 0 1.84 14.907 4.066 15.034s10.729 1.039 11.119-.957-7.742-1.571-7.742-1.571-1.959.722-1.723.849-3.205 2.2 14.049 1.679c0 0 37.645.821 42.734 0 0 0 11.061.3 11.936-1.56 0 0 1.281-2.25-6.951-1.387 0 0-8.2.949-1.463 5.349l-70.062-.169" fill="none" stroke="#1f2829" stroke-linecap="round" stroke-linejoin="round"/><g data-name="Group 228" stroke="#1f2829" stroke-linecap="round"><g data-name="Rectangle 170" transform="translate(147.003 211)" fill="none" stroke-linejoin="round"><rect width="79" height="54" rx="5" stroke="none"/><rect x=".5" y=".5" width="78" height="53" rx="4.5"/></g><g data-name="Rectangle 171" transform="translate(151.003 215)" fill="none" stroke-linejoin="round"><rect width="58" height="46" rx="6" stroke="none"/><rect x=".5" y=".5" width="57" height="45" rx="5.5"/></g><g data-name="Rectangle 172" transform="translate(211.003 216)" fill="#fed0a6" stroke-linejoin="round"><rect width="12" height="44" rx="2" stroke="none"/><rect x=".5" y=".5" width="11" height="43" rx="1.5" fill="none"/></g><path data-name="Path 1052" d="M213.044 248.125h7.764" fill="none"/><path data-name="Path 1071" d="M213.044 246.125h7.764" fill="none"/><path data-name="Path 1072" d="M213.044 244.125h7.764" fill="none"/><path data-name="Path 1053" d="M213.044 250.25h7.764" fill="none"/><path data-name="Path 1054" d="M213.044 252.25h7.764" fill="none"/><path data-name="Path 1055" d="M213.044 254.25h7.764" fill="none"/><path data-name="Path 1056" d="M213.044 256.25h7.764" fill="none"/><g data-name="Rectangle 174" transform="rotate(47 -143.588 362.23)" fill="#e5e058" stroke-linejoin="round"><rect width="2.651" height="8.837" rx="1" stroke="none"/><rect x=".5" y=".5" width="1.651" height="7.837" rx=".5" fill="none"/></g><g data-name="Rectangle 175" transform="translate(215.722 230.341)" fill="#e5e058" stroke-linejoin="round"><rect width="2.651" height="8.837" rx="1" stroke="none"/><rect x=".5" y=".5" width="1.651" height="7.837" rx=".5" fill="none"/></g><path data-name="Path 1057" d="M213.934 225.493s-1.08-2.566 1.048-3.953a3.329 3.329 0 0 1 3.744-.213" fill="#61b3b1" stroke-linejoin="round"/><path data-name="Path 1060" d="M215.96 237.842s-2.69-1.188-2.255-3.69 2.255-2.595 2.255-2.595" fill="#f34530" stroke-linejoin="round"/><path data-name="Path 1058" d="M215.298 227.05a3.24 3.24 0 0 0 3.936-.348 3.396 3.396 0 0 0 .853-3.858" fill="#61b3b1" stroke-linejoin="round" stroke-width="1.001"/><path data-name="Path 1059" d="M218.027 237.906a3.24 3.24 0 0 0 2.432-3.115 3.395 3.395 0 0 0-2.24-3.256" fill="#f34530" stroke-linejoin="round"/><g data-name="Ellipse 94" transform="translate(147.003 184)" fill="none" stroke-linejoin="round"><circle cx="2" cy="2" r="2" stroke="none"/><circle cx="2" cy="2" r="1.5"/></g><g data-name="Ellipse 95" transform="translate(216.003 188)" fill="none" stroke-linejoin="round"><circle cx="2" cy="2" r="2" stroke="none"/><circle cx="2" cy="2" r="1.5"/></g><path data-name="Path 1073" d="M184.964 211s3.073-4.064 9.978-3.869 10.139 4.287 10.139 4.287" fill="#e5e058" stroke-linejoin="round"/><path data-name="Path 1074" d="m187.984 208.38-37.54-21.349" fill="none"/><path data-name="Path 1075" d="m216.929 191.088-17.166 16.565" fill="none"/><path data-name="Path 1076" d="M153.898 264.772a1.616 1.616 0 0 0 1.714 2.2h4.831a1.82 1.82 0 0 0 1.859-1.968" fill="#e58458" stroke-linejoin="round"/><path data-name="Path 1077" d="M209.086 264.772a1.616 1.616 0 0 0 1.714 2.2h4.831a1.82 1.82 0 0 0 1.859-1.968" fill="#e58458" stroke-linejoin="round"/></g><g data-name="Group 229" stroke="#1f2829" stroke-linecap="round"><path data-name="Path 1078" d="M390.765 192.606h57.061s.612 6.021 1.689 6.126 1.589-3.68 1.766-6.126h8.276v-53.62h-18.535s-1.428-2.547-7.905-2.485-6.665 2.485-6.665 2.485l-47.291.538v53.082h8s.211 6.1 1.277 6.126 1.683.289 2.327-6.126Z" fill="none" stroke-linejoin="round"/><path data-name="Path 1079" d="M395.199 146.859s38.927-2.458 46.438.58a3.2 3.2 0 0 1 1.427 2.226c.214 1.53 1.453 28.709-.383 33.163 0 0-.126 2.736-5.845 2.854s-35.691-.237-38.332-.455-3.75-.859-4.092-6.58-.746-23.062 0-28.981c.002-.002.096-2.478.787-2.807Z" fill="none" stroke-linejoin="round"/><g data-name="Ellipse 97" transform="translate(446.099 179.606)" fill="#e58458" stroke-linejoin="round"><circle cx="5" cy="5" r="5" stroke="none"/><circle cx="5" cy="5" r="4.5" fill="none"/></g><g data-name="Ellipse 98" transform="translate(382.099 179.606)" fill="#e58458" stroke-linejoin="round"><circle cx="5" cy="5" r="5" stroke="none"/><circle cx="5" cy="5" r="4.5" fill="none"/></g><path data-name="Path 1080" d="M452.538 180.882v7.787" fill="none"/><path data-name="Path 1098" d="M385.659 180.882v7.787" fill="none"/><path data-name="Path 1081" d="M450.299 183.456v5.6" fill="none"/><path data-name="Path 1099" d="M387.893 183.456v5.6" fill="none"/><path data-name="Path 1082" d="M447.818 176.368h8.074" fill="none"/><path data-name="Path 1097" d="M390.38 176.368h-8.074" fill="none"/><path data-name="Path 1083" d="M447.818 172.368h8.074" fill="none"/><path data-name="Path 1096" d="M390.38 172.368h-8.074" fill="none"/><path data-name="Path 1084" d="M447.818 168.368h8.074" fill="none"/><path data-name="Path 1095" d="M390.38 168.368h-8.074" fill="none"/><path data-name="Path 1085" d="M447.818 164.368h8.074" fill="none"/><path data-name="Path 1094" d="M390.38 164.368h-8.074" fill="none"/><path data-name="Path 1086" d="M447.818 160.368h8.074" fill="none"/><path data-name="Path 1093" d="M390.38 160.368h-8.074" fill="none"/><path data-name="Path 1087" d="M447.818 156.368h8.074" fill="none"/><path data-name="Path 1092" d="M390.38 156.368h-8.074" fill="none"/><path data-name="Path 1088" d="M447.818 152.368h8.074" fill="none"/><path data-name="Path 1091" d="M390.38 152.368h-8.074" fill="none"/><path data-name="Path 1089" d="M447.818 148.368h8.074" fill="none"/><path data-name="Path 1090" d="M390.38 148.368h-8.074" fill="none"/><path data-name="Path 1100" d="m436.467 136.506 5.862-21.6" fill="none"/><path data-name="Path 1101" d="m430.433 136.506-7.06-18.1" fill="none"/><g data-name="Ellipse 99" transform="translate(421.099 114.606)" fill="none" stroke-linejoin="round"><circle cx="2" cy="2" r="2" stroke="none"/><circle cx="2" cy="2" r="1.5"/></g><g data-name="Ellipse 100" transform="translate(440.099 111.606)" fill="none" stroke-linejoin="round"><circle cx="2" cy="2" r="2" stroke="none"/><circle cx="2" cy="2" r="1.5"/></g></g><g data-name="Group 233" stroke-linecap="round"><path data-name="Path 1118" d="M246.573 120.204v11.733h11.2s4.043-.974 3.8-6.26a5.316 5.316 0 0 0-4.939-5.473Z" fill="#e58458" stroke="#1f2829" stroke-linejoin="round"/><path data-name="Path 1117" d="M246.573 105.204v11.733h11.2s4.043-.974 3.8-6.26a5.316 5.316 0 0 0-4.939-5.473Z" fill="#e58458" stroke="#1f2829" stroke-linejoin="round"/><g data-name="Group 231" stroke="#1f2829" stroke-linejoin="round"><g data-name="Rectangle 175" transform="translate(254.249 106.652)" fill="#fed0a6"><rect width="2.651" height="8.837" rx="1" stroke="none"/><rect x=".5" y=".5" width="1.651" height="7.837" rx=".5" fill="none"/></g><path data-name="Path 1060" d="M254.488 114.153s-2.692-1.188-2.256-3.69 2.255-2.595 2.255-2.595" fill="#61b3b1"/><path data-name="Path 1059" d="M256.554 114.217a3.24 3.24 0 0 0 2.432-3.115 3.395 3.395 0 0 0-2.24-3.256" fill="#61b3b1"/></g><g data-name="Group 232" stroke="#1f2829" stroke-linejoin="round"><g data-name="Rectangle 175" transform="rotate(56 14.182 304.332)" fill="#fed0a6"><rect width="2.651" height="8.837" rx="1" stroke="none"/><rect x=".5" y=".5" width="1.651" height="7.837" rx=".5" fill="none"/></g><path data-name="Path 1060" d="M252.47 126.787s-.521-2.895 1.797-3.934 3.413.42 3.413.42" fill="#61b3b1"/><path data-name="Path 1059" d="M253.572 128.536a3.24 3.24 0 0 0 3.942.274 3.395 3.395 0 0 0 1.447-3.678" fill="#61b3b1"/></g><g data-name="Rectangle 177" fill="none" stroke="#1f2829" stroke-linejoin="round"><path d="M168.355 97.179h100v71h-100z" stroke="none"/><path d="M168.855 97.679h99v70h-99z"/></g><g data-name="Rectangle 178" fill="none" stroke="#1f2829" stroke-linejoin="round"><path d="M170.355 99.179h95v67h-95z" stroke="none"/><path d="M170.855 99.679h94v66h-94z"/></g><path data-name="Path 1102" d="M241.095 99.953v65.638" fill="none" stroke="#1f2829"/><path data-name="Path 1103" d="M177.555 104.385s-5.3 11.718-3.919 30.983 2.138 24.291 6.715 27.458c0 0 1.625 1.17 5.392 1.325s47.838 0 47.838 0 5.715.969 5.332-10.79c0 0 1.334-41.538 0-43.933s-.733-6.359-10.728-6.282-41.159 0-41.159 0-7.741-.497-9.471 1.239Z" fill="none" stroke="#1f2829" stroke-linejoin="round"/><path data-name="Path 1104" d="M243.681 99.953v65.638" fill="none" stroke="#1f2829"/><path data-name="Path 1105" d="M243.681 137.02h20.971" fill="none" stroke="#1f2829"/><g data-name="Path 1185" fill="#e5e058"><path d="M250.355 141.679c-.827 0-1.5-.673-1.5-1.5s.673-1.5 1.5-1.5 1.5.673 1.5 1.5-.673 1.5-1.5 1.5Z"/><path d="M250.355 139.179a1.001 1.001 0 0 0 0 2 1.001 1.001 0 0 0 0-2m0-1a2 2 0 1 1 0 4 2 2 0 0 1 0-4Z" fill="#1f2829"/></g><g data-name="Ellipse 103" transform="translate(248.355 169.179)" fill="#61b3b1" stroke="#1f2829" stroke-linejoin="round"><circle cx="1.5" cy="1.5" r="1.5" stroke="none"/><circle cx="1.5" cy="1.5" r="1" fill="none"/></g><g data-name="Ellipse 102" transform="translate(256.355 138.179)" fill="#f34530" stroke="#1f2829" stroke-linejoin="round"><circle cx="2" cy="2" r="2" stroke="none"/><circle cx="2" cy="2" r="1.5" fill="none"/></g><path data-name="Path 1106" d="M243.681 163.303h20.849" fill="none" stroke="#1f2829"/><path data-name="Path 1107" d="M243.681 161.303h20.849" fill="none" stroke="#1f2829"/><path data-name="Path 1108" d="M243.681 159.303h20.849" fill="none" stroke="#1f2829"/><path data-name="Path 1109" d="M243.681 157.303h20.849" fill="none" stroke="#1f2829"/><path data-name="Path 1110" d="M243.681 155.303h20.849" fill="none" stroke="#1f2829"/><path data-name="Path 1111" d="M243.681 153.303h20.849" fill="none" stroke="#1f2829"/><path data-name="Path 1112" d="M243.681 151.303h20.849" fill="none" stroke="#1f2829"/><path data-name="Path 1113" d="M243.681 149.303h20.849" fill="none" stroke="#1f2829"/><path data-name="Path 1114" d="M243.681 147.303h20.849" fill="none" stroke="#1f2829"/><path data-name="Path 1115" d="M243.681 145.303h20.849" fill="none" stroke="#1f2829"/><path data-name="Path 1116" d="M243.681 143.303h20.849" fill="none" stroke="#1f2829"/><path data-name="Path 1119" d="M182.755 167.915s-.308 2.764 1.691 2.56a43.729 43.729 0 0 1 5.382 0 2.153 2.153 0 0 0 1.727-2.56" fill="#fed0a6" stroke="#1f2829" stroke-linejoin="round"/><path data-name="Path 1120" d="M196.534 167.842s.42 2.341 3.715 2.252 3.632-2.1 3.632-2.1" fill="#e5e058" stroke="#1f2829" stroke-linejoin="round"/><path data-name="Path 1121" d="M205.534 167.842s.42 2.341 3.715 2.252 3.632-2.1 3.632-2.1" fill="#e5e058" stroke="#1f2829" stroke-linejoin="round"/><path data-name="Path 1122" d="M214.534 167.842s.42 2.341 3.715 2.252 3.632-2.1 3.632-2.1" fill="#e5e058" stroke="#1f2829" stroke-linejoin="round"/><path data-name="Path 1123" d="M174.967 167.915v3.823s-.117 1.792 2.065 1.75 41.808 0 41.808 0h41.407s2.627.286 2.586-1.676 0-4.052 0-4.052" fill="none" stroke="#1f2829" stroke-linejoin="round"/><path data-name="Path 1124" d="M179.324 173.684v1.634s-.141 1.262 1.072 1.183 3.17 0 3.17 0 1 .179.953-1.183a11.359 11.359 0 0 1 0-1.634" fill="none" stroke="#1f2829" stroke-linejoin="round"/><path data-name="Path 1125" d="M255.807 173.684v1.634s-.069 1.262.525 1.183a9.365 9.365 0 0 1 1.555 0s.49.179.467-1.183 0-1.634 0-1.634" fill="none" stroke="#1f2829" stroke-linejoin="round"/></g><g data-name="Group 234"><g data-name="Rectangle 179" transform="translate(35.821 29.12)" fill="none" stroke="#1f2829"><rect width="65" height="44" rx="3" stroke="none"/><rect x=".5" y=".5" width="64" height="43" rx="2.5"/></g><g data-name="Ellipse 104" transform="translate(59.821 74.12)" fill="#e58458" stroke="#1f2829"><circle cx="2.5" cy="2.5" r="2.5" stroke="none"/><circle cx="2.5" cy="2.5" r="2" fill="none"/></g><g data-name="Ellipse 105" transform="translate(65.821 74.12)" fill="#61b3b1" stroke="#1f2829"><circle cx="2.5" cy="2.5" r="2.5" stroke="none"/><circle cx="2.5" cy="2.5" r="2" fill="none"/></g><g data-name="Ellipse 106" transform="translate(71.821 74.12)" fill="#f34530" stroke="#1f2829"><circle cx="2.5" cy="2.5" r="2.5" stroke="none"/><circle cx="2.5" cy="2.5" r="2" fill="none"/></g><g data-name="Path 1186" fill="#e5e058"><path d="M48.821 78.62h-8c-.827 0-1.5-.673-1.5-1.5s.673-1.5 1.5-1.5h8c.827 0 1.5.673 1.5 1.5s-.673 1.5-1.5 1.5Z"/><path d="M40.821 76.12a1.001 1.001 0 0 0 0 2h8a1.001 1.001 0 0 0 0-2h-8m0-1h8a2 2 0 1 1 0 4h-8a2 2 0 1 1 0-4Z" fill="#1f2829"/></g><g data-name="Rectangle 181" transform="translate(85.821 75.12)" fill="#e5e058" stroke="#1f2829"><rect width="12" height="4" rx="2" stroke="none"/><rect x=".5" y=".5" width="11" height="3" rx="1.5" fill="none"/></g><path data-name="Path 1127" d="M63.68 85.698s-.016 4.917 4.612 4.765 4.406-4.765 4.406-4.765 11.117-.222 13.688 1.265 0 3.145 0 3.145-3.169 2.411-18.366 2.1c0 0-14.587.01-17.887-1.74s-1.245-2.993 0-3.354a80.4 80.4 0 0 1 13.547-1.416Z" fill="none" stroke="#1f2829"/><path data-name="Path 1128" d="M35.821 24.048h63.648s5.656-.039 5.773 5.118 0 47.712 0 47.712 1.069 4.78-3.887 4.786-29.508 0-29.508 0l-1.728 1.846v2.394s-.206 1.995-1.964 1.995-2.5-1.073-2.42-1.995a22.437 22.437 0 0 0 0-2.394l-2.087-1.846H35.2s-4.584-.283-4.533-4.889 0-47.988 0-47.988-.446-5.042 5.154-4.739Z" fill="none" stroke="#1f2829"/></g><g data-name="Group 235" stroke="#1f2829" stroke-linecap="round" stroke-linejoin="round"><g data-name="Rectangle 182" transform="translate(21.529 223.517)" fill="none"><rect width="92" height="47" rx="3" stroke="none"/><rect x=".5" y=".5" width="91" height="46" rx="2.5"/></g><path data-name="Path 1129" d="M65.342 277.436s-33.3 1.062-44.2-2.057c0 0-2.629.156-2.552-3.844s0-46.238 0-46.238-.982-4.661 7.328-4.631 84.5 0 84.5 0 5.428-.115 5.578 4.631v47.036a3.281 3.281 0 0 1-3.271 3.046s-13.3 2.836-43.583 2.057v3.305s28.615 6.205 32.369 8.1-29.156-4.841-32.369-4.474-2.409-.527-3.8 0-18.137 1.692-31.83 4.474c0 0 16.917-4.818 31.83-8.1Z" fill="none"/><path data-name="Path 1130" d="M65.112 279.31s-26.361 3.615-28.519 4.53 23.142-1.771 23.142-1.771" fill="none"/><path data-name="Path 1131" d="M69.529 279.31s26.361 3.615 28.519 4.53-23.142-1.771-23.142-1.771" fill="none"/><g data-name="Ellipse 107" transform="translate(65.529 272.517)" fill="#e5e058"><circle cx="2" cy="2" r="2" stroke="none"/><circle cx="2" cy="2" r="1.5" fill="none"/></g><g data-name="Ellipse 108" transform="translate(92.529 272.517)" fill="#f34530"><circle cx="1.5" cy="1.5" r="1.5" stroke="none"/><circle cx="1.5" cy="1.5" r="1" fill="none"/></g><g data-name="Ellipse 109" transform="translate(96.529 272.517)" fill="#e58458"><circle cx="1.5" cy="1.5" r="1.5" stroke="none"/><circle cx="1.5" cy="1.5" r="1" fill="none"/></g><g data-name="Ellipse 110" transform="translate(100.529 272.517)" fill="#61b3b1"><circle cx="1.5" cy="1.5" r="1.5" stroke="none"/><circle cx="1.5" cy="1.5" r="1" fill="none"/></g></g><g data-name="Group 236" stroke="#1f2829" stroke-linecap="round"><path data-name="Path 1132" d="M147.717 76.141v3.691l-.767 1.761h5.028l-.889-1.761v-3.687h59.657v3.687l-1.207 1.761h5.544l-1.039-1.761v-3.687h2.768a2.4 2.4 0 0 0 2.529-2.838c-.16-3 0-47.223 0-47.223s.6-2.466-2.529-2.51h-72.5s-3.654-.675-3.651 2.51 0 47.223 0 47.223-.64 2.7 1.786 2.838 5.27-.004 5.27-.004Z" fill="none" stroke-linejoin="round"/><path data-name="Path 1133" d="M155.014 28.515c-4.1.955-7.979-.61-8.578 7.14s-.48 27.815.6 31.692 5.172 3.564 5.172 3.564 14.588 2.314 37.283 0c0 0 6.393 1.3 6.06-10.5a142.065 142.065 0 0 0 0-24.752s.022-6.9-6.06-7.14-30.374-.959-34.477-.004Z" fill="none" stroke-linejoin="round"/><path data-name="Path 1134" d="M173.382 23.511s-.859-2.509 3.32-2.491 9.4 0 9.4 0a2.321 2.321 0 0 1 2.421 2.491" fill="none" stroke-linejoin="round"/><path data-name="Path 1135" d="m175.81 21.02-10.041-10.926" fill="none"/><path data-name="Path 1136" d="m185.689 21.02 9.2-10.879" fill="none"/><g data-name="Ellipse 111" transform="translate(162.931 6.832)" fill="none" stroke-linejoin="round"><circle cx="2" cy="2" r="2" stroke="none"/><circle cx="2" cy="2" r="1.5"/></g><g data-name="Ellipse 112" transform="translate(193.931 6.832)" fill="none" stroke-linejoin="round"><circle cx="2" cy="2" r="2" stroke="none"/><circle cx="2" cy="2" r="1.5"/></g><g data-name="Ellipse 113" transform="translate(196.931 61.832)" fill="#e58458" stroke-linejoin="round"><circle cx="5" cy="5" r="5" stroke="none"/><circle cx="5" cy="5" r="4.5" fill="none"/></g><g data-name="Ellipse 114" transform="rotate(45.97 36.087 281.012)" fill="#61b3b1" stroke-linejoin="round"><circle cx="5" cy="5" r="5" stroke="none"/><circle cx="5" cy="5" r="4.5" fill="none"/></g><path data-name="Path 1137" d="m200.742 65.638 4.349 4.271" fill="none"/><path data-name="Path 1138" d="m218.925 60.925-.048 6.096" fill="none"/><path data-name="Path 1139" d="M199.017 58.615h17.042" fill="none"/><path data-name="Path 1140" d="M199.017 55.615h17.042" fill="none"/><path data-name="Path 1141" d="M199.017 52.615h17.042" fill="none"/><path data-name="Path 1142" d="M199.017 49.615h17.042" fill="none"/><path data-name="Path 1143" d="M199.017 46.615h17.042" fill="none"/><path data-name="Path 1144" d="M199.017 43.615h17.042" fill="none"/><path data-name="Path 1145" d="M199.017 40.615h17.042" fill="none"/><path data-name="Path 1146" d="M199.017 37.615h17.042" fill="none"/><path data-name="Path 1147" d="M199.017 34.615h17.042" fill="none"/><path data-name="Path 1148" d="M199.017 31.615h17.042" fill="none"/></g><g data-name="Group 237" stroke-linecap="round"><path data-name="Path 1149" d="M318.57 127.806h31.722s4.531-.336 4.375 3.556 0 49.938 0 49.938.621 4.155-1.679 4.1v1.948h-4.719v-1.942h-43.925v1.948h-3.877v-1.948s-3.344 1.382-3.1-4.874v-49.161s-1.233-3.576 4.479-3.556h7.269s.883-1.974 4.693-2.049 4.762 2.04 4.762 2.04Z" fill="none" stroke="#1f2829" stroke-linejoin="round"/><path data-name="Path 1150" d="m302.266 114.055 8.532 11.987" fill="none" stroke="#1f2829"/><path data-name="Path 1151" d="m325.024 114.098-7.909 11.945" fill="none" stroke="#1f2829"/><g data-name="Ellipse 115" transform="translate(300.052 111.606)" fill="none" stroke="#1f2829" stroke-linejoin="round"><circle cx="1.5" cy="1.5" r="1.5" stroke="none"/><circle cx="1.5" cy="1.5" r="1"/></g><g data-name="Ellipse 116" transform="translate(324.052 111.606)" fill="none" stroke="#1f2829" stroke-linejoin="round"><circle cx="1.5" cy="1.5" r="1.5" stroke="none"/><circle cx="1.5" cy="1.5" r="1"/></g><g data-name="Ellipse 117" transform="translate(303.052 175.606)" fill="#61b3b1" stroke="#1f2829" stroke-linejoin="round"><circle cx="3" cy="3" r="3" stroke="none"/><circle cx="3" cy="3" r="2.5" fill="none"/></g><g data-name="Path 1183" fill="#61b3b1"><path d="M346.052 181.106a2.503 2.503 0 0 1-2.5-2.5c0-1.378 1.122-2.5 2.5-2.5s2.5 1.122 2.5 2.5-1.122 2.5-2.5 2.5Z"/><path d="M346.052 176.606c-1.103 0-2 .897-2 2s.897 2 2 2 2-.897 2-2-.897-2-2-2m0-1a3 3 0 1 1 0 6 3 3 0 0 1 0-6Z" fill="#1f2829"/></g><g data-name="Ellipse 118" transform="translate(301.052 173.606)" fill="none" stroke="#1f2829" stroke-linejoin="round"><circle cx="5" cy="5" r="5" stroke="none"/><circle cx="5" cy="5" r="4.5"/></g><g data-name="Ellipse 120" transform="translate(341.052 173.606)" fill="none" stroke="#1f2829" stroke-linejoin="round"><circle cx="5" cy="5" r="5" stroke="none"/><circle cx="5" cy="5" r="4.5"/></g><path data-name="Path 1152" d="M313.729 181.606h25.441" fill="none" stroke="#1f2829"/><path data-name="Path 1153" d="M313.729 178.606h25.441" fill="none" stroke="#1f2829"/><path data-name="Path 1154" d="M313.729 175.606h25.441" fill="none" stroke="#1f2829"/><path data-name="Path 1155" d="M311.501 133.343s23.173-.567 31.9 0c0 0 6.181-.319 6.2 5.152 0 0 .2 16.657-.42 28.335 0 0-.169 6-7.74 6.019 0 0-27.815.42-33.89-.91 0 0-4.675.541-4.83-9.333 0 0-.184-15.631.857-24.856.005-.002-.183-4.144 7.923-4.407Z" fill="none" stroke="#1f2829" stroke-linejoin="round"/></g><g data-name="Group 238" stroke="#1f2829" stroke-linecap="round"><path data-name="Path 1156" d="M53.697 124.407h71.635s7.564-1.656 7.444 5.579v46.285s1.007 5.125-3.33 5.556v2.488h-7.96v-2.488H58.241v2.488h-7.692v-2.488s-4.113 1.808-4.267-5.556v-46.285s-2.301-5.741 7.415-5.579Z" fill="none" stroke-linejoin="round"/><path data-name="Path 1157" d="M91.308 124.243s-.01-3.888 6.226-3.631 5.533 3.631 5.533 3.631" fill="none" stroke-linejoin="round"/><path data-name="Path 1158" d="m86.008 108.973 8.115 11.849" fill="none"/><path data-name="Path 1159" d="m108.254 108.96-7.866 12.034" fill="none"/><g data-name="Ellipse 121" transform="translate(83.008 105.45)" fill="none" stroke-linejoin="round"><circle cx="2" cy="2" r="2" stroke="none"/><circle cx="2" cy="2" r="1.5"/></g><g data-name="Ellipse 122" transform="translate(107.008 105.45)" fill="none" stroke-linejoin="round"><circle cx="2" cy="2" r="2" stroke="none"/><circle cx="2" cy="2" r="1.5"/></g><path data-name="Path 1160" d="M59.689 130.05s25.4-1.969 39.743 0c0 0 7.416.252 7.569 7.378 0 0-.084 25.4-.985 32.983 0 0-1.18 5.781-7.179 5.994 0 0-32.62.928-40.292 0 0 0-6.4.382-6.665-9.575s-.121-23.882.972-30.74 2.899-5.494 6.837-6.04Z" fill="none" stroke-linejoin="round"/><g data-name="Ellipse 123" transform="translate(116.008 148.45)" fill="#61b3b1" stroke-linejoin="round"><circle cx="3.5" cy="3.5" r="3.5" stroke="none"/><circle cx="3.5" cy="3.5" r="3" fill="none"/></g><g data-name="Ellipse 124" transform="translate(110.008 167.45)" fill="#e58458" stroke-linejoin="round"><circle cx="4.5" cy="4.5" r="4.5" stroke="none"/><circle cx="4.5" cy="4.5" r="4" fill="none"/></g><g data-name="Ellipse 125" transform="translate(120.008 167.45)" fill="#e58458" stroke-linejoin="round"><circle cx="4.5" cy="4.5" r="4.5" stroke="none"/><circle cx="4.5" cy="4.5" r="4" fill="none"/></g><path data-name="Path 1161" d="M110.566 171.95a6.62 6.62 0 0 0 7.931 0" fill="none"/><path data-name="Path 1162" d="M120.566 171.95a6.62 6.62 0 0 0 7.931 0" fill="none"/><path data-name="Path 1163" d="M111.442 164.513h16.851" fill="none"/><path data-name="Path 1168" d="M111.442 145.387h16.851" fill="none"/><path data-name="Path 1164" d="M111.442 161.513h16.851" fill="none"/><path data-name="Path 1167" d="M111.442 142.387h16.851" fill="none"/><path data-name="Path 1165" d="M111.442 158.513h16.851" fill="none"/><path data-name="Path 1166" d="M111.442 139.387h16.851" fill="none"/><path data-name="Path 1169" d="M111.442 136.387h16.851" fill="none"/><path data-name="Path 1170" d="M111.442 133.387h16.851" fill="none"/></g><g data-name="Group 239" stroke="#1f2829" stroke-linecap="round"><g data-name="Rectangle 183" transform="translate(278.245 41.332)" fill="none" stroke-linejoin="round"><rect width="62" height="39" rx="3" stroke="none"/><rect x=".5" y=".5" width="61" height="38" rx="2.5"/></g><g data-name="Rectangle 184" transform="translate(282.245 44.332)" fill="none" stroke-linejoin="round"><rect width="44" height="33" rx="3" stroke="none"/><rect x=".5" y=".5" width="43" height="32" rx="2.5"/></g><path data-name="Path 1171" d="M291.615 48.452s16.376-1.873 27.542 0a5.723 5.723 0 0 1 3.981 4.505s2.109 10.61 0 17.41c0 0-.636 3.578-5.662 3.971 0 0-18.531 2.046-27.841-.782 0 0-3.138.026-3.449-8.206a32.988 32.988 0 0 1 1.264-14.153s.456-2.415 4.165-2.745Z" fill="none" stroke-linejoin="round"/><path data-name="Path 1172" d="m290.536 80.332-5.105 19.076s-.628 3.433 1.2 0c0 0 6.113-15.565 7.084-19.5" fill="none" stroke-linejoin="round"/><path data-name="Path 1175" d="m328.273 80.332 5.105 19.076s.628 3.433-1.2 0c0 0-6.112-15.565-7.083-19.5" fill="none" stroke-linejoin="round"/><path data-name="Path 1173" d="m297 80.332-3.626 14.757s-.628 3.45 1.611-1.893l4.818-12.864" fill="none" stroke-linejoin="round"/><path data-name="Path 1174" d="m321.811 80.332 3.626 14.757s.628 3.45-1.611-1.893l-4.818-12.864" fill="none" stroke-linejoin="round"/><g data-name="Rectangle 185" transform="translate(328.245 54.332)" fill="#fed0a6" stroke-linejoin="round"><rect width="9" height="19" rx="1" stroke="none"/><rect x=".5" y=".5" width="8" height="18" rx=".5" fill="none"/></g><g data-name="Rectangle 186" transform="translate(332.245 74.332)" fill="#f34530" stroke-linejoin="round"><rect width="5" height="4" rx="1" stroke="none"/><rect x=".5" y=".5" width="4" height="3" rx=".5" fill="none"/></g><g data-name="Ellipse 126" transform="translate(328.245 44.332)" fill="#e58458" stroke-linejoin="round"><circle cx="4.5" cy="4.5" r="4.5" stroke="none"/><circle cx="4.5" cy="4.5" r="4" fill="none"/></g><path data-name="Path 1176" d="m329.856 51.027 4.776-5.391" fill="none"/><path data-name="Path 1177" d="m330.856 52.027 4.776-5.391" fill="none"/><path data-name="Path 1178" d="M330.689 55.185v17.466" fill="none"/><path data-name="Path 1179" d="M332.919 55.185v17.466" fill="none"/><path data-name="Path 1180" d="M334.919 55.185v17.466" fill="none"/><path data-name="Path 1181" d="m277.792 20.007 14.817 21.644" fill="none"/><path data-name="Path 1182" d="m294.198 41.651 27.7-24.968" fill="none"/><g data-name="Ellipse 127" transform="translate(276.245 18.332)" fill="none" stroke-linejoin="round"><circle cx="1" cy="1" r="1" stroke="none"/><circle cx="1" cy="1" r=".5"/></g><g data-name="Ellipse 128" transform="translate(321.245 15.332)" fill="none" stroke-linejoin="round"><circle cx="1" cy="1" r="1" stroke="none"/><circle cx="1" cy="1" r=".5"/></g></g></g></svg>