<svg xmlns="http://www.w3.org/2000/svg" width="1634" height="186"><defs><clipPath id="a"><path data-name="Rectangle 456" transform="translate(143 2136)" fill="none" d="M0 0h1634v186H0z"/></clipPath></defs><g transform="translate(-143 -2136)" clip-path="url(#a)"><path data-name="Path 443" d="M143.602 2136.185H1776.81v186.027H143.602Z" fill="#fffdf7"/><g data-name="Group 262" opacity=".599" fill="#35bac4"><circle data-name="Ellipse 158" cx="29.5" cy="29.5" r="29.5" transform="translate(763 2149)"/><circle data-name="Ellipse 163" cx="15.5" cy="15.5" r="15.5" transform="translate(1485 2288)"/><circle data-name="Ellipse 162" cx="18" cy="18" r="18" transform="translate(1208 2241)"/><circle data-name="Ellipse 160" cx="26" cy="26" r="26" transform="translate(177 2170)"/><circle data-name="Ellipse 161" cx="19" cy="19" r="19" transform="translate(356 2149)"/><circle data-name="Ellipse 159" cx="29.5" cy="29.5" r="29.5" transform="translate(1675 2173)"/><path data-name="Rectangle 201" d="m1113.551 2246.387 31.113 31.113-31.113 31.112-31.113-31.112z"/><path data-name="Rectangle 205" d="m1517.528 2154.763 23.236 49.83-49.83 23.236-23.236-49.83z"/><path data-name="Rectangle 204" d="m1221.363 2168.535 4.646 26.3-26.3 4.645-4.646-26.3z"/><path data-name="Rectangle 202" d="m274.321 2242.162 49.614 15.169-15.168 49.614-49.615-15.169z"/><path data-name="Rectangle 203" d="m657.765 2248.135 65.66-6.929 6.928 65.66-65.66 6.928z"/><path data-name="Polygon 7" d="m1033 2160 28 48h-56Z"/><path data-name="Polygon 8" d="m1556.488 2240.959 46.677 44.872-62.482 17.917Z"/><path data-name="Polygon 10" d="m1330.449 2183.25-22.48 79.214-57.452-59.435Z"/><path data-name="Polygon 9" d="m314.43 2159.866-13.851 48.808-35.4-36.622Z"/></g><g data-name="Group 212"><g data-name="Group 166" fill="none" stroke="#4f5052" stroke-linecap="round" stroke-width="2"><path data-name="Path 521" d="M871.97 2168.246c-3.1-.938-7.849-9.1-8.736-13.61s-6.583-6.658-6.583-6.658-9.461.4-10.373 8.969 8.051 0 8.051 0 3.052-4.45 7.992 3.844" stroke-linejoin="round"/><path data-name="Path 523" d="M846.212 2160.492s3.54 12.2 11.542 10.57 4.171-10.57 4.171-10.57" stroke-linejoin="round"/><path data-name="Path 524" d="M854.528 2171.211s-.127 7.018 4.7 6.7 5.867-7.217 5.768-9.557" stroke-linejoin="round"/><path data-name="Path 525" d="M862.842 2168.246s10.41-.673 14.329 1.018 12.179 5.585 9.883 23.87-15.788 22.677-15.788 22.677a63.468 63.468 0 0 1-30.853-.961" stroke-linejoin="round"/><path data-name="Path 526" d="M851.622 2169.999s-7.212 3-11.105 12.948-8.363 9.189-8.363 9.189" stroke-linejoin="round"/><path data-name="Path 527" d="M839.17 2203.957s7.278-6.555 9.088-9.636 3.615 9.135 1.465 14.87" stroke-linejoin="round"/><path data-name="Path 528" d="M840.032 2211.451s26.692-3.307 30.921-9.19a11.922 11.922 0 0 0 1.7-11.423" stroke-linejoin="round"/><path data-name="Path 529" d="M850.702 2217.241s-4.368 4.329-12.718 2.833-21.581-3.635-21.581-3.635-4.479 1.031-4.867-10.091-1.362-16.009-1.362-16.009-1.516-4.534 6.229-3.127l17.108 5.415a8.14 8.14 0 0 1 5.232 7.451l2 20" stroke-linejoin="round"/><path data-name="Path 530" d="M824.201 2199.578s.864 3.063 2.026 3.063 1.617 1.991.765 2.731-2.318 1.5-2.791 2.626-4.293.673-3.327-1.661.563-3.271 0-3.7-.746-3.981 1.719-3.562 1.608.503 1.608.503Z" stroke-linejoin="round"/><path data-name="Path 531" d="M887.451 2194.738s2.7 24.429 3.777 26.357 1.648 19.228-10.407 21.57-20.417 4.679-19.7 11.539c0 0 2.7 19.384 2.331 21.854s.382 4.933-3.1 5.548c0 0-4.549 2.594-8.937-4.04l-5.831-8.09" stroke-linejoin="round"/><path data-name="Path 532" d="M862.842 2250.422s25.153 9.122 40.669-6.019c0 0 5.9-6.113-13.636-8.539" stroke-linejoin="round"/><path data-name="Path 533" d="M904.347 2241.659s9.08-28.192 5.163-52.078c0 0-3.347-8.368-14.37-4.2 0 0-4.629 1.958-7.492 10.562" stroke-linejoin="round"/><path data-name="Path 534" d="M894.796 2250.714s6.375 37.694 7.578 38.8.162-36.611-1.2-42.4" stroke-linejoin="round"/><path data-name="Path 535" d="M811.037 2203.665s-32.541-.421-41.734 7.6c0 0-5.7 3.039-6.742 5.811s3.08 7.853 15.864 9.157 43.3 4.476 70.84 0c0 0 24.043-.726 14.837-9.157" stroke-linejoin="round"/><path data-name="Path 536" d="M845.586 2227.111s.747 73.632-2.175 74.386-3.079-10.126-3.079-10.126-.413-47.427-.622-63.492" stroke-linejoin="round"/><path data-name="Path 537" d="M774.38 2226.182s-9.851 62.745-6.678 67.679 13.642-66.761 13.642-66.761" stroke-linejoin="round"/><path data-name="Path 538" d="M853.116 2230.797s-7.146 4.83-7.146 5.876"/><path data-name="Path 539" d="M840.032 2240.409a17.032 17.032 0 0 0-2.538 12.109c1.241 6.912 1.608 3.8 2.538 6.037" stroke-linejoin="round"/><path data-name="Path 540" d="M837.244 2228.544s-25.721 10.505-23.287 44.291c0 0 2.049 16.4 12.509 2.091s10.778-22.262 10.778-22.262" stroke-linejoin="round"/><path data-name="Path 541" d="M862.842 2279.891s3.042.967 1.754 4.92a38.4 38.4 0 0 1-1.754 4.812" stroke-linejoin="round"/><path data-name="Path 542" d="M858.561 2282.105v5.207"/><path data-name="Path 543" d="M864.915 2282.105s4.188-1.748 4.143.911-3.431 19.715-12.6 21.094-3.075-15.066-3.075-15.066a4.986 4.986 0 0 1 5.8-.867c3.4 1.693 7.052 4 7.052 4" stroke-linejoin="round"/><path data-name="Path 544" d="M820.454 2281.541s2.119 4.126-2.425 5.834"/><path data-name="Path 545" d="m816.136 2279.891-1.837 2.4"/><path data-name="Path 546" d="M820.947 2284.458s9.041-.908 5.006 4.086-15.341 9.268-20.42 8.91-8.646-3.232 0-11.646 10.054-1.351 10.054-1.351l3.974 7.923" stroke-linejoin="round"/><path data-name="Path 547" d="M771.541 2284.458s27.12-1.062 34.778 0"/><path data-name="Path 548" d="M826.318 2285.143s12.842-.574 13.864 0"/><path data-name="Path 549" d="M844.423 2285.015s12.295.529 13.337 1.464"/><path data-name="Path 550" d="M767.073 2284.709s-22.029 2.226-11.873 12.628c0 0 16.724 12.963 58.878 12.358 0 0 51.743 3.192 87.266-3.841 0 0 12.436-2.716 9.428-9.971 0 0 1.165-4.169-42.193-8.061" stroke-linejoin="round"/><path data-name="Path 551" d="M864.915 2222.99s14.835 5.174 26.145-2.384"/></g><g data-name="Group 167" fill="none" stroke="#4f5052" stroke-linecap="round" stroke-width="2"><path data-name="Path 552" d="m1755.493 2291.891-69.646-9.29 11.223-44.585h71.61Z" stroke-linejoin="round"/><path data-name="Path 553" d="m1761.668 2243.404-10.853 43.754-58.328-7.11 9.132-36.645Z" stroke-linejoin="round"/><g data-name="Ellipse 45" transform="translate(1729.225 2239.691)" stroke-linejoin="round"><circle cx=".742" cy=".742" r=".742" stroke="none"/><circle cx=".742" cy=".742" r=".258"/></g><path data-name="Path 554" d="m1713.065 2321.001 41.139-29.271"/><path data-name="Path 555" d="m1718.752 2321 37.563-26.248s2.627-2.18-.606-3.352" stroke-linejoin="round"/><path data-name="Path 556" d="m1756.611 2294.489-1.187-2.732"/><path data-name="Path 557" d="M1752.192 2295.31a15.744 15.744 0 0 0-1.479.968 15.879 15.879 0 0 0 1.48-.967Z" stroke-linejoin="round"/><path data-name="Path 558" d="M1726.237 2313.85a15.744 15.744 0 0 0-1.479.967 15.879 15.879 0 0 0 1.48-.967Z" stroke-linejoin="round"/><path data-name="Path 559" d="M1721.788 2316.816a15.744 15.744 0 0 0-1.479.967 15.879 15.879 0 0 0 1.48-.967Z" stroke-linejoin="round"/><path data-name="Path 563" d="M1654.411 2303.821a15.744 15.744 0 0 0-1.682-.541 15.879 15.879 0 0 0 1.682.541Z" stroke-linejoin="round"/><path data-name="Path 560" d="m1685.846 2282.768-43.49 15 67.66 23.22" stroke-linejoin="round"/><path data-name="Path 561" d="m1699.943 2321.001-59.163-19.626s-1.957-2.422 1.5-3.566" stroke-linejoin="round"/><path data-name="Path 562" d="m1641.244 2301.472.982-3.591"/><path data-name="Path 564" d="m1743.177 2294.02-27.038 18.036-56.109-15.73 27.656-10.27Z" stroke-linejoin="round"/><path data-name="Path 566" d="m1736.26 2298.322-52.489-10.539"/><path data-name="Path 567" d="m1731.135 2301.685-53.977-11.5"/><path data-name="Path 568" d="m1726.611 2304.709-54.574-12.51"/><path data-name="Path 569" d="m1721.844 2307.496-55.665-13.135"/><path data-name="Path 571" d="m1691.294 2307.134-12.492-3.71-4.515 2.313 12.484 4.342Z" stroke-linejoin="round"/><path data-name="Path 572" d="m1692.652 2286.958-24.59 11.365"/><path data-name="Path 573" d="m1699.059 2288.154-22.99 12.413"/><path data-name="Path 575" d="m1706.991 2288.96-22.648 13.973"/><path data-name="Path 576" d="m1713.066 2289.834-22.519 14.725"/><path data-name="Path 577" d="m1720.735 2290.932-23.011 15.691"/><path data-name="Path 578" d="m1729.013 2291.937-25.477 16.444"/><path data-name="Path 579" d="m1736.956 2293.144-27.217 16.973"/></g><g data-name="Group 168" fill="none" stroke="#4f5052" stroke-linecap="round" stroke-width="2"><path data-name="Path 580" d="m246.92 2189.575 8.034 11.639 35-32.736 2.275 9.958L307.708 2148l-31.389 8.16 7.1 4.727Z" stroke-linejoin="round"/><path data-name="Path 581" d="m307.711 2148 5.011 4.126-15.7 30.3-4.833-3.6" stroke-linejoin="round"/><path data-name="Path 582" d="m255.069 2201.702 4.587 4.524 31.721-31.171" stroke-linejoin="round"/><path data-name="Path 583" d="m306.035 2152.247 4.446 3.26"/><path data-name="Path 584" d="m304.034 2155.507 4.706 3.453"/><path data-name="Path 585" d="m302.457 2158.522 4.746 3.667"/><path data-name="Path 586" d="m300.591 2162.189 4.767 3.68"/><path data-name="Path 587" d="m298.946 2165.625 4.638 3.715"/><path data-name="Path 588" d="m297.012 2169.608 4.439 3.629"/><path data-name="Path 589" d="m294.969 2173.619 4.511 3.524"/><path data-name="Path 590" d="m285.364 2173.237 3.753 3.815"/><path data-name="Path 591" d="m281.964 2176.394 3.807 3.672"/><path data-name="Path 592" d="m279.121 2179.143 3.907 3.892"/><path data-name="Path 593" d="m275.998 2182.054 3.917 3.945"/><path data-name="Path 594" d="m272.89 2185.088 3.758 3.906"/><path data-name="Path 595" d="m269.887 2187.97 3.921 4.12"/><path data-name="Path 596" d="m266.439 2190.64 4.172 4.271"/><path data-name="Path 597" d="m263.698 2193.52 4.3 4.3"/><path data-name="Path 598" d="m260.781 2196.412 4.282 4.17"/><path data-name="Path 599" d="m257.95 2198.957 4.132 4.506"/><path data-name="Path 600" d="m255.919 2245.994 87.029-8.086"/><path data-name="Path 601" d="m260.781 2244.881-.7-24.358 17.259-1.31.772 24.788" stroke-linejoin="round"/><path data-name="Path 602" d="m277.316 2219.213 4.466 4.135.668 19.856" stroke-linejoin="round"/><path data-name="Path 603" d="m287.241 2242.603-2.45-47.747 16.215-1.291 3.193 47.656" stroke-linejoin="round"/><path data-name="Path 604" d="m301.264 2193.565 5.861 3.508 2.992 43.252" stroke-linejoin="round"/><path data-name="Path 605" d="m315.778 2240.325-5.191-73.432 17.155-1.135 5.021 72.765" stroke-linejoin="round"/><path data-name="Path 606" d="m327.97 2165.758 5.89 4.946 5.549 67.218" stroke-linejoin="round"/><path data-name="Path 607" d="m260.083 2224.839 17.08-1.146"/><path data-name="Path 608" d="m260.605 2229.142 16.727-.933"/><path data-name="Path 609" d="m260.605 2233.619 16.747-1.081"/><path data-name="Path 611" d="m260.605 2241.951 17.008-1.537"/><path data-name="Path 612" d="m277.613 2236.637-16.864 1.052"/><path data-name="Path 613" d="m311.087 2172.37 6.483-6.079"/><path data-name="Path 614" d="m311.744 2178.532 11.653-12.24"/><path data-name="Path 615" d="m312.186 2186.151 15.539-19.4"/><path data-name="Path 616" d="m312.186 2193.565 16-18.392"/><path data-name="Path 617" d="m313.11 2201.214 15.863-17.6"/><path data-name="Path 618" d="m313.72 2208.724 15.771-17.319"/><path data-name="Path 619" d="m314.248 2218.084 15.931-17.8"/><path data-name="Path 620" d="m315.098 2225.67 15.6-16.216"/><path data-name="Path 621" d="m315.604 2233.638 15.718-14.9"/><path data-name="Path 622" d="m317.571 2240.325 14.38-14.1"/><path data-name="Path 623" d="m325.692 2239.505 6.83-6.687"/></g><g data-name="Group 169" fill="none" stroke="#4f5052" stroke-linecap="round" stroke-width="2"><path data-name="Path 624" d="M336.304 2300.23s58.983 16.082 66.666 15.534 21.657-6.79 24.933-10.157 1.534-11.636.509-12.049-10.676-8.842-19.044-2.624-6.793 24.746-6.793 24.746" stroke-linejoin="round"/><path data-name="Path 625" d="M406.263 2311.404s-1.149-3.361 9.557-6.13c0 0 1.044 6.256-9.557 6.13Z" stroke-linejoin="round"/><path data-name="Path 627" d="M342.522 2297.855s31.315 2.737 43.865 6.618c0 0 7.42-5.059 11.058-4.224 0 0 2.763-6.577-2.158-7.41s-41.375-6.31-41.375-6.31a6.95 6.95 0 0 0-1.077 5.071s-9.555 1.457-10.313 6.255Z" stroke-linejoin="round"/><path data-name="Path 628" d="M397.581 2300.392s-31.79-7.99-44.597-8.718"/><path data-name="Path 629" d="M419.491 2289.068s-21.962-7.777-30.208-7.402-15.477-3.888-15.477-3.888a28.066 28.066 0 0 0-10.872-2.72c-5.993-.183-5.094-2.42-5.094-2.42s-10.348-1.815-17.452 8.857-3.977 18.711-3.977 18.711" stroke-linejoin="round"/><path data-name="Path 630" d="m355.456 2275.457 6.833 1.453s2.228.33-1.181 2.611-2.413 1.307-5.081.721-2.75-1.12-2.75-1.12-4.107-.76 2.18-3.665Z" stroke-linejoin="round"/><path data-name="Path 631" d="m366.643 2278.851 4.735 1.007s3.161.341 1.612 2.212l-1.25 1.13s.5 1.714-3.98.613-3.037-.646-3.037-.646-4.49-.456.795-3.741Z" stroke-linejoin="round"/><path data-name="Path 632" d="m378.207 2282.28 5.336 1.135s1.833.399 1.248 1.53a6.063 6.063 0 0 1-1.007 1.524s.013.898-3.034.156-5.127-1.09-5.127-1.09-1.871-.88.126-2.515.418-.685 2.458-.74Z" stroke-linejoin="round"/><path data-name="Path 633" d="M368.2 2275.607s-1.125-7.425 1.076-13.328a21.459 21.459 0 0 0 .775-11.55s9.932 5.814 42.077 10.282c0 0-5.325 15.616-2.049 24.63" stroke-linejoin="round"/><path data-name="Path 634" d="M374.24 2257.803s15.897 3.929 21.665 4.605"/><path data-name="Path 635" d="M372.433 2261.579s3.74.903 4.902 1.042"/><path data-name="Path 636" d="M381.692 2263.598s5.59 1.387 7.607 1.617"/><path data-name="Path 637" d="M392.742 2265.896s6.649 1.685 11.296 1.394"/><path data-name="Path 638" d="M371.753 2266.74s10.118 1.56 11.737 2.495"/><path data-name="Path 639" d="M386.551 2269.886s7.724 1.867 9.143 1.524"/><path data-name="Path 640" d="M397.939 2271.458s3.375 1.06 4.272.908"/><path data-name="Path 641" d="M372.019 2270.952a56.524 56.524 0 0 0 6.282 1.336"/><path data-name="Path 642" d="M382.971 2273.385s5.965 1.876 7.336 1.56"/><path data-name="Path 643" d="M393.305 2274.643s5.723 1.308 7.06 1.052"/></g><g data-name="Group 170" fill="none" stroke="#4f5052" stroke-linecap="round" stroke-linejoin="round" stroke-width="2"><path data-name="Path 644" d="M366.208 2208.221s-9.232-7.16-11.486 6.477c0 0 7.014 12.97 13.254-.311a3.082 3.082 0 0 1 3.988-1.144s3.66 1.004 2.437 4.2-7.888 15.375-20.032 10.24c0 0-15.857-5.487-5.785-20.174 0 0 6.77-10.334 15.534-6.575 0 0 6.184 1.862 4.794 3.785s-1.24 4.87-2.704 3.502Z"/><path data-name="Path 645" d="M380.733 2192.845s8.973-3.29 10.88-.798-.129 5.171-.129 5.171-.777 2.56-4.694.133-6.088 1.538-5.744 2.86 1.033 4.082 7.04 1.66c0 0 6.575-3.555 8.755 4.903s-6.703 11.284-8.824 11.476-9.012-.16-10.198-2.466a2.949 2.949 0 0 1 .483-3.695s.302-1.314 5.221-.267 6.665.58 6.852-1.965-3.48-3.856-7.102-1.874-10.687.306-10.604-4.483 3.342-8.572 5.878-9.032"/><path data-name="Path 646" d="M402.811 2184.88s8.623-3.19 10.489-.685-.072 5.155-.072 5.155-.727 2.546-4.528.085-5.858 1.472-5.51 2.793 1.037 4.08 6.806 1.728c0 0 6.311-3.48 8.5 4.975s-6.35 11.184-8.395 11.354-8.697-.252-9.863-2.563a2.974 2.974 0 0 1 .43-3.68s.277-1.307 5.037-.214 6.435.646 6.588-1.889-3.4-3.879-6.868-1.941-10.308.197-10.274-4.578 3.137-8.513 5.578-8.945"/></g><g data-name="Group 171" fill="none" stroke="#4f5052" stroke-linecap="round" stroke-width="2"><g data-name="Rectangle 132" transform="rotate(20.02 -6028.88 2297.708)" stroke-linejoin="round"><rect width="67.238" height="40.999" rx="12" stroke="none"/><rect x="1" y="1" width="65.238" height="38.999" rx="11"/></g><path data-name="Path 647" d="m423.81 2216.402 17.998 6.45" stroke-width="2.001"/><path data-name="Path 648" d="m421.707 2223.533 19.823 7.541" stroke-width="2.001"/><path data-name="Path 649" d="m420.069 2230.113 11.718 4.183" stroke-width="2.001"/><path data-name="Path 650" d="M460.457 2224.822s-1.899 8.938-.064 12.287c0 0 2.853 3.356 12.945 2.409-.004 0 1.897-13.433-12.88-14.696Z" stroke-linejoin="round" stroke-width="2.001"/><path data-name="Path 651" d="M455.53 2225.068s-.86 13.913 1.258 14.884c0 0 4.69 3.485 15.798 3.524 0 0-4.593 13.018-17.06 8.438s-10.147-16.556-8.696-20.677 7.025-6.9 8.7-6.17Z" stroke-linejoin="round" stroke-width="2.001"/></g><g data-name="Group 172" stroke="#4f5052" stroke-linecap="round" stroke-width="2"><path data-name="Path 652" d="m1255.484 2248.605 92.852-7.125s8.32 2.168 7.461-11.329l-1.272-61.329s3.54-8.825-11.925-7.631-80.754 2.767-80.754 2.767-10.3-2-10.447 10.208 1.306 67.314 1.306 67.314-.253 6.704 2.779 7.125Z" fill="none" stroke-linejoin="round"/><path data-name="Path 653" d="m1353.034 2162.91-9.715-6.812s-53.277-1.039-89.322 3c0 0-4.347-.856-7.372 2.1-1.248 1.2-2.3 3.6-2.1 7.583v71.113s.992 9.4 10.676 8.768" fill="none" stroke-linejoin="round"/><path data-name="Path 654" d="m1247.033 2161.433 6.183 4.885" fill="none"/><path data-name="Path 655" d="m1263.162 2182.168 82.815-2.975v-7.433l-82.815 3.032Z" fill="none" stroke-linejoin="round"/><path data-name="Path 656" d="m1323.238 2185.479 23.062-.907v7.021l-23.062.937Z" fill="none" stroke-linejoin="round"/><path data-name="Path 657" d="m1323.238 2198.609 22.636-.72.712 19.514-23.348.987Z" fill="none" stroke-linejoin="round"/><path data-name="Path 658" d="M1262.229 2199.692v-12.805h23.946v34.993l-23.946 1.908v-7.194" fill="none" stroke-linejoin="round"/><path data-name="Path 659" d="m1257.014 2209.86 2.836 4.012 6.011-4.012v4.012s1.189.76 2.3-1.239 4.932-9.091 4.932-9.091 1.433-2.9-2.987-1.567-9.169 2.292-9.169 2.292-3.429 1.261.953 2.249Z" fill="#4f5052" stroke-linejoin="round"/><path data-name="Path 660" d="m1293.073 2186.886 23.654-.736v33.877l-23.654 1.527Z" fill="none" stroke-linejoin="round"/><path data-name="Path 661" d="m1293.073 2191.128 4.225-3.882" fill="none"/><path data-name="Path 662" d="m1293.073 2195.676 9.325-8.509" fill="none"/><path data-name="Path 663" d="m1293.073 2200.306 14.868-13.228" fill="none"/><path data-name="Path 664" d="m1293.073 2205.337 21.911-18.677" fill="none"/><path data-name="Path 665" d="m1293.073 2209.902 23.48-19.593" fill="none"/><path data-name="Path 666" d="m1293.073 2213.883 23.611-19.023" fill="none"/><path data-name="Path 667" d="m1293.073 2217.686 23.632-18.794" fill="none"/><path data-name="Path 668" d="m1293.96 2221.203 22.746-17.734" fill="none"/><path data-name="Path 669" d="m1299.229 2221.203 17.533-13.433" fill="none"/><path data-name="Path 670" d="m1304.889 2220.626 11.829-8.45" fill="none"/><path data-name="Path 671" d="m1310.427 2220.303 6.133-3.877" fill="none"/><path data-name="Path 672" d="m1252.884 2230.66 102.592-6.783" fill="none"/><g data-name="Ellipse 46" transform="translate(1300.184 2231.26)" fill="none" stroke-linejoin="round"><ellipse cx="5.5" cy="4" rx="5.5" ry="4" stroke="none"/><ellipse cx="5.5" cy="4" rx="4.5" ry="3"/></g><path data-name="Path 673" d="M1311.84 2244.649s.732 9.458 6.7 13.322.878 6.488-3.289 7.121-25.617 2.168-27.061 2.1-8.761.923-7.348-11.145 1.136-8.631 1.136-8.631" fill="none" stroke-linejoin="round"/><path data-name="Path 674" d="M1285.235 2246.584s-4.45 17.424 4.894 17.065 26.663-1.687 30.1-3.5" fill="none" stroke-linejoin="round"/><path data-name="Path 675" d="m1282.159 2276.987 65.17-10.592s4.041-2.156 4.979 3.895c0 0 5.574 19.02 6.475 29.56 0 0 .876 3.206-3.057 3.732l-62.447 12.064s-5.441 2.3-6.732-4.816c0 0-9.158-28.195-6.8-32.882a2.925 2.925 0 0 1 2.412-.961Z" fill="none" stroke-linejoin="round"/><path data-name="Path 676" d="M1283.129 2277.187s7.042 33.347 8.342 34.438 62.537-11.528 66.851-14.838" fill="none" stroke-linejoin="round"/><path data-name="Path 677" d="M1290.979 2280.434s-.981 11.455 6.371 25.038c0 0 34.859-5.436 51.583-9.364 0 0 3-.341 1.514-7.225 0 0-3.37-14.216-4.566-15.367s-.105-1.995-7.286-1-47.616 7.918-47.616 7.918Z" fill="none" stroke-linejoin="round"/><path data-name="Path 678" d="m1295.073 2300.237 55.222-10.054" fill="none"/><path data-name="Path 679" d="m1293.239 2295.796 56.581-9.594" fill="none"/><path data-name="Path 680" d="m1292.284 2292.237 56.357-9.452" fill="none"/><path data-name="Path 681" d="m1291.445 2287.511 56.19-9.116" fill="none"/><path data-name="Path 682" d="m1290.935 2284.253 55.448-9.312" fill="none"/><path data-name="Path 683" d="m1296.442 2279.597 6.785 24.676" fill="none"/><path data-name="Path 684" d="m1302.092 2278.395 6.968 24.525" fill="none"/><path data-name="Path 685" d="m1307.093 2277.815 5.825 18.884" fill="none"/><path data-name="Path 686" d="m1312.918 2277.187 5.419 18.508" fill="none"/><path data-name="Path 687" d="m1318.659 2275.998 5.609 18.864" fill="none"/><path data-name="Path 688" d="m1324.268 2274.941 5.707 18.716" fill="none"/><path data-name="Path 689" d="M1329.975 2274.247s7.065 23.121 6.771 23.951" fill="none"/><path data-name="Path 690" d="M1335.052 2273.435s7.534 23.189 7.418 23.738" fill="none"/><path data-name="Path 691" d="M1340.518 2272.712s6.977 21.7 6.977 23.276" fill="none"/></g><g data-name="Group 173" fill="none" stroke="#4f5052" stroke-linecap="round" stroke-width="2"><path data-name="Path 692" d="M947.112 2300.545s22.131.784 24.557 2.7.916 12.752 0 12.752-24.557-1.942-24.557-1.942-2.041.021-1.085-6.973 1.085-6.537 1.085-6.537Z" stroke-linejoin="round"/><path data-name="Path 693" d="M965.284 2305.94v6.512"/><path data-name="Path 694" d="M968.494 2306.294v6.153"/><g data-name="Ellipse 47" transform="translate(949.942 2304.932)" stroke-linejoin="round"><circle cx="3" cy="3" r="3" stroke="none"/><circle cx="3" cy="3" r="2"/></g><path data-name="Path 695" d="M950.588 2300.539s-6.028-17.463-6.807-18.33-3.221-6.372 0-7.458 4.5 1.737 7.405 8.682l2.975-22.819a2.721 2.721 0 0 1 3.138-3.036c3.447.192 2.55 3.878 2.55 3.878l-2.55 24.041" stroke-linejoin="round"/><path data-name="Path 696" d="M958.756 2272.432s.627-1.837 3.4-1.332 1.883 3.923 1.883 3.923l-1.14 11.392" stroke-linejoin="round"/><path data-name="Path 697" d="M964.173 2276.274s.547-1.676 3.441-1.046.468 12.137.468 12.137" stroke-linejoin="round"/><path data-name="Path 698" d="M969.035 2278.715s.616-2.141 3.851-1.6-.5 18.015-.5 18.015-1.483 5.922-4.088 6.979" stroke-linejoin="round"/><path data-name="Path 699" d="M951.877 2276.013h-3.547"/><path data-name="Path 700" d="m942.813 2275.242-7.641-.761"/><path data-name="Path 701" d="M942.162 2279.054s-10.122-1.936-8.824-10.534 10.228-56.746 10.228-56.746-1.24-5.8 13.167-3.937l34.233 4.467s6.764-.791 5.9 5.577l-9.8 56.171s0 5.589-6.642 5l-6.269-.607" stroke-linejoin="round"/><path data-name="Path 702" d="M996.942 2215.01s3.752 2.638 2.776 9.892-10 53.738-10 53.738-.287 6.2-6.245 6.132a63.1 63.1 0 0 1-8.7-.532" stroke-linejoin="round"/><path data-name="Path 703" d="m984.982 2278.715 2.594 4.415"/><path data-name="Path 704" d="m943.807 2211.689 52.544 6.818"/><path data-name="Path 705" d="m946.426 2216.549-7.488 41"/><path data-name="Path 706" d="m934.826 2262.032 18.535 2.438"/><path data-name="Path 707" d="m959.955 2265.189 27.731 3.276"/><path data-name="Path 708" d="m942.162 2251.832 42.1 5.972"/><path data-name="Path 709" d="m944.093 2251.832 1.886-11.969 9.255 1.411-2.041 11.276" stroke-linejoin="round"/><path data-name="Path 710" d="m955.234 2241.358 1.844 3.262-1.309 8.211" stroke-linejoin="round"/><path data-name="Path 711" d="m957.893 2253.805 3.649-22.53 6.442.827-3.552 22.788" stroke-linejoin="round"/><path data-name="Path 712" d="m968.296 2232.224 2.814 2.314-2.814 20.352" stroke-linejoin="round"/><path data-name="Path 713" d="m971.25 2255.772 5.81-35.437 7.951 1.051-5.376 35.407" stroke-linejoin="round"/><path data-name="Path 714" d="m985.01 2221.488 2.623 3.218-4.67 32.783" stroke-linejoin="round"/><path data-name="Path 715" d="m976.266 2225.321 5.413-4.054"/><path data-name="Path 716" d="m975.588 2229.846 9.019-6.17"/><path data-name="Path 717" d="m974.942 2234.432 9.036-6.353"/><path data-name="Path 718" d="m973.821 2240.765 9.227-6.494"/><path data-name="Path 719" d="m973.076 2245.86 9.2-6.951"/><path data-name="Path 720" d="m972.252 2249.892 9.163-5.867"/><path data-name="Path 721" d="m971.726 2253.499 9.125-5.341"/><path data-name="Path 722" d="m973.076 2255.951 7.243-4.078"/><path data-name="Path 724" d="m945.591 2242.851 8.159 1.229"/><path data-name="Path 725" d="m945.591 2245.826 7.618 1.252"/><path data-name="Path 726" d="m944.628 2248.824 8.063 1.688"/></g><g data-name="Group 177" fill="none" stroke="#4f5052" stroke-linecap="round" stroke-width="2"><path data-name="Path 727" d="M787.008 2184.994s-4.518 4.63-.278 4.025a17.262 17.262 0 0 0 10.817-5.655c3.172-3.398-1.007-3.076-4.06-1.791" stroke-linejoin="round"/><path data-name="Path 728" d="M785.339 2189.177s-2.124 2.703 1.04 3.264 8.642-2.793 13.589-7.093c0 0 1.03-1.465.328-2.295s-2.048-.254-2.048-.254" stroke-linejoin="round"/><path data-name="Path 729" d="M787.153 2192.78s-.93 3.749 4.36 1.846a32.446 32.446 0 0 0 9.568-5.814s2.019-2.39-.134-3.432" stroke-linejoin="round"/><path data-name="Path 730" d="M791.028 2195.221s2.008 4.2 7.04.864 3.267-6.268 3.267-6.268" stroke-linejoin="round"/><path data-name="Path 731" d="M784.74 2188.33s-4.771-7.136-11.193-11.019-9.584-11.377-9.29-16.346 3.757-11.65 11.593-15.002 17.748.392 20.362 5.262 4.667 7.472 3.414 15.159-2.214 7.059-1.88 13.992" stroke-linejoin="round"/><path data-name="Path 732" d="M769.018 2160.322s1.99-7.56 8.918-9.324"/><path data-name="Path 733" d="M780.052 2150.53a13.428 13.428 0 0 1 2.416.239"/><path data-name="Path 735" d="M790.594 2187.657c-2.041-5.05-9.24-15.392-9.24-15.392s-4.995-6.093-6.762-6.294 6.904 2.098 5.876-2.43c0 0 3.815 2.478 3.836-2.081 0 0 2.693 4.997 3.52.558s.671 7.714.671 7.714" stroke-linejoin="round"/><path data-name="Path 736" d="M788.476 2169.566s-.099 7.112 5.175 16.847"/></g><g data-name="Group 175" fill="none" stroke="#4f5052" stroke-linecap="round" stroke-width="2"><path data-name="Path 750" d="M1409.958 2210.412s13.463 14.892 25.993 3.402 18.85-18.436 19.021-25.536-5.35-16.206-9.025-17.42-10.462 8.63-10.462 8.63-.198 2.276 2.8 3.81 4.836 5.579 1.735 8.16-8.37 10.41-11.05 11.244-4.709 2.37-7.294-1.3-3.956-.198-5.128 1.09-5.784 4.245-6.59 7.92Z" stroke-linejoin="round"/><path data-name="Path 751" d="m1413.526 2213.45 9.053-10.732"/><path data-name="Path 752" d="m1439.72 2183.226 8.922-9.314"/></g><g data-name="Group 176" stroke="#4f5052" stroke-linecap="round" stroke-linejoin="round" stroke-width="2"><g data-name="Ellipse 48" transform="translate(351 2145)" fill="none"><circle cx="18.5" cy="18.5" r="18.5" stroke="none"/><circle cx="18.5" cy="18.5" r="17.5"/></g><path data-name="Path 753" d="M368.771 2153.676s.555 9.081.926 10.272 6.416-5.57 6.416-5.57" fill="none"/><path data-name="Path 754" d="M366.631 2153.676h4.637l-2.285-4.479Z" fill="#4f5052"/><path data-name="Path 755" d="m373.802 2157.584 3.704 2.79.87-4.953Z" fill="#4f5052" stroke-width="2.001"/><g data-name="Ellipse 49" transform="translate(354 2162)" fill="#707070"><circle cx="2" cy="2" r="2" stroke="none"/><circle cx="2" cy="2" r="1" fill="none"/></g><g data-name="Ellipse 50" transform="translate(382 2162)" fill="#707070"><circle cx="1.5" cy="1.5" r="1.5" stroke="none"/><circle cx="1.5" cy="1.5" r=".5" fill="none"/></g><g data-name="Ellipse 51" transform="translate(368 2176)" fill="#707070"><ellipse cx="1.5" cy="2" rx="1.5" ry="2" stroke="none"/><ellipse cx="1.5" cy="2" rx=".5" ry="1" fill="none"/></g></g><g data-name="Group 178" stroke="#4f5052" stroke-linecap="round" stroke-width="2"><g data-name="Ellipse 52" transform="translate(651.816 2223.45)" fill="none" stroke-linejoin="round"><circle cx="11.809" cy="11.809" r="11.809" stroke="none"/><circle cx="11.809" cy="11.809" r="10.809"/></g><g data-name="Ellipse 53" fill="none" stroke-linejoin="round" transform="translate(646.366 2218)"><circle cx="17.26" cy="17.26" r="17.26" stroke="none"/><circle cx="17.26" cy="17.26" r="16.26"/></g><path data-name="Path 756" d="m665.179 2228.196-1 8.025-7.542-.982" fill="none" stroke-linejoin="round"/><path data-name="Path 757" d="m680.154 2238.646 46.861 7.048s3.623 32.037 3.468 60.5l-11.664 9.2-70.555-9.955s1.623-44.465 5.272-56.178" fill="none" stroke-linejoin="round"/><g data-name="Ellipse 54" transform="translate(709.046 2247.069)" fill="none" stroke-linejoin="round"><circle cx="3.634" cy="3.634" r="3.634" stroke="none"/><circle cx="3.634" cy="3.634" r="2.634"/></g><g data-name="Ellipse 55" transform="translate(699.054 2245.252)" fill="none" stroke-linejoin="round"><circle cx="3.634" cy="3.634" r="3.634" stroke="none"/><circle cx="3.634" cy="3.634" r="2.634"/></g><g data-name="Ellipse 56" transform="translate(689.061 2244.344)" fill="none" stroke-linejoin="round"><circle cx="3.634" cy="3.634" r="3.634" stroke="none"/><circle cx="3.634" cy="3.634" r="2.634"/></g><path data-name="Path 758" d="M718.738 2244.344s1.98-7.429-1.143-7.7-4.647-.533-6.155 2.745-3.116 7.424-2.049 11.163 3.556.485 2.049-4.182c0 0 .454-6.14 3.32-6.981s1.273 4.377 1.273 4.377" fill="#4f5052" stroke-linejoin="round"/><path data-name="Path 759" d="M707.281 2242.408s1.159-9.464-3.382-9.494-4.26 8.582-4.26 8.582v7.807s3.531 4.221 2.925-1.449-1-9.2 0-10.88 2.4-.6 2.4 1.426v4.013" fill="#4f5052" stroke-linejoin="round"/><path data-name="Path 760" d="M696.33 2240.658s.828-7.393-3.875-7.543-5.09 6.551-5.09 6.551-1.125 8.049 2.258 9.357 4.449-.659 3.418-1.638-4.453-.256-3.418-6.306 2.832-4.921 2.832-4.921 1.729-.583 1.457 4.5Z" fill="#4f5052" stroke-linejoin="round"/><path data-name="Path 761" d="M726.797 2245.955s-8.565 29.11-8.258 69.106" fill="none"/><path data-name="Path 762" d="m718.531 2310.261-69.785-10.422" fill="none"/><path data-name="Path 763" d="M713.609 2270.049s-2.942 24.445-3.2 28.057l-38.127-6.078s2.673-25.406 3.565-33.987" fill="none" stroke-linejoin="round"/><path data-name="Path 764" d="M710.563 2291.003s-32.236-4.905-45.822-6.974l-.045-.007-7.931-1.208.555-6.024c.151-1.634.048-.511.048-.511l1.956-21.215 35.7 6.04s-4.188 28.541-3.5 33.884" fill="none" stroke-linejoin="round"/><path data-name="Path 765" d="m658.877 2262.149 54.728 7.865" fill="none"/><path data-name="Path 766" d="M703.526 2269.02s-3.124 22.087-2.789 27.212" fill="none"/><path data-name="Path 767" d="M667.808 2256.834s-2.814 23.613-2.954 27.063" fill="none"/><path data-name="Path 768" d="M684.949 2259.941s-3.021 30.009-3.021 33.23" fill="none"/><path data-name="Path 769" d="M712.178 2278.771s-50.232-8.347-54.233-8.337" fill="none"/><path data-name="Path 770" d="M711.107 2285.058s-49.68-8.914-53.446-8.462" fill="none"/></g><g data-name="Group 180"><g data-name="Group 179" fill="none" stroke="#4f5052" stroke-linecap="round" stroke-linejoin="round" stroke-width="2"><path data-name="Path 771" d="M311.735 2261.612s-22.973-1.168-45.54-9.117c0 0-8.145 31.876-15.825 49.9 0 0 25.83 7.709 31.435 5.528s16.052-2.243 20.439-14.85c-.001.002 8.281-19.126 9.491-31.461Z"/><path data-name="Path 772" d="M298.704 2299.476s-9.534.62-15.381-4.53a16.933 16.933 0 0 1-8.665 12.942"/><path data-name="Path 773" d="M311.762 2261.702s2.3 10.916-9.6 52.653c0 0-11.891-4.479-19.112-6.651"/><path data-name="Path 774" d="M311.752 2261.678s1.948 15.055.167 26.874.173 22.235 0 23.055-6.526 0-8.44-.955"/></g></g><g data-name="Group 181" stroke="#4f5052" stroke-linecap="round" stroke-width="2"><path data-name="Path 775" d="M623.565 2208.895s.944 24.228 1.231 34.289-6.452 10.177-6.452 10.177-97.655 7.3-105.194 7.532-5.708-12.524-5.708-12.524l-1.11-73.114s-1.582-8.5 6.818-9.374 6.479 0 6.479 0" fill="none" stroke-linejoin="round"/><path data-name="Path 776" d="m565.509 2164.024 49.937-1.5s7.6-1.895 7.257 5.3" fill="none" stroke-linejoin="round"/><path data-name="Path 777" d="m507.643 2240.812 116.813-8.376" fill="none"/><path data-name="Path 778" d="m513.156 2233.773 105.306-6.881" fill="none"/><path data-name="Path 779" d="M519.08 2159.532h-10.6s-9.878-.6-9.31 9 0 79.978 0 79.978-1.548 12.388 10.523 11.976" fill="none" stroke-linejoin="round"/><path data-name="Path 780" d="M574.748 2257.147s.55 12.116 9.216 15.9-6.433 6.834-6.433 6.834l-29.055 2.807s-9.978 2.025-8.779-13.278v-10.267" fill="none" stroke-linejoin="round"/><path data-name="Path 781" d="M547.394 2258.749s-1.779 7.728-.876 14.114c0 0-.509 5.388 8.176 4.592s22.286-2.058 28.729-4.592" fill="none" stroke-linejoin="round"/><g data-name="Ellipse 57" transform="translate(561.457 2241.044)" fill="none" stroke-linejoin="round"><ellipse cx="6.55" cy="4.678" rx="6.55" ry="4.678" stroke="none"/><ellipse cx="6.55" cy="4.678" rx="5.55" ry="3.678"/></g><g data-name="Ellipse 58" transform="translate(562.393 2178.353)" fill="none" stroke-linejoin="round"><circle cx="19.65" cy="19.65" r="19.65" stroke="none"/><circle cx="19.65" cy="19.65" r="18.65"/></g><path data-name="Path 782" d="m584.265 2179.297-3.826 19.387 19.663 4.6" fill="none" stroke-linejoin="round"/><path data-name="Path 783" d="m582.042 2188.706 9.161-7.24" fill="none"/><path data-name="Path 784" d="m580.439 2196.979 14.742-12.629" fill="none"/><path data-name="Path 785" d="m584.643 2199.749 13.756-11.631" fill="none"/><path data-name="Path 786" d="m591.205 2200.604 8.933-7.892" fill="none"/><path data-name="Path 787" d="m527.512 2193.938 17.205-.818" fill="none"/><path data-name="Path 788" d="m527.512 2206.54 24.91-1.356" fill="none"/><path data-name="Path 789" d="m527.512 2218.837 24.948-1.526" fill="none"/><path data-name="Path 790" d="m517.691 2192.713 3.711 3.331 2.026-8.014" fill="none" stroke-linejoin="round"/><path data-name="Path 791" d="m517.691 2204.323 3.25 3.941 1.756-7.894" fill="none" stroke-linejoin="round"/><path data-name="Path 792" d="m517.691 2216.254 3.087 4.383 2.139-7.8" fill="none" stroke-linejoin="round"/><path data-name="Path 793" d="M559.098 2188.706s-4.868 2.638-13.091-8.491h-21.771s-5.691-.151-5.248-8.053.792-21.275.792-21.275-.905-6.07 12.108-5.839 27.209 0 27.209 0 6.679-.81 6.828 4.264 0 23.676 0 23.676.133 5.225-4.344 6.057-6.084 3.657-5.452 5.189.27 3.347 2.969 4.472Z" fill="none" stroke-linejoin="round"/><path data-name="Path 794" d="m525.049 2170.813 34.977-.753" fill="none"/><path data-name="Path 795" d="M528.857 2170.436V2157h5.7v13.436" fill="none" stroke-linejoin="round"/><path data-name="Path 796" d="M539.966 2170.06v-10.449h5.967v10.448" fill="none" stroke-linejoin="round"/><path data-name="Path 797" d="M550.591 2170.059v-16.331h5.741v16.331" fill="none" stroke-linejoin="round"/><path data-name="Path 798" d="M614.304 2212.767a14.206 14.206 0 0 0 11.432-7.662s-.96-2.4 11.781-1.684 16.439 1.531 16.667-5.995 0-23.053 0-23.053.735-7.19-12.893-6.656-28.554 0-28.554 0-6.255-.373-6.165 5.437 0 22.962 0 22.962-.521 7.131 6.165 7.8 4.119 8.134 1.567 8.851Z" fill="none" stroke-linejoin="round"/><path data-name="Path 799" d="m619.331 2185.081 9.909-1.139 7.561-8.911" fill="none" stroke-linejoin="round"/><path data-name="Path 800" d="M632.288 2175.035h5.131v4.025" fill="none" stroke-linejoin="round"/><g data-name="Rectangle 133" transform="translate(620.405 2191.452)" fill="#707070" stroke-linejoin="round"><rect width="2.807" height="6.55" rx="1.404" stroke="none"/><rect x="1" y="1" width=".807" height="4.55" rx=".404" fill="none"/></g><g data-name="Rectangle 134" transform="translate(626.019 2188.645)" fill="#707070" stroke-linejoin="round"><rect width="2.807" height="9.357" rx="1.404" stroke="none"/><rect x="1" y="1" width=".807" height="7.357" rx=".404" fill="none"/></g><g data-name="Rectangle 135" transform="translate(631.634 2185.838)" fill="#707070" stroke-linejoin="round"><rect width="2.807" height="12.164" rx="1.404" stroke="none"/><rect x="1" y="1" width=".807" height="10.164" rx=".404" fill="none"/></g><g data-name="Rectangle 136" transform="translate(637.248 2183.031)" fill="#707070" stroke-linejoin="round"><rect width="2.807" height="14.971" rx="1.404" stroke="none"/><rect x="1" y="1" width=".807" height="12.971" rx=".404" fill="none"/></g></g><g data-name="Group 182" fill="none" stroke="#4f5052" stroke-linecap="round" stroke-linejoin="round" stroke-width="2"><path data-name="Path 801" d="m1659.59 2171.908 4.023-5.457s1.218-2.782 3.359-.542a64.055 64.055 0 0 0 5.814 5.066s1.991 1.312 0 1.568-4.3.652-4.3.652l.435 5.48s.2 1.479-1.951 1.524-3.279-.285-3.359-2.244 0-4.042 0-4.042h-4.021s-2.514.698 0-2.005Z"/><path data-name="Path 802" d="M1661.014 2169.884s-17.341 1.38-16.8-9.74 10.983-6.047 10.535-6.435.438-8.088 7.746-8.142 9.009 5.4 9.05 5.473 5.265-1.165 7.454.693 2.6 2.663 2.533 4.875c0 0 4.341-1.458 6.066 1.479s.338 6.834-1.322 8.019-3.2 3.333-14.731 3.778"/></g><g data-name="Group 183" fill="none" stroke="#4f5052" stroke-linecap="round" stroke-linejoin="round" stroke-width="2"><path data-name="Path 803" d="m1014.691 2305.685 19.806 1.41s2.333-.216 2.294-4.091-.9-3.576-3.08-3.373a8.2 8.2 0 0 1-3.905-.618l.814-5.136 3.904.618s3.98.612 4.005-2.466a11.4 11.4 0 0 1 .71-4.488s-1.16-2.255-5.002-2.54-12.727-.268-12.727-.268-4.395-.088-4.904 2.833-1.032 3.96 2.642 4.51 4.657.321 4.263 2.807l-.484 3.052s-1.551 1.07-4.795.557l-2.339-.37s-2.003-.352-2.446 2.303-.516 3.26-.516 3.26"/><path data-name="Path 804" d="M1018.499 2283.603s.403-14.866 3.299-20.828c0 0 1.215-.77 4.218-.316s3.08 2.58 3.08 2.58l-.416 2.62s-1.627 2.605 2.876 2.807a31 31 0 0 1 7.52 1.191s3.315-.014 2.725 2.78a20.369 20.369 0 0 0-.573 3.623 30.176 30.176 0 0 1-5.184-.821 34.286 34.286 0 0 0-5.424-.86s-3.035-2.086-3.945 3.942"/><path data-name="Path 805" d="M1022.242 2261.864s2.59-10.506 1.902-12.006 8.361-1.064 10.741-4.532-9.512-3.227-9.512-3.227l1.662-10.49 21.13 1.665-1.161 7.327-9.416-1.491 5.255 5.756s.337 5.162-1.934 6.142-5.739 1.027-5.575 2.332 1.509 1.98 7.908 2.316c0 0 2.853-.75 2.294 2.49s-.723 4.563-.723 4.563l-12.372-1.96"/><path data-name="Path 806" d="M1028.388 2231.579s-1.751-2.124-.908-6.149 6.151-1.702 6.151-1.702l6.597 1.045s4.317 1.123 4.394-3.778c0 0-1.066-4.134 2.282-3.678l2.328.368s1.28.233.85 2.949-2.463 8.418-1.749 11.036"/></g><g data-name="Group 184" fill="none" stroke="#4f5052" stroke-linecap="round" stroke-width="2"><path data-name="Path 807" d="m1139.041 2172.81-31.569 54.874a17.843 17.843 0 0 0-1.085 14.861s5.068.714 11.584-8.492 28.379-55 28.379-55 3.515-4.351-1.348-6.245-4.855-1.725-5.961.002Z" stroke-linejoin="round"/><path data-name="Path 808" d="M1147.578 2174.545s2.617-5.3 0-7.01-4.618.94-5.784 3.618" stroke-linejoin="round"/><path data-name="Path 809" d="M1147.578 2178.155s4.544 2.452 1.832 8.156-12.6 25.721-12.6 25.721" stroke-linejoin="round"/><path data-name="Path 810" d="m1113.81 2215.945-31.306 7.14-15.564-65.437 32.171-7.13s9.009-2.526 19.895 15.376l7.642 25.339" stroke-linejoin="round"/><path data-name="Path 811" d="m1109.758 2221.958-30.072 8.526-18.154-65.435 6.091-1.7" stroke-linejoin="round"/><path data-name="Path 812" d="M1100.073 2150.395s6.581 5.1 3.921 11.9c0 0 11.991-2.495 15.539 6.652" stroke-linejoin="round"/><path data-name="Path 813" d="m1077.114 2168.949 21.11-4.314"/><path data-name="Path 814" d="m1079.407 2178.155 31.877-6.741"/><path data-name="Path 815" d="m1082.094 2186.74 31.568-6.945"/><path data-name="Path 816" d="m1084.184 2195.093 31.411-7.735"/><path data-name="Path 817" d="m1085.65 2203.511 22.193-4.567"/><path data-name="Path 818" d="M1123.946 2198.944s8.356-.959 9.77 5"/><path data-name="Path 819" d="M1120.674 2205.16s7.828-1.625 9.493 4.844"/></g><g data-name="Group 204" fill="none" stroke="#4f5052" stroke-linecap="round" stroke-width="2"><path data-name="Path 822" d="M1034.172 2194.621s2.633 8.732 1.673 11.716"/><g data-name="Ellipse 59" transform="translate(1021 2158)" stroke-linejoin="round"><circle cx="11" cy="11" r="11" stroke="none"/><circle cx="11" cy="11" r="10"/></g><path data-name="Path 820" d="M1003.812 2196.476c.412 1.77 17.723 14.959 38.674 9.091 0 0 3.578-18.763-13.794-22.747s-25.292 11.886-24.88 13.656Z" stroke-linejoin="round"/><path data-name="Path 821" d="M1018.448 2191.006s-6.438 4.364-8.063 9.689"/><path data-name="Path 823" d="m913.992 2137.658-5.078 18.028s-4.434 9.365 6.591 13.12 72.009 19.3 72.009 19.3.063 9.65 8.84 10.909c0 0-4.447-2.584-3.266-9.766a8.691 8.691 0 0 0 8.962-6.911c2.008-7.537 5.791-22.243 5.791-22.243s4.032-9.417-7.5-12.3-40.993-10.544-40.993-10.544" stroke-linejoin="round"/><g data-name="Ellipse 60" transform="translate(936 2150)" stroke-linejoin="round"><circle cx="5" cy="5" r="5" stroke="none"/><circle cx="5" cy="5" r="4"/></g><g data-name="Ellipse 61" transform="translate(950 2153)" stroke-linejoin="round"><circle cx="5" cy="5" r="5" stroke="none"/><circle cx="5" cy="5" r="4"/></g><g data-name="Ellipse 62" transform="translate(962 2157)" stroke-linejoin="round"><circle cx="5" cy="5" r="5" stroke="none"/><circle cx="5" cy="5" r="4"/></g><g data-name="Ellipse 63" transform="translate(974 2160)" stroke-linejoin="round"><circle cx="5" cy="5" r="5" stroke="none"/><circle cx="5" cy="5" r="4"/></g></g><g data-name="Group 186" fill="none" stroke="#4f5052" stroke-linecap="round" stroke-width="2"><path data-name="Path 824" d="M1396.009 2234.549s2.986-8.177 16.882-4.314 55.319 16.919 55.319 16.919 15.62 3.572 12.975 17.774-7.929 34.414-11.251 40.088-6.617 11.329-21.445 5.817-54.579-19.068-54.579-19.068-12.863-4-8.53-23.053a233.742 233.742 0 0 1 10.629-34.163Z" stroke-linejoin="round"/><path data-name="Path 825" d="M1415.229 2299.577s4.147 9.3-5.137 7.1-19.138-4.014-20.9-3.88-8.149 2.384 0 5.646 33.87 12.305 33.87 12.305" stroke-linejoin="round"/><path data-name="Path 826" d="M1431.082 2305.05s-9.756 3.085-2.628 7 15.607 4.843 20.389 8.349" stroke-linejoin="round"/><path data-name="Path 827" d="M1385.147 2281.45s55.6 16.125 81.872 28.079"/><path data-name="Path 828" d="M1398.622 2249.518s-2.889 14.364-2.889 15.975-3.257 10.37 8.13 13.232a91.965 91.965 0 0 1 19.671 7.4s12.311 6.155 15.626-7.4 3.244-14.755 3.244-14.755 3.428-9.505-15.6-11.968l-19.155-5.527s-7.548-2.302-9.027 3.043Z" stroke-linejoin="round"/><path data-name="Path 829" d="M1441.524 2268.479s-42.7-13.587-43.592-14.727"/><path data-name="Path 830" d="m1437.345 2283.449 14.578 5.644s11.488 5.734 13.886-5.644 4.231-16.086 4.231-16.086 4.923-9.739-14.275-13.959l-18.42-5.645s-9.864-4.178-11.36 4.075" stroke-linejoin="round"/><path data-name="Path 831" d="m1442.645 2261.115 26.3 8.619"/><path data-name="Path 832" d="m1432.199 2257.172 3.24 5.753"/><path data-name="Path 835" d="m1460.159 2258.919 3.24 5.753"/><path data-name="Path 833" d="m1430.675 2261.115 6.284-2.646"/><path data-name="Path 834" d="m1458.636 2262.863 6.284-2.646"/></g><g data-name="Group 187" fill="none" stroke="#4f5052" stroke-linecap="round" stroke-width="2"><path data-name="Path 836" d="m687.587 2137.506-13.169 57s-4.4 9.862 9.716 11.508 39.606 6.086 39.606 6.086 9.007 2.995 10.879-6.086 13.637-61.023 13.637-61.023 1.7-6.072-5.4-7.487" stroke-linejoin="round"/><path data-name="Path 837" d="M673.77 2199.626s.394 9.75 8.664 11.478 43.888 7.118 43.888 7.118 8.872 3.616 10.764-4.745 14.094-63.04 14.094-63.04 2.113-6.2-4.011-11.123" stroke-linejoin="round"/><path data-name="Path 838" d="m748.434 2145.091-44.979-7.479"/><path data-name="Path 839" d="m691.739 2140.263-11.251 50.71"/><path data-name="Path 840" d="m735.576 2200.121-59.945-9.963"/><g data-name="Ellipse 64" transform="rotate(7 -17619.334 6816.25)" stroke-linejoin="round"><ellipse cx="5.915" cy="3.38" rx="5.915" ry="3.38" stroke="none"/><ellipse cx="5.915" cy="3.38" rx="4.915" ry="2.38"/></g><path data-name="Path 841" d="m691.173 2174.46 14-4.618s2.586-1.228 1.457 1.364-4.295 10.78-4.295 10.78-1.362 5.064-2.294-.707l-5.464 3.943a2.615 2.615 0 0 1-3.4-.647 13.949 13.949 0 0 0-1.812-2.154s-1.176-1.668.963-2.708a19.019 19.019 0 0 0 4.248-3.152s-5.445.187-3.403-2.101Z" stroke-linejoin="round"/><path data-name="Path 842" d="M696.722 2169.55s-3.9-22.162 21.136-23.834c0 0 16.1 1.671 16.736 15.288s-9.164 16.852-10.646 17.947-9.728 3.871-16.989 1.248" stroke-linejoin="round"/><path data-name="Path 843" d="m718.194 2146.354-6 34.81"/><path data-name="Path 844" d="M716.88 2145.716s-11.541 4.327-12.7 21.261"/><path data-name="Path 845" d="M719.666 2146.354s9.939 5.094 7.11 18.854-10.72 15.536-12.086 15.987" stroke-linejoin="round"/><path data-name="Path 846" d="M701.655 2152.602s10.4 9.749 31.666 3.935"/><path data-name="Path 847" d="m696.502 2162.005 37.887 4.256"/><path data-name="Path 848" d="M711.101 2169.551s10.431.773 18.224 5.628"/></g><g data-name="Group 195" stroke="#4f5052" stroke-linecap="round" stroke-width="2"><path data-name="Path 849" d="m1178.272 2219.114-21.009.765s-9.219-2.193-7.944 8.292 9.626 65.585 9.626 65.585.313 9.769 8.631 9.358 32.4-1.06 32.4-1.06 8 .538 6.745-8.3-9.141-59.5-9.141-59.5" fill="none" stroke-linejoin="round"/><path data-name="Path 850" d="m1150.273 2230.938 28.978-.663" fill="none"/><path data-name="Path 851" d="m1150.744 2221.415-6.369 6.809s-1.18-.249-.688 4.155 10.129 68.1 10.129 68.1.159 7.4 5.6 8.085 34.764-.815 34.764-.815a9.1 9.1 0 0 0 7.108-2.976c3.059-3.372 4.284-4.982 4.284-4.982" fill="none" stroke-linejoin="round"/><path data-name="Path 852" d="m1155.69 2306.174 5.107-6.077" fill="none"/><path data-name="Path 853" d="m1158.872 2290.117 46.9-1.188" fill="none"/><path data-name="Path 854" d="m1193.45 2236.739 7.444 48.312" fill="none"/><g data-name="Ellipse 65" transform="translate(1164 2241)" fill="none" stroke-linejoin="round"><circle cx="13" cy="13" r="13" stroke="none"/><circle cx="13" cy="13" r="12"/></g><path data-name="Path 855" d="M1162.884 2283.334s-1.3-15.553 15.677-16.942 17.57 15.008 17.57 15.008" fill="none" stroke-linejoin="round"/><path data-name="Path 856" d="m1172.8 2250 .586 2.524" fill="none"/><path data-name="Path 857" d="M1179.496 2249.39v2.656" fill="none"/><path data-name="Path 858" d="M1170.177 2256s2.365 6.316 7.693 5.685 5.953-6.88 5.953-6.88" fill="none" stroke-linejoin="round"/><path data-name="Path 859" d="M1174.32 2267s1.288 2.648 2.724 3.094l-.975 12.32h7.845l-3.966-12.32a5.016 5.016 0 0 0 1.936-3.094" fill="#4f5052" stroke-linejoin="round"/><path data-name="Path 860" d="M1169.808 2275.867s-2.044 4.26-1.237 7.368" fill="none"/><path data-name="Path 861" d="M1185.668 2274.708s3.959 2.86 4.523 6.818" fill="none"/><path data-name="Path 862" d="M1185.668 2241.642s3.649 1.14 7.763-5.357c0 0 .976-2.763 7.6-2.456a81.036 81.036 0 0 0 9.958 0s6.292.836 5.869-6.007-.826-16.548-.826-16.548-.238-5.525-5.58-5.31-26.258.811-26.258.811-6.329-.609-6.174 4.5 1.237 19.245 1.237 19.245a4.63 4.63 0 0 0 4.271 4.034c3.871.323 3.734 4.427 3.734 4.427a3.116 3.116 0 0 1-1.594 2.661Z" fill="none" stroke-linejoin="round"/><path data-name="Path 863" d="m1183.454 2228.38 29.574-1.29" fill="none"/><path data-name="Path 864" d="M1187.121 2227.735v-11.165h4.141v11.165" fill="none" stroke-linejoin="round"/><path data-name="Path 865" d="M1196.131 2227.735v-9.292h4.528v8.69" fill="none" stroke-linejoin="round"/><path data-name="Path 866" d="M1205.073 2227.09v-14.637h4.833v14.637" fill="none" stroke-linejoin="round"/></g><g data-name="Group 189" stroke="#4f5052" stroke-linecap="round" stroke-linejoin="round" stroke-width="2"><g data-name="Ellipse 66" transform="translate(1161.362 2163.872)" fill="#707070"><ellipse cx="2.5" cy="2" rx="2.5" ry="2" stroke="none"/><ellipse cx="2.5" cy="2" rx="1.5" ry="1" fill="none"/></g><path data-name="Path 867" d="M1156.595 2162.107a8.226 8.226 0 0 1 7.762-3.7c5.32.511 6.735 3.7 6.735 3.7" fill="none"/><path data-name="Path 869" d="M1150.273 2153.307a23.946 23.946 0 0 1 13.917-5.315 17.675 17.675 0 0 1 13.384 5.315" fill="none"/><path data-name="Path 870" d="M1153.568 2158.367s2.818-5.085 10.845-4.781 9.915 4.781 9.915 4.781" fill="none"/></g><g data-name="Group 190" fill="none" stroke="#4f5052" stroke-linecap="round" stroke-width="2"><path data-name="Path 871" d="m1389.607 2165.962 34.1-13.871-27.263-8.739-33.264 10.781Z" stroke-linejoin="round"/><g data-name="Ellipse 67" transform="translate(1399.277 2167.962)" stroke-linejoin="round"><circle cx="4" cy="4" r="4" stroke="none"/><circle cx="4" cy="4" r="3"/></g><g data-name="Ellipse 68" transform="translate(1396.277 2164.962)" stroke-linejoin="round"><circle cx="7" cy="7" r="7" stroke="none"/><circle cx="7" cy="7" r="6"/></g><path data-name="Path 872" d="M1404.37 2166.074s-9.739-2.5-11.4 3.847 3.636 7.085 7.89 7.64" stroke-linejoin="round"/><path data-name="Path 873" d="m1410 2162.497 9.28-3.551"/><path data-name="Path 874" d="m1411.419 2165.962 9.115-3.34"/><path data-name="Path 875" d="m1412.461 2169.271 4.338-1.654 4.337-1.654" stroke-linejoin="round"/><path data-name="Path 876" d="M1389.547 2166.382v15.875"/><path data-name="Path 877" d="M1423.704 2152.3v12.183s.611 4.213-4.127 6.056-10.612 4.186-10.612 4.186" stroke-linejoin="round"/><path data-name="Path 878" d="m1401.477 2178.051-11.929 4.258-24.57-10.961s-2.268-.18-2.109-6.228 0-10.94 0-10.94" stroke-linejoin="round"/><path data-name="Path 879" d="M1372.154 2158.435v15.85"/><path data-name="Path 880" d="m1373.014 2158.435 35.177-11.156"/><path data-name="Path 881" d="m1400.491 2181.386-1.5 4.643"/><path data-name="Path 882" d="m1404.253 2181.014 2.109 5.655"/><path data-name="Path 883" d="m1408.715 2178.962 4.82 5.219"/><path data-name="Path 884" d="m1411.909 2176.513 4.757 1.665"/></g><g data-name="Group 191" fill="none" stroke="#4f5052" stroke-linecap="round" stroke-width="2"><path data-name="Path 885" d="M387.033 2234.027H404.2"/><path data-name="Path 889" d="M386.032 2240.076h17.167"/><path data-name="Path 888" d="m393.606 2229.198-3.676 17.358"/><path data-name="Path 890" d="m400.664 2229.198-3.676 17.358"/></g><g data-name="Group 193" fill="none" stroke="#4f5052" stroke-linecap="round" stroke-width="2"><path data-name="Path 891" d="m1196.3 2170.786 18.16-2.05 1.53 16.714s-12.412 4.635-18.725 3.912Z" stroke-linejoin="round"/><path data-name="Path 892" d="M1215.987 2185.407s0 3.778-4.507 7.8c0 0-14.187 2.067-17.906.841 0 0-3.123-6.992-2.322-21.144l4.776-2.011" stroke-linejoin="round"/><path data-name="Path 893" d="m1194.013 2193.91 3.476-4.51"/><path data-name="Path 894" d="m1201.2 2175.719 5.123 5.3 16.925-15.052" stroke-linejoin="round"/></g><g data-name="Group 192" fill="none" stroke="#4f5052" stroke-linecap="round" stroke-width="2"><path data-name="Path 895" d="M1194.252 2137.566s-.424 6.237 8.945 12.754 13.8 7.318 17.307 7.447 9-3.915 11.136-8.719c0 0 .961-.572-3.6-3.749s-2.694-1.869-2.694-1.869-2.136-1.93-4.052 0-2.509 5.662-6.447 2.641a78.425 78.425 0 0 1-8.375-5.886c-2.2-2.066-2.363-1.686-1.3-2.888" stroke-linejoin="round"/><path data-name="Path 896" d="m1228.889 2152.036-8.63-6.509"/></g><g data-name="Group 194" fill="none" stroke="#4f5052" stroke-linecap="round" stroke-width="2"><path data-name="Path 897" d="M1246.019 2284.708c1.619-.238 14.293 2.047 17.57 4.437 0 0-2.051 13.891-4.08 17.9 0 0-17.947-2.118-19.413-3.856 0-.002 4.304-18.243 5.923-18.481Z" stroke-linejoin="round"/><path data-name="Path 898" d="m1245.64 2284.69-5.565 1.473s-6.821 15.316-4.514 20.443a139.569 139.569 0 0 0 17.49 4.983s4.88-2.6 6.385-4.3" stroke-linejoin="round"/><path data-name="Path 899" d="m1235.543 2306.29 4.784-2.96"/><path data-name="Path 900" d="m1249.398 2291.058 6.23 10"/><path data-name="Path 901" d="m1246.24 2299.351 11.053-5.877"/></g><g data-name="Group 196" stroke="#4f5052" stroke-linecap="round" stroke-width="2"><g data-name="Ellipse 69" transform="rotate(4.01 -29779.883 22508.36)" fill="none" stroke-linejoin="round"><circle cx="13.733" cy="13.733" r="13.733" stroke="none"/><circle cx="13.733" cy="13.733" r="12.733"/></g><path data-name="Path 902" d="M1498.268 2184.317s-.216-16.493 17.78-16.702 17.414 17.12 17.414 17.12" fill="none" stroke-linejoin="round" stroke-width="2.001"/><path data-name="Path 903" d="m1511.235 2150.53.431 2.704" fill="none" stroke-width="2.001"/><path data-name="Path 904" d="m1519.733 2150.435-.196 2.8" fill="none" stroke-width="2.001"/><path data-name="Path 905" d="M1508.285 2156.908s2.028 6.834 7.69 6.562 6.785-6.812 6.785-6.812" fill="none" stroke-linejoin="round" stroke-width="2.001"/><path data-name="Path 906" d="M1511.528 2167.939s1.162 2.89 2.642 3.464l-1.938 12.916 8.27.58-3.269-13.281a5.302 5.302 0 0 0 2.269-3.12" fill="#4f5052" stroke-linejoin="round" stroke-width="2.001"/><path data-name="Path 907" d="M1527.734 2149.316h8.585s7.423-.724 8.372 3.949 1.508 30.575 1.508 30.575.942 8.371-7.91 8.531-21.388.577-21.388.577-5.506-.274-7.918 3.249-5.937 9.823-12.686 9.521c0 0 6.859-7.863-1.048-11.224 0 0-8.528.457-8.438-7.769s-1.074-28.186-1.074-28.186-1.058-8.314 10.047-8.213 6.3 0 6.3 0" fill="none" stroke-linejoin="round"/><path data-name="Path 908" d="m1485.71 2166.365-12.009 2.565 12.009 43.357 47.157-8.069-2.961-11.309" fill="none" stroke-linejoin="round"/><path data-name="Path 909" d="m1485.71 2161.937-17.812 3.832 15.008 51.585 55.773-10.2-4.1-14.439" fill="none" stroke-linejoin="round"/><path data-name="Path 910" d="m1538.68 2207.051 31.684 10.324-55.062 16.327-32.072-16.19" fill="none" stroke-linejoin="round"/><path data-name="Path 911" d="m1467.691 2165.934-4.257 4.405 15.812 53.559 4.02-6.248" fill="none" stroke-linejoin="round"/><path data-name="Path 912" d="m1479.318 2224.007 34.837 17.55 58.258-17.55-1.993-6.489" fill="none" stroke-linejoin="round"/><path data-name="Path 913" d="m1515.309 2233.702-1.011 7.479" fill="none"/><path data-name="Path 914" d="m1499.078 2219.613 3.928-.732" fill="none"/><path data-name="Path 915" d="m1507.863 2217.434 20.466-4.064" fill="none"/><path data-name="Path 916" d="m1532.867 2212.289 3.333-.6" fill="none"/><path data-name="Path 917" d="m1506.991 2224.007 6.419-1.442" fill="none"/><path data-name="Path 918" d="m1516.015 2221.284 19.468-4.56" fill="none"/><path data-name="Path 919" d="m1540.095 2215.402 3.3-.835" fill="none"/><path data-name="Path 920" d="m1515.309 2226.98 32.729-9.052" fill="none"/></g><g data-name="Group 197" fill="none" stroke="#4f5052" stroke-linecap="round" stroke-width="2"><g data-name="Ellipse 70" transform="rotate(146 467.608 1341.913)" stroke-linejoin="round"><ellipse cx="9.551" cy="21.08" rx="9.551" ry="21.08" stroke="none"/><ellipse cx="9.551" cy="21.08" rx="8.551" ry="20.08"/></g><path data-name="Path 921" d="M1583.825 2166.88s-5.971 8.145.479 14.9 9.07 5.452 13.476 4.142" stroke-linejoin="round"/><path data-name="Path 922" d="M1594.716 2183.091s-3.7 1.147-6.13-3.012"/><path data-name="Path 923" d="M1586.863 2178.444s-.512-1.871 0-2.59"/><path data-name="Path 924" d="m1581.436 2200.254-1.285 6.033"/><path data-name="Path 925" d="m1577.345 2194.814-6.387 5.594"/><path data-name="Path 926" d="m1574.152 2190.056-9.478 2.847"/><path data-name="Path 927" d="m1570.239 2182.236-7.426-1.858"/><path data-name="Path 928" d="M1574.496 2164.228s16.322-20.7 35.567-3.577c0 0 11.967 13.083 0 28.322 0 0-6.751 5.7-12.715 8.526" stroke-linejoin="round"/><path data-name="Path 929" d="M1601.546 2154.96s9.873-7.854 18.114 1.934c0 0 6.9 8.912-3.915 18.373" stroke-linejoin="round"/><path data-name="Path 930" d="m1619.347 2171.964 28.637 28.648"/><path data-name="Path 931" d="m1621.827 2166.377 29.759 29.934"/><g data-name="Ellipse 71" transform="translate(1652.866 2199.314)" stroke-linejoin="round"><circle cx="3.639" cy="3.639" r="3.639" stroke="none"/><circle cx="3.639" cy="3.639" r="2.639"/></g><g data-name="Ellipse 72" transform="translate(1647.408 2193.856)" stroke-linejoin="round"><circle cx="9.097" cy="9.097" r="9.097" stroke="none"/><circle cx="9.097" cy="9.097" r="8.097"/></g><path data-name="Path 932" d="m1652.368 2210.829-9.62 46.273s-.888 2.253 2.424 2.3 3.546-.737 3.922-3.043 8.677-44.673 8.677-44.673" stroke-linejoin="round"/><g data-name="Ellipse 73" transform="translate(1656.505 2258.442)" stroke-linejoin="round"><circle cx="2.729" cy="2.729" r="2.729" stroke="none"/><circle cx="2.729" cy="2.729" r="1.729"/></g><path data-name="Path 933" d="M1643.341 2252.388s-14.267.99-19.137 4.207-6.065 5.737 1.079 8.829 22.526 5.653 37.51 3.125a13.815 13.815 0 0 0 6.882-3.679c3.623-3.289 2.057-5.642-1.338-7.276s-7.471-3.7-18.283-5.206" stroke-linejoin="round"/><path data-name="Path 934" d="M1671.746 2260.982s2.927 2.353.843 8.089-20.209 6.009-20.209 6.009-21.158.318-30.149-4.712-1.373-10.84-1.373-10.84" stroke-linejoin="round"/></g><g data-name="Group 198" fill="none" stroke="#4f5052" stroke-linecap="round" stroke-linejoin="round" stroke-width="2"><path data-name="Path 935" d="M1506.159 2294.84c-.337-.967-6.695-3.608-7.001 4.088s6.317 6.639 6.317 6.639a5.556 5.556 0 0 0 2.115-6.322c-1.39-3.983-1.095-3.438-1.431-4.405Z"/><path data-name="Path 936" d="M1507.65 2299.422s2.868 7.971 5.03 3.508.288-10.133-2.352-12.21-8.538-5.265-13.129-.045-4.137 9.918-2.261 15.408a8.564 8.564 0 0 0 9.099 5.635c1.295-.421 2.2-.135 5.165-1.678"/></g><g data-name="Group 200"><g data-name="Group 199" fill="none" stroke="#4f5052" stroke-linecap="round" stroke-width="2"><g data-name="Rectangle 137" stroke-linejoin="round"><path d="m1084.298 2267.36 43.279-18.391 13.696 32.228-43.279 18.393z" stroke="none"/><path d="m1085.61 2267.89 41.437-17.61 12.914 30.388-41.437 17.61z" stroke-width="2.001"/></g><path data-name="Path 937" d="m1086.882 2268.23 23.655 11.172s3.4 2.674 5.656-3.144 10.437-24.709 10.437-24.709" stroke-linejoin="round"/><path data-name="Path 938" d="m1138.896 2280.197-21.419-7.15"/><path data-name="Path 939" d="m1098.807 2297.34 10.296-17.431"/><path data-name="Path 940" d="m1060.281 2278.365 20.303-6.207"/><path data-name="Path 941" d="m1056.282 2290.01 25.364-11.139"/><path data-name="Path 942" d="m1067.77 2294.457 17.37-8.438"/></g></g><g data-name="Group 203" fill="none" stroke="#4f5052" stroke-linecap="round" stroke-width="2"><g data-name="Rectangle 137" stroke-linejoin="round"><path d="m1597.874 2216.741 28.585-12.135 9.037 21.287-28.585 12.135z" stroke="none"/><path d="m1599.186 2217.271 26.743-11.353 8.255 19.445-26.743 11.353z" stroke-width="2.001"/></g><path data-name="Path 937" d="m1599.58 2217.314 15.62 7.375s2.245 1.766 3.736-2.077 6.891-16.316 6.891-16.316" stroke-linejoin="round"/><path data-name="Path 938" d="m1633.928 2225.217-14.144-4.723"/><path data-name="Path 939" d="m1607.455 2236.537 6.799-11.51"/></g><g data-name="Group 201" fill="none" stroke-linecap="round"><g data-name="Path 943" stroke-linejoin="round"><path d="M1717.808 2166.649a29.415 29.415 0 1 1-29.415 29.415 29.415 29.415 0 0 1 29.415-29.415Z"/><path d="M1717.808 2168.649a27.326 27.326 0 0 0-19.385 8.03 27.326 27.326 0 0 0-8.03 19.385 27.326 27.326 0 0 0 8.03 19.385 27.326 27.326 0 0 0 19.385 8.03 27.326 27.326 0 0 0 19.385-8.03 27.326 27.326 0 0 0 8.03-19.385 27.326 27.326 0 0 0-8.03-19.385 27.326 27.326 0 0 0-19.385-8.03m0-2c16.246 0 29.415 13.17 29.415 29.415 0 16.246-13.17 29.415-29.415 29.415-16.245 0-29.415-13.17-29.415-29.415 0-16.245 13.17-29.415 29.415-29.415Z" fill="#4f5052"/></g><path data-name="Path 944" d="M1705.929 2170.511s1.942 7.833 0 10.979-1.9 4.708 0 6.806a3.19 3.19 0 0 1 0 4.249s-1.357 2.574 1.81 3.024 5.557.818 5.557.818 4.993.063 6.169 3.949 4.041 11.929 4.041 11.929 1.915 3.794-3.222 3.9a20.8 20.8 0 0 1-7.966-1.113s-3.127-1.087-1.986-4.793-1.114-3.856-1.114-3.856a8.8 8.8 0 0 0-2.905 1.729c-1.159 1.137-4.993 1.687-6.179-1.316s-2.789-2.905-4.216-2.122-4.861.683-5.647-1.361" stroke="#4f5052" stroke-linejoin="round" stroke-width="2"/><path data-name="Path 945" d="M1702.405 2172.549s2 3.021-.994 10.923a8.1 8.1 0 0 0 1.393 6.693 2.88 2.88 0 0 1 0 3.068c-.981 1.738.013 4.463 1.927 4.918a63.181 63.181 0 0 0 6.732.782s4.322.072 5.1 3.43 4.8 13.476 4.8 13.476" stroke="#4f5052" stroke-linejoin="round" stroke-width="2"/><path data-name="Path 946" d="M1721.937 2167.936s-6.61 4.8-1.327 9.288l1.327.746s-2.44 4.7 1.137 6.948 1.33 5.929 1.33 5.929-3.958 2.875-.43 4.7c0 0 4-.315 5.777 1.635a12.26 12.26 0 0 1 2.62 6.207c0 .857.8 5.027 3.421 3.353s4.764-10.137 4.6-12.052-1.533-4.439-6.653-7.183-.286-4.9.583-4.837 5.1 3.276 8.634.63" stroke="#4f5052" stroke-linejoin="round" stroke-width="2"/><path data-name="Path 947" d="M1732.883 2204.599s4.517-5.956 3.412-9.723-5.253-5.111-5.253-5.111-5.223-3.415-3.42-6.988a6.611 6.611 0 0 1 6.831-3.491c1.485.138 6.466 3.014 6.5.367" stroke="#4f5052" stroke-linejoin="round" stroke-width="2"/><g data-name="Ellipse 74" transform="translate(1745.599 2163.093)" stroke="#4f5052" stroke-linejoin="round" stroke-width="2"><circle cx="3" cy="3" r="3" stroke="none"/><circle cx="3" cy="3" r="2"/></g><path data-name="Path 948" d="M1739.109 2173.146s-.65-14.315 12.78-15.146c0 0 7.205 1.443 5.315 7.464s-5.742 9.722-18.095 7.682Z" stroke="#4f5052" stroke-linejoin="round" stroke-width="2"/><path data-name="Path 949" d="M1735.436 2164.656s-3.541-7.749 5.332-8.436" stroke="#4f5052" stroke-width="2"/><path data-name="Path 950" d="M1729.06 2162.824s-3.771-11 8.558-12.4" stroke="#4f5052" stroke-width="2"/><path data-name="Path 951" d="M1723.417 2161.906s-4.44-14.851 11.73-17.385" stroke="#4f5052" stroke-width="2"/></g><g data-name="Group 202" stroke="#4f5052" stroke-linecap="round" stroke-width="2"><path data-name="Path 952" d="M1514.536 2274.666s8.931-7.719 13.066-9.057l30.032 40.554s-5.11 7.418-11.341 9.434Z" fill="none" stroke-linejoin="round"/><path data-name="Path 953" d="m1527.769 2265.608 11.089-16.034s23.788 31.35 24.645 34.088c0 0-3.715 18.233-5.77 22.224" fill="none" stroke-linejoin="round"/><path data-name="Path 954" d="m1534.406 2274.196 12.235-13.778" fill="none"/><path data-name="Path 955" d="m1537.086 2277.781 11.778-14.591" fill="none"/><path data-name="Path 956" d="M1514.536 2274.196s9.454-18.362 13.328-22.045l2.208 1.562" fill="none" stroke-linejoin="round"/><path data-name="Path 957" d="m1522.165 2268.584 10.522-18.435 3.385 3.142" fill="none" stroke-linejoin="round"/><path data-name="Path 958" d="M1519.991 2276.271s4.4-4.648 7.7-5.5" fill="none"/><path data-name="Path 959" d="M1522.305 2279.441s5.64-4.992 7.862-5.565" fill="none"/><path data-name="Path 960" d="m1527.269 2281.628 3.128-2.394 14.218 19.656-2.5 2.414Z" fill="none" stroke-linejoin="round"/><g data-name="Ellipse 75" transform="translate(1545.072 2303.251)" fill="#4f5052" stroke-linejoin="round"><circle cx="3.762" cy="3.762" r="3.762" stroke="none"/><circle cx="3.762" cy="3.762" r="2.762" fill="none"/></g><path data-name="Path 961" d="m1554.735 2248.611 21.948 52.111s.393 2.327 3.4 1.291 11.826-5.261 13.163-6.962l-21.1-54s-15.247 4.811-17.411 7.56Z" fill="none" stroke-linejoin="round"/><path data-name="Path 962" d="M1593.251 2295.058s11.564-1.949 15.95-6.421l-19.411-54.307s-11.163 2.259-17.468 6.973" fill="none" stroke-linejoin="round"/><path data-name="Path 963" d="m1566.591 2259.403 4.021-1.588 10.093 25.409-3.661 1.884Z" fill="none" stroke-linejoin="round"/><path data-name="Path 964" d="m1583.787 2252.713 10.31 25.924 3.7-1.936-10.034-25.94Z" fill="none" stroke-linejoin="round"/><g data-name="Ellipse 76" transform="translate(1578.933 2289.142)" fill="#4f5052" stroke-linejoin="round"><circle cx="3.762" cy="3.762" r="3.762" stroke="none"/><circle cx="3.762" cy="3.762" r="2.762" fill="none"/></g><g data-name="Ellipse 77" transform="translate(1594.923 2282.558)" fill="#4f5052" stroke-linejoin="round"><circle cx="3.762" cy="3.762" r="3.762" stroke="none"/><circle cx="3.762" cy="3.762" r="2.762" fill="none"/></g><path data-name="Path 965" d="M1560.133 2251.26s6.342-3.5 11.1-4.576" fill="none"/><path data-name="Path 966" d="M1561.612 2255.565s8.921-4.5 11-4.364" fill="none"/><path data-name="Path 967" d="M1577.785 2244.572s6.707-3.76 11.432-4.181" fill="none"/><path data-name="Path 968" d="M1578.934 2248.485s5.808-2.59 6.729-2.63" fill="none"/></g><g data-name="Group 205" fill="none" stroke="#4f5052" stroke-linecap="round" stroke-width="2"><g data-name="Ellipse 78" transform="translate(196 2186)" stroke-linejoin="round"><circle cx="3" cy="3" r="3" stroke="none"/><circle cx="3" cy="3" r="2"/></g><g data-name="Ellipse 79" transform="translate(180 2169)" stroke-linejoin="round"><circle cx="19.5" cy="19.5" r="19.5" stroke="none"/><circle cx="19.5" cy="19.5" r="18.5"/></g><g data-name="Ellipse 80" transform="translate(173 2162)" stroke-linejoin="round"><circle cx="26.5" cy="26.5" r="26.5" stroke="none"/><circle cx="26.5" cy="26.5" r="25.5"/></g><path data-name="Path 969" d="M207.759 2172.052s20.121 18.414-6.019 34.728"/><path data-name="Path 970" d="M196.838 2189.29c-1.893-1.579-8.035-6.586-8.035-6.586s-1.828-3.579 2.248-2.464l7.1 6.443" stroke-linejoin="round"/><path data-name="Path 971" d="m199.576 2186.67 8.285-7.708s3.64-.971 2.276 1.92l-8.763 8.116" stroke-linejoin="round"/><g data-name="Rectangle 138" stroke-linejoin="round"><path d="m200.767 2171.546 3.845 1.103-1.378 4.806-3.845-1.103z" stroke="none"/><path d="m201.453 2172.783 1.922.551-.827 2.884-1.922-.551z"/></g><g data-name="Rectangle 139" stroke-linejoin="round"><path d="m195.767 2198.546 3.845 1.103-1.378 4.806-3.845-1.103z" stroke="none"/><path d="m196.453 2199.783 1.922.551-.827 2.884-1.922-.551z"/></g><g data-name="Rectangle 140" stroke-linejoin="round"><path d="m212.337 2189.318-1.17 3.825-4.781-1.462 1.17-3.825z" stroke="none"/><path d="m211.088 2189.982-.584 1.913-2.87-.878.585-1.912z"/></g><g data-name="Rectangle 141" stroke-linejoin="round"><path d="m189.337 2186.675-1.17 3.825-4.781-1.462 1.17-3.825z" stroke="none"/><path d="m188.088 2187.339-.584 1.913-2.87-.878.585-1.912z"/></g><path data-name="Path 972" d="M195.863 2163.273s-19.118.066-24.225 13.511 3.874 20.45 3.874 20.45" stroke-linejoin="round"/><path data-name="Path 974" d="M204.611 2214.215s3.248 8.752 7.844 7.273 2.094-11.5 2.094-11.5" stroke-linejoin="round"/><path data-name="Path 975" d="M174.09 2197.326s-7.258 6.036-5.339 9.694 11.351-.861 11.351-.861" stroke-linejoin="round"/><path data-name="Path 976" d="m204.611 2162.708.837-2.479s.538-1.855-2.1-2.318-3.353-2.081-2.9-3.173 1.676-2.646 5-1.719 7.605 2.366 7.605 2.366a2.769 2.769 0 0 1 1.652 3.615c-.795 2.822-4.521.687-4.521.687s-1.338-.633-1.841 1.205-.82 2.877-.82 2.877" stroke-linejoin="round"/><path data-name="Path 977" d="M188.394 2150.761s5.964-7.384 21.93-2.105 14.662 11.666 14.662 12.954" stroke-linejoin="round"/><path data-name="Path 978" d="M184.081 2149.779s6.226-11.164 27.6-5.02 17.87 15.705 17.791 17.995" stroke-linejoin="round"/><path data-name="Path 979" d="M172.522 2164.45s13.146-2.015 20.5-9.089c0 0 .277-3.316-6.847-4.957s-11.3 3.3-13.042 6.931c.006 0-3.085 7.343-.611 7.115Z" stroke-linejoin="round"/><path data-name="Path 980" d="M173.206 2153.597a3.5 3.5 0 0 1 1.39-5.16c3.497-1.976 5.186 1.644 5.348 2.15" stroke-linejoin="round"/><path data-name="Path 981" d="M224.304 2161.877s8.066-3.867 12.755 2.58 3.073 12.138-.99 14.766-14.314-16.124-11.765-17.346Z" stroke-linejoin="round" stroke-width="2.001"/><path data-name="Path 982" d="M231.6 2163.152a3.962 3.962 0 0 1 5.795 1.214c2.493 3.64-1.517 4.854-1.517 4.854" stroke-linejoin="round"/></g><g data-name="Group 206" fill="none" stroke="#4f5052" stroke-linecap="round" stroke-width="2"><path data-name="Path 983" d="M457.17 2283.368s32.144-7.9 42.176-12.091a90.435 90.435 0 0 1 8.32 22.84s-3.847 5.697-43.411 15.678c0 0-6.147-20.735-7.086-26.427Z" stroke-linejoin="round"/><path data-name="Path 984" d="M467.233 2284.391s19.806-5.207 24.791-7.143a4.666 4.666 0 0 0 5.557 2.935l2.94 8.312s-3.615 1.675-2.413 6.549l-26.068 8.976s-.234-4.597-5.263-3.634l-2.65-9.882a4.766 4.766 0 0 0 3.106-6.113Z" stroke-linejoin="round"/><path data-name="Path 985" d="M477.48 2285.408s4.38-4.621 7.974-.084 1.563 9.514 1.013 10.02a5.655 5.655 0 0 1-7.116-1.15c-2.706-3.094-3.565-6.447-1.87-8.786Z" stroke-linejoin="round"/><path data-name="Path 986" d="m457.694 2279.552-1.145-5.97"/><path data-name="Path 987" d="M454.265 2281.314s-3.533-2.091-4.084-3.15"/><path data-name="Path 988" d="M453.268 2286.283s-4.26-.015-4.97-.387"/><path data-name="Path 989" d="m504.595 2282.404 6.192-.035s4.042 20.868 2.956 24.575c0 0-43.554 4.88-46.313 3.56" stroke-linejoin="round"/><path data-name="Path 990" d="M476.483 2306.574a108.807 108.807 0 0 0 27.597-2.222s-.228-4.743 4.368-5.52l-1.144-4.265" stroke-linejoin="round"/><path data-name="Path 991" d="M468.348 2313.93s34.496-.924 48.751-3.498a117.23 117.23 0 0 0-3.04-25.187" stroke-linejoin="round"/><path data-name="Path 992" d="M470.161 2316.907s36.646-.265 50.422-3.81c0 0-1.343-17.196-3.59-24.976" stroke-linejoin="round"/></g><g data-name="Group 207" fill="none" stroke="#4f5052" stroke-linecap="round" stroke-width="2"><g data-name="Rectangle 142" transform="rotate(-12.04 10764.389 366.96)" stroke-linejoin="round"><rect width="72" height="59" rx="5" stroke="none"/><rect x="1" y="1" width="70" height="57" rx="4"/></g><path data-name="Path 993" d="m165.505 2262.44 67.124-14.275"/><g data-name="Ellipse 81" transform="rotate(-12.04 10780.921 341.198)" stroke-linejoin="round"><circle cx="4" cy="4" r="4" stroke="none"/><circle cx="4" cy="4" r="3"/></g><g data-name="Ellipse 82" transform="rotate(-12.04 10775.453 288.899)" stroke-linejoin="round"><circle cx="4" cy="4" r="4" stroke="none"/><circle cx="4" cy="4" r="3"/></g><g data-name="Ellipse 83" transform="rotate(-12.04 10769.985 236.6)" stroke-linejoin="round"><circle cx="4" cy="4" r="4" stroke="none"/><circle cx="4" cy="4" r="3"/></g><g data-name="Rectangle 143" transform="rotate(-12.04 10846.554 233.4)" stroke-linejoin="round"><rect width="41" height="13" rx="3" stroke="none"/><rect x="1" y="1" width="39" height="11" rx="2"/></g><g data-name="Rectangle 144" transform="rotate(-12.04 10927.38 224.949)" stroke-linejoin="round"><rect width="41" height="13" rx="3" stroke="none"/><rect x="1" y="1" width="39" height="11" rx="2"/></g><g data-name="Rectangle 145" transform="rotate(-12.04 10871.257 331.753)" stroke-linejoin="round"><rect width="17" height="5" rx="2" stroke="none"/><rect x="1" y="1" width="15" height="3" rx="1"/></g><g data-name="Rectangle 146" transform="rotate(-12.04 10956.838 322.805)" stroke-linejoin="round"><rect width="17" height="5" rx="2" stroke="none"/><rect x="1" y="1" width="15" height="3" rx="1"/></g><path data-name="Path 994" d="M164.735 2247.324s-6.255 2.389-6.866 8.978l10.466 49.214s.634 4.874 5.207 4.074 65.313-13.138 65.313-13.138 4.57-.92 2.348-10.967" stroke-linejoin="round"/><path data-name="Path 995" d="m170.622 2308.494 4.033-5.465"/></g><g data-name="Group 208" fill="none" stroke="#4f5052" stroke-linecap="round" stroke-width="2"><g data-name="Ellipse 84" transform="translate(576.697 2299.29)" stroke-linejoin="round"><circle cx="8.999" cy="8.999" r="8.999" stroke="none"/><circle cx="8.999" cy="8.999" r="7.999"/></g><g data-name="Ellipse 85" transform="translate(602.409 2298.004)" stroke-linejoin="round"><circle cx="8.999" cy="8.999" r="8.999" stroke="none"/><circle cx="8.999" cy="8.999" r="7.999"/></g><path data-name="Path 996" d="m595.306 2307.983 6.933-.562"/><path data-name="Path 997" d="m582.433 2300.743 10.755-12.85s1.967-1.621 3.46 0" stroke-linejoin="round"/><path data-name="Path 998" d="m617.041 2299.702 9.647-11.188s1.966-1.621 3.46 0" stroke-linejoin="round"/></g><g data-name="Group 209" fill="none" stroke="#4f5052" stroke-linecap="round" stroke-linejoin="round" stroke-width="2"><path data-name="Path 999" d="M427.272 2184.288s2.007-11.02-4.12-12.933-2.501-9.136-2.501-9.136l2.23-6.86s.81-6.783 10.797-4.057l14.703 4.004s10.201 1.9 8.842 8.331l-2.91 10.649s-.705 6.118-8.422 4.017-14.58-6.24-18.619 5.985Z"/><g data-name="Ellipse 86" transform="rotate(25 -4649.636 2040.112)"><circle cx="4" cy="4" r="4" stroke="none"/><circle cx="4" cy="4" r="3"/></g><g data-name="Ellipse 87" transform="rotate(25 -4650.125 2063.666)"><circle cx="4" cy="4" r="4" stroke="none"/><circle cx="4" cy="4" r="3"/></g><g data-name="Ellipse 88" transform="rotate(25 -4650.614 2087.22)"><circle cx="4" cy="4" r="4" stroke="none"/><circle cx="4" cy="4" r="3"/></g><path data-name="Path 1000" d="m456.584 2165.753 17.698 4.861s7.667 1.01 5.193 8.797c0 0-2.018 11.649-6.6 11.122s-7.159 7.23-7.483 9.158 1.625-8.09-7.542-10.327-10.973-2.788-10.973-2.788-7.765.015-4.873-9.39"/></g><g data-name="Group 210" fill="none" stroke="#4f5052" stroke-width="2"><g data-name="Ellipse 89" transform="rotate(-14.98 9146.566 -3473.544)"><ellipse cx="16.5" cy="15" rx="16.5" ry="15" stroke="none"/><ellipse cx="16.5" cy="15" rx="15.5" ry="14"/></g><path data-name="Path 1001" d="M1227.03 2248.301s-11.852 15.752 6.991 26.077"/><path data-name="Path 1002" d="M1227.03 2248.301s18.142 7.71 6.991 26.077"/><path data-name="Path 1003" d="m1215.44 2260.63 28.102-7.535"/><path data-name="Path 1004" d="m1217.511 2268.357 28.103-7.534"/></g></g></g></svg>