<svg xmlns="http://www.w3.org/2000/svg" width="496.072" height="186.027"><path data-name="Path 443" d="M0 0h496.072v186.027H0Z" fill="#fffdf7"/><g data-name="Group 286" opacity=".604" fill="#3cb7c5" transform="translate(-143.602 -1519.184)"><circle data-name="Ellipse 221" cx="13" cy="13" r="13" transform="translate(381 1576)"/><path data-name="Rectangle 253" d="M188 1631h12v12h-12z"/><path data-name="Rectangle 256" d="M592 1631h12v12h-12z"/><path data-name="Rectangle 254" d="M188 1652h12v12h-12z"/><path data-name="Rectangle 257" d="M592 1652h12v12h-12z"/><path data-name="Rectangle 255" d="M188 1673h12v12h-12z"/><path data-name="Rectangle 258" d="M592 1673h12v12h-12z"/><path data-name="Rectangle 289" d="M396 1530h22v16h-22z"/><path data-name="Rectangle 291" d="M225 1631h83v54h-83z"/><path data-name="Rectangle 292" d="M476 1631h83v54h-83z"/></g><g data-name="Group 287" fill="none" stroke="#4f5052" stroke-linecap="round" stroke-width="2"><path data-name="Path 231" d="M22.331 71.77v-6.763l23.18-21.242 17.021 16.839h123l33.036-27.481h58.35l33.979 27.481h120.83l18.449-16.839 21.353 21.242v6.759" stroke-linejoin="round"/><path data-name="Path 232" d="M424.096 71.77h51.65v14.07h4.082v8.082h-60V85.84h4.271Z" stroke-linejoin="round"/><path data-name="Path 233" d="M19.687 71.77h51.65v14.07h4.082v8.082h-60V85.84h4.271Z" stroke-linejoin="round"/><path data-name="Path 234" d="M75.418 86.012h344.767"/><path data-name="Path 235" d="M203.205 86.012v-17.4l35.155-21.939h17.987l35.035 21.939v17.4" stroke-linejoin="round"/><g data-name="Ellipse 30" transform="translate(232.631 52.248)" stroke-linejoin="round"><circle cx="14.203" cy="14.203" r="14.203" stroke="none"/><circle cx="14.203" cy="14.203" r="13.203"/></g><path data-name="Path 236" d="M247.802 33.125V6.666h21.49v15.3h-21.49" stroke-linejoin="round"/><path data-name="Path 237" d="M174.123 86.012V68.893h28.771" stroke-linejoin="round"/><path data-name="Path 238" d="M291.387 68.829h30.01v17.018" stroke-linejoin="round"/><path data-name="Path 239" d="M22.331 93.921v90.729"/><g data-name="Rectangle 89" stroke-linejoin="round"><path d="M39.023 106.817h13.455v13.455H39.023z" stroke="none"/><path d="M40.023 107.817h11.455v11.455H40.023z"/></g><g data-name="Rectangle 124" stroke-linejoin="round"><path d="M443.431 106.817h13.455v13.455h-13.455z" stroke="none"/><path d="M444.431 107.817h11.455v11.455h-11.455z"/></g><g data-name="Rectangle 92" stroke-linejoin="round"><path d="M74.156 106.817h13.455v13.455H74.156z" stroke="none"/><path d="M75.156 107.817h11.455v11.455H75.156z"/></g><g data-name="Rectangle 107" stroke-linejoin="round"><path d="M326.07 106.817h13.455v13.455H326.07z" stroke="none"/><path d="M327.07 107.817h11.455v11.455H327.07z"/></g><g data-name="Rectangle 95" stroke-linejoin="round"><path d="M94.339 106.817h13.455v13.455H94.339z" stroke="none"/><path d="M95.339 107.817h11.455v11.455H95.339z"/></g><g data-name="Rectangle 108" stroke-linejoin="round"><path d="M346.254 106.817h13.455v13.455h-13.455z" stroke="none"/><path d="M347.254 107.817h11.455v11.455h-11.455z"/></g><g data-name="Rectangle 98" stroke-linejoin="round"><path d="M114.522 106.817h13.455v13.455h-13.455z" stroke="none"/><path d="M115.522 107.817h11.455v11.455h-11.455z"/></g><g data-name="Rectangle 109" stroke-linejoin="round"><path d="M366.437 106.817h13.455v13.455h-13.455z" stroke="none"/><path d="M367.437 107.817h11.455v11.455h-11.455z"/></g><g data-name="Rectangle 101" stroke-linejoin="round"><path d="M134.705 106.817h13.455v13.455h-13.455z" stroke="none"/><path d="M135.705 107.817h11.455v11.455h-11.455z"/></g><g data-name="Rectangle 110" stroke-linejoin="round"><path d="M386.62 106.817h13.455v13.455H386.62z" stroke="none"/><path d="M387.62 107.817h11.455v11.455H387.62z"/></g><g data-name="Rectangle 104" stroke-linejoin="round"><path d="M154.889 106.817h13.455v13.455h-13.455z" stroke="none"/><path d="M155.889 107.817h11.455v11.455h-11.455z"/></g><g data-name="Rectangle 111" stroke-linejoin="round"><path d="M406.803 106.817h13.455v13.455h-13.455z" stroke="none"/><path d="M407.803 107.817h11.455v11.455h-11.455z"/></g><g data-name="Rectangle 90" stroke-linejoin="round"><path d="M39.023 127.747h13.455v13.455H39.023z" stroke="none"/><path d="M40.023 128.747h11.455v11.455H40.023z"/></g><g data-name="Rectangle 123" stroke-linejoin="round"><path d="M443.431 127.747h13.455v13.455h-13.455z" stroke="none"/><path d="M444.431 128.747h11.455v11.455h-11.455z"/></g><g data-name="Rectangle 93" stroke-linejoin="round"><path d="M74.156 127.747h13.455v13.455H74.156z" stroke="none"/><path d="M75.156 128.747h11.455v11.455H75.156z"/></g><g data-name="Rectangle 116" stroke-linejoin="round"><path d="M326.07 127.747h13.455v13.455H326.07z" stroke="none"/><path d="M327.07 128.747h11.455v11.455H327.07z"/></g><g data-name="Rectangle 96" stroke-linejoin="round"><path d="M94.339 127.747h13.455v13.455H94.339z" stroke="none"/><path d="M95.339 128.747h11.455v11.455H95.339z"/></g><g data-name="Rectangle 115" stroke-linejoin="round"><path d="M346.254 127.747h13.455v13.455h-13.455z" stroke="none"/><path d="M347.254 128.747h11.455v11.455h-11.455z"/></g><g data-name="Rectangle 99" stroke-linejoin="round"><path d="M114.522 127.747h13.455v13.455h-13.455z" stroke="none"/><path d="M115.522 128.747h11.455v11.455h-11.455z"/></g><g data-name="Rectangle 114" stroke-linejoin="round"><path d="M366.437 127.747h13.455v13.455h-13.455z" stroke="none"/><path d="M367.437 128.747h11.455v11.455h-11.455z"/></g><g data-name="Rectangle 102" stroke-linejoin="round"><path d="M134.705 127.747h13.455v13.455h-13.455z" stroke="none"/><path d="M135.705 128.747h11.455v11.455h-11.455z"/></g><g data-name="Rectangle 113" stroke-linejoin="round"><path d="M386.62 127.747h13.455v13.455H386.62z" stroke="none"/><path d="M387.62 128.747h11.455v11.455H387.62z"/></g><g data-name="Rectangle 105" stroke-linejoin="round"><path d="M154.889 127.747h13.455v13.455h-13.455z" stroke="none"/><path d="M155.889 128.747h11.455v11.455h-11.455z"/></g><g data-name="Rectangle 112" stroke-linejoin="round"><path d="M406.803 127.747h13.455v13.455h-13.455z" stroke="none"/><path d="M407.803 128.747h11.455v11.455h-11.455z"/></g><g data-name="Rectangle 91" stroke-linejoin="round"><path d="M39.023 148.678h13.455v13.455H39.023z" stroke="none"/><path d="M40.023 149.678h11.455v11.455H40.023z"/></g><g data-name="Rectangle 122" stroke-linejoin="round"><path d="M443.431 148.678h13.455v13.455h-13.455z" stroke="none"/><path d="M444.431 149.678h11.455v11.455h-11.455z"/></g><g data-name="Rectangle 94" stroke-linejoin="round"><path d="M74.156 148.678h13.455v13.455H74.156z" stroke="none"/><path d="M75.156 149.678h11.455v11.455H75.156z"/></g><g data-name="Rectangle 117" stroke-linejoin="round"><path d="M326.07 148.678h13.455v13.455H326.07z" stroke="none"/><path d="M327.07 149.678h11.455v11.455H327.07z"/></g><g data-name="Rectangle 97" stroke-linejoin="round"><path d="M94.339 148.678h13.455v13.455H94.339z" stroke="none"/><path d="M95.339 149.678h11.455v11.455H95.339z"/></g><g data-name="Rectangle 118" stroke-linejoin="round"><path d="M346.254 148.678h13.455v13.455h-13.455z" stroke="none"/><path d="M347.254 149.678h11.455v11.455h-11.455z"/></g><g data-name="Rectangle 100" stroke-linejoin="round"><path d="M114.522 148.678h13.455v13.455h-13.455z" stroke="none"/><path d="M115.522 149.678h11.455v11.455h-11.455z"/></g><g data-name="Rectangle 119" stroke-linejoin="round"><path d="M366.437 148.678h13.455v13.455h-13.455z" stroke="none"/><path d="M367.437 149.678h11.455v11.455h-11.455z"/></g><g data-name="Rectangle 103" stroke-linejoin="round"><path d="M134.705 148.678h13.455v13.455h-13.455z" stroke="none"/><path d="M135.705 149.678h11.455v11.455h-11.455z"/></g><g data-name="Rectangle 120" stroke-linejoin="round"><path d="M386.62 148.678h13.455v13.455H386.62z" stroke="none"/><path d="M387.62 149.678h11.455v11.455H387.62z"/></g><g data-name="Rectangle 106" stroke-linejoin="round"><path d="M154.889 148.678h13.455v13.455h-13.455z" stroke="none"/><path d="M155.889 149.678h11.455v11.455h-11.455z"/></g><g data-name="Rectangle 121" stroke-linejoin="round"><path d="M406.803 148.678h13.455v13.455h-13.455z" stroke="none"/><path d="M407.803 149.678h11.455v11.455h-11.455z"/></g><path data-name="Path 240" d="M68.42 184.65v-81.979h105.7v81.979" stroke-linejoin="round"/><path data-name="Path 241" d="M321.394 184.817v-83.619h105.669v83.619" stroke-linejoin="round"/><path data-name="Path 242" d="M240.763 184.935v-33.619s1.606-5.807 6.672-5.867 7.169 5.867 7.169 5.867v33.615" stroke-linejoin="round"/><path data-name="Path 243" d="M240.762 140.023v-32.577s-.188-6.225 7.045-6.29 6.625 6.29 6.625 6.29v32.577Z" stroke-linejoin="round"/><path data-name="Path 244" d="M269.168 140.023v-32.577s-.188-6.225 7.045-6.29 6.625 6.29 6.625 6.29v32.577Z" stroke-linejoin="round"/><path data-name="Path 246" d="M212.356 140.023v-32.577s-.188-6.225 7.045-6.29 6.625 6.29 6.625 6.29v32.577Z" stroke-linejoin="round"/><path data-name="Path 247" d="M183.95 140.023v-32.577s-.188-6.225 7.045-6.29 6.625 6.29 6.625 6.29v32.577Z" stroke-linejoin="round"/><path data-name="Path 245" d="M297.572 140.023v-32.577s-.188-6.225 7.045-6.29 6.625 6.29 6.625 6.29v32.577Z" stroke-linejoin="round"/><path data-name="Path 248" d="M183.95 161.935v-10.537a6.239 6.239 0 0 1 6.523-5.946c6.3-.067 7.123 4.753 7.123 4.753v11.73Z" stroke-linejoin="round"/><path data-name="Path 249" d="M212.355 161.935v-10.537a6.239 6.239 0 0 1 6.523-5.946c6.3-.067 7.123 4.753 7.123 4.753v11.73Z" stroke-linejoin="round"/><path data-name="Path 250" d="M269.363 161.935v-10.537a6.239 6.239 0 0 1 6.523-5.946c6.3-.067 7.123 4.753 7.123 4.753v11.73Z" stroke-linejoin="round"/><path data-name="Path 251" d="M297.768 161.935v-10.537a6.239 6.239 0 0 1 6.523-5.946c6.3-.067 7.123 4.753 7.123 4.753v11.73Z" stroke-linejoin="round"/><path data-name="Path 252" d="M246.247 57.98v9.852"/><path data-name="Path 253" d="M471.531 93.921v90.891"/></g></svg>