<svg xmlns="http://www.w3.org/2000/svg" width="292" height="185"><g opacity=".999"><path data-name="Rectangle 169" fill="#fbd0a4" d="M0 0h292v185H0z"/><g data-name="Group 226"><g data-name="Rectangle 170" transform="translate(223.075 18.887)" fill="none" stroke="#1f2829"><rect width="46.703" height="30.741" rx="5" stroke="none"/><rect x=".5" y=".5" width="45.703" height="29.741" rx="4.5"/></g><g data-name="Rectangle 171" transform="translate(226.622 22.435)" fill="none" stroke="#1f2829"><rect width="31.924" height="24.238" rx="6" stroke="none"/><rect x=".5" y=".5" width="30.924" height="23.238" rx="5.5"/></g><g data-name="Rectangle 172" transform="translate(259.728 21.252)" fill="none" stroke="#1f2829"><rect width="8.277" height="17.144" rx="3" stroke="none"/><rect x=".5" y=".5" width="7.277" height="16.144" rx="2.5"/></g><path data-name="Path 1052" d="M260.08 39.653h7.921" fill="none" stroke="#1f2829" stroke-linecap="round"/><path data-name="Path 1053" d="M260.08 40.909h7.921" fill="none" stroke="#1f2829" stroke-linecap="round"/><path data-name="Path 1054" d="M260.08 42.091h7.921" fill="none" stroke="#1f2829" stroke-linecap="round"/><path data-name="Path 1055" d="M260.08 43.274h7.921" fill="none" stroke="#1f2829" stroke-linecap="round"/><path data-name="Path 1056" d="M260.08 44.456h7.921" fill="none" stroke="#1f2829" stroke-linecap="round"/><path data-name="Path 1057" d="M262.462 27.489s-1.243-1.525-.225-2.885a2.411 2.411 0 0 1 2.521-.92" fill="#e58458" stroke="#1f2829"/><path data-name="Path 1060" d="M264.542 35.584s-1.96.178-2.517-1.426a2.411 2.411 0 0 1 .646-2.604" fill="#61b3b1" stroke="#1f2829"/><path data-name="Path 1058" d="M263.672 28.152a2.167 2.167 0 0 0 2.397-1.117 2.271 2.271 0 0 0-.348-2.62" fill="#e58458" stroke="#1f2829"/><path data-name="Path 1059" d="M265.77 34.949a2.167 2.167 0 0 0 .413-2.611 2.271 2.271 0 0 0-2.366-1.176" fill="#61b3b1" stroke="#1f2829"/><path data-name="Path 1061" d="M258.863 49.472s3.31 10.118 3.129 10.669-5.762-8.649-6.8-10.669" fill="none" stroke="#1f2829"/><path data-name="Path 1062" d="M230.545 49.472s-3.308 10.118-3.13 10.669 5.762-8.649 6.8-10.669" fill="none" stroke="#1f2829"/><path data-name="Path 1063" d="M241.301 19.122s-.121-2.655 3.378-2.6 3.215 2.6 3.215 2.6" fill="#f34530" stroke="#1f2829"/><path data-name="Path 1064" d="m234.066 5.769 9.295 10.794" fill="none" stroke="#1f2829"/><path data-name="Path 1065" d="m245.824 16.563 10.063-8.934" fill="none" stroke="#1f2829"/><g data-name="Ellipse 94" transform="translate(232.534 4.108)" fill="none" stroke="#1f2829"><circle cx="1.182" cy="1.182" r="1.182" stroke="none"/><circle cx="1.182" cy="1.182" r=".682"/></g><g data-name="Ellipse 95" transform="translate(255.59 5.882)" fill="none" stroke="#1f2829"><circle cx="1.182" cy="1.182" r="1.182" stroke="none"/><circle cx="1.182" cy="1.182" r=".682"/></g><g data-name="Path 1184" fill="#e5e058"><path d="m265.627 35.433-.517.287a.091.091 0 0 1-.124-.036l-2.293-4.136a.091.091 0 0 1 .035-.124l.518-.287a.091.091 0 0 1 .123.036l2.293 4.136a.09.09 0 0 1-.035.124Z"/><path d="m262.486 30.986.517-.286a.591.591 0 0 1 .804.23l2.293 4.137a.591.591 0 0 1-.23.803l-.518.287a.591.591 0 0 1-.804-.23l-2.292-4.137a.591.591 0 0 1 .23-.804Z" fill="#1f2829"/></g><g data-name="Rectangle 174" transform="rotate(27 84.515 562.52)" fill="#e5e058" stroke="#1f2829"><rect width="1.774" height="5.912" rx=".887" stroke="none"/><rect x=".5" y=".5" width=".774" height="4.912" rx=".387" fill="none"/></g></g><g data-name="Group 227" stroke="#1f2829" stroke-linecap="round"><path data-name="Path 1066" d="M251.616 166.475v-2.309h-20.952v-34.6h46.551v34.6h-21.2v2.309h9.248l1.8 2.276h-26.3l2.73-2.276Z" fill="none" stroke-linejoin="round"/><path data-name="Path 1067" d="M240.123 169.912h27.395" fill="none"/><g data-name="Ellipse 96" transform="translate(252.243 161.162)" fill="#61b3b1" stroke-linejoin="round"><circle cx="1.478" cy="1.478" r="1.478" stroke="none"/><circle cx="1.478" cy="1.478" fill="none" r=".978"/></g><path data-name="Path 1068" d="M234.187 162.249h18.37" fill="none"/><path data-name="Path 1069" d="M254.879 162.249h18.37" fill="none"/><g data-name="Rectangle 176" transform="translate(232.143 131.012)" fill="none" stroke-linejoin="round"><rect width="43.156" height="29.559" rx="5" stroke="none"/><rect x=".5" y=".5" width="42.156" height="28.559" rx="4.5"/></g></g><path data-name="Path 1070" d="m201.747 176.415 1.68-2.713s6.307-.344 6.867-7.6 1.18-16.056 0-24.812c0 0 1.344-8.693-19.115-9.461 0 0-12.357-.671-16.377 0s1.666-1.888 1.666-1.888l-18.291-20.082s-3.121.17-1.629-2.277c0 0 1.5-1.049 2.336 0a1.654 1.654 0 0 1 .275 1.394l19.51 20.184a13.946 13.946 0 0 1 8.791 0l22.572-13.317s-.277-1.406.623-1.843c0 0 1.834-.584 2.07.7 0 0 .3 1.564-.273 1.807a3.549 3.549 0 0 1-1.65 0l-22.174 13.785s3.285 1.44 3.467 3.112c0 0-19.836-1.58-30.633.8 0 0-5 .867-5.746 5.423a101.412 101.412 0 0 0 0 28.849s.217 3.3 8.686 3.756c0 0 20.025 2.2 28.463 0 0 0 5.518-.958 5.928-6.131 0 0-.3-1.527 3.521-1.456h5.439s1.7.28 1.691-.474-1.908-.736-1.908-.736h-7.33s-1.559.243-1.414-.826c0 0-.193-.718 1.414-.674s8.24 0 8.24 0 .986.157 1-.538c0 0 .172-.953-1.2-.91s-8.178 0-8.178 0-1.021.251-.916-.692c0 0-.092-.669 1.059-.612h8.24s1.3.2 1.248-.722c0 0 .01-.6-1.248-.561h-8.609a.649.649 0 0 1-.689-.976s-.154-.251.916-.213 8.572 0 8.572 0 1.248.078 1.223-.728-1.412-.62-1.412-.62h-8.609s-.74.119-.689-.6c0 0-.182-.755.771-.718h8.857s.99.173.912-.952c0 0 .014-.49-1.059-.428h-8.8s-.906.1-.783-.578 1.01-.577 1.01-.577h8.72s1.129.224 1.076-.553-1.223-.621-1.223-.621h-6.83s-3.762.223-2.07-4.4c0 0 1.072-3.415 3.66-3.328a15.611 15.611 0 0 1 3.178.275s.994.229.85.83-1.855.469-1.855.469h-3.34s-1.762.132-1.494-1.488c0 0 .4-3.111 3.354-2.976 0 0 3.492-.069 3.336 2.976 0 0 .635 4.111-3.221 4.12 0 0-2.367.174-4.139-2.632 0 0-1.6-3.327-1.953-3.91s-1.412-2.853-5.816-3.4a108.465 108.465 0 0 0-14.912-1.846s-11.883.448-16.479 2.187c0 0-3.395.609-4 5.393 0 0-3.311 24.389 2.092 26.638s17.8 2.288 17.8 2.288 19.734 1 20.342-5.55 2.215-25.5-1.475-26.358-12.705-4.655-28.582-1.955c0 0-7.318.42-8.084 3.123a63.758 63.758 0 0 0-.895 25.307s1.088 8.813 2.4 8.888 6.342.615 6.574-.566-4.576-.929-4.576-.929-1.16.427-1.02.5-1.895 1.3 8.3.992c0 0 22.256.486 25.264 0 0 0 6.539.176 7.055-.922 0 0 .76-1.33-4.107-.82 0 0-4.844.561-.863 3.162l-41.42-.1" fill="none" stroke="#1f2829" stroke-linecap="round" stroke-linejoin="round"/><g data-name="Group 228" stroke="#1f2829" stroke-linecap="round"><g data-name="Rectangle 170" transform="translate(86.525 123.91)" fill="none" stroke-linejoin="round"><rect width="46.703" height="31.924" rx="5" stroke="none"/><rect x=".5" y=".5" width="45.703" height="30.924" rx="4.5"/></g><g data-name="Rectangle 171" transform="translate(88.89 126.275)" fill="none" stroke-linejoin="round"><rect width="34.288" height="27.194" rx="6" stroke="none"/><rect x=".5" y=".5" width="33.288" height="26.194" rx="5.5"/></g><g data-name="Rectangle 172" transform="translate(124.36 126.866)" fill="#fed0a6" stroke-linejoin="round"><rect width="7.094" height="26.012" rx="2" stroke="none"/><rect x=".5" y=".5" width="6.094" height="25.012" rx="1.5" fill="none"/></g><path data-name="Path 1052" d="M125.565 145.857h4.59" fill="none"/><path data-name="Path 1071" d="M125.565 144.675h4.59" fill="none"/><path data-name="Path 1072" d="M125.565 143.493h4.59" fill="none"/><path data-name="Path 1053" d="M125.565 147.114h4.59" fill="none"/><path data-name="Path 1054" d="M125.565 148.296h4.59" fill="none"/><path data-name="Path 1055" d="M125.565 149.478h4.59" fill="none"/><path data-name="Path 1056" d="M125.565 150.661h4.59" fill="none"/><g data-name="Rectangle 174" transform="rotate(47 -84.122 213.29)" fill="#e5e058" stroke-linejoin="round"><rect width="1.567" height="5.224" rx=".784" stroke="none"/><rect x=".5" y=".5" width=".567" height="4.224" rx=".284" fill="none"/></g><g data-name="Rectangle 175" transform="translate(127.15 135.344)" fill="#e5e058" stroke-linejoin="round"><rect width="1.567" height="5.224" rx=".784" stroke="none"/><rect x=".5" y=".5" width=".567" height="4.224" rx=".284" fill="none"/></g><path data-name="Path 1057" d="M126.095 132.48a1.941 1.941 0 0 1 .619-2.338 1.968 1.968 0 0 1 2.213-.127" fill="#61b3b1" stroke-linejoin="round"/><path data-name="Path 1060" d="M127.291 139.779a2.186 2.186 0 0 1-1.333-2.182 1.6 1.6 0 0 1 1.333-1.533" fill="#f34530" stroke-linejoin="round"/><path data-name="Path 1058" d="M126.9 133.398a1.915 1.915 0 0 0 2.329-.205 2.007 2.007 0 0 0 .501-2.282" fill="#61b3b1" stroke-linejoin="round" stroke-width="1.001"/><path data-name="Path 1059" d="M128.513 139.816a1.915 1.915 0 0 0 1.439-1.843 2.007 2.007 0 0 0-1.326-1.923" fill="#f34530" stroke-linejoin="round"/><g data-name="Ellipse 94" fill="none" stroke-linejoin="round" transform="translate(86.525 107.948)"><circle cx="1.182" cy="1.182" r="1.182" stroke="none"/><circle cx="1.182" cy="1.182" r=".682"/></g><g data-name="Ellipse 95" transform="translate(127.316 110.313)" fill="none" stroke-linejoin="round"><circle cx="1.182" cy="1.182" r="1.182" stroke="none"/><circle cx="1.182" cy="1.182" r=".682"/></g><path data-name="Path 1073" d="M108.967 123.91a7.184 7.184 0 0 1 5.9-2.287 8.092 8.092 0 0 1 5.994 2.534" fill="#e5e058" stroke-linejoin="round"/><path data-name="Path 1074" d="M110.752 122.361 88.559 109.74" fill="none"/><path data-name="Path 1075" d="m127.864 112.138-10.148 9.793" fill="none"/><path data-name="Path 1076" d="M90.601 155.699a.955.955 0 0 0 1.014 1.3h2.855a1.076 1.076 0 0 0 1.1-1.163" fill="#e58458" stroke-linejoin="round"/><path data-name="Path 1077" d="M123.227 155.699a.955.955 0 0 0 1.014 1.3h2.855a1.076 1.076 0 0 0 1.1-1.163" fill="#e58458" stroke-linejoin="round"/></g><g data-name="Group 229" stroke="#1f2829" stroke-linecap="round"><path data-name="Path 1078" d="M229.936 113.353h33.733s.363 3.56 1 3.622.938-2.176 1.044-3.622h4.894v-31.7h-10.959s-.844-1.506-4.672-1.469-3.941 1.469-3.941 1.469l-27.959.319v31.38h4.731s.125 3.606.755 3.622.992.171 1.374-3.621Z" fill="none" stroke-linejoin="round"/><path data-name="Path 1079" d="M232.558 86.307s23.012-1.453 27.452.343a1.893 1.893 0 0 1 .845 1.316c.127.9.858 16.972-.227 19.6 0 0-.074 1.617-3.456 1.687s-21.1-.14-22.66-.269-2.219-.508-2.42-3.89-.44-13.634 0-17.133c.001.005.057-1.46.466-1.654Z" fill="none" stroke-linejoin="round"/><g data-name="Ellipse 97" transform="translate(262.648 105.667)" fill="#e58458" stroke-linejoin="round"><circle cx="2.956" cy="2.956" r="2.956" stroke="none"/><circle cx="2.956" cy="2.956" fill="none" r="2.456"/></g><g data-name="Ellipse 98" transform="translate(224.812 105.667)" fill="#e58458" stroke-linejoin="round"><circle cx="2.956" cy="2.956" r="2.956" stroke="none"/><circle cx="2.956" cy="2.956" fill="none" r="2.456"/></g><path data-name="Path 1080" d="M266.454 106.421v4.6" fill="none"/><path data-name="Path 1098" d="M226.916 106.421v4.6" fill="none"/><path data-name="Path 1081" d="M265.129 107.943v3.313" fill="none"/><path data-name="Path 1099" d="M228.235 107.943v3.313" fill="none"/><path data-name="Path 1082" d="M263.664 103.753h4.773" fill="none"/><path data-name="Path 1097" d="M229.707 103.753h-4.773" fill="none"/><path data-name="Path 1083" d="M263.664 101.388h4.773" fill="none"/><path data-name="Path 1096" d="M229.707 101.388h-4.773" fill="none"/><path data-name="Path 1084" d="M263.664 99.024h4.773" fill="none"/><path data-name="Path 1095" d="M229.707 99.024h-4.773" fill="none"/><path data-name="Path 1085" d="M263.664 96.659h4.773" fill="none"/><path data-name="Path 1094" d="M229.707 96.659h-4.773" fill="none"/><path data-name="Path 1086" d="M263.664 94.294h4.773" fill="none"/><path data-name="Path 1093" d="M229.707 94.294h-4.773" fill="none"/><path data-name="Path 1087" d="M263.664 91.929h4.773" fill="none"/><path data-name="Path 1092" d="M229.707 91.929h-4.773" fill="none"/><path data-name="Path 1088" d="M263.664 89.565h4.773" fill="none"/><path data-name="Path 1091" d="M229.707 89.565h-4.773" fill="none"/><path data-name="Path 1089" d="M263.664 87.2h4.773" fill="none"/><path data-name="Path 1090" d="M229.707 87.2h-4.773" fill="none"/><path data-name="Path 1100" d="m256.952 80.186 3.466-12.769" fill="none"/><path data-name="Path 1101" d="m253.386 80.189-4.174-10.7" fill="none"/><g data-name="Ellipse 99" transform="translate(247.868 67.241)" fill="none" stroke-linejoin="round"><circle cx="1.182" cy="1.182" r="1.182" stroke="none"/><circle cx="1.182" cy="1.182" r=".682"/></g><g data-name="Ellipse 100" transform="translate(259.101 65.467)" fill="none" stroke-linejoin="round"><circle cx="1.182" cy="1.182" r="1.182" stroke="none"/><circle cx="1.182" cy="1.182" r=".682"/></g></g><g data-name="Group 233" stroke-linecap="round"><path data-name="Path 1118" d="M145.31 70.631v6.936h6.621s2.391-.576 2.246-3.7a3.142 3.142 0 0 0-2.92-3.235Z" fill="#e58458" stroke="#1f2829" stroke-linejoin="round"/><path data-name="Path 1117" d="M145.31 61.763v6.936h6.621s2.391-.576 2.246-3.7a3.142 3.142 0 0 0-2.92-3.235Z" fill="#e58458" stroke="#1f2829" stroke-linejoin="round"/><g data-name="Group 231" stroke="#1f2829" stroke-linejoin="round"><g data-name="Rectangle 175" transform="translate(149.849 62.619)" fill="#fed0a6"><rect width="1.567" height="5.224" rx=".784" stroke="none"/><rect x=".5" y=".5" width=".567" height="4.224" rx=".284" fill="none"/></g><path data-name="Path 1060" d="M149.99 67.054a2.186 2.186 0 0 1-1.333-2.182 1.6 1.6 0 0 1 1.333-1.533" fill="#61b3b1"/><path data-name="Path 1059" d="M151.212 67.09a1.915 1.915 0 0 0 1.439-1.842 2.007 2.007 0 0 0-1.326-1.923" fill="#61b3b1"/></g><g data-name="Group 232" stroke="#1f2829" stroke-linejoin="round"><g data-name="Rectangle 175" transform="rotate(56 8.56 179.269)" fill="#fed0a6"><rect width="1.567" height="5.224" rx=".784" stroke="none"/><rect x=".5" y=".5" width=".567" height="4.224" rx=".284" fill="none"/></g><path data-name="Path 1060" d="M148.797 74.523a2.186 2.186 0 0 1 1.062-2.326 1.6 1.6 0 0 1 2.017.248" fill="#61b3b1"/><path data-name="Path 1059" d="M149.449 75.557a1.915 1.915 0 0 0 2.332.162 2.007 2.007 0 0 0 .853-2.174" fill="#61b3b1"/></g><g data-name="Rectangle 177" fill="none" stroke="#1f2829" stroke-linejoin="round"><path d="M99.07 57.019h59.118v41.974H99.07z" stroke="none"/><path d="M99.57 57.519h58.118v40.974H99.57z"/></g><g data-name="Rectangle 178" fill="none" stroke="#1f2829" stroke-linejoin="round"><path d="M100.252 58.201h56.162V97.81h-56.162z" stroke="none"/><path d="M100.752 58.701h55.162V97.31h-55.162z"/></g><path data-name="Path 1102" d="M142.071 58.658v38.8" fill="none" stroke="#1f2829"/><path data-name="Path 1103" d="M104.51 61.279s-3.133 6.927-2.317 18.317 1.264 14.36 3.969 16.233a6.252 6.252 0 0 0 3.188.783c2.227.092 28.28 0 28.28 0s3.379.573 3.152-6.379c0 0 .789-24.556 0-25.972s-.433-3.759-6.341-3.714-24.333 0-24.333 0-4.577-.294-5.598.732Z" fill="none" stroke="#1f2829" stroke-linejoin="round"/><path data-name="Path 1104" d="M143.601 58.658v38.8" fill="none" stroke="#1f2829"/><path data-name="Path 1105" d="M143.601 80.572h12.4" fill="none" stroke="#1f2829"/><g data-name="Path 1185" fill="#e5e058"><path d="M147.546 83.122a.683.683 0 1 1 .002-1.367.683.683 0 0 1-.002 1.367Z"/><path d="M147.546 82.257a.183.183 0 1 0 0 .365.183.183 0 0 0 0-.365m0-1a1.182 1.182 0 1 1 0 2.365 1.182 1.182 0 0 1 0-2.365Z" fill="#1f2829"/></g><g data-name="Ellipse 103" transform="translate(146.364 99.584)" fill="#61b3b1" stroke="#1f2829" stroke-linejoin="round"><circle cx=".887" cy=".887" r=".887" stroke="none"/><circle cx=".887" cy=".887" fill="none" r=".387"/></g><g data-name="Ellipse 102" transform="translate(151.094 81.257)" fill="#f34530" stroke="#1f2829" stroke-linejoin="round"><circle cx="1.182" cy="1.182" r="1.182" stroke="none"/><circle cx="1.182" cy="1.182" fill="none" r=".682"/></g><path data-name="Path 1106" d="M143.601 96.11h12.324" fill="none" stroke="#1f2829"/><path data-name="Path 1107" d="M143.601 94.928h12.324" fill="none" stroke="#1f2829"/><path data-name="Path 1108" d="M143.601 93.746h12.324" fill="none" stroke="#1f2829"/><path data-name="Path 1109" d="M143.601 92.563h12.324" fill="none" stroke="#1f2829"/><path data-name="Path 1110" d="M143.601 91.381h12.324" fill="none" stroke="#1f2829"/><path data-name="Path 1111" d="M143.601 90.198h12.324" fill="none" stroke="#1f2829"/><path data-name="Path 1112" d="M143.601 89.016h12.324" fill="none" stroke="#1f2829"/><path data-name="Path 1113" d="M143.601 87.834h12.324" fill="none" stroke="#1f2829"/><path data-name="Path 1114" d="M143.601 86.652h12.324" fill="none" stroke="#1f2829"/><path data-name="Path 1115" d="M143.601 85.469h12.324" fill="none" stroke="#1f2829"/><path data-name="Path 1116" d="M143.601 84.287h12.324" fill="none" stroke="#1f2829"/><path data-name="Path 1119" d="M107.584 98.837s-.182 1.634 1 1.513a25.826 25.826 0 0 1 3.182 0 1.273 1.273 0 0 0 1.021-1.513" fill="#fed0a6" stroke="#1f2829" stroke-linejoin="round"/><path data-name="Path 1120" d="M115.729 98.794s.246 1.384 2.2 1.331 2.146-1.242 2.146-1.242" fill="#e5e058" stroke="#1f2829" stroke-linejoin="round"/><path data-name="Path 1121" d="M121.05 98.794s.246 1.384 2.2 1.331 2.146-1.242 2.146-1.242" fill="#e5e058" stroke="#1f2829" stroke-linejoin="round"/><path data-name="Path 1122" d="M126.37 98.794s.246 1.384 2.2 1.331 2.146-1.242 2.146-1.242" fill="#e5e058" stroke="#1f2829" stroke-linejoin="round"/><path data-name="Path 1123" d="M102.979 98.838v2.26s-.068 1.06 1.222 1.034 24.716 0 24.716 0h24.479s1.554.169 1.529-.99 0-2.4 0-2.4" fill="none" stroke="#1f2829" stroke-linejoin="round"/><path data-name="Path 1124" d="M105.555 102.242v.966s-.082.746.635.7 1.874 0 1.874 0 .592.106.563-.7a7.206 7.206 0 0 1 0-.966" fill="none" stroke="#1f2829" stroke-linejoin="round"/><path data-name="Path 1125" d="M150.769 102.242v.966s-.039.746.311.7a5.528 5.528 0 0 1 .92 0s.291.106.277-.7 0-.966 0-.966" fill="none" stroke="#1f2829" stroke-linejoin="round"/></g><g data-name="Group 234"><g data-name="Rectangle 179" transform="translate(21.176 17.215)" fill="none" stroke="#1f2829"><rect width="38.427" height="26.012" rx="3" stroke="none"/><rect x=".5" y=".5" width="37.427" height="25.012" rx="2.5"/></g><g data-name="Ellipse 104" transform="translate(35.364 43.818)" fill="#e58458" stroke="#1f2829"><circle cx="1.478" cy="1.478" r="1.478" stroke="none"/><circle cx="1.478" cy="1.478" fill="none" r=".978"/></g><g data-name="Ellipse 105" transform="translate(38.912 43.818)" fill="#61b3b1" stroke="#1f2829"><circle cx="1.478" cy="1.478" r="1.478" stroke="none"/><circle cx="1.478" cy="1.478" fill="none" r=".978"/></g><g data-name="Ellipse 106" transform="translate(42.459 43.818)" fill="#f34530" stroke="#1f2829"><circle cx="1.478" cy="1.478" r="1.478" stroke="none"/><circle cx="1.478" cy="1.478" fill="none" r=".978"/></g><g data-name="Path 1186" fill="#e5e058"><path d="M28.862 46.274h-4.73a.683.683 0 0 1 0-1.365h4.73a.683.683 0 0 1 0 1.365Z"/><path d="M24.132 45.409a.183.183 0 0 0 0 .365h4.73a.183.183 0 0 0 0-.365h-4.73m0-1h4.73a1.182 1.182 0 0 1 0 2.365h-4.73a1.182 1.182 0 0 1 0-2.365Z" fill="#1f2829"/></g><g data-name="Rectangle 181" transform="translate(50.735 44.409)" fill="#e5e058" stroke="#1f2829"><rect width="7.094" height="2.365" rx="1.182" stroke="none"/><rect x=".5" y=".5" width="6.094" height="1.365" rx=".682" fill="none"/></g><path data-name="Path 1127" d="M37.647 50.663s-.01 2.907 2.727 2.818a2.63 2.63 0 0 0 2.605-2.818s6.571-.131 8.092.748 0 1.86 0 1.86-1.874 1.425-10.858 1.239c0 0-8.623.006-10.574-1.028s-.735-1.77 0-1.984a47.59 47.59 0 0 1 8.008-.835Z" fill="none" stroke="#1f2829"/><path data-name="Path 1128" d="M21.176 14.217h37.627s3.344-.023 3.414 3.026 0 28.207 0 28.207a2.205 2.205 0 0 1-2.3 2.83H42.472l-1.021 1.091v1.416s-.122 1.179-1.161 1.179-1.476-.634-1.431-1.179a13.07 13.07 0 0 0 0-1.416l-1.233-1.091H20.807a2.822 2.822 0 0 1-2.679-2.89c.03-2.723 0-28.37 0-28.37a2.577 2.577 0 0 1 3.048-2.803Z" fill="none" stroke="#1f2829"/></g><g data-name="Group 235" stroke="#1f2829" stroke-linecap="round" stroke-linejoin="round"><g data-name="Rectangle 182" transform="translate(12.728 131.094)" fill="none"><rect width="54.388" height="27.785" rx="3" stroke="none"/><rect x=".5" y=".5" width="53.388" height="26.785" rx="2.5"/></g><path data-name="Path 1129" d="M38.63 162.97s-19.687.628-26.131-1.216c0 0-1.554.092-1.508-2.273s0-27.335 0-27.335-.581-2.755 4.331-2.738 49.957 0 49.957 0 3.208-.068 3.3 2.738v27.807a1.94 1.94 0 0 1-1.934 1.8s-7.861 1.677-25.767 1.216v1.954s16.918 3.669 19.136 4.789-17.235-2.862-19.136-2.646-1.424-.311-2.247 0-10.724 1-18.819 2.646c0 0 10-2.849 18.819-4.789Z" fill="none"/><path data-name="Path 1130" d="M38.492 164.078s-15.584 2.137-16.859 2.678 13.682-1.046 13.682-1.046" fill="none"/><path data-name="Path 1131" d="M41.105 164.078s15.584 2.137 16.858 2.678-13.681-1.046-13.681-1.046" fill="none"/><g data-name="Ellipse 107" transform="translate(38.74 160.062)" fill="#e5e058"><circle cx="1.182" cy="1.182" r="1.182" stroke="none"/><circle cx="1.182" cy="1.182" fill="none" r=".682"/></g><g data-name="Ellipse 108" transform="translate(54.702 160.062)" fill="#f34530"><circle cx=".887" cy=".887" r=".887" stroke="none"/><circle cx=".887" cy=".887" fill="none" r=".387"/></g><g data-name="Ellipse 109" transform="translate(57.067 160.062)" fill="#e58458"><circle cx=".887" cy=".887" r=".887" stroke="none"/><circle cx=".887" cy=".887" fill="none" r=".387"/></g><g data-name="Ellipse 110" transform="translate(59.431 160.062)" fill="#61b3b1"><circle cx=".887" cy=".887" r=".887" stroke="none"/><circle cx=".887" cy=".887" fill="none" r=".387"/></g></g><g data-name="Group 236" stroke="#1f2829" stroke-linecap="round"><path data-name="Path 1132" d="M86.965 45.013v2.18l-.454 1.041h2.973l-.526-1.041v-2.18h35.27v2.18l-.713 1.041h3.275l-.612-1.041v-2.18h1.636a1.422 1.422 0 0 0 1.5-1.678c-.1-1.776 0-27.917 0-27.917s.356-1.458-1.5-1.484H84.953s-2.16-.4-2.159 1.484 0 27.917 0 27.917-.377 1.6 1.058 1.678 3.113 0 3.113 0Z" fill="none" stroke-linejoin="round"/><path data-name="Path 1133" d="M91.277 16.858c-2.424.564-4.717-.361-5.07 4.221s-.283 16.444.355 18.736a2.97 2.97 0 0 0 3.057 2.107s8.626 1.368 22.042 0c0 0 3.779.771 3.582-6.209a83.974 83.974 0 0 0 0-14.634s.014-4.08-3.582-4.221-17.957-.565-20.384 0Z" fill="none" stroke-linejoin="round"/><path data-name="Path 1134" d="M102.135 13.898s-.509-1.482 1.963-1.472 5.561 0 5.561 0a1.371 1.371 0 0 1 1.43 1.472" fill="none" stroke-linejoin="round"/><path data-name="Path 1135" d="m103.57 12.427-5.937-6.459" fill="none"/><path data-name="Path 1136" d="m109.411 12.426 5.438-6.432" fill="none"/><g data-name="Ellipse 111" transform="translate(95.957 4.039)" fill="none" stroke-linejoin="round"><circle cx="1.182" cy="1.182" r="1.182" stroke="none"/><circle cx="1.182" cy="1.182" r=".682"/></g><g data-name="Ellipse 112" transform="translate(114.284 4.039)" fill="none" stroke-linejoin="round"><circle cx="1.182" cy="1.182" r="1.182" stroke="none"/><circle cx="1.182" cy="1.182" r=".682"/></g><g data-name="Ellipse 113" transform="translate(116.057 36.554)" fill="#e58458" stroke-linejoin="round"><circle cx="2.956" cy="2.956" r="2.956" stroke="none"/><circle cx="2.956" cy="2.956" fill="none" r="2.456"/></g><g data-name="Ellipse 114" transform="rotate(45.97 21.152 165.7)" fill="#61b3b1" stroke-linejoin="round"><circle cx="2.956" cy="2.956" r="2.956" stroke="none"/><circle cx="2.956" cy="2.956" r="2.456" fill="none"/></g><path data-name="Path 1137" d="m118.311 38.804 2.57 2.525" fill="none"/><path data-name="Path 1138" d="m125.536 38.513-.029 3.603" fill="none"/><path data-name="Path 1139" d="M117.29 34.652h10.076" fill="none"/><path data-name="Path 1140" d="M117.29 32.878h10.076" fill="none"/><path data-name="Path 1141" d="M117.29 31.105h10.076" fill="none"/><path data-name="Path 1142" d="M117.29 29.331h10.076" fill="none"/><path data-name="Path 1143" d="M117.29 27.558h10.076" fill="none"/><path data-name="Path 1144" d="M117.29 25.784h10.076" fill="none"/><path data-name="Path 1145" d="M117.29 24.011h10.076" fill="none"/><path data-name="Path 1146" d="M117.29 22.237h10.076" fill="none"/><path data-name="Path 1147" d="M117.29 20.464h10.076" fill="none"/><path data-name="Path 1148" d="M117.29 18.69h10.076" fill="none"/></g><g data-name="Group 237" stroke-linecap="round"><path data-name="Path 1149" d="M187.597 75.071h18.753s2.678-.2 2.586 2.1 0 29.522 0 29.522.367 2.456-.992 2.422v1.152h-2.79v-1.152h-25.967v1.152h-2.292v-1.152s-1.977.817-1.831-2.881V77.171s-.729-2.114 2.648-2.1h4.3s.521-1.167 2.774-1.211 2.811 1.211 2.811 1.211Z" fill="none" stroke="#1f2829" stroke-linejoin="round"/><path data-name="Path 1150" d="m177.963 66.939 5.045 7.086" fill="none" stroke="#1f2829"/><path data-name="Path 1151" d="m191.417 66.964-4.676 7.061" fill="none" stroke="#1f2829"/><g data-name="Ellipse 115" transform="translate(176.654 65.491)" fill="none" stroke="#1f2829" stroke-linejoin="round"><circle cx=".887" cy=".887" r=".887" stroke="none"/><circle cx=".887" cy=".887" r=".387"/></g><g data-name="Ellipse 116" transform="translate(190.842 65.491)" fill="none" stroke="#1f2829" stroke-linejoin="round"><circle cx=".887" cy=".887" r=".887" stroke="none"/><circle cx=".887" cy=".887" r=".387"/></g><g data-name="Ellipse 117" transform="translate(178.427 103.326)" fill="#61b3b1" stroke="#1f2829" stroke-linejoin="round"><circle cx="1.774" cy="1.774" r="1.774" stroke="none"/><circle cx="1.774" cy="1.774" fill="none" r="1.274"/></g><g data-name="Path 1183" fill="#61b3b1"><path d="M203.848 106.373a1.275 1.275 0 0 1-1.274-1.273 1.275 1.275 0 0 1 2.547 0c0 .702-.571 1.273-1.273 1.273Z"/><path d="M203.848 104.326a.774.774 0 1 0 .001 1.549.774.774 0 0 0-.001-1.549m0-1a1.774 1.774 0 1 1 0 3.547 1.774 1.774 0 0 1 0-3.547Z" fill="#1f2829"/></g><g data-name="Ellipse 118" transform="translate(177.245 102.144)" fill="none" stroke="#1f2829" stroke-linejoin="round"><circle cx="2.956" cy="2.956" r="2.956" stroke="none"/><circle cx="2.956" cy="2.956" r="2.456"/></g><g data-name="Ellipse 120" transform="translate(200.892 102.144)" fill="none" stroke="#1f2829" stroke-linejoin="round"><circle cx="2.956" cy="2.956" r="2.956" stroke="none"/><circle cx="2.956" cy="2.956" r="2.456"/></g><path data-name="Path 1152" d="M184.739 106.874h15.042" fill="none" stroke="#1f2829"/><path data-name="Path 1153" d="M184.739 105.1h15.042" fill="none" stroke="#1f2829"/><path data-name="Path 1154" d="M184.739 103.326h15.042" fill="none" stroke="#1f2829"/><path data-name="Path 1155" d="M183.42 78.341s13.7-.335 18.86 0c0 0 3.653-.189 3.668 3.046 0 0 .118 9.847-.25 16.751 0 0-.1 3.544-4.575 3.559 0 0-16.444.248-20.035-.539 0 0-2.764.32-2.854-5.518 0 0-.109-9.241.507-14.695 0 .001-.111-2.445 4.679-2.604Z" fill="none" stroke="#1f2829" stroke-linejoin="round"/></g><g data-name="Group 238" stroke="#1f2829" stroke-linecap="round"><path data-name="Path 1156" d="M31.744 73.081h42.35s4.472-.979 4.4 3.3v27.363s.595 3.029-1.969 3.285v1.471H71.82v-1.471H34.429v1.471h-4.547v-1.471s-2.433 1.069-2.522-3.285V76.381s-1.361-3.396 4.384-3.3Z" fill="none" stroke-linejoin="round"/><path data-name="Path 1157" d="M53.976 72.979s-.006-2.3 3.682-2.146 3.27 2.146 3.27 2.146" fill="none" stroke-linejoin="round"/><path data-name="Path 1158" d="m50.846 63.956 4.8 7" fill="none"/><path data-name="Path 1159" d="m63.996 63.948-4.65 7.114" fill="none"/><g data-name="Ellipse 121" transform="translate(49.072 61.873)" fill="none" stroke-linejoin="round"><circle cx="1.182" cy="1.182" r="1.182" stroke="none"/><circle cx="1.182" cy="1.182" r=".682"/></g><g data-name="Ellipse 122" transform="translate(63.261 61.873)" fill="none" stroke-linejoin="round"><circle cx="1.182" cy="1.182" r="1.182" stroke="none"/><circle cx="1.182" cy="1.182" r=".682"/></g><path data-name="Path 1160" d="M35.286 76.416s15.016-1.164 23.5 0c0 0 4.384.149 4.475 4.362 0 0-.051 15.019-.583 19.5a4.536 4.536 0 0 1-4.244 3.544s-19.285.548-23.819 0c0 0-3.782.226-3.94-5.661s-.072-14.119.575-18.174 1.709-3.247 4.036-3.571Z" fill="none" stroke-linejoin="round"/><g data-name="Ellipse 123" transform="translate(68.581 87.294)" fill="#61b3b1" stroke-linejoin="round"><circle cx="2.069" cy="2.069" r="2.069" stroke="none"/><circle cx="2.069" cy="2.069" fill="none" r="1.569"/></g><g data-name="Ellipse 124" transform="translate(65.034 98.526)" fill="#e58458" stroke-linejoin="round"><circle cx="2.66" cy="2.66" r="2.66" stroke="none"/><circle cx="2.66" cy="2.66" fill="none" r="2.16"/></g><g data-name="Ellipse 125" transform="translate(70.946 98.526)" fill="#e58458" stroke-linejoin="round"><circle cx="2.66" cy="2.66" r="2.66" stroke="none"/><circle cx="2.66" cy="2.66" fill="none" r="2.16"/></g><path data-name="Path 1161" d="M65.364 101.187a3.915 3.915 0 0 0 4.689 0" fill="none"/><path data-name="Path 1162" d="M71.276 101.187a3.915 3.915 0 0 0 4.689 0" fill="none"/><path data-name="Path 1163" d="M65.883 96.79h9.961" fill="none"/><path data-name="Path 1168" d="M65.883 85.483h9.961" fill="none"/><path data-name="Path 1164" d="M65.883 95.016h9.961" fill="none"/><path data-name="Path 1167" d="M65.883 83.709h9.961" fill="none"/><path data-name="Path 1165" d="M65.883 93.243h9.961" fill="none"/><path data-name="Path 1166" d="M65.883 81.936h9.961" fill="none"/><path data-name="Path 1169" d="M65.883 80.162h9.961" fill="none"/><path data-name="Path 1170" d="M65.883 78.389h9.961" fill="none"/></g><g data-name="Group 239" stroke="#1f2829" stroke-linecap="round"><g data-name="Rectangle 183" transform="translate(163.803 24.435)" fill="none" stroke-linejoin="round"><rect width="36.653" height="23.056" rx="3" stroke="none"/><rect x=".5" y=".5" width="35.653" height="22.056" rx="2.5"/></g><g data-name="Rectangle 184" transform="translate(166.168 26.208)" fill="none" stroke-linejoin="round"><rect width="26.012" height="19.509" rx="3" stroke="none"/><rect x=".5" y=".5" width="25.012" height="18.509" rx="2.5"/></g><path data-name="Path 1171" d="M171.708 28.645s9.682-1.107 16.281 0a3.379 3.379 0 0 1 2.354 2.663s1.248 6.273 0 10.292c0 0-.375 2.116-3.348 2.348 0 0-10.953 1.209-16.457-.462 0 0-1.855.015-2.041-4.851a19.5 19.5 0 0 1 .748-8.367s.27-1.428 2.463-1.623Z" fill="none" stroke-linejoin="round"/><path data-name="Path 1172" d="m171.07 47.49-3.019 11.278s-.37 2.03.707 0c0 0 3.614-9.2 4.189-11.53" fill="none" stroke-linejoin="round"/><path data-name="Path 1175" d="m193.38 47.49 3.018 11.278s.371 2.03-.707 0c0 0-3.613-9.2-4.187-11.53" fill="none" stroke-linejoin="round"/><path data-name="Path 1173" d="m174.89 47.491-2.144 8.724s-.371 2.04.953-1.119l2.848-7.6" fill="none" stroke-linejoin="round"/><path data-name="Path 1174" d="m189.559 47.491 2.145 8.724s.371 2.04-.953-1.119l-2.85-7.6" fill="none" stroke-linejoin="round"/><g data-name="Rectangle 185" transform="translate(193.362 32.12)" fill="#fed0a6" stroke-linejoin="round"><rect width="5.321" height="11.232" rx="1" stroke="none"/><rect x=".5" y=".5" width="4.321" height="10.232" rx=".5" fill="none"/></g><g data-name="Rectangle 186" transform="translate(195.727 43.944)" fill="#f34530" stroke-linejoin="round"><rect width="2.956" height="2.365" rx="1" stroke="none"/><rect x=".5" y=".5" width="1.956" height="1.365" rx=".5" fill="none"/></g><g data-name="Ellipse 126" transform="translate(193.362 26.208)" fill="#e58458" stroke-linejoin="round"><circle cx="2.66" cy="2.66" r="2.66" stroke="none"/><circle cx="2.66" cy="2.66" fill="none" r="2.16"/></g><path data-name="Path 1176" d="m194.314 30.166 2.823-3.187" fill="none"/><path data-name="Path 1177" d="m194.906 30.757 2.823-3.187" fill="none"/><path data-name="Path 1178" d="M194.808 32.624V42.95" fill="none"/><path data-name="Path 1179" d="M196.126 32.624V42.95" fill="none"/><path data-name="Path 1180" d="M197.309 32.624V42.95" fill="none"/><path data-name="Path 1181" d="m163.536 11.828 8.76 12.8" fill="none"/><path data-name="Path 1182" d="m173.234 24.624 16.377-14.761" fill="none"/><g data-name="Ellipse 127" transform="translate(162.621 10.838)" fill="none" stroke-linejoin="round"><circle cx=".591" cy=".591" r=".591" stroke="none"/><circle cx=".591" cy=".591" r=".091"/></g><g data-name="Ellipse 128" transform="translate(189.224 9.064)" fill="none" stroke-linejoin="round"><circle cx=".591" cy=".591" r=".591" stroke="none"/><circle cx=".591" cy=".591" r=".091"/></g></g></g></svg>