<svg xmlns="http://www.w3.org/2000/svg" width="496.282" height="187.045"><g data-name="Group 161"><path data-name="Path 520" d="M.014.539h496v186h-496Z" fill="#fffdf7"/></g><g data-name="Group 284" transform="translate(66.688 10.113)" opacity=".597" fill="#3db5c7"><path data-name="Path 1629" d="m115.641 37.141 69.578 26.058 87.843-44.091L198.106.002Z"/><circle data-name="Ellipse 224" cx="21.5" cy="21.5" r="21.5" transform="translate(0 70.227)"/><path data-name="Path 1630" d="m316.953 176.272-32.859-52.7 100.941-60.4 43.867 68.87v44.126Z"/></g><g data-name="Group 285" fill="none" stroke="#4f5052" stroke-width="2"><g data-name="Group 156" stroke-linecap="round"><path data-name="Path 434" d="M156.281 49.159h.366l69.339 24.449s5.553 3.674 14.115 0l75.959-38.355s4.959-5.075-4.1-5.928L280 20.234l-37.794-8.79-82.851 35.767-1.134.577-1.944.99" stroke-linejoin="round"/><path data-name="Path 436" d="m317.266 33.527-1.5 6.289-73.051 37.16a23.147 23.147 0 0 1-17.766 0l-70.726-23.524" stroke-linejoin="round"/><path data-name="Path 437" d="M310.547 42.814s-3.219 8.623 1.82 11.528l-79.5 42.084-79.893-28.343" stroke-linejoin="round"/><path data-name="Path 438" d="M159.347 55.727s-8.231 3.413-1.712 13.735"/><path data-name="Path 439" d="M310.094 48.982s12.119 3.814 5.949 7.35l-78.13 43.805s-3.069 3.273-11.149 0l-70.419-24.684s-11.569-1.978-9.35-16.95c0 0 1.027-6 9.35-9.521" stroke-linejoin="round"/><path data-name="Path 440" d="M232.253 78.725s-6.878 8.612 0 17.118"/><path data-name="Path 441" d="m298.901 66.321 8.249 3.467a43.637 43.637 0 0 1 1.093 16.114l-97.036 40.221-58.39-28.145s-.378-3.037 5.6-4.466" stroke-linejoin="round"/><path data-name="Path 442" d="m161.414 60.198 22.841 8.151"/><path data-name="Path 445" d="m164.414 65.315 22.841 8.151"/><path data-name="Path 446" d="m190.414 76.313 33.666 12.059"/><path data-name="Path 444" d="m200.529 74.948 19.162 6.923" stroke-width="1.999"/><path data-name="Path 447" d="m232.253 90.05 19.817-9.708"/><path data-name="Path 448" d="m255.657 76.317 36.918-18.888"/><path data-name="Path 449" d="m297.615 57.43 9.258-4.629"/><path data-name="Path 450" d="m294.933 54.202 11.939-6.031"/><path data-name="Path 451" d="m161.414 77.414-4.28 1.631s-2.607 1.94 1.2 3.639l51.692 21.469s12.069 6.819 1.019 21.646" stroke-linejoin="round"/><path data-name="Path 452" d="M158.959 83.394v13.473l54.042 25.081" stroke-linejoin="round"/><path data-name="Path 453" d="m212.325 105.739 16.157-4.9"/><path data-name="Path 454" d="M256.442 90.023 307.2 70.211"/><path data-name="Path 456" d="m161.414 88.371 10.646 5.114"/><path data-name="Path 457" d="m161.414 92.255 27.726 12.986"/><path data-name="Path 458" d="m181.607 97.745 13.871 6.383"/><path data-name="Path 459" d="m198.076 106.062 17.081 8.2"/><path data-name="Path 461" d="M158.097 100.921s-6.615 2.089-7.843 4.547c0 0-6.129 8.963 1.728 19.56l81.873 30.463 46.092-24.87" stroke-linejoin="round"/><path data-name="Path 462" d="M154.226 106.061 192.194 117"/><path data-name="Path 463" d="M158.959 107.777s-8.962 6.163.67 15.181l73.9 27.346 63.543-35.526" stroke-linejoin="round"/><path data-name="Path 464" d="m216.478 124.132 12.041 4.561s6.6 2.739 13.768-2.85l73.736-36.9s4.284-3.4 0-5.562c0 0-6.272-2.909-7.173-2.829" stroke-linejoin="round"/><path data-name="Path 465" d="M233.389 129.764s-6.217 11.362 0 19.069" stroke-linejoin="round"/><path data-name="Path 467" d="m155.568 113.002 24.65 7.847"/><path data-name="Path 468" d="m188.547 123.065 35.007 11.916"/><path data-name="Path 469" d="m164.414 120.847 30.71 10.186"/><path data-name="Path 470" d="m199.347 132.193 25.935 9.26"/><path data-name="Path 471" d="m231.88 135.935 30.521-14.694"/><path data-name="Path 472" d="m287.494 107.783 22.211-11.45"/><path data-name="Path 473" d="m230.725 142.093 15.923-7.884"/><path data-name="Path 474" d="m251.066 132.829 26.706-13.056"/><path data-name="Path 475" d="m272.039 118.574 23.343-11.44"/><path data-name="Path 476" d="M311.271 91.413a13.525 13.525 0 0 0-1.316 10.208"/><path data-name="Path 477" d="M304.747 106.061s.142-4.247 7.98-2.96c0 0 20.024 2.6 15.689 20.357 0 0-.927-17.725-22.76-17.4Z" stroke-linejoin="round"/><path data-name="Path 478" d="M329.034 123.067a6.552 6.552 0 0 1 7.116-1.024s3.525 3.558-.878 5.355c0 0-2.68-3.589-6.238-3.589" stroke-linejoin="round"/><path data-name="Path 479" d="M327.858 123.066s-2.069 5.336-1.324 7.467c0 0 .395 3.213 3.127 3.537 0 0 4.548 2.061 1.764-3.537s-3.567-7.467-3.567-7.467Z" stroke-linejoin="round"/><path data-name="Path 480" d="m309.483 102.745 20.765-29.324s1.711-6.54 9.781-5.547c0 0 16.888 4.144 14.878 18.119 0 0-.727 2.937-2.817 4.019 0 0-20.714 20.362-23.33 30.937" stroke-linejoin="round"/><path data-name="Path 481" d="M327.601 120.936s-15.757 30.928-19.834 44.455"/><path data-name="Path 482" d="M305.647 107.128s-34.651 31.426-37.965 34.916"/><path data-name="Path 483" d="M282.636 172.153s8.461 6.788 19.983 1.4c0 0 10.708-4.693.566-17.495 0 0-15.081-19.592-35.487-13.932 0 0-10.987 17.844 11.757 28.9 0 0 22.147 7.681 26.748-8.84" stroke-linejoin="round"/><path data-name="Path 484" d="M278.875 141.609s-2 4.824-3.78 5.375 26.792-4.842 25.205 22.958" stroke-linejoin="round"/></g><g data-name="Group 157" stroke-linecap="round"><path data-name="Path 485" d="m393.35 185.075-41.313-67.182 110.418-66.891 32.442 49.9" stroke-linejoin="round"/><path data-name="Path 486" d="m381.92 141.742 89.592-55.128"/><path data-name="Path 487" d="m386.479 148.454 89.592-55.128"/><path data-name="Path 488" d="m390.279 155.294 89.592-55.128"/><path data-name="Path 489" d="m394.839 162.893 89.592-55.128"/><path data-name="Path 490" d="m398.638 170.771 89.592-55.128"/><path data-name="Path 491" d="m403.488 176.019 89.592-55.128"/><path data-name="Path 492" d="m409.206 183.288 85.69-53.209"/><path data-name="Path 493" d="m421.936 185.088 72.961-44.886"/><path data-name="Path 494" d="m436.967 185.088 57.931-35.78"/><path data-name="Path 495" d="m452.051 185.089 42.845-26.324"/><path data-name="Path 496" d="m467.397 185.088 27.5-16.468"/><path data-name="Path 497" d="m481.891 185.665 13-8.191"/></g><g data-name="Group 159"><path data-name="Path 498" d="M1.417 33.383C20.055 27.1 74.565 8.81 74.565 8.81s1.4-4.715 0-7.465" stroke-linecap="round" stroke-linejoin="round"/><path data-name="Path 499" d="m1.26 13.028 33.8-11.056" stroke-linecap="round"/><path data-name="Path 500" d="M1.511 91.663s35.493 31.93 37.167 56.34c0 0-4.151 15.235-18.172 9.694a16.125 16.125 0 0 1-10.276-13.674l24.669-9.213" stroke-linecap="round" stroke-linejoin="round"/><path data-name="Path 501" d="M63.816 13.266s-.5 16.912 19.685 33.436 35.417 34.043 39.843 42.848 4.4 21.841-5.226 25.508" stroke-linecap="round" stroke-linejoin="round"/><path data-name="Path 502" d="M32.034 157.727s52.233-21.743 64.839-29.458" stroke-linecap="round"/><g data-name="Group 158"><path data-name="Path 509" d="M82.273 83.636s7.327.6 12.141-5.172a16.45 16.45 0 0 0 13.646 2.572s2.811 7.337 9.483 10.077c0 0-2.691 6.031 1.651 13.96 0 0-6.7 3.192-6.08 11.956 0 0-8.743-1.277-12.423 5.549 0 0-6.833-6.026-13.981-2.14 0 0-.674-7.328-9.4-11.052 0 0 2.962-5.013-1.314-13.941a12.351 12.351 0 0 0 6.277-11.809Z" stroke-linecap="round" stroke-linejoin="round"/><path data-name="Path 510" d="M85.317 86.991a12.309 12.309 0 0 0 9.728-4.144 13.181 13.181 0 0 0 10.934 2.061s2.252 5.879 7.6 8.074c0 0-2.157 4.832 1.323 11.186a9.688 9.688 0 0 0-4.872 9.58s-7.006-1.023-9.954 4.446c0 0-5.476-4.829-11.2-1.715 0 0-.54-5.872-7.533-8.856 0 0 2.373-4.017-1.054-11.17a9.9 9.9 0 0 0 5.028-9.462Z" stroke-linecap="round" stroke-linejoin="round"/><path data-name="Path 511" d="M91.404 93.699a6.206 6.206 0 0 0 4.9-2.089 6.647 6.647 0 0 0 5.514 1.039 7.838 7.838 0 0 0 3.831 4.071 6.676 6.676 0 0 0 .667 5.64 4.885 4.885 0 0 0-2.456 4.83s-3.532-.516-5.02 2.242c0 0-2.76-2.435-5.648-.865a5.866 5.866 0 0 0-3.8-4.465s1.2-2.026-.531-5.632a4.987 4.987 0 0 0 2.543-4.771Z" stroke-linecap="round" stroke-linejoin="round"/><path data-name="Path 512" d="m114.26 111.524 17.231 16.481h-10.169l-.611 10.055-16.229-18.883" stroke-linecap="round" stroke-linejoin="round"/><path data-name="Path 513" d="m96.333 120.811 4.578 22.183 6.009-7.363 8.829 5.368-3.259-12.253" stroke-linecap="round" stroke-linejoin="round"/><path data-name="Path 514" d="m98.968 121.629 4.028 18.548"/><path data-name="Path 515" d="m112.588 139.091-3.8-14.476" stroke-linecap="round"/><path data-name="Path 516" d="m107.196 118.194 13.309 15.656" stroke-linecap="round"/><path data-name="Path 517" d="m113.431 113.998 14.322 13.895" stroke-linecap="round"/></g></g></g></svg>