<svg xmlns="http://www.w3.org/2000/svg" width="496" height="186"><path data-name="Path 443" d="M0 0h496v186H0Z" fill="#fffdf7"/><g data-name="Group 286" transform="translate(44.398 10.816)" opacity=".604" fill="#3cb7c5"><circle data-name="Ellipse 221" cx="13" cy="13" r="13" transform="translate(192.964 45.99)"/><path data-name="Rectangle 253" d="M0 100.981h12v12H0z"/><path data-name="Rectangle 256" d="M403.928 100.981h12v12h-12z"/><path data-name="Rectangle 254" d="M0 121.973h12v12H0z"/><path data-name="Rectangle 257" d="M403.928 121.973h12v12h-12z"/><path data-name="Rectangle 255" d="M0 142.973h12v12H0z"/><path data-name="Rectangle 258" d="M403.928 142.973h12v12h-12z"/><path data-name="Rectangle 289" d="M207.962 0h22v16h-22z"/><path data-name="Rectangle 291" d="M37 100.973h83v54H37z"/><path data-name="Rectangle 292" d="M287.928 100.973h83v54h-83z"/></g><g data-name="Group 287" fill="none" stroke="#4f5052" stroke-linecap="round" stroke-width="2"><path data-name="Path 231" d="M22.331 71.77v-6.763l23.176-21.242 17.019 16.839H185.51l33.031-27.481h58.34l33.975 27.481h120.807l18.446-16.839 21.354 21.242v6.759" stroke-linejoin="round"/><path data-name="Path 232" d="M424.025 71.758h51.65v14.07h4.082v8.082h-60v-8.082h4.271Z" stroke-linejoin="round"/><path data-name="Path 233" d="M19.687 71.758h51.65v14.07h4.082v8.082h-60v-8.082h4.271Z" stroke-linejoin="round"/><path data-name="Path 234" d="M75.418 86h344.694"/><path data-name="Path 235" d="M203.169 86.004v-17.4l35.155-21.939h17.987l35.035 21.939v17.4" stroke-linejoin="round"/><g data-name="Ellipse 30" transform="translate(232.595 52.24)" stroke-linejoin="round"><circle cx="14.203" cy="14.203" r="14.203" stroke="none"/><circle cx="14.203" cy="14.203" r="13.203"/></g><path data-name="Path 236" d="M247.764 33.125V6.666h21.49v15.3h-21.49" stroke-linejoin="round"/><path data-name="Path 237" d="M174.096 86.001V68.882h28.771" stroke-linejoin="round"/><path data-name="Path 238" d="M291.341 68.818h30.01v17.018" stroke-linejoin="round"/><path data-name="Path 239" d="M22.331 93.893v90.729"/><g data-name="Rectangle 89" stroke-linejoin="round"><path d="M39.023 106.8h13.455v13.455H39.023z" stroke="none"/><path d="M40.023 107.8h11.455v11.455H40.023z"/></g><g data-name="Rectangle 124" stroke-linejoin="round"><path d="M443.359 106.8h13.455v13.455h-13.455z" stroke="none"/><path d="M444.359 107.8h11.455v11.455h-11.455z"/></g><g data-name="Rectangle 92" stroke-linejoin="round"><path d="M74.156 106.8h13.455v13.455H74.156z" stroke="none"/><path d="M75.156 107.8h11.455v11.455H75.156z"/></g><g data-name="Rectangle 107" stroke-linejoin="round"><path d="M326.021 106.8h13.455v13.455h-13.455z" stroke="none"/><path d="M327.021 107.8h11.455v11.455h-11.455z"/></g><g data-name="Rectangle 95" stroke-linejoin="round"><path d="M94.339 106.8h13.455v13.455H94.339z" stroke="none"/><path d="M95.339 107.8h11.455v11.455H95.339z"/></g><g data-name="Rectangle 108" stroke-linejoin="round"><path d="M346.201 106.8h13.455v13.455h-13.455z" stroke="none"/><path d="M347.201 107.8h11.455v11.455h-11.455z"/></g><g data-name="Rectangle 98" stroke-linejoin="round"><path d="M114.507 106.8h13.455v13.455h-13.455z" stroke="none"/><path d="M115.507 107.8h11.455v11.455h-11.455z"/></g><g data-name="Rectangle 109" stroke-linejoin="round"><path d="M366.381 106.8h13.455v13.455h-13.455z" stroke="none"/><path d="M367.381 107.8h11.455v11.455h-11.455z"/></g><g data-name="Rectangle 101" stroke-linejoin="round"><path d="M134.687 106.8h13.455v13.455h-13.455z" stroke="none"/><path d="M135.687 107.8h11.455v11.455h-11.455z"/></g><g data-name="Rectangle 110" stroke-linejoin="round"><path d="M386.56 106.8h13.455v13.455H386.56z" stroke="none"/><path d="M387.56 107.8h11.455v11.455H387.56z"/></g><g data-name="Rectangle 104" stroke-linejoin="round"><path d="M154.866 106.8h13.455v13.455h-13.455z" stroke="none"/><path d="M155.866 107.8h11.455v11.455h-11.455z"/></g><g data-name="Rectangle 111" stroke-linejoin="round"><path d="M406.731 106.8h13.455v13.455h-13.455z" stroke="none"/><path d="M407.731 107.8h11.455v11.455h-11.455z"/></g><g data-name="Rectangle 90" stroke-linejoin="round"><path d="M39.023 127.727h13.455v13.455H39.023z" stroke="none"/><path d="M40.023 128.727h11.455v11.455H40.023z"/></g><g data-name="Rectangle 123" stroke-linejoin="round"><path d="M443.359 127.727h13.455v13.455h-13.455z" stroke="none"/><path d="M444.359 128.727h11.455v11.455h-11.455z"/></g><g data-name="Rectangle 93" stroke-linejoin="round"><path d="M74.156 127.727h13.455v13.455H74.156z" stroke="none"/><path d="M75.156 128.727h11.455v11.455H75.156z"/></g><g data-name="Rectangle 116" stroke-linejoin="round"><path d="M326.021 127.727h13.455v13.455h-13.455z" stroke="none"/><path d="M327.021 128.727h11.455v11.455h-11.455z"/></g><g data-name="Rectangle 96" stroke-linejoin="round"><path d="M94.339 127.727h13.455v13.455H94.339z" stroke="none"/><path d="M95.339 128.727h11.455v11.455H95.339z"/></g><g data-name="Rectangle 115" stroke-linejoin="round"><path d="M346.201 127.727h13.455v13.455h-13.455z" stroke="none"/><path d="M347.201 128.727h11.455v11.455h-11.455z"/></g><g data-name="Rectangle 99" stroke-linejoin="round"><path d="M114.507 127.727h13.455v13.455h-13.455z" stroke="none"/><path d="M115.507 128.727h11.455v11.455h-11.455z"/></g><g data-name="Rectangle 114" stroke-linejoin="round"><path d="M366.381 127.727h13.455v13.455h-13.455z" stroke="none"/><path d="M367.381 128.727h11.455v11.455h-11.455z"/></g><g data-name="Rectangle 102" stroke-linejoin="round"><path d="M134.687 127.727h13.455v13.455h-13.455z" stroke="none"/><path d="M135.687 128.727h11.455v11.455h-11.455z"/></g><g data-name="Rectangle 113" stroke-linejoin="round"><path d="M386.56 127.727h13.455v13.455H386.56z" stroke="none"/><path d="M387.56 128.727h11.455v11.455H387.56z"/></g><g data-name="Rectangle 105" stroke-linejoin="round"><path d="M154.866 127.727h13.455v13.455h-13.455z" stroke="none"/><path d="M155.866 128.727h11.455v11.455h-11.455z"/></g><g data-name="Rectangle 112" stroke-linejoin="round"><path d="M406.731 127.727h13.455v13.455h-13.455z" stroke="none"/><path d="M407.731 128.727h11.455v11.455h-11.455z"/></g><g data-name="Rectangle 91" stroke-linejoin="round"><path d="M39.023 148.651h13.455v13.455H39.023z" stroke="none"/><path d="M40.023 149.651h11.455v11.455H40.023z"/></g><g data-name="Rectangle 122" stroke-linejoin="round"><path d="M443.359 148.651h13.455v13.455h-13.455z" stroke="none"/><path d="M444.359 149.651h11.455v11.455h-11.455z"/></g><g data-name="Rectangle 94" stroke-linejoin="round"><path d="M74.156 148.651h13.455v13.455H74.156z" stroke="none"/><path d="M75.156 149.651h11.455v11.455H75.156z"/></g><g data-name="Rectangle 117" stroke-linejoin="round"><path d="M326.021 148.651h13.455v13.455h-13.455z" stroke="none"/><path d="M327.021 149.651h11.455v11.455h-11.455z"/></g><g data-name="Rectangle 97" stroke-linejoin="round"><path d="M94.339 148.651h13.455v13.455H94.339z" stroke="none"/><path d="M95.339 149.651h11.455v11.455H95.339z"/></g><g data-name="Rectangle 118" stroke-linejoin="round"><path d="M346.201 148.651h13.455v13.455h-13.455z" stroke="none"/><path d="M347.201 149.651h11.455v11.455h-11.455z"/></g><g data-name="Rectangle 100" stroke-linejoin="round"><path d="M114.507 148.651h13.455v13.455h-13.455z" stroke="none"/><path d="M115.507 149.651h11.455v11.455h-11.455z"/></g><g data-name="Rectangle 119" stroke-linejoin="round"><path d="M366.381 148.651h13.455v13.455h-13.455z" stroke="none"/><path d="M367.381 149.651h11.455v11.455h-11.455z"/></g><g data-name="Rectangle 103" stroke-linejoin="round"><path d="M134.687 148.651h13.455v13.455h-13.455z" stroke="none"/><path d="M135.687 149.651h11.455v11.455h-11.455z"/></g><g data-name="Rectangle 120" stroke-linejoin="round"><path d="M386.56 148.651h13.455v13.455H386.56z" stroke="none"/><path d="M387.56 149.651h11.455v11.455H387.56z"/></g><g data-name="Rectangle 106" stroke-linejoin="round"><path d="M154.866 148.651h13.455v13.455h-13.455z" stroke="none"/><path d="M155.866 149.651h11.455v11.455h-11.455z"/></g><g data-name="Rectangle 121" stroke-linejoin="round"><path d="M406.731 148.651h13.455v13.455h-13.455z" stroke="none"/><path d="M407.731 149.651h11.455v11.455h-11.455z"/></g><path data-name="Path 240" d="M68.42 184.623v-81.979h105.7v81.979" stroke-linejoin="round"/><path data-name="Path 241" d="M321.322 184.789V101.17h105.669v83.619" stroke-linejoin="round"/><path data-name="Path 242" d="M240.727 184.908v-33.619s1.606-5.807 6.672-5.867 7.169 5.867 7.169 5.867v33.615" stroke-linejoin="round"/><path data-name="Path 243" d="M240.726 140.005v-32.577s-.188-6.225 7.045-6.29 6.625 6.29 6.625 6.29v32.577Z" stroke-linejoin="round"/><path data-name="Path 244" d="M269.128 140.005v-32.577s-.188-6.225 7.045-6.29 6.625 6.29 6.625 6.29v32.577Z" stroke-linejoin="round"/><path data-name="Path 246" d="M212.324 140.005v-32.577s-.188-6.225 7.045-6.29 6.625 6.29 6.625 6.29v32.577Z" stroke-linejoin="round"/><path data-name="Path 247" d="M183.924 140.005v-32.577s-.188-6.225 7.045-6.29 6.625 6.29 6.625 6.29v32.577Z" stroke-linejoin="round"/><path data-name="Path 245" d="M297.527 140.005v-32.577s-.188-6.225 7.045-6.29 6.625 6.29 6.625 6.29v32.577Z" stroke-linejoin="round"/><path data-name="Path 248" d="M183.924 161.908v-10.537a6.239 6.239 0 0 1 6.523-5.946c6.3-.067 7.123 4.753 7.123 4.753v11.73Z" stroke-linejoin="round"/><path data-name="Path 249" d="M212.324 161.908v-10.537a6.239 6.239 0 0 1 6.523-5.946c6.3-.067 7.123 4.753 7.123 4.753v11.73Z" stroke-linejoin="round"/><path data-name="Path 250" d="M269.323 161.908v-10.537a6.239 6.239 0 0 1 6.523-5.946c6.3-.067 7.123 4.753 7.123 4.753v11.73Z" stroke-linejoin="round"/><path data-name="Path 251" d="M297.723 161.908v-10.537a6.239 6.239 0 0 1 6.523-5.946c6.3-.067 7.123 4.753 7.123 4.753v11.73Z" stroke-linejoin="round"/><path data-name="Path 252" d="M246.211 57.971v9.852"/><path data-name="Path 253" d="M471.459 93.894v90.891"/></g></svg>