<svg xmlns="http://www.w3.org/2000/svg" width="496.072" height="314.905"><defs><clipPath id="a"><path data-name="Rectangle 165" transform="translate(713 3228)" fill="none" d="M0 0h496.072v314.905H0z"/></clipPath></defs><g transform="translate(-713 -3228)" clip-path="url(#a)"><g data-name="Group 223"><path data-name="Path 1652" d="M713 3228h496v315H713Z" fill="#285db0"/><g data-name="conti logo" transform="translate(793.172 3345.253)"><path data-name="Path 1046" d="m81.359 39.436 8.3-14.741H34.484s-8.246-.182-11.288 4.593L2.559 69.2s-6.426 11.69 1.1 11.749h57.642l7.507-14.9H26.203s-3.622.559 0-5.755l8.281-17.322s.648-3.615 6.318-3.537Z" fill="#aaf3dd"/><path data-name="Path 1047" d="M102.166 24.693h53.842s4.979.1 2.8 4.523l-22.986 45.363s-3.09 6.189-8.4 6.132H73.515s-6.434-.718-1.6-9.516l19.936-39.093s3.406-7.499 10.315-7.409Z" fill="#aaf3dd"/><path data-name="Path 1048" d="M110.656 38.014h18.552s4.236-.233 2.59 3.1l-11.077 21.491s-1.351 2.832-4.216 2.705h-18.46s-4.664.531-1.438-4.5l10.141-19.693s1.386-3.245 3.908-3.103Z" fill="#285db0" opacity=".8"/><path data-name="Path 1049" d="M161.051 79.629h-21.176l27.753-55.266h55.724s9.318-1.117 5.107 6.5l-23.743 48.77h-20.9l19.086-38.793s.982-2.357-1.362-2.312h-19.2s-1.591-.247-3.006 2.791Z" fill="#aaf3dd"/><path data-name="Path 1050" d="m273.893 79.629 7.691-14.769h-24.725s-5.049.515-1.237-5.1l11.231-21.125h27.364l8.184-14.4h-28.509l6.329-9.067-19.943-.413-6.136 9.48h-17.39l-7.441 14.4h18.6l-15.323 29.733s-6.456 11.143 1.947 11.257Z" fill="#aaf3dd"/><path data-name="Path 1051" d="M282.039 79.629h19.319l26.177-55.28h-17.743Z" fill="#aaf3dd"/><circle data-name="Ellipse 93" cx="10.619" cy="10.619" r="10.619" transform="translate(314.874)" fill="#aaf3dd"/></g><g data-name="Group 221" opacity=".595" fill="none" stroke="#aaf3dd" stroke-linecap="round"><g data-name="Ellipse 91" stroke-linejoin="round" transform="translate(831.255 3256.061)"><circle cx="130.263" cy="130.263" r="130.263" stroke="none"/><circle cx="130.263" cy="130.263" r="129.763"/></g><path data-name="Path 1006" d="M979.456 3257.931c-36.955 8.773-91.437 68.708-91.437 68.708s98.108 34.075 183.474 18.57c0 0 9.069-1.439 12.079-2.465" stroke-linejoin="round"/><path data-name="Path 1007" d="M928.966 3288.102s82.661-8.567 113.029-3.537"/><path data-name="Path 1008" d="M1043.736 3486.478c-178.452 19.432-155.716-160.046-155.716-160.046s-60.361 20.327-52.593 90.509" stroke-linejoin="round"/><path data-name="Path 1009" d="M936.866 3339.795s48.144 118.6 152.14 69.939"/><path data-name="Path 1010" d="M889.714 3378.653s-63.571 90.3 55.622 135.089c0 0 5.286 1.834 5.885 1.931" stroke-linejoin="round"/><path data-name="Path 1011" d="M834.485 3359.973s4.406-6.457 15.492-4.473"/><path data-name="Path 1012" d="M868.865 3295.39s14.847 7.684 19.216 30.964"/><path data-name="Path 1013" d="M876.005 3301.009s12.343-21.55 28.2-31.169"/><path data-name="Path 1014" d="m974.29 3311.403 1.745-3.3-13.77.594a4.313 4.313 0 0 0-3.644 2.268c-1.024 2.218-3.74 8.816-3.74 8.816s-1.573 3.3 2.922 2.648 12.5-1.231 12.5-1.231.464-.146.7-1.887l.094-.622s.236-.98-2.051-.8-8.2.8-8.2.8-2.062.538-1.206-1.184 1.933-4.061 1.933-4.061a2.782 2.782 0 0 1 2.526-1.639c1.909-.052 10.191-.402 10.191-.402Z" stroke-linejoin="round"/><path data-name="Path 1016" d="M980.413 3307.663h12.167s2.289-.219 1.331 1.827l-3.158 8.307a4.257 4.257 0 0 1-4.209 2.525l-10.9.28s-3.638.365-1.642-3.779l3.034-6.5a3.447 3.447 0 0 1 3.377-2.66Z" stroke-linejoin="round"/><path data-name="Path 1017" d="M982.508 3310.729h5.283s.991-.1.578.872l-1.374 3.963a1.867 1.867 0 0 1-1.825 1.2l-4.73.133s-1.579.174-.714-1.8l1.319-3.1s.27-1.305 1.463-1.268Z" stroke-linejoin="round"/><path data-name="Path 1018" d="M993.33 3319.838h2.692s1.364.121 2-1.873 1.865-6.066 1.865-6.066a1.463 1.463 0 0 1 1.64-1.265c1.519.042 4.065.1 4.065.1s1.1-.063.625 1.644-2.079 6.085-2.079 6.085-.953 1.836.281 1.768 3.221 0 3.221 0 1.045.034 1.334-1.537l2.1-6.534.482-1.522s1.205-2.885-1.778-2.87h-11.629s-1.782-.152-2.3 1.271-3.284 8.93-3.284 8.93-.864 1.803.765 1.869Z" stroke-linejoin="round"/><path data-name="Path 1019" d="m1013.881 3308.546 4.3.482.617-1.875 4.375.537-.6 2.039 5.8.828-.429 3.126-6.751-.992-1.1 4.013s-.834 1.823 1.1 1.867l3.138.177a1.309 1.309 0 0 1 1.4 1.681 1.933 1.933 0 0 1-2.289 1.8c-2.206-.182-7.3-.848-7.3-.848s-2.34-.3-1.167-4.06l1.744-5.4-3.561-.36Z" stroke-linejoin="round"/><path data-name="Path 1020" d="m1029.984 3312.265-2.052 7.9s-1.189 2.909.828 3.018l1.99.206s.987.277 1.467-2.751l1.828-7.6s.542-1.187-1.6-1.51c-.003.003-2.177-.624-2.461.737Z" stroke-linejoin="round"/><g data-name="Ellipse 92" transform="rotate(45 -3474.014 2898.677)" stroke-linejoin="round"><ellipse cx="2.858" cy="1.711" rx="2.858" ry="1.711" stroke="none"/><ellipse cx="2.858" cy="1.711" rx="2.358" ry="1.211"/></g><path data-name="Path 1021" d="M918.124 3385.803s13.895 23.455 41.994 55.29c0 0 2.1 2.156 1.483 2.636s-1.068.857-2.263-.521-32.519-38.526-42.632-56.213c0 0-.863-1.4 0-1.882.001 0 .765-.651 1.418.69Z" stroke-linejoin="round"/><path data-name="Path 1022" d="m921.313 3383.318 6.258 8.755s.057.208 1.874-.839a1.662 1.662 0 0 0 .737-2.728l-4.635-6.408s-1.032-2.607 1-3.948l3.633-2.309a2.517 2.517 0 0 1 3.91.444l4.988 7.032s2.073 3.678 0 5.188l-8.023 5.44s-2.658 2.576-4.508 0l-6.556-9.345s-.806-.79 0-1.283c.002.001.33-.65 1.322.001Z" stroke-linejoin="round"/><path data-name="Path 1023" d="m938.462 3407.451 6.708 8.414s.068.205 1.827-.934a1.662 1.662 0 0 0 .594-2.763l-4.962-6.157s-1.169-2.55.792-3.995l3.507-2.496a2.517 2.517 0 0 1 3.928.24l5.35 6.761s2.264 3.563.272 5.18l-7.725 5.852s-2.52 2.712-4.503.236l-7.036-8.99s-.848-.748-.067-1.281c0 .002.291-.665 1.315-.067Z" stroke-linejoin="round"/><g data-name="Rectangle 157" transform="rotate(54.97 -2779.402 2583.945)" stroke-linejoin="round"><rect width="9.8" height="6.534" rx="2" stroke="none"/><rect x=".5" y=".5" width="8.8" height="5.534" rx="1.5"/></g><g data-name="Rectangle 158" transform="rotate(52 -3011.675 2673.239)" stroke-linejoin="round"><rect width="9.8" height="6.534" rx="2" stroke="none"/><rect x=".5" y=".5" width="8.8" height="5.534" rx="1.5"/></g><g data-name="Rectangle 159" transform="rotate(51 -3101.954 2723.03)" stroke-linejoin="round"><rect width="16.334" height="16.334" rx="5" stroke="none"/><rect x=".5" y=".5" width="15.334" height="15.334" rx="4.5"/></g><g data-name="Rectangle 160" transform="rotate(51 -3105.709 2726.494)" stroke-linejoin="round"><rect width="8.167" height="13.067" rx="2" stroke="none"/><rect x=".5" y=".5" width="7.167" height="12.067" rx="1.5"/></g><path data-name="Path 1024" d="m908.784 3392.272 5.643-4.028 3.454 4.5a2.286 2.286 0 0 1-.9 3.208s-2.049 1.667-3.5-.277l-1.8-2.742-1.6 1.2Z" stroke-linejoin="round"/><g data-name="Rectangle 161" transform="rotate(56 -2730.95 2555.152)" stroke-linejoin="round"><rect width="4.083" height="2.45" rx="1.225" stroke="none"/><rect x=".5" y=".5" width="3.083" height="1.45" rx=".725"/></g><g data-name="Rectangle 162" transform="rotate(56 -2735.496 2564.465)" stroke-linejoin="round"><rect width="4.9" height="2.45" rx="1.225" stroke="none"/><rect x=".5" y=".5" width="3.9" height="1.45" rx=".725"/></g><path data-name="Path 1025" d="M913.913 3400.272s5.241-4.942 7.065-2.786a30.231 30.231 0 0 1 2.785 3.792 1.743 1.743 0 0 1-.53 2.667 320.37 320.37 0 0 0-4.131 3.206l-1.54-1.928 1.922-1.511-2.334-3.059-1.964 1.383Z" stroke-linejoin="round"/><path data-name="Path 1026" d="m920.071 3408.98 4.747 6.366 1.511-1.23-3.565-4.355 1.282-.985 3.45 4.558 1.121-.9-3.37-4.4.938-.709 3.393 4.441 1.172-.854-4.963-6.212Z" stroke-linejoin="round"/><path data-name="Path 1027" d="m926.313 3417.008 5.822-4.32 2.052 2.745-2.37 4.686 5.764-.159 1.766 2.324-5.854 4.287-1.531-2.007 3.318-2.28h-5.035l-1.274-1.814 2.214-4.2-3.657 2.445Z" stroke-linejoin="round"/><g data-name="Rectangle 163" transform="rotate(-36 5743.227 276.595)" stroke-linejoin="round"><rect width="8.167" height="3.106" rx="1" stroke="none"/><rect x=".5" y=".5" width="7.167" height="2.106" rx=".5"/></g><path data-name="Path 1028" d="m943.224 3427.682 1.391 1.71-3.046 2.163s-1.311.575-.241 1.931l1.323 1.647a1.27 1.27 0 0 0 1.964 0 41.228 41.228 0 0 1 2.009-1.647.965.965 0 0 1 1.568 0s1.049.852-.263 1.777l-3.056 2.2a2.4 2.4 0 0 1-3.546-.541l-2.73-3.628s-1.3-1.514.849-2.948 3.512-2.908 3.778-2.664Z" stroke-linejoin="round"/><path data-name="Path 1029" d="M945.332 3439.391c.7-.607 3.7-2.746 3.7-2.746a1.156 1.156 0 0 1 1.8.131s1.762 1.463.818 2.615l-1.773 3.589 5-.334a1.719 1.719 0 0 1 1.563.769s.95.942.349 1.519l-4.139 3.254a1.181 1.181 0 0 1-1.7-.389.864.864 0 0 1 0-1.379c.829-.642 2.776-1.85 2.776-1.85l-4.7.962-1.883-2.3 2.269-3.969-3.356 2.56-.969-1.287s-.448-.538.245-1.145Z" stroke-linejoin="round"/><path data-name="Path 1030" d="M858.727 3448.688s-9.011-27.485 2.426-60.418l-1.138-.448s-12.313 28.253-2.715 60.147Z" stroke-linejoin="round"/><path data-name="Path 1031" d="M854.811 3446.352s-2.206-9.945-1.879-10.776-8.448-6.471-8.448-6.471l.522 8.556 6.388 5.311-.426-6.833h.818l2.189 9.446Z" stroke-linejoin="round"/><path data-name="Path 1032" d="m846.327 3432.519.387 4.121 2.664 2.249v-4.13Z" stroke-linejoin="round"/><path data-name="Path 1033" d="M852.019 3423.561s-.234-6.969 0-11.949l-8.064-5.592s-2.936 6.828-1.128 11.049l5.291 3.808v-9.984l2.418 2v9.666Z" stroke-linejoin="round"/><path data-name="Path 1034" d="m846.683 3409.873-1.973-1.3s-1.657 5.188-.392 7.267l1.948 1.449Z" stroke-linejoin="round"/><path data-name="Path 1035" d="M853.64 3398.782a122.043 122.043 0 0 1 4.184-12.4l-8.517-5.536s-4.937 7.983-3.008 12.59a63.312 63.312 0 0 0 7.341 5.346Z" stroke-linejoin="round"/><path data-name="Path 1036" d="M852.543 3395.254a82.382 82.382 0 0 1 2.446-7.894l-4.975-3.524s-2.881 5.081-1.753 8.014a37.162 37.162 0 0 0 4.282 3.404Z" stroke-linejoin="round"/><path data-name="Path 1037" d="M860.074 3448.26s-1.062-4.493-.687-4.493a32.252 32.252 0 0 1 3.688 2.232l.255 2.568 1.949 1.027-.872 1.473Z" stroke-linejoin="round"/><path data-name="Path 1038" d="M858.618 3441.119c.583.376 4.874 2.646 4.874 2.646v-1.48l-2.381-1.245v-2.191l2.381.589v-1.339l-5.66-2.593s.202 5.237.786 5.613Z" stroke-linejoin="round"/><path data-name="Path 1039" d="m857.544 3433.288 6 2.428.363-5.549-1.187-.324-.33 3.781-1.388-.588.437-3.5-1.235-.343-.451 3.383-1.086-.335.249-3.382-1.694-.693Z" stroke-linejoin="round"/><path data-name="Path 1040" d="m857.396 3425.46 6.4 2.5v-1.24l-5.08-2.209v-.607h3.653v-1.861l-3.265-3.027.159-.549 4.871 2.389v-1.84l-6.737-3.314v3.687l3.372 2.962v.261h-3.372Z" stroke-linejoin="round"/><path data-name="Path 1041" d="m857.687 3413.513 6.674 3.552v-2.142l-6.464-3.263Z" stroke-linejoin="round"/><path data-name="Path 1042" d="m858.284 3409.867 6.246 3.039.225-7.169-5.438-2.913-.275 1.832 3.8 1.922-.14 3.638-4.2-2.109Z" stroke-linejoin="round"/><path data-name="Path 1043" d="m859.935 3400.468 5.447 2.89.344-1.866-2.614-1.687 3.778-.654.453-1.944-2.395-3.168 3.166.892.491-1.616-6.062-2.958-1.142 3.1 3.547 3.929-4.661.361Z" stroke-linejoin="round"/></g></g></g></svg>