<svg xmlns="http://www.w3.org/2000/svg" width="496.823" height="186.725"><path data-name="Path 519" d="M.576.348h496v186h-496Z" fill="#fffdf7"/><g data-name="Group 282" transform="translate(86.769 3.163)" opacity=".603" fill="#3cb7c5"><path data-name="Path 1628" d="m20.204 73.62-20.2 47.344 102.85-13.937Z"/><circle data-name="Ellipse 222" cx="19.5" cy="19.5" r="19.5" transform="translate(151.771)"/><circle data-name="Ellipse 223" cx="23" cy="23" r="23" transform="translate(218.771 124.973)"/><path data-name="Rectangle 290" d="m330.944 58.72 44.096-27.56 27.56 44.096-44.096 27.56z"/><path data-name="Polygon 12" d="m275.962 92.324-64.668-12.49 43.3-49.81Z"/></g><g data-name="Group 283" stroke-linecap="round"><g data-name="Group 140" fill="none" stroke="#4f5052" stroke-width="2"><path data-name="Path 254" d="M88.833 1.58 54.648 41.823l-11.251 1.239-6.425 7.978" stroke-linejoin="round"/><path data-name="Path 255" d="M30.712 47.335 80.237 1.58"/><path data-name="Path 256" d="M43.728 35.473 52.47 1.718"/><path data-name="Path 257" d="m58.77 21.616 3.872-19.934"/><path data-name="Path 258" d="m53.679 42.136-3.351 16.949"/><path data-name="Path 259" d="m43.728 55.014 4.249-9.906-1.572-2.359" stroke-linejoin="round"/><path data-name="Path 260" d="M51.032 94.681c6.095-8.7 3.358-29.64 1.913-32.864s-10.474-7.2-10.474-7.2L28.396 94.678s16.541 8.7 22.636.003Z" stroke-linejoin="round"/><path data-name="Path 261" d="M1.41 77.615s3.015 6.423 8.864 9.576"/><path data-name="Path 262" d="M1.779 63.145s18.634-19.15 26.484-16.472 8.919 4.977 8.919 4.977L10.021 87.538" stroke-linejoin="round"/><path data-name="Path 263" d="M7.847 66.022a73.731 73.731 0 0 1 13.532-11.206c2.642-1.461 5.333 2.654 5.333 2.654L12.237 74.684s-7.982-4.613-4.39-8.662Z" stroke-linejoin="round"/><path data-name="Path 264" d="m37.182 88.081 7.6-20.473s4.4-1.006 4.432 3.98-.207 13.857-2.938 17.177-9.094-.684-9.094-.684Z" stroke-linejoin="round"/><g data-name="Ellipse 31" transform="translate(48.612 32.164)" stroke-linejoin="round"><circle cx="3" cy="3" r="3" stroke="none"/><circle cx="3" cy="3" r="2"/></g></g><g data-name="Group 139" fill="none" stroke="#4f5052" stroke-width="2"><path data-name="Path 265" d="m167.575 31.784 16.167 18.436 50.605 41.433h4.146" stroke-linejoin="round"/><path data-name="Path 266" d="m238.494 86.614-28.2-21.912h-4.254l-3.554-6.386-32.681-27.868-1.919 1.747" stroke-linejoin="round"/><path data-name="Path 267" d="m169.563 30.446-7.636-7.9 6.562 8.828" stroke-linejoin="round"/><path data-name="Path 268" d="M247.424 79.135v-1.481l-41.895-39.108-4.086 4.082 10.144 8.891 4.358 2.484 1.8 3.829 24.142 23.37" stroke-linejoin="round"/><path data-name="Path 269" d="m193.367 36.703 4.592-5.29-17.143-12.778-4.21 3.584Z" stroke-linejoin="round"/><path data-name="Path 270" d="m204.34 39.971-7.753-6.834"/><path data-name="Path 271" d="m202.454 41.396-7.588-6.642"/><path data-name="Path 272" d="m176.361 22.184-.322-2.2 2.07-1.937 2.7.638" stroke-linejoin="round"/><path data-name="Path 273" d="m176.038 19.692-6.725-4.8s-1.2-2.328 1.531-1.735" stroke-linejoin="round"/><path data-name="Path 274" d="m177.407 18.296-6.753-5.2"/><path data-name="Path 275" d="M238.494 93.332V81.865l11.758-2.662 14.756 12.247-10.49 14.628Z" stroke-linejoin="round"/><path data-name="Path 276" d="m261.573 96.665 13.847 12.243s2.142 2.266.417 4.464-4.434-.481-4.434-.481l-13.575-11.214" stroke-linejoin="round"/></g><g data-name="Group 141" fill="none" stroke-linejoin="round"><path data-name="Path 277" d="m34.525 184.758 127.71-59.417 23.2 59.417" stroke="#4f5052" stroke-width="2"/><path data-name="Path 278" d="m190.234 184.758-22.1-56.447-5.716-2.993" stroke="#4f5052" stroke-width="2"/><g data-name="Ellipse 32" transform="translate(131.612 140.136)" stroke="#4f5052" stroke-width="2"><circle cx="13.5" cy="13.5" r="13.5" stroke="none"/><circle cx="13.5" cy="13.5" r="12.5"/></g><g data-name="Ellipse 33" transform="translate(97.612 155.136)" stroke="#4f5052" stroke-width="2"><circle cx="13.5" cy="13.5" r="13.5" stroke="none"/><circle cx="13.5" cy="13.5" r="12.5"/></g><g data-name="Path 281"><path d="M160.112 176.136a13.6 13.6 0 0 1 12.78 9.138c.43 1.162-26.048 1.494-25.521-.112a13.411 13.411 0 0 1 12.741-9.026Z"/><path d="M160.112 178.136a11.54 11.54 0 0 0-6.82 2.212 11.28 11.28 0 0 0-3.197 3.569c1.723.18 4.746.341 9.24.341 4.76 0 8.528-.175 10.699-.372-2.095-3.553-5.793-5.75-9.922-5.75m0-2c5.823 0 10.785 3.687 12.78 9.138.43 1.164-26.048 1.494-25.521-.112 1.665-5.119 6.747-9.026 12.741-9.026Z" fill="#4f5052"/></g><g data-name="Path 280"><path d="M78.112 169.136a13.5 13.5 0 0 1 13.5 13.5 28.126 28.126 0 0 1-.346 3.049l-26.389-.374a22.018 22.018 0 0 1-.265-2.675 13.5 13.5 0 0 1 13.5-13.5Z"/><path d="M78.112 171.136c-3.072 0-5.96 1.196-8.132 3.368a11.425 11.425 0 0 0-3.368 8.132c0 .2.014.444.036.7l22.882.324c.049-.421.082-.798.082-1.024 0-3.072-1.196-5.96-3.368-8.132a11.425 11.425 0 0 0-8.132-3.368m0-2c7.456 0 13.5 6.044 13.5 13.5 0 .94-.346 3.049-.346 3.049l-26.389-.374s-.265-1.654-.265-2.675c0-7.456 6.044-13.5 13.5-13.5Z" fill="#4f5052"/></g><path data-name="Path 279" d="m113.912 184.758 56.016-22.631 1.731 4.183-48.855 19.119" stroke="#4f5052" stroke-width="2"/></g><g data-name="Group 142" fill="none" stroke="#4f5052" stroke-width="2"><path data-name="Path 282" d="m105.252 55.292-26.178 64.894 136.363-19.724Z" stroke-linejoin="round"/><path data-name="Path 283" d="m112.948 73.364-12.488 30.277 62.726-9.038Z" stroke-linejoin="round"/><g data-name="Group 152"><path data-name="Path 284" d="m103.878 57.913 105.88 43.39"/><path data-name="Path 285" d="m107.57 63.926 1.363-3.373"/><path data-name="Path 299" d="m131.589 73.628 1.363-3.373"/><path data-name="Path 307" d="m155.607 83.331 1.363-3.373"/><path data-name="Path 315" d="m179.627 93.033 1.362-3.373"/><path data-name="Path 290" d="m119.58 68.777 1.363-3.373"/><path data-name="Path 294" d="m143.599 78.48 1.363-3.373"/><path data-name="Path 302" d="m167.617 88.182 1.363-3.373"/><path data-name="Path 310" d="m191.635 97.885 1.363-3.373"/><path data-name="Path 288" d="m113.575 66.351 1.363-3.373"/><path data-name="Path 297" d="m137.594 76.055 1.363-3.374"/><path data-name="Path 305" d="m161.613 85.757 1.362-3.373"/><path data-name="Path 313" d="m185.631 95.46 1.363-3.374"/><path data-name="Path 292" d="m125.584 71.203 1.363-3.373"/><path data-name="Path 296" d="m149.603 80.905 1.363-3.373"/><path data-name="Path 304" d="m173.622 90.608 1.363-3.373"/><path data-name="Path 312" d="m197.64 100.31 1.363-3.373"/><path data-name="Path 286" d="m105.25 61.028.735-1.82"/><path data-name="Path 300" d="m129.268 70.73.735-1.82"/><path data-name="Path 308" d="m153.286 80.433.735-1.82"/><path data-name="Path 316" d="m177.305 90.135.736-1.82"/><path data-name="Path 289" d="m117.259 65.879.735-1.82"/><path data-name="Path 293" d="m141.278 75.582.735-1.82"/><path data-name="Path 301" d="m165.296 85.284.736-1.82"/><path data-name="Path 309" d="m189.314 94.987.736-1.82"/><path data-name="Path 287" d="m111.254 63.453.735-1.82"/><path data-name="Path 298" d="m135.273 73.156.736-1.82"/><path data-name="Path 306" d="m159.292 82.858.735-1.82"/><path data-name="Path 314" d="m183.31 92.56.735-1.82"/><path data-name="Path 291" d="m123.263 68.305.735-1.82"/><path data-name="Path 295" d="m147.282 78.007.736-1.82"/><path data-name="Path 303" d="m171.3 87.71.736-1.82"/><path data-name="Path 311" d="m195.32 97.412.734-1.82"/><path data-name="Path 317" d="m201.324 99.838.736-1.82"/></g></g><g data-name="Group 143" fill="none"><g data-name="Rectangle 127" stroke="#4f5052" stroke-linejoin="round" stroke-width="2"><path d="m287.378 88.325-16.604-14.433 57.734-66.415 16.603 14.434z" stroke="none"/><path d="m287.28 86.914-15.095-13.12 56.421-64.906L343.7 22.01z"/></g><path data-name="Path 319" d="m274.609 75.553 56.067-64.497" stroke="#4f5052" stroke-width="2"/><g data-name="Group 155" stroke="#4f5052" stroke-width="2"><path data-name="Path 320" d="m283.32 82.522 55.63-63.992"/><path data-name="Path 321" d="m290.453 83.552-9.962-8.66"/><path data-name="Path 325" d="m297.627 75.299-9.962-8.66"/><path data-name="Path 328" d="m304.802 67.047-9.962-8.66"/><path data-name="Path 331" d="m311.975 58.793-9.962-8.66"/><path data-name="Path 334" d="m319.149 50.54-9.962-8.66"/><path data-name="Path 337" d="m326.323 42.288-9.962-8.66"/><path data-name="Path 340" d="m333.497 34.035-9.962-8.66"/><path data-name="Path 343" d="m338.28 28.533-9.963-8.66"/><path data-name="Path 322" d="m292.844 80.8-4.468-3.884"/><path data-name="Path 326" d="m300.018 72.548-4.468-3.885"/><path data-name="Path 329" d="m307.193 64.296-4.469-3.885"/><path data-name="Path 332" d="m314.366 56.042-4.468-3.884"/><path data-name="Path 335" d="m321.54 47.79-4.468-3.885"/><path data-name="Path 338" d="m328.714 39.537-4.468-3.885"/><path data-name="Path 341" d="M335.888 31.284 331.42 27.4"/><path data-name="Path 344" d="m340.671 25.782-4.469-3.884"/><path data-name="Path 323" d="m295.236 78.05-4.469-3.885"/><path data-name="Path 324" d="m302.41 69.798-4.469-3.884"/><path data-name="Path 327" d="m309.584 61.544-4.469-3.884"/><path data-name="Path 330" d="m316.757 53.292-4.469-3.884"/><path data-name="Path 333" d="m323.93 45.038-4.468-3.884"/><path data-name="Path 336" d="m331.106 36.786-4.469-3.884"/></g><g data-name="Path 345" stroke-linejoin="round"><path d="m294.858 91.915 52.484-60.377a40 40 0 0 1-52.484 60.377Z"/><path d="M297.713 91.679a37.666 37.666 0 0 0 11.578 6.177 37.876 37.876 0 0 0 14.46 1.778 37.876 37.876 0 0 0 26.028-12.977 37.876 37.876 0 0 0 9.228-27.581 37.876 37.876 0 0 0-3.773-14.072 37.666 37.666 0 0 0-7.728-10.606l-49.793 57.28m-2.855.237 52.484-60.377c16.673 14.493 18.44 39.758 3.946 56.43-14.493 16.673-39.758 18.44-56.43 3.947Z" fill="#4f5052"/></g><g data-name="Rectangle 128" stroke="#4f5052" stroke-linejoin="round" stroke-width="2"><path d="m346.073 86.347-22.641-19.681 3.28-3.774 22.641 19.682z" stroke="none"/><path d="m345.974 84.937-21.132-18.37 1.968-2.264 21.132 18.37z"/></g><path data-name="Path 346" d="M343.321 83.217s-18.061 14.144-34.338 5.415l17.46-20.086" stroke="#4f5052" stroke-linejoin="round" stroke-width="2"/><path data-name="Path 347" d="M346.14 79.976s11.492-19.854.582-34.757l-17.46 20.085" stroke="#4f5052" stroke-linejoin="round" stroke-width="2"/><path data-name="Path 348" d="m302.643 95.925 6.51-7.489" stroke="#4f5052" stroke-width="2"/><path data-name="Path 349" d="m346.265 45.744 6.51-7.489" stroke="#4f5052" stroke-width="2"/><path data-name="Path 350" d="m314.886 100.572 2.093-9.22" stroke="#4f5052" stroke-width="2"/><path data-name="Path 354" d="m359.223 49.324-8.84 3.356" stroke="#4f5052" stroke-width="2"/><path data-name="Path 351" d="m328.216 100.594-.791-9.328" stroke="#4f5052" stroke-width="2"/><path data-name="Path 355" d="m361.1 62.522-9.348.514" stroke="#4f5052" stroke-width="2"/><path data-name="Path 352" d="m340.99 95.551-4.238-7.803" stroke="#4f5052" stroke-width="2"/><path data-name="Path 356" d="m357.883 75.874-8.317-3.111" stroke="#4f5052" stroke-width="2"/><path data-name="Path 353" d="m350.911 87.64-3.71-3.225" stroke="#4f5052" stroke-width="2"/><path data-name="Path 357" d="m345.411 79.641-2.55 2.933" stroke="#4f5052" stroke-width="2"/><path data-name="Path 358" d="m331.826 67.832-2.55 2.933" stroke="#4f5052" stroke-width="2"/></g><g data-name="Ellipse 34" transform="translate(225.577 128.136)" fill="none" stroke="#4f5052" stroke-linejoin="round" stroke-width="2"><circle cx="19.5" cy="19.5" r="19.5" stroke="none"/><circle cx="19.5" cy="19.5" r="18.5"/></g><g data-name="Ellipse 36" transform="translate(220.577 123.136)" fill="none" stroke="#4f5052" stroke-linejoin="round" stroke-width="2"><circle cx="24.5" cy="24.5" r="24.5" stroke="none"/><circle cx="24.5" cy="24.5" r="23.5"/></g><path data-name="Path 359" d="m227.834 164.636-3.012 4" fill="none" stroke="#4f5052" stroke-width="2"/><path data-name="Path 360" d="m234.833 169.632-3.012 4" fill="none" stroke="#4f5052" stroke-width="2"/><path data-name="Path 361" d="m210.039 184.995 14.136-16.744 8.548 6.219-6.783 10.525" fill="none" stroke="#4f5052" stroke-linejoin="round" stroke-width="2"/><path data-name="Path 362" d="M257.821 144.212c.108-.676 1.15-3.745 2.656-3.188s1.22 4.382.565 5.171-3.1 1.584-3.222 0a5.114 5.114 0 0 1 .001-1.983Z" fill="none" stroke="#4f5052" stroke-linejoin="round" stroke-width="2"/><path data-name="Path 363" d="M239.534 151.449c8.727-.8 7.545.695 13.764-2.9s4.053 5.187 2 6.74-6.765 6.65-18.894 1.576c-.001-.003-5.597-4.614 3.13-5.416Z" fill="none" stroke="#4f5052" stroke-linejoin="round" stroke-width="2"/><g data-name="Group 145" fill="none" stroke="#4f5052" stroke-width="2"><path data-name="Path 364" d="M425.831 1.932s1.482 7.9-15.476 34.047"/><path data-name="Path 365" d="M407.096 1.806s-7.576 14.29-10.979 26.761"/><path data-name="Path 366" d="M394.957 30.834c2.567 1.055 10.563.36 13.443 6.844 0 0 3.423 1.853 1.587-2.683s-11.21-7.224-14.546-6.216c-.001 0-3.051 1-.484 2.055Z" stroke-linejoin="round"/><path data-name="Path 367" d="M408.815 38.053s-8.071 19.029-16.646 29.1a8.778 8.778 0 0 0-9.314-4.265s5.666-21.909 12.561-31.719" stroke-linejoin="round"/><path data-name="Path 368" d="M383.617 60.053s8.055-.82 10.073 4.747"/><path data-name="Path 369" d="M385.24 63.178s-1.452 3.013-6 7.128c0 0 1.988 8.523.429 13.558 0 0 4.293-7.212 9.076-9.824a13.635 13.635 0 0 1 1.3-9.221" stroke-linejoin="round"/><g data-name="Ellipse 37" transform="translate(381.54 71.163)" stroke-linejoin="round"><circle cx="2" cy="2" r="2" stroke="none"/><circle cx="2" cy="2" r="1"/></g><path data-name="Path 370" d="m380.52 81.637 2.431-7.285" stroke-width="2.001"/><path data-name="Path 371" d="M410.34 1.806s-7.538 10.458-8.7 21.746c0 0 .927 2.12 2.27-.673 0 0 5.492-17.463 12.075-21.327" stroke-linejoin="round"/><path data-name="Path 372" d="M403.27 23.901s11.856-21.669 13.132-22.515"/></g><g data-name="Group 146" fill="none" stroke="#4f5052" stroke-linejoin="round" stroke-width="2"><g data-name="Ellipse 38" transform="translate(315.35 114.211)"><ellipse cx="10.5" cy="32.5" rx="10.5" ry="32.5" stroke="none"/><ellipse cx="10.5" cy="32.5" rx="9.5" ry="31.5"/></g><g data-name="Ellipse 39" transform="rotate(60 69.197 362.867)"><ellipse cx="10.488" cy="32.375" rx="10.488" ry="32.375" stroke="none"/><ellipse cx="10.488" cy="32.375" rx="9.488" ry="31.375"/></g><g data-name="Ellipse 40" transform="rotate(-60 267.348 -183.715)"><ellipse cx="10.488" cy="32.375" rx="10.488" ry="32.375" stroke="none"/><ellipse cx="10.488" cy="32.375" rx="9.488" ry="31.375"/></g></g><g data-name="Group 147" stroke="#4f5052" stroke-width="2"><path data-name="Path 373" d="m396.515 185.098-24.223-72.94V97.497l8.983 11.032 24.936 76.569" fill="none" stroke-linejoin="round"/><path data-name="Path 374" d="m372.438 101.52 1.84-.873-1.507-1.84Z" fill="#707070" stroke-linejoin="round"/><path data-name="Path 375" d="M372.439 110.675s1.7-.564 1.97.453c0 0 1.551-2.853 4.105-1.512 0 0 .831-2 2.514-1.009" fill="none" stroke-linejoin="round"/><path data-name="Path 376" d="m374.479 111.137 24.914 73.879" fill="none"/><path data-name="Path 377" d="m378.493 109.73 24.854 75.135" fill="none"/></g><g data-name="Group 148" fill="none" stroke="#4f5052" stroke-width="2"><path data-name="Path 378" d="m495.354 60.417-18.488-17.073s-19.99-4.221-27.71 17.073c0 0-19.874-4.08-30.622 13.222l32.751 27.376s13.777-17.236 25.581-14.53c0 0 12.037-13.931 18.488-12.845" stroke-linejoin="round"/><path data-name="Path 379" d="M495.354 76.228s-15.771 6.963-18.157 11.055c0 0-10.96 2.757-25.538 13.881 0 0-31.775-22.463-33.437-21.577s.722-5.208 1.67-5.208" stroke-linejoin="round"/><path data-name="Path 380" d="m449.196 60.706 27.847 25.711"/><path data-name="Path 381" d="M421.934 76.315s8.832-14.978 28.9-13.533"/><path data-name="Path 382" d="M427.061 80.528s7.781-12.641 26.693-15.244"/><path data-name="Path 383" d="M431.214 84.092s10.432-12.4 25.782-15.953"/><path data-name="Path 384" d="M435.628 87.771s11.339-12.863 24.91-16.286"/><path data-name="Path 385" d="M440.407 92.011s16-16.45 25.487-15.524"/><path data-name="Path 386" d="M445.715 95.954s13.061-14.191 24.556-15.239"/><path data-name="Path 387" d="M452.072 62.683s8.615-15.791 27.9-16.038"/><path data-name="Path 388" d="M455.568 66.206s12.295-15.878 27.659-16.6"/><path data-name="Path 389" d="M459.704 69.499s13.667-17 27.1-16.774"/><path data-name="Path 390" d="M463.119 73.561s13.189-17.27 27.536-17.2"/><path data-name="Path 391" d="M469.398 78.754s7.5-15.036 24.986-18.647"/><path data-name="Path 392" d="M473.256 82.546s10.531-16.11 22.448-17.646"/></g><g data-name="Group 149" fill="none" stroke="#4f5052" stroke-width="2"><path data-name="Path 393" d="M412.823 115.904s21.372-16.356 45.5-1.814c0 0 16.712 11.514-1.7 20.285 0 0-12.531-2.319-12.17 10.424s-13.017 14.216-19.283 13.173-36.254-13.378-13.989-40.751Z" stroke-linejoin="round"/><path data-name="Path 394" d="M439.776 117.599c-.625-.958 1.787-3.054 5.283-1.625s-.788 8.527-3.924 4.559-.734-1.976-1.359-2.934Z" stroke-linejoin="round"/><path data-name="Path 395" d="M454.634 124.176s-5.894 3.259-3-3.592 4.417.394 3.888 1.276a10.538 10.538 0 0 0-.888 2.316Z" stroke-linejoin="round"/><path data-name="Path 396" d="M430.863 117.666c.039-1.087 1.007-2.49 4.334-1.309s-.782 5.61-2.61 4.391-1.763-1.995-1.724-3.082Z" stroke-linejoin="round"/><path data-name="Path 397" d="M419.73 119.562c-.414-1.774-1.042-5.995 4.8-3.36s1.723 9.017 0 8.612-4.39-3.477-4.8-5.252Z" stroke-linejoin="round"/><path data-name="Path 398" d="M435.14 131.192c.427-3.4.658-5.231 6.572-4.959s.522 9.345-1.21 8.1-5.787.258-5.362-3.141Z" stroke-linejoin="round"/><path data-name="Path 399" d="M433.653 146.299s1.926-3.761 5.82-2.451-.272 6.877-2.035 6.1-3.651 1.051-3.785-2.418 0-1.231 0-1.231Z" stroke-linejoin="round"/><path data-name="Path 400" d="M408.233 126.206c.469-1.448 1.469-5.5 8.3-1.547 0 0 4.741 8.457 0 6.666s-2.15-3.595-6.968-2.766c-.003.001-1.8-.905-1.332-2.353Z" stroke-linejoin="round"/><path data-name="Path 401" d="M409.74 135.737c.906-1.186 3.213-3.154 5.185 0 0 0 .429 1.992 4.337 1.887 0 0 2.486 3.718.764 6.561s-8.857 3.313-10.285-3.808c-.001.003-.91-3.451-.001-4.64Z" stroke-linejoin="round"/><path data-name="Path 402" d="M424.661 146.796c-.162-.78.739-5.664 3.537-3.94 0 0 2.675 8.836-2.729 10.264 0 0-4.041-1.311-1.776-4.22-.001 0 1.13-1.324.968-2.104Z" stroke-linejoin="round"/><path data-name="Path 403" d="M463.74 151.969c.512-.656 12.6 3.412 22.394 26.678 0 0 .532 7.354-5.28 2.719s-14.887-20.33-17.113-27.147c-.001.001-.513-1.594-.001-2.25Z" stroke-linejoin="round"/><path data-name="Path 404" d="M463.513 153.12s-8.471 5.453-10.384-9.208c0 0 12.828.523 11.455 7.661" stroke-linejoin="round"/><path data-name="Path 405" d="M453.129 143.571s5.272 8.678 9.869 9.162"/><path data-name="Path 406" d="M453.233 144.298s8.292 2.969 10.285 7.347"/></g><g data-name="Group 150" fill="none" stroke="#4f5052" stroke-width="2"><path data-name="Path 407" d="M242.675 1.77s-11.677 6.537-6.3 23.344a24.842 24.842 0 0 0 8.353 11.561s4.624 4.284 4.536 13.558h10.229s-.5-12.122 3.55-15.407c0 0 8.161-7.614 8.066-16.616 0 0 1.374-12.612-5.267-16.439" stroke-linejoin="round"/><path data-name="Path 408" d="M250.329 50.233v7.073h7.131v-7.073" stroke-linejoin="round"/><path data-name="Path 409" d="m250.329 57.306 1.044 2.765h4.778l1-2.765" stroke-linejoin="round"/><path data-name="Path 410" d="M253.096 60.071v1.582h2.271v-1.582" stroke-linejoin="round"/><path data-name="Path 411" d="M253.096 50.233s.34-31.351-8.2-32.2c0 0-4.389 1.749 0 3.066s5.446-4.184 5.446-4.184.306-3.885-2.517-2c0 0-3.271 2.305 4.169 5.632 0 0 5.148.6 5.331-3.022 0 0 .519-4-1.2-3.572s-1.566 3.572-1.566 3.572-.393 4.176 3.959 3.022c0 0 4.214-.079 4.294-2.513 0 0-.29-3.34-2.949-1.118s-4.567 33.319-4.567 33.319" stroke-linejoin="round"/><path data-name="Path 412" d="M250.329 52.282h6.859"/><path data-name="Path 413" d="M250.329 54.545h6.657"/></g><g data-name="Group 151" fill="none" stroke="#4f5052" stroke-width="2"><path data-name="Path 414" d="m2.771 155.788 9.082 10.836 12.652-10.836s5.029-5.57 0-10.1-9.881 0-9.881 0Z" stroke-linejoin="round"/><path data-name="Path 415" d="m1.412 171.849 8.7-7.186"/><path data-name="Path 416" d="m1.412 161.653 3.509-3.011"/><path data-name="Path 417" d="M3.165 162.523a29.2 29.2 0 0 0 6.462 2.364"/><path data-name="Path 418" d="M1.412 164.888a18.988 18.988 0 0 0 4.374 2.577"/><g data-name="Ellipse 41" transform="translate(12.612 149.136)" stroke-linejoin="round"><circle cx="4" cy="4" r="4" stroke="none"/><circle cx="4" cy="4" r="3"/></g><path data-name="Path 419" d="M12.612 153.136h7.14"/><path data-name="Path 420" d="m16.182 144.672 27.135-30.876s3.5-.3 4.021 3.04" stroke-linejoin="round"/><path data-name="Path 421" d="M44.212 120.689c.1-.151.239-1.1.316-1.348a2.482 2.482 0 0 1 2.955-2.024c2.856.684-1.165 4.792-2.139 4.127s-1.232-.608-1.132-.755Z" stroke-linejoin="round"/><path data-name="Path 422" d="m22.903 144.672 21.416-23.957"/><path data-name="Path 423" d="m44.319 113.459 7.633-5.861-4.773 8.446" stroke-linejoin="round"/><g data-name="Ellipse 42" transform="translate(59.612 139.136)" stroke-linejoin="round"><circle cx="2" cy="2" r="2" stroke="none"/><circle cx="2" cy="2" r="1"/></g><g data-name="Ellipse 43" transform="translate(56.612 136.136)" stroke-linejoin="round"><circle cx="5" cy="5" r="5" stroke="none"/><circle cx="5" cy="5" r="4"/></g><path data-name="Path 424" d="m59.812 145.464 2.472 5.93 5.3-2.433-2.226-4.809" stroke-linejoin="round"/><path data-name="Path 425" d="m62.167 150.782-6.791 3.284-2.437-5.44 7.02-2.645" stroke-linejoin="round"/><path data-name="Path 426" d="m67.582 148.436 4.1-1.976-2.044-4.184-4.494 2" stroke-linejoin="round"/><path data-name="Path 427" d="M69.602 142.273h5.917l-3.8 4.135" stroke-linejoin="round"/><path data-name="Path 428" d="m73.419 142.273.622 1.252"/><path data-name="Path 429" d="m26.741 149.136 30.614-9.689"/><path data-name="Path 430" d="m24.601 155.788 33.521-11.452"/></g><g data-name="Group 153" stroke="#4f5052" stroke-linejoin="round" stroke-width="2"><path data-name="Path 431" d="m110.574 1.77 8.032 18.584s6.326 4.6 10.581-3.18l-5.839-15.4" fill="none"/><path data-name="Path 432" d="m119.006 20.74 11.371 13.868-1.029-17.235" fill="none"/><path data-name="Path 433" d="m126.138 29.201 3.055-1.206v4.335Z" fill="#707070"/></g><g data-name="Group 220" fill="none" stroke="#4f5052" stroke-width="2"><g data-name="Ellipse 84" transform="translate(434.801 19.096)" stroke-linejoin="round"><circle cx="8.999" cy="8.999" r="8.999" stroke="none"/><circle cx="8.999" cy="8.999" r="7.999"/></g><g data-name="Ellipse 85" transform="translate(460.513 17.811)" stroke-linejoin="round"><circle cx="8.999" cy="8.999" r="8.999" stroke="none"/><circle cx="8.999" cy="8.999" r="7.999"/></g><path data-name="Path 996" d="m453.41 27.79 6.933-.562"/><path data-name="Path 997" d="M440.537 20.55 451.292 7.7s1.967-1.621 3.46 0" stroke-linejoin="round"/><path data-name="Path 998" d="m475.145 19.508 9.647-11.188s1.966-1.621 3.46 0" stroke-linejoin="round"/></g></g></svg>