<svg xmlns="http://www.w3.org/2000/svg" width="496.896" height="186.752"><path data-name="Path 519" d="M.576.348h496.072v186.027H.576Z" fill="#fffdf7"/><g data-name="Group 282" opacity=".603" fill="#3cb7c5" transform="translate(-711.388 -1518.837)"><path data-name="Path 1628" d="m818.433 1595.636-20.2 47.344 102.85-13.937Z"/><circle data-name="Ellipse 222" cx="19.5" cy="19.5" r="19.5" transform="translate(950 1522)"/><circle data-name="Ellipse 223" cx="23" cy="23" r="23" transform="translate(1017 1647)"/><path data-name="Rectangle 290" d="m1129.173 1580.729 44.096-27.56 27.56 44.096-44.096 27.56z"/><path data-name="Polygon 12" d="m1074.191 1614.333-64.668-12.49 43.3-49.81Z"/></g><g data-name="Group 283" stroke-linecap="round"><g data-name="Group 140" fill="none" stroke="#4f5052" stroke-width="2"><path data-name="Path 254" d="M88.833 1.579 54.648 41.822l-11.251 1.239-6.425 7.978" stroke-linejoin="round"/><path data-name="Path 255" d="M30.712 47.334 80.237 1.579"/><path data-name="Path 256" d="M43.728 35.472 52.47 1.717"/><path data-name="Path 257" d="m58.77 21.615 3.872-19.934"/><path data-name="Path 258" d="m53.679 42.135-3.351 16.949"/><path data-name="Path 259" d="m43.728 55.013 4.249-9.906-1.572-2.359" stroke-linejoin="round"/><path data-name="Path 260" d="M51.032 94.68c6.095-8.7 3.358-29.64 1.913-32.864s-10.474-7.2-10.474-7.2L28.396 94.677s16.541 8.7 22.636.003Z" stroke-linejoin="round"/><path data-name="Path 261" d="M1.41 77.614s3.015 6.423 8.864 9.576"/><path data-name="Path 262" d="M1.779 63.144s18.634-19.15 26.484-16.472 8.919 4.977 8.919 4.977L10.021 87.537" stroke-linejoin="round"/><path data-name="Path 263" d="M7.847 66.021a73.731 73.731 0 0 1 13.532-11.206c2.642-1.461 5.333 2.654 5.333 2.654L12.237 74.683s-7.982-4.613-4.39-8.662Z" stroke-linejoin="round"/><path data-name="Path 264" d="m37.182 88.08 7.6-20.473s4.4-1.006 4.432 3.98-.207 13.857-2.938 17.177-9.094-.684-9.094-.684Z" stroke-linejoin="round"/><g data-name="Ellipse 31" transform="translate(48.612 32.163)" stroke-linejoin="round"><circle cx="3" cy="3" r="3" stroke="none"/><circle cx="3" cy="3" r="2"/></g></g><g data-name="Group 139" fill="none" stroke="#4f5052" stroke-width="2"><path data-name="Path 265" d="m167.605 31.784 16.167 18.436 50.605 41.433h4.146" stroke-linejoin="round"/><path data-name="Path 266" d="m238.524 86.614-28.2-21.912h-4.254l-3.554-6.386-32.681-27.868-1.919 1.747" stroke-linejoin="round"/><path data-name="Path 267" d="m169.593 30.446-7.636-7.9 6.562 8.828" stroke-linejoin="round"/><path data-name="Path 268" d="M247.454 79.135v-1.481l-41.895-39.108-4.086 4.082 10.144 8.891 4.358 2.484 1.8 3.829 24.142 23.37" stroke-linejoin="round"/><path data-name="Path 269" d="m193.397 36.703 4.592-5.29-17.143-12.778-4.21 3.584Z" stroke-linejoin="round"/><path data-name="Path 270" d="m204.37 39.971-7.753-6.834"/><path data-name="Path 271" d="m202.484 41.396-7.588-6.642"/><path data-name="Path 272" d="m176.391 22.184-.322-2.2 2.07-1.937 2.7.638" stroke-linejoin="round"/><path data-name="Path 273" d="m176.068 19.692-6.725-4.8s-1.2-2.328 1.531-1.735" stroke-linejoin="round"/><path data-name="Path 274" d="m177.437 18.296-6.753-5.2"/><path data-name="Path 275" d="M238.524 93.332V81.865l11.758-2.662 14.756 12.247-10.49 14.628Z" stroke-linejoin="round"/><path data-name="Path 276" d="m261.603 96.665 13.847 12.243s2.142 2.266.417 4.464-4.434-.481-4.434-.481l-13.575-11.214" stroke-linejoin="round"/></g><g data-name="Group 141" fill="none" stroke-linejoin="round"><path data-name="Path 277" d="m34.525 184.785 127.71-59.417 23.2 59.417" stroke="#4f5052" stroke-width="2"/><path data-name="Path 278" d="m190.234 184.785-22.1-56.447-5.716-2.993" stroke="#4f5052" stroke-width="2"/><g data-name="Ellipse 32" transform="translate(131.612 140.163)" stroke="#4f5052" stroke-width="2"><circle cx="13.5" cy="13.5" r="13.5" stroke="none"/><circle cx="13.5" cy="13.5" r="12.5"/></g><g data-name="Ellipse 33" transform="translate(97.612 155.163)" stroke="#4f5052" stroke-width="2"><circle cx="13.5" cy="13.5" r="13.5" stroke="none"/><circle cx="13.5" cy="13.5" r="12.5"/></g><g data-name="Path 281"><path d="M160.112 176.163a13.6 13.6 0 0 1 12.78 9.138c.43 1.162-26.048 1.494-25.521-.112a13.411 13.411 0 0 1 12.741-9.026Z"/><path d="M160.112 178.163a11.54 11.54 0 0 0-6.82 2.212 11.28 11.28 0 0 0-3.197 3.569c1.723.18 4.746.341 9.24.341 4.76 0 8.528-.175 10.699-.372-2.095-3.553-5.793-5.75-9.922-5.75m0-2c5.823 0 10.785 3.687 12.78 9.138.43 1.164-26.048 1.494-25.521-.112 1.665-5.119 6.747-9.026 12.741-9.026Z" fill="#4f5052"/></g><g data-name="Path 280"><path d="M78.112 169.163a13.5 13.5 0 0 1 13.5 13.5 28.126 28.126 0 0 1-.346 3.049l-26.389-.374a22.018 22.018 0 0 1-.265-2.675 13.5 13.5 0 0 1 13.5-13.5Z"/><path d="M78.112 171.163c-3.072 0-5.96 1.196-8.132 3.368a11.425 11.425 0 0 0-3.368 8.132c0 .2.014.444.036.7l22.882.324c.049-.421.082-.798.082-1.024 0-3.072-1.196-5.96-3.368-8.132a11.425 11.425 0 0 0-8.132-3.368m0-2c7.456 0 13.5 6.044 13.5 13.5 0 .94-.346 3.049-.346 3.049l-26.389-.374s-.265-1.654-.265-2.675c0-7.456 6.044-13.5 13.5-13.5Z" fill="#4f5052"/></g><path data-name="Path 279" d="m113.912 184.785 56.016-22.631 1.731 4.183-48.855 19.119" stroke="#4f5052" stroke-width="2"/></g><g data-name="Group 142" fill="none" stroke="#4f5052" stroke-width="2"><path data-name="Path 282" d="m105.247 55.304-26.179 64.91 136.364-19.73Z" stroke-linejoin="round"/><path data-name="Path 283" d="m112.944 73.374-12.488 30.28 62.726-9.036Z" stroke-linejoin="round"/><g data-name="Group 152"><path data-name="Path 284" d="m103.873 57.924 105.883 43.398"/><path data-name="Path 285" d="m107.566 63.937 1.363-3.374"/><path data-name="Path 299" d="m131.584 73.641 1.364-3.374"/><path data-name="Path 307" d="m155.604 83.346 1.363-3.374"/><path data-name="Path 315" d="m179.624 93.05 1.363-3.374"/><path data-name="Path 290" d="m119.575 68.79 1.363-3.375"/><path data-name="Path 294" d="m143.594 78.494 1.363-3.374"/><path data-name="Path 302" d="m167.614 88.198 1.363-3.374"/><path data-name="Path 310" d="m191.633 97.902 1.363-3.374"/><path data-name="Path 288" d="m113.571 66.364 1.363-3.375"/><path data-name="Path 297" d="m137.59 76.068 1.363-3.374"/><path data-name="Path 305" d="m161.609 85.772 1.363-3.374"/><path data-name="Path 313" d="m185.627 95.476 1.363-3.374"/><path data-name="Path 292" d="m125.58 71.215 1.363-3.374"/><path data-name="Path 296" d="m149.599 80.92 1.363-3.374"/><path data-name="Path 304" d="m173.618 90.624 1.364-3.374"/><path data-name="Path 312" d="m197.638 100.329 1.363-3.374"/><path data-name="Path 286" d="m105.245 61.038.735-1.82"/><path data-name="Path 300" d="m129.264 70.742.735-1.82"/><path data-name="Path 308" d="m153.282 80.446.736-1.82"/><path data-name="Path 316" d="m177.303 90.151.735-1.82"/><path data-name="Path 289" d="m117.254 65.89.735-1.82"/><path data-name="Path 293" d="m141.273 75.594.736-1.82"/><path data-name="Path 301" d="m165.293 85.299.735-1.82"/><path data-name="Path 309" d="m189.312 95.003.735-1.82"/><path data-name="Path 287" d="m111.25 63.464.735-1.82"/><path data-name="Path 298" d="m135.269 73.168.735-1.82"/><path data-name="Path 306" d="m159.288 82.872.735-1.82"/><path data-name="Path 314" d="m183.306 92.577.736-1.82"/><path data-name="Path 291" d="m123.26 68.316.735-1.82"/><path data-name="Path 295" d="m147.279 78.02.735-1.82"/><path data-name="Path 303" d="m171.298 87.725.735-1.82"/><path data-name="Path 311" d="m195.316 97.429.736-1.82"/><path data-name="Path 317" d="m201.322 99.855.735-1.82"/></g></g><g data-name="Group 143" fill="none"><g data-name="Rectangle 127" stroke="#4f5052" stroke-linejoin="round" stroke-width="2"><path d="m287.428 88.325-16.603-14.433 57.733-66.415 16.603 14.434z" stroke="none"/><path d="m287.33 86.914-15.095-13.12 56.421-64.906 15.095 13.121z"/></g><path data-name="Path 319" d="m274.66 75.553 56.066-64.497" stroke="#4f5052" stroke-width="2"/><g data-name="Group 155" stroke="#4f5052" stroke-width="2"><path data-name="Path 320" d="M283.371 82.522 339 18.529"/><path data-name="Path 321" d="m290.503 83.552-9.963-8.66"/><path data-name="Path 325" d="m297.677 75.3-9.963-8.66"/><path data-name="Path 328" d="m304.851 67.047-9.962-8.66"/><path data-name="Path 331" d="m312.025 58.793-9.962-8.66"/><path data-name="Path 334" d="m319.199 50.541-9.963-8.66"/><path data-name="Path 337" d="m326.373 42.289-9.963-8.66"/><path data-name="Path 340" d="m333.547 34.036-9.963-8.66"/><path data-name="Path 343" d="m338.33 28.533-9.962-8.66"/><path data-name="Path 322" d="m292.891 80.804-4.468-3.884"/><path data-name="Path 326" d="m300.065 72.552-4.468-3.885"/><path data-name="Path 329" d="m307.24 64.3-4.469-3.885"/><path data-name="Path 332" d="m314.414 56.045-4.469-3.884"/><path data-name="Path 335" d="m321.587 47.793-4.468-3.884"/><path data-name="Path 338" d="m328.761 39.54-4.468-3.884"/><path data-name="Path 341" d="m335.935 31.288-4.468-3.885"/><path data-name="Path 344" d="m340.719 25.785-4.469-3.884"/><path data-name="Path 323" d="m295.283 78.053-4.468-3.885"/><path data-name="Path 324" d="m302.457 69.801-4.468-3.884"/><path data-name="Path 327" d="m309.631 61.547-4.468-3.884"/><path data-name="Path 330" d="m316.805 53.295-4.469-3.884"/><path data-name="Path 333" d="m323.979 45.041-4.47-3.884"/><path data-name="Path 336" d="m331.153 36.789-4.468-3.885"/></g><g data-name="Path 345" stroke-linejoin="round"><path d="m294.908 91.915 52.485-60.377a40 40 0 0 1-52.485 60.377Z"/><path d="M297.763 91.679a37.666 37.666 0 0 0 11.578 6.177 37.876 37.876 0 0 0 14.46 1.778 37.876 37.876 0 0 0 26.028-12.977 37.876 37.876 0 0 0 9.228-27.581 37.876 37.876 0 0 0-3.772-14.072 37.666 37.666 0 0 0-7.729-10.606l-49.793 57.28m-2.855.237 52.485-60.377c16.672 14.493 18.439 39.758 3.946 56.43-14.494 16.673-39.759 18.44-56.431 3.947Z" fill="#4f5052"/></g><g data-name="Rectangle 128" stroke="#4f5052" stroke-linejoin="round" stroke-width="2"><path d="m346.123 86.347-22.641-19.682 3.28-3.773 22.641 19.682z" stroke="none"/><path d="m346.024 84.936-21.131-18.37 1.968-2.263 21.132 18.37z"/></g><path data-name="Path 346" d="M343.372 83.217s-18.062 14.144-34.338 5.415l17.46-20.086" stroke="#4f5052" stroke-linejoin="round" stroke-width="2"/><path data-name="Path 347" d="M346.19 79.976s11.492-19.854.582-34.757l-17.46 20.085" stroke="#4f5052" stroke-linejoin="round" stroke-width="2"/><path data-name="Path 348" d="m302.693 95.925 6.51-7.489" stroke="#4f5052" stroke-width="2"/><path data-name="Path 349" d="m346.315 45.745 6.51-7.49" stroke="#4f5052" stroke-width="2"/><path data-name="Path 350" d="m314.933 100.575 2.094-9.22" stroke="#4f5052" stroke-width="2"/><path data-name="Path 354" d="m359.273 49.324-8.839 3.356" stroke="#4f5052" stroke-width="2"/><path data-name="Path 351" d="m328.266 100.594-.79-9.328" stroke="#4f5052" stroke-width="2"/><path data-name="Path 355" d="m361.15 62.522-9.347.514" stroke="#4f5052" stroke-width="2"/><path data-name="Path 352" d="m341.039 95.55-4.238-7.804" stroke="#4f5052" stroke-width="2"/><path data-name="Path 356" d="m357.933 75.871-8.318-3.11" stroke="#4f5052" stroke-width="2"/><path data-name="Path 353" d="m350.963 87.64-3.711-3.227" stroke="#4f5052" stroke-width="2"/><path data-name="Path 357" d="m345.46 79.641-2.55 2.933" stroke="#4f5052" stroke-width="2"/><path data-name="Path 358" d="m331.875 67.832-2.55 2.933" stroke="#4f5052" stroke-width="2"/></g><g data-name="Ellipse 34" transform="translate(225.612 128.163)" fill="none" stroke="#4f5052" stroke-linejoin="round" stroke-width="2"><circle cx="19.5" cy="19.5" r="19.5" stroke="none"/><circle cx="19.5" cy="19.5" r="18.5"/></g><g data-name="Ellipse 36" transform="translate(220.612 123.163)" fill="none" stroke="#4f5052" stroke-linejoin="round" stroke-width="2"><circle cx="24.5" cy="24.5" r="24.5" stroke="none"/><circle cx="24.5" cy="24.5" r="23.5"/></g><path data-name="Path 359" d="m227.866 164.663-3.012 4" fill="none" stroke="#4f5052" stroke-width="2"/><path data-name="Path 360" d="m234.866 169.659-3.012 4" fill="none" stroke="#4f5052" stroke-width="2"/><path data-name="Path 361" d="m210.071 185.022 14.136-16.744 8.548 6.219-6.783 10.525" fill="none" stroke="#4f5052" stroke-linejoin="round" stroke-width="2"/><path data-name="Path 362" d="M257.858 144.233c.108-.676 1.15-3.745 2.656-3.188s1.22 4.382.565 5.171-3.1 1.584-3.222 0a5.114 5.114 0 0 1 .001-1.983Z" fill="none" stroke="#4f5052" stroke-linejoin="round" stroke-width="2"/><path data-name="Path 363" d="M239.569 151.476c8.727-.8 7.545.695 13.764-2.9s4.053 5.187 2 6.74-6.765 6.65-18.894 1.576c-.001-.003-5.597-4.614 3.13-5.416Z" fill="none" stroke="#4f5052" stroke-linejoin="round" stroke-width="2"/><g data-name="Group 145" fill="none" stroke="#4f5052" stroke-width="2"><path data-name="Path 364" d="M428.415-1.96s1.482 7.9-15.476 34.047"/><path data-name="Path 365" d="M407.168 1.806s-7.576 14.29-10.979 26.761"/><path data-name="Path 366" d="M395.029 30.834c2.567 1.055 10.563.36 13.443 6.844 0 0 3.423 1.853 1.587-2.683s-11.21-7.224-14.546-6.216c-.001 0-3.051 1-.484 2.055Z" stroke-linejoin="round"/><path data-name="Path 367" d="M408.887 38.053s-8.071 19.029-16.646 29.1a8.778 8.778 0 0 0-9.314-4.265s5.666-21.909 12.561-31.719" stroke-linejoin="round"/><path data-name="Path 368" d="M383.689 60.053s8.055-.82 10.073 4.747"/><path data-name="Path 369" d="M385.312 63.178s-1.452 3.013-6 7.128c0 0 1.988 8.523.429 13.558 0 0 4.293-7.212 9.076-9.824a13.635 13.635 0 0 1 1.3-9.221" stroke-linejoin="round"/><g data-name="Ellipse 37" transform="translate(381.612 71.163)" stroke-linejoin="round"><circle cx="2" cy="2" r="2" stroke="none"/><circle cx="2" cy="2" r="1"/></g><path data-name="Path 370" d="m385.279 80.426 2.43-7.285" stroke-width="2.001"/><path data-name="Path 371" d="M410.412 1.806s-7.538 10.458-8.7 21.746c0 0 .927 2.12 2.27-.673 0 0 5.492-17.463 12.075-21.327" stroke-linejoin="round"/><path data-name="Path 372" d="M403.342 23.901s11.856-21.669 13.132-22.515"/></g><g data-name="Group 146" fill="none" stroke="#4f5052" stroke-linejoin="round" stroke-width="2"><g data-name="Ellipse 38" transform="translate(315.399 114.237)"><ellipse cx="10.5" cy="32.5" rx="10.5" ry="32.5" stroke="none"/><ellipse cx="10.5" cy="32.5" rx="9.5" ry="31.5"/></g><g data-name="Ellipse 39" transform="rotate(60 69.2 362.923)"><ellipse cx="10.488" cy="32.375" rx="10.488" ry="32.375" stroke="none"/><ellipse cx="10.488" cy="32.375" rx="9.488" ry="31.375"/></g><g data-name="Ellipse 40" transform="rotate(-60 267.395 -183.745)"><ellipse cx="10.488" cy="32.375" rx="10.488" ry="32.375" stroke="none"/><ellipse cx="10.488" cy="32.375" rx="9.488" ry="31.375"/></g></g><g data-name="Group 147" stroke="#4f5052" stroke-width="2"><path data-name="Path 373" d="m396.572 185.124-24.223-72.94V97.523l8.983 11.032 24.936 76.569" fill="none" stroke-linejoin="round"/><path data-name="Path 374" d="m372.496 101.547 1.84-.874-1.507-1.84Z" fill="#707070" stroke-linejoin="round"/><path data-name="Path 375" d="M372.496 110.701s1.7-.564 1.97.453c0 0 1.551-2.853 4.105-1.512 0 0 .831-2 2.514-1.009" fill="none" stroke-linejoin="round"/><path data-name="Path 376" d="m374.536 111.163 24.914 73.879" fill="none"/><path data-name="Path 377" d="m378.55 109.756 24.854 75.135" fill="none"/></g><g data-name="Group 148" fill="none" stroke="#4f5052" stroke-width="2"><path data-name="Path 378" d="m495.425 60.426-18.488-17.073s-19.99-4.221-27.71 17.073c0 0-19.874-4.08-30.622 13.222l32.751 27.376s13.777-17.236 25.581-14.53c0 0 12.037-13.931 18.488-12.845" stroke-linejoin="round"/><path data-name="Path 379" d="M495.425 76.237s-15.771 6.963-18.157 11.055c0 0-10.96 2.757-25.538 13.881 0 0-31.775-22.463-33.437-21.577s.722-5.208 1.67-5.208" stroke-linejoin="round"/><path data-name="Path 380" d="m449.267 60.715 27.847 25.711"/><path data-name="Path 381" d="M422.005 76.324s8.832-14.978 28.9-13.533"/><path data-name="Path 382" d="M427.132 80.537s7.781-12.641 26.693-15.244"/><path data-name="Path 383" d="M431.285 84.101s10.432-12.4 25.782-15.953"/><path data-name="Path 384" d="M435.699 87.78s11.339-12.863 24.91-16.286"/><path data-name="Path 385" d="M440.478 92.02s16-16.45 25.487-15.524"/><path data-name="Path 386" d="M445.786 95.963s13.061-14.191 24.556-15.239"/><path data-name="Path 387" d="M452.143 62.692s8.615-15.791 27.9-16.038"/><path data-name="Path 388" d="M455.639 66.215s12.295-15.878 27.659-16.6"/><path data-name="Path 389" d="M459.775 69.508s13.667-17 27.1-16.774"/><path data-name="Path 390" d="M463.19 73.57s13.189-17.27 27.536-17.2"/><path data-name="Path 391" d="M469.469 78.763s7.5-15.036 24.986-18.647"/><path data-name="Path 392" d="M473.327 82.555s10.531-16.11 22.448-17.646"/></g><g data-name="Group 149" fill="none" stroke="#4f5052" stroke-width="2"><path data-name="Path 393" d="M412.895 115.93s21.372-16.356 45.5-1.814c0 0 16.712 11.514-1.7 20.285 0 0-12.531-2.319-12.17 10.424s-13.017 14.216-19.283 13.173-36.254-13.378-13.989-40.751Z" stroke-linejoin="round"/><path data-name="Path 394" d="M439.848 117.625c-.625-.958 1.787-3.054 5.283-1.625s-.788 8.527-3.924 4.559-.734-1.976-1.359-2.934Z" stroke-linejoin="round"/><path data-name="Path 395" d="M454.706 124.202s-5.894 3.259-3-3.592 4.417.394 3.888 1.276a10.538 10.538 0 0 0-.888 2.316Z" stroke-linejoin="round"/><path data-name="Path 396" d="M430.935 117.692c.039-1.087 1.007-2.49 4.334-1.309s-.782 5.61-2.61 4.391-1.763-1.995-1.724-3.082Z" stroke-linejoin="round"/><path data-name="Path 397" d="M419.802 119.588c-.414-1.774-1.042-5.995 4.8-3.36s1.723 9.017 0 8.612-4.39-3.477-4.8-5.252Z" stroke-linejoin="round"/><path data-name="Path 398" d="M435.212 131.218c.427-3.4.658-5.231 6.572-4.959s.522 9.345-1.21 8.1-5.787.258-5.362-3.141Z" stroke-linejoin="round"/><path data-name="Path 399" d="M433.725 146.325s1.926-3.761 5.82-2.451-.272 6.877-2.035 6.1-3.651 1.051-3.785-2.418 0-1.231 0-1.231Z" stroke-linejoin="round"/><path data-name="Path 400" d="M408.305 126.232c.469-1.448 1.469-5.5 8.3-1.547 0 0 4.741 8.457 0 6.666s-2.15-3.595-6.968-2.766c-.003.001-1.8-.905-1.332-2.353Z" stroke-linejoin="round"/><path data-name="Path 401" d="M409.812 135.763c.906-1.186 3.213-3.154 5.185 0 0 0 .429 1.992 4.337 1.887 0 0 2.486 3.718.764 6.561s-8.857 3.313-10.285-3.808c-.001.003-.91-3.451-.001-4.64Z" stroke-linejoin="round"/><path data-name="Path 402" d="M424.733 146.822c-.162-.78.739-5.664 3.537-3.94 0 0 2.675 8.836-2.729 10.264 0 0-4.041-1.311-1.776-4.22-.001 0 1.13-1.324.968-2.104Z" stroke-linejoin="round"/><path data-name="Path 403" d="M463.812 151.995c.512-.656 12.6 3.412 22.394 26.678 0 0 .532 7.354-5.28 2.719s-14.887-20.33-17.113-27.147c-.001.001-.513-1.594-.001-2.25Z" stroke-linejoin="round"/><path data-name="Path 404" d="M463.585 153.146s-8.471 5.453-10.384-9.208c0 0 12.828.523 11.455 7.661" stroke-linejoin="round"/><path data-name="Path 405" d="M453.201 143.597s5.272 8.678 9.869 9.162"/><path data-name="Path 406" d="M453.305 144.324s8.292 2.969 10.285 7.347"/></g><g data-name="Group 150" fill="none" stroke="#4f5052" stroke-width="2"><path data-name="Path 407" d="M242.712 1.769s-11.677 6.537-6.3 23.344a24.842 24.842 0 0 0 8.353 11.561s4.624 4.284 4.536 13.558h10.229s-.5-12.122 3.55-15.407c0 0 8.161-7.614 8.066-16.616 0 0 1.374-12.612-5.267-16.439" stroke-linejoin="round"/><path data-name="Path 408" d="M250.366 50.232v7.073h7.131v-7.073" stroke-linejoin="round"/><path data-name="Path 409" d="m250.366 57.305 1.044 2.765h4.778l1-2.765" stroke-linejoin="round"/><path data-name="Path 410" d="M253.133 60.07v1.582h2.271V60.07" stroke-linejoin="round"/><path data-name="Path 411" d="M253.133 50.232s.34-31.351-8.2-32.2c0 0-4.389 1.749 0 3.066s5.446-4.184 5.446-4.184.306-3.885-2.517-2c0 0-3.271 2.305 4.169 5.632 0 0 5.148.6 5.331-3.022 0 0 .519-4-1.2-3.572s-1.566 3.572-1.566 3.572-.393 4.176 3.959 3.022c0 0 4.214-.079 4.294-2.513 0 0-.29-3.34-2.949-1.118s-4.567 33.319-4.567 33.319" stroke-linejoin="round"/><path data-name="Path 412" d="M250.366 52.281h6.859"/><path data-name="Path 413" d="M250.366 54.544h6.657"/></g><g data-name="Group 151" fill="none" stroke="#4f5052" stroke-width="2"><path data-name="Path 414" d="m2.771 155.815 9.082 10.836 12.652-10.836s5.029-5.57 0-10.1-9.881 0-9.881 0Z" stroke-linejoin="round"/><path data-name="Path 415" d="m1.412 171.876 8.7-7.186"/><path data-name="Path 416" d="m1.412 161.68 3.509-3.011"/><path data-name="Path 417" d="M3.165 162.55a29.2 29.2 0 0 0 6.462 2.364"/><path data-name="Path 418" d="M1.412 164.915a18.988 18.988 0 0 0 4.374 2.577"/><g data-name="Ellipse 41" transform="translate(12.612 149.163)" stroke-linejoin="round"><circle cx="4" cy="4" r="4" stroke="none"/><circle cx="4" cy="4" r="3"/></g><path data-name="Path 419" d="M12.612 153.163h7.14"/><path data-name="Path 420" d="m16.182 144.699 27.135-30.876s3.5-.3 4.021 3.04" stroke-linejoin="round"/><path data-name="Path 421" d="M44.212 120.716c.1-.151.239-1.1.316-1.348a2.482 2.482 0 0 1 2.955-2.024c2.856.684-1.165 4.792-2.139 4.127s-1.232-.608-1.132-.755Z" stroke-linejoin="round"/><path data-name="Path 422" d="m22.903 144.699 21.416-23.957"/><path data-name="Path 423" d="m44.319 113.486 7.633-5.861-4.773 8.446" stroke-linejoin="round"/><g data-name="Ellipse 42" transform="translate(59.612 139.163)" stroke-linejoin="round"><circle cx="2" cy="2" r="2" stroke="none"/><circle cx="2" cy="2" r="1"/></g><g data-name="Ellipse 43" transform="translate(56.612 136.163)" stroke-linejoin="round"><circle cx="5" cy="5" r="5" stroke="none"/><circle cx="5" cy="5" r="4"/></g><path data-name="Path 424" d="m59.812 145.491 2.472 5.93 5.3-2.433-2.226-4.809" stroke-linejoin="round"/><path data-name="Path 425" d="m62.167 150.809-6.791 3.284-2.437-5.44 7.02-2.645" stroke-linejoin="round"/><path data-name="Path 426" d="m67.582 148.463 4.1-1.976-2.044-4.184-4.494 2" stroke-linejoin="round"/><path data-name="Path 427" d="M69.602 142.3h5.917l-3.8 4.135" stroke-linejoin="round"/><path data-name="Path 428" d="m73.419 142.3.622 1.252"/><path data-name="Path 429" d="m26.741 149.163 30.614-9.689"/><path data-name="Path 430" d="m24.601 155.815 33.521-11.452"/></g><g data-name="Group 153" stroke="#4f5052" stroke-linejoin="round" stroke-width="2"><path data-name="Path 431" d="m110.591 1.769 8.032 18.584s6.326 4.6 10.581-3.18l-5.839-15.4" fill="none"/><path data-name="Path 432" d="m119.023 20.739 11.371 13.868-1.029-17.235" fill="none"/><path data-name="Path 433" d="m126.154 29.2 3.055-1.206v4.335Z" fill="#707070"/></g><g data-name="Group 220" fill="none" stroke="#4f5052" stroke-width="2"><g data-name="Ellipse 84" transform="translate(434.873 19.096)" stroke-linejoin="round"><circle cx="8.999" cy="8.999" r="8.999" stroke="none"/><circle cx="8.999" cy="8.999" r="7.999"/></g><g data-name="Ellipse 85" transform="translate(460.585 17.81)" stroke-linejoin="round"><circle cx="8.999" cy="8.999" r="8.999" stroke="none"/><circle cx="8.999" cy="8.999" r="7.999"/></g><path data-name="Path 996" d="m453.482 27.789 6.933-.562"/><path data-name="Path 997" d="m440.609 20.549 10.755-12.85s1.967-1.621 3.46 0" stroke-linejoin="round"/><path data-name="Path 998" d="m475.217 19.508 9.647-11.188s1.966-1.621 3.46 0" stroke-linejoin="round"/></g></g></svg>