<svg xmlns="http://www.w3.org/2000/svg" width="1633.208" height="193.897"><path data-name="Path 1288" d="M0 1.26h1633.208v186.027H0Z" fill="#fffdf7"/><g data-name="Group 289" transform="translate(-143.602 -4770.172)" opacity=".604" fill="#35bac4"><path data-name="Rectangle 293" d="M480 4915h33v31h-33z"/><path data-name="Rectangle 294" d="m185.801 4818.693 63.549-26.979 38.318 90.258-63.549 26.979z"/><path data-name="Rectangle 299" d="m791.094 4902.975 24.15 20.994-20.337 23.396-24.15-20.994z"/><circle data-name="Ellipse 225" cx="13.5" cy="13.5" r="13.5" transform="translate(271 4812)"/><circle data-name="Ellipse 231" cx="25.5" cy="25.5" r="25.5" transform="translate(601 4818)"/><circle data-name="Ellipse 226" cx="21" cy="21" r="21" transform="translate(1712 4794)"/><circle data-name="Ellipse 227" cx="22" cy="22" r="22" transform="translate(1437 4913)"/><circle data-name="Ellipse 228" cx="10.5" cy="10.5" r="10.5" transform="translate(832 4832)"/><circle data-name="Ellipse 229" cx="10.5" cy="10.5" r="10.5" transform="translate(858 4832)"/><path data-name="Polygon 13" d="m568.039 4870.917-31.997-16.199 30.204-19.62Z"/><path data-name="Polygon 14" d="m867.27 4948.639 17.302-31.395 18.541 30.858Z"/><path data-name="Polygon 17" d="m680.843 4892.894 39.592.672-40.264 38.92Z"/><path data-name="Polygon 16" d="m1547.119 4918.21 1.272-90.583 78.111 46.935Z"/><path data-name="Polygon 19" d="m378.556 4899.428 13.866-89.525 70.82 57.348Z"/><path data-name="Polygon 18" d="m1225.471 4867.329 62.369-43.973 6.68 76.467Z"/><path data-name="Rectangle 296" d="M885 4810h57v17h-57z"/><path data-name="Rectangle 298" d="M1084 4835h83v39h-83z"/><path data-name="Rectangle 300" d="m1385.711 4809.246 57.676 16.538-13.23 46.14-57.677-16.537z"/></g><g data-name="Group 288"><g data-name="Group 263" fill="none" stroke="#707070" stroke-linecap="round" stroke-width="2"><path data-name="Path 1289" d="M1533.158 138.245s6.95-8.51 7.663-9.462 2.141-2.327-.203-4.624-4.983.425-4.983.425l-1.815 2.242s2.232-1.59-.232-3.9-5.93.832-5.93.832-6.53 8.214-10.229 12.632-1.304 12.288-1.304 12.288l-10.488 12.951 18.74 15.176 10.488-12.951s7.351-.271 10.707-4.674 10.23-12.632 10.23-12.632 5.678-5.89-2.045-11.75" stroke-linejoin="round"/><path data-name="Path 1290" d="m1534.163 126.445-6.104 7.538"/><path data-name="Path 1291" d="M1541.755 127.517s3.566-3.98 6.06-1.719c0 0 2.44 1.305 1.79 3.238" stroke-linejoin="round"/><path data-name="Path 1292" d="m1538.803 142.372 20.76-25.637s2.49-2.81 4.803-.864 1.37 3.85.442 5.111l-20.582 25.781" stroke-linejoin="round"/><path data-name="Path 1293" d="m1559.69 116.58-7.461-6.042s-4.327-3.968.028-9.113 8.392-1.285 8.392-1.285l20.626 16.703s3.988 3.29-.043 8.046-8.377 2.352-8.377 2.352l-8.011-6.487" stroke-linejoin="round"/><path data-name="Path 1294" d="m1529.622 100.619 9.982 8.083"/><path data-name="Path 1297" d="m1569.019 132.522 9.981 8.083"/><path data-name="Path 1295" d="m1525.064 106.247 9.982 8.083"/><path data-name="Path 1296" d="m1564.461 138.15 9.982 8.083"/><path data-name="Path 1298" d="m1527.396 123.772-19.24-15.58s-5.616-5.032-.333-11.079 26.851-33.158 26.851-33.158 4.828-5.914 10.812-1.003 67.698 54.928 67.698 54.928 5.483 4.274.897 9.96-27.81 34.343-27.81 34.343-4.482 5.83-10.07 1.367-20.647-16.72-20.647-16.72" stroke-linejoin="round"/><path data-name="Path 1299" d="m1607.337 113.032-36.993 45.683"/><path data-name="Path 1300" d="m1550.701 67.17-36.993 45.682"/><g data-name="Rectangle 206" transform="rotate(39 653.759 2198.435)" stroke-linejoin="round"><rect width="4.288" height="13.936" rx="2" stroke="none"/><rect x="1" y="1" width="2.288" height="11.936" rx="1"/></g></g><g data-name="Group 264" fill="none" stroke="#707070" stroke-linecap="round" stroke-width="2"><path data-name="Path 1301" d="M408.015 68.542v34.362s10.313-9.428 23.395-8.909 10.031-5.172 10.031-5.172v-6.9a4.907 4.907 0 0 0-5.391-5.508c-5.971.071-13.287 4.158-28.035-7.873Z" stroke-linejoin="round"/><path data-name="Path 1302" d="M432.65 77.125v16.973"/><path data-name="Path 1303" d="M398.334 81.771s-3.64 4.458 0 7.964"/><path data-name="Path 1304" d="M392.325 75.833s-8.521 8.545 0 19.87"/><path data-name="Path 1305" d="M386.765 70.045s-14.007 15.629 0 31.218"/><path data-name="Path 1307" d="M400.807 63.321V26.973s-.25-9.354-10.191-9.133-9.9 9.133-9.9 9.133v14.968h19.7" stroke-linejoin="round"/><path data-name="Path 1308" d="M390.764 17.837h80.016s9.231.07 9.214 9.337 0 15.959 0 15.959" stroke-linejoin="round"/><g data-name="Rectangle 207" transform="translate(415.138 25.815)" stroke-linejoin="round"><rect width="46.757" height="15.996" rx="3" stroke="none"/><rect x="1" y="1" width="44.757" height="13.996" rx="2"/></g><path data-name="Path 1309" d="M410.775 47.841h37.405"/><path data-name="Path 1310" d="M410.775 64.319h37.373"/><path data-name="Path 1311" d="M410.775 55.927h15.67"/><path data-name="Path 1312" d="M431.172 55.927h17.021"/><g data-name="Ellipse 164" transform="translate(450.821 41.811)" stroke-linejoin="round"><circle cx="25.84" cy="25.84" r="25.84" stroke="none"/><circle cx="25.84" cy="25.84" r="24.84"/></g><path data-name="Path 1313" d="M452.29 67.651h48.762"/><path data-name="Path 1314" d="M476.77 43.133s-23.652 23.4.537 49"/><path data-name="Path 1316" d="M477.845 43.133s23.652 23.4-.537 49"/><path data-name="Path 1317" d="M459.384 49.82s15.631 17.771 34.241 0"/><path data-name="Path 1318" d="M459.384 85.476s15.631-17.769 34.241 0"/><path data-name="Path 1319" d="M480.582 92.778v16.625"/><path data-name="Path 1320" d="M442.685 107.94h31.475"/><path data-name="Path 1321" d="M442.685 99.667h13.66"/><path data-name="Path 1322" d="M460.498 99.667h13.66"/><path data-name="Path 1323" d="M400.639 107.94v20.628s.614 9.28 9.205 9.666 10.688-9.666 10.688-9.666v-13.412h80.048v13.412s.415 9.661-9.731 9.61-80.008.056-80.008.056" stroke-linejoin="round"/></g><g data-name="Group 268" fill="none" stroke="#707070" stroke-linecap="round" stroke-width="2"><g data-name="Rectangle 208" transform="translate(263.678 82.512)" stroke-linejoin="round"><rect width="56.888" height="88.176" rx="6" stroke="none"/><rect x="1" y="1" width="54.888" height="86.176" rx="5"/></g><path data-name="Path 1324" d="M265.16 96.77h53.529"/><path data-name="Path 1325" d="M265.539 150.813h52.692"/><g data-name="Rectangle 209" transform="translate(283.589 157.888)" stroke-linejoin="round"><rect width="18.489" height="5.267" rx="2" stroke="none"/><rect x="1" y="1" width="16.489" height="3.267" rx="1"/></g><path data-name="Path 1326" d="M279.834 138.453h25.219s1.259-14.963-12.492-14.672-12.727 14.672-12.727 14.672Z" stroke-linejoin="round"/><g data-name="Ellipse 165" transform="translate(285.011 108.111)" stroke-linejoin="round"><circle cx="7.822" cy="7.822" r="7.822" stroke="none"/><circle cx="7.822" cy="7.822" r="6.822"/></g><g data-name="Ellipse 166" transform="translate(269.367 102.423)" stroke-linejoin="round"><circle cx="22.755" cy="22.755" r="22.755" stroke="none"/><circle cx="22.755" cy="22.755" r="21.755"/></g><path data-name="Path 1327" d="m253.326 95.847 6.674 5.98-6.674 4.843v7.783s.227 2.9-2.526 2.842-26.32 0-26.32 0-2.619.329-2.6-3.131 0-25.269 0-25.269-.3-3.2 3.971-3.209 24.5 0 24.5 0 3-.443 2.979 2.095-.004 8.066-.004 8.066Z" stroke-linejoin="round"/><path data-name="Path 1328" d="m330.942 149.89-6.674 5.98 6.674 4.843v7.783s-.227 2.9 2.526 2.842 26.32 0 26.32 0 2.619.329 2.6-3.131 0-25.269 0-25.269.3-3.2-3.971-3.209-24.5 0-24.5 0-3-.443-2.979 2.095.004 8.066.004 8.066Z" stroke-linejoin="round"/><g data-name="Ellipse 167" transform="translate(228.123 96.734)" stroke-linejoin="round"><circle cx="4.267" cy="4.267" r="4.267" stroke="none"/><circle cx="4.267" cy="4.267" r="3.267"/></g><g data-name="Ellipse 170" transform="translate(347.611 150.777)" stroke-linejoin="round"><circle cx="4.267" cy="4.267" r="4.267" stroke="none"/><circle cx="4.267" cy="4.267" r="3.267"/></g><g data-name="Ellipse 168" transform="translate(239.501 96.734)" stroke-linejoin="round"><circle cx="4.267" cy="4.267" r="4.267" stroke="none"/><circle cx="4.267" cy="4.267" r="3.267"/></g><g data-name="Ellipse 169" transform="translate(336.233 150.777)" stroke-linejoin="round"><circle cx="4.267" cy="4.267" r="4.267" stroke="none"/><circle cx="4.267" cy="4.267" r="3.267"/></g><g data-name="Group 265" stroke-linejoin="round"><g data-name="Ellipse 171" transform="translate(233.045 31.313)"><ellipse cx="10.666" cy="12.8" rx="10.666" ry="12.8" stroke="none"/><ellipse cx="10.666" cy="12.8" rx="9.666" ry="11.8"/></g><path data-name="Path 1329" d="M239.149 54.97s.263 8.236 4.678 8.091 4.171-7.664 4.171-7.664"/><path data-name="Path 1330" d="M239.149 57.524s-15.276-1.233-16.119 17.521h42.13s.036-17.785-17.162-17.521"/></g><g data-name="Group 266" stroke-linejoin="round"><g data-name="Ellipse 172" transform="translate(281.4 31.313)"><ellipse cx="10.666" cy="12.8" rx="10.666" ry="12.8" stroke="none"/><ellipse cx="10.666" cy="12.8" rx="9.666" ry="11.8"/></g><path data-name="Path 1331" d="M287.504 54.97s.263 8.236 4.678 8.091 4.171-7.664 4.171-7.664"/><path data-name="Path 1332" d="M287.504 57.524s-15.276-1.233-16.119 17.521h42.13s.036-17.785-17.162-17.521"/></g><g data-name="Group 267" stroke-linejoin="round"><g data-name="Ellipse 173" transform="translate(329.754 31.313)"><ellipse cx="10.666" cy="12.8" rx="10.666" ry="12.8" stroke="none"/><ellipse cx="10.666" cy="12.8" rx="9.666" ry="11.8"/></g><path data-name="Path 1333" d="M335.858 54.97s.263 8.236 4.678 8.091 4.171-7.664 4.171-7.664"/><path data-name="Path 1334" d="M335.858 57.524s-15.276-1.233-16.119 17.521h42.13s.036-17.785-17.162-17.521"/></g></g><g data-name="Group 269" fill="none" stroke-linecap="round" stroke-linejoin="round"><g data-name="Ellipse 174" transform="rotate(24 339.315 3116.926)" stroke="#707070" stroke-width="2"><circle cx="23.62" cy="23.62" r="23.62" stroke="none"/><circle cx="23.62" cy="23.62" r="22.62"/></g><path data-name="Path 1335" d="m1314.629 151.03-15.196 7.263 6.534 2.91-5.082 11.411 7.266 3.235 5.081-11.411 7.043 3.136Z" stroke="#707070" stroke-width="2.001"/><g data-name="Polygon 11"><path d="m1301.833 128.389-26.06 3.181 10.99-24.678Z"/><path d="m1298.28 126.804-11.123-15.867-8.112 18.215 19.236-2.348m3.553 1.582-26.054 3.18 10.986-24.672 15.068 21.492Z" fill="#707070"/></g><path data-name="Path 1336" d="m1323.748 144.402 10.134-22.759s2.877-5.838-2.578-8.136-59.702-26.585-59.702-26.585a6.862 6.862 0 0 0-9.175 3.65c-3.102 6.422-14.882 33.421-14.882 33.421s-3.27 6.585 2.435 9.177 40.18 17.892 40.18 17.892" stroke="#707070" stroke-width="2.001"/><path data-name="Path 1337" d="m1327.322 148.016 11.252-25.269s5.42-9.465-6.64-14.754-58.52-26.058-58.52-26.058-10.772-5.004-14.84 3.884-17.457 39.205-17.457 39.205-4.562 9.096 8.584 14.587 37.97 16.907 37.97 16.907" stroke="#707070" stroke-width="2.001"/><path data-name="Path 1338" d="m1292.274 89.628 9.668-39.468s3.996-12.15-14.204-16.88-49.912-12.858-49.912-12.858-13.326-4.983-17.366 8.394-11.599 43.522-11.599 43.522-4.246 11.88 15.197 17.172 28.736 7.146 28.736 7.146" stroke="#707070" stroke-width="2.001"/><path data-name="Path 1339" d="m1287.069 88.013 9.231-36.284s4.246-9.639-11.253-13.92-48.112-12.061-48.112-12.061-9.195-3.534-11.898 6.549-10.82 41.307-10.82 41.307-1.855 7.41 10.038 10.629 31.219 7.743 31.219 7.743" stroke="#707070" stroke-width="2.001"/><path data-name="Path 1340" d="m1280.95 84.243 8.246-30.774s2.478-8.623-9.153-11.5-38.588-9.759-38.588-9.759-9.376-3.556-11.962 6.244-8.18 30.845-8.18 30.845-3.004 7.843 6.866 10.01 29.551 7.005 29.551 7.005" stroke="#707070" stroke-width="2.001"/><g data-name="Ellipse 175" transform="rotate(24 534.698 2926.2)" stroke="#707070" stroke-width="2"><circle cx="6.749" cy="6.749" r="6.749" stroke="none"/><circle cx="6.749" cy="6.749" r="5.749"/></g><path data-name="Path 1341" d="m1221.422 73.147 21.89-15.275 13.57 27.863" stroke="#707070" stroke-width="2.001"/><path data-name="Path 1342" d="m1250.887 72.39 24.807-17.636 8.452 17.017" stroke="#707070" stroke-width="2.001"/></g><g data-name="Group 270" fill="none" stroke="#707070" stroke-linecap="round" stroke-width="2"><g data-name="Rectangle 210" stroke-linejoin="round"><path d="m1372.695 92.433 97.056-29.673a2 2 0 0 1 2.497 1.328l20.366 66.612a8 8 0 0 1-5.312 9.99l-85.58 26.164a8 8 0 0 1-9.989-5.312l-20.365-66.612a2 2 0 0 1 1.327-2.497Z" stroke="none"/><path d="m1372.988 93.389 97.055-29.673a1 1 0 0 1 1.249.664l20.365 66.613a7 7 0 0 1-4.647 8.74l-85.58 26.165a7 7 0 0 1-8.74-4.648l-20.366-66.612a1 1 0 0 1 .664-1.249Z"/></g><g data-name="Rectangle 211" transform="rotate(-17 1085.622 -4707.49)" stroke-linejoin="round"><rect width="13.994" height="12.917" rx="4" stroke="none"/><rect x="1" y="1" width="11.994" height="10.917" rx="3"/></g><path data-name="Path 1343" d="M1378.262 114.063s6.236 16.224 21.43 11.798 26.585-8.128 26.585-8.128" stroke-linejoin="round"/><path data-name="Path 1344" d="M1477.289 83.823s3.503 17.02-11.57 21.85-26.585 8.129-26.585 8.129" stroke-linejoin="round"/><path data-name="Path 1345" d="m1405.737 127.945 5.248 17.166s1.275 5.435 5.437 4.2 48.759-14.907 48.759-14.907 4.87-1.063 2.993-6.778-5.248-17.165-5.248-17.165" stroke-linejoin="round"/><path data-name="Path 1346" d="M1408.163 81.46s-2.121-11.587 10.152-15.2 15.757 7.278 15.757 7.278" stroke-linejoin="round"/><path data-name="Path 1347" d="M1402.406 83.594s-3.364-17.705 14.373-22.91 23.06 11.466 23.06 11.466" stroke-linejoin="round"/><path data-name="Path 1348" d="m1389.479 151.499-46.722-63.276s-4.49-4.878 1.972-9.328 36.179-27.132 36.179-27.132l22.863 3.422 6.216 8.288" stroke-linejoin="round"/><path data-name="Path 1349" d="m1414.43 69.212 6.54 8.91"/><path data-name="Path 1350" d="m1380.957 51.747 6.79 9.525a4.468 4.468 0 0 0 6.756 1.197c4.295-2.987 9.015-7.141 9.015-7.141" stroke-linejoin="round"/><path data-name="Path 1351" d="m1369.654 88.583 31.05-23.466"/><path data-name="Path 1352" d="m1362.9 101.812 9.04-6.933"/><path data-name="Path 1353" d="m1375.841 92.094 28.373-21.526"/><path data-name="Path 1354" d="m1366.818 107.107 7.254-5.373"/><path data-name="Path 1355" d="m1395.955 85.88 6.06-4.6"/><path data-name="Path 1357" d="m1370.943 112.475 5.153-3.667"/><path data-name="Path 1358" d="m1375.227 117.83 3.133-2.344"/><path data-name="Path 1359" d="m1378.753 123.067 1.445-1.086"/><path data-name="Path 1360" d="m1368.42 61.225-3.88-14.325s-1.72-4.413 4.107-6.117 45.805-12.188 45.805-12.188l20.196 12.382 8.288 29.927" stroke-linejoin="round"/><path data-name="Path 1361" d="m1383.474 52.136 26.929-7.667s3.663-1.251 4.47 1.144-3.165 3.125-3.165 3.125l-18.355 4.828" stroke-linejoin="round"/><path data-name="Path 1362" d="m1406.45 58.08 11.263-3.181"/><path data-name="Path 1363" d="m1414.426 28.673 3.346 12.205s.584 4.964 5.33 3.512 11.444-3.215 11.444-3.215" stroke-linejoin="round"/><path data-name="Path 1366" d="m1418.386 74.59 8.31-2.54s1.628-.639 2.128.884.631 2.064.631 2.064" stroke-linejoin="round"/><path data-name="Path 1367" d="m1410.305 29.316.7-7.61s.075-3.929 5.013-3.67 47.749 1.348 47.749 1.348l16.192 16.46-.98 53.094" stroke-linejoin="round"/><path data-name="Path 1368" d="m1463.542 19.468-.384 11.256s-.303 5.007 3.524 5.154 13.094.046 13.094.046" stroke-linejoin="round"/><path data-name="Path 1369" d="m1435.981 45.337 34.467.806-.578 16.872" stroke-linejoin="round"/><path data-name="Path 1370" d="m1437.762 51.887 32.25 1.244"/><path data-name="Path 1371" d="m1439.518 58.275 30.293 1.51"/><path data-name="Path 1372" d="m1441.63 65.185 18.503.791"/><path data-name="Path 1373" d="m1461.366 46.057-.227 19.644"/></g><g data-name="Group 271" fill="none" stroke="#707070" stroke-linecap="round" stroke-width="2"><path data-name="Path 1374" d="M1131.556 184.263s-11.832-3.259-17.9-20.424c0 0-1.951-6.428 5.867-9.1l-10.919-32.412s-1.946-4.832 3.041-6.2 5.83 1.621 6.259 2.741 7.177 21.915 7.177 21.915a5.05 5.05 0 0 1 4.558-3.725 4.378 4.378 0 0 1 4.827 2.821s-.371-3.253 3.758-3.739a3.852 3.852 0 0 1 4.583 3.282s.934-2.88 3.7-2.691 2.515.762 4.132 2.691c0 0-.578-2.875 2.857-3.282s3.724 2.125 4.207 3.282 7.767 24.426 7.767 24.426 2.588 9.4-4.145 12.961l2.738 6.746" stroke-linejoin="round"/><g data-name="Rectangle 212" transform="rotate(-23 871.36 -2727.145)" stroke-linejoin="round"><rect width="19.788" height="9.894" rx="4" stroke="none"/><rect x="1" y="1" width="17.788" height="7.894" rx="3"/></g><g data-name="Rectangle 213" transform="rotate(-23 844.912 -2734.24)" stroke-linejoin="round"><rect width="20.647" height="10.993" rx="4" stroke="none"/><rect x="1" y="1" width="18.647" height="8.993" rx="3"/></g><g data-name="Rectangle 214" transform="rotate(-23 819.669 -2734.543)" stroke-linejoin="round"><rect width="22.845" height="10.993" rx="4" stroke="none"/><rect x="1" y="1" width="20.845" height="8.993" rx="3"/></g><path data-name="Path 1375" d="m1140.089 89.976-2.111 1.344s-2.355 1.454-.4 5.289 4.613 4.016 5.75 3.688" stroke-linejoin="round"/><path data-name="Path 1376" d="m1152.646 96.376 4.686-2.084a3.188 3.188 0 0 0 1.129-4.19" stroke-linejoin="round"/><path data-name="Path 1377" d="m1121.793 75.927 6.739 6.1v4.476s-.36 3.642 4.1 3.465 39.583 0 39.583 0 3.31.339 3.192-4.027 0-12.612 0-12.612.354-3.378-4.519-3.363-38.717 0-38.717 0-3.6-.43-3.644 3.037v2.928Z" stroke-linejoin="round"/><path data-name="Path 1378" d="M1133.423 76.098h37.674"/><path data-name="Path 1379" d="M1133.423 80.495h37.674"/><path data-name="Path 1380" d="M1133.423 84.893h26.955"/><path data-name="Path 1381" d="M1107.902 121.623h-1.852a2.2 2.2 0 0 1-2.083-2.433c.118-2.312 0-4.919 0-4.919s-.291-1.958 2.083-1.893 15.067 0 15.067 0 2.352-.346 2.383 1.365 0 6.464 0 6.464a1.4 1.4 0 0 1-1.465 1.416h-2.482" stroke-linejoin="round"/><path data-name="Path 1382" d="M1105.101 66.453h4.282l-4.282-3.959v-3.169s.434-2.315-2.389-2.343-27.036 0-27.036 0-2.941-.228-2.863 2.287 0 9.3 0 9.3-.143 2.348 2.863 2.317 27.036-.1 27.036-.1 2.3.181 2.389-1.97a11.978 11.978 0 0 0 0-2.363Z" stroke-linejoin="round"/><path data-name="Path 1384" d="M1075.851 66.246h25.749"/><path data-name="Path 1385" d="M1083.199 61.612h18.4"/><path data-name="Path 1386" d="M1105.477 60.078h30.131s4.4-.458 4.44 3.158 0 6.551 0 6.551" stroke-linejoin="round"/><path data-name="Path 1387" d="M1103.222 70.887v11.287s-.384 4.587 3.509 4.545 21.558 0 21.558 0" stroke-linejoin="round"/><g data-name="Rectangle 215" stroke-linejoin="round"><path d="M1102.903 91.284h9v6h-9z" stroke="none"/><path d="M1103.903 92.284h7v4h-7z"/></g><g data-name="Rectangle 216" stroke-linejoin="round"><path d="M1102.903 100.284h9v7h-9z" stroke="none"/><path d="M1103.903 101.284h7v5h-7z"/></g><path data-name="Path 1388" d="M1113.77 91.583h9.744"/><path data-name="Path 1391" d="M1113.77 101.477h9.744"/><path data-name="Path 1389" d="M1113.77 95.239h5.793"/><path data-name="Path 1390" d="M1113.77 105.133h5.793"/><path data-name="Path 1392" d="M1122.709 132.838h2.438s1.3.283 1.3 1.437-.431 1.881-.848 1.926-1.662 0-1.662 0" stroke-linejoin="round"/><path data-name="Path 1393" d="M1152.799 126.946v9.278"/><path data-name="Path 1394" d="M1147.96 128.894v7.833"/><path data-name="Path 1395" d="M1121.658 129.881h17.325"/><path data-name="Path 1396" d="M1110.905 129.881h-11.021V71.01" stroke-linejoin="round"/><path data-name="Path 1397" d="M1095.528 71.009v62.681s-.529 7.174 5.455 7.175h13.643" stroke-linejoin="round"/><path data-name="Path 1398" d="M1095.693 183.808v-26.194h19.015" stroke-linejoin="round"/><path data-name="Path 1399" d="M1098.597 157.371v-2.092s-.128-2.08 2.839-2.066 17.387 0 17.387 0" stroke-linejoin="round"/><path data-name="Path 1400" d="M1101.56 153.215v-3.465s-12.494-3.849-12.407-15.706 0-33.868 0-33.868-.562-4.967 6.359-4.819" stroke-linejoin="round"/><path data-name="Path 1401" d="M1099.884 56.97v-4.363h44.327v17.226" stroke-linejoin="round"/><path data-name="Path 1402" d="M1095.517 56.97v-6.635s.265-4.974 6.294-4.851 46.1 0 46.1 0 4.855.05 4.866 3.875 0 20.467 0 20.467" stroke-linejoin="round"/><path data-name="Path 1403" d="M1143.12 45.482s5.433 1.2 5.43 5.027 0 19.312 0 19.312" stroke-linejoin="round"/><path data-name="Path 1404" d="M1173.75 52.878h-5.99l3.126-5.46s-1.687-11.151 10.312-14.12c0 0 9.745-1.772 13.086 7.2s-4.626 14.792-4.626 14.792-9.078 5.818-15.908-2.412Z" stroke-linejoin="round"/><path data-name="Path 1406" d="m1135.641 29.386-5.728 1.751 1.393-6.135s-4.874-10.17 5.733-16.518c0 0 8.801-4.544 14.62 3.06s-.098 15.494-.098 15.494-6.98 8.222-15.92 2.348Z" stroke-linejoin="round"/><path data-name="Path 1409" d="m1098.338 36.576 2.436 5.472-6.26-.635s-9.5 6.078-17.093-3.677c0 0-5.582-8.182 1.255-14.883s15.391-1.791 15.391-1.791 9.012 5.926 4.27 15.514Z" stroke-linejoin="round"/><g data-name="Rectangle 219" stroke-linejoin="round"><path d="M1080.459 26.558h14.291v9.894h-14.291z" stroke="none"/><path d="M1081.459 27.558h12.291v7.894h-12.291z"/></g><g data-name="Rectangle 220" stroke-linejoin="round"><path d="M1135.64 14.871h14.291v9.894h-14.291z" stroke="none"/><path d="M1136.64 15.871h12.291v7.894h-12.291z"/></g><g data-name="Rectangle 221" stroke-linejoin="round"><path d="M1175.417 40.273h14.291v9.894h-14.291z" stroke="none"/><path d="M1176.417 41.273h12.291v7.894h-12.291z"/></g><path data-name="Path 1408" d="m1082.491 29.237 5.373 3.437 4.853-3.437" stroke-linejoin="round"/><path data-name="Path 1410" d="m1137.673 17.551 5.373 3.437 4.853-3.437" stroke-linejoin="round"/><path data-name="Path 1411" d="m1177.45 42.953 5.373 3.437 4.853-3.437" stroke-linejoin="round"/></g><g data-name="Group 272" stroke="#707070" stroke-linecap="round" stroke-width="2"><g data-name="Rectangle 222" fill="none" stroke-linejoin="round"><path d="M672.166 17.143h137v7h-137z" stroke="none"/><path d="M673.166 18.143h135v5h-135z"/></g><g data-name="Rectangle 223" fill="none" stroke-linejoin="round"><path d="M672.166 111.143h137v7h-137z" stroke="none"/><path d="M673.166 112.143h135v5h-135z"/></g><path data-name="Path 1412" d="M677.507 24.143v87.56" fill="none"/><path data-name="Path 1413" d="M805.191 24.143v87.407" fill="none"/><g data-name="Ellipse 176" transform="translate(685.166 58.143)" fill="none" stroke-linejoin="round"><circle cx="11" cy="11" r="11" stroke="none"/><circle cx="11" cy="11" r="10"/></g><g data-name="Ellipse 177" transform="translate(711.166 58.143)" fill="none" stroke-linejoin="round"><circle cx="11" cy="11" r="11" stroke="none"/><circle cx="11" cy="11" r="10"/></g><path data-name="Path 1414" d="M696.166 78.943v-9.886h-9.751" fill="none" stroke-linejoin="round"/><path data-name="Path 1415" d="M722.166 78.943v-9.887h-9.454" fill="none" stroke-linejoin="round"/><path data-name="Path 1416" d="M689.636 44.394h37.576" fill="none"/><path data-name="Path 1417" d="M702.139 50.336h15.786" fill="none"/><path data-name="Path 1418" d="M687.692 83.443h17.191" fill="none"/><path data-name="Path 1427" d="M713.57 83.443h17.191" fill="none"/><g data-name="Rectangle 224" fill="none" stroke-linejoin="round"><path d="M688.166 87.143h6v6h-6z" stroke="none"/><path d="M689.166 88.143h4v4h-4z"/></g><g data-name="Rectangle 227" fill="none" stroke-linejoin="round"><path d="M714.044 87.143h6v6h-6z" stroke="none"/><path d="M715.044 88.143h4v4h-4z"/></g><g data-name="Rectangle 225" fill="none" stroke-linejoin="round"><path d="M688.166 95.143h6v6h-6z" stroke="none"/><path d="M689.166 96.143h4v4h-4z"/></g><g data-name="Rectangle 226" fill="none" stroke-linejoin="round"><path d="M714.044 95.143h6v6h-6z" stroke="none"/><path d="M715.044 96.143h4v4h-4z"/></g><path data-name="Path 1419" d="M704.884 88.513h-8.656" fill="none"/><path data-name="Path 1426" d="M730.762 88.513h-8.656" fill="none"/><path data-name="Path 1421" d="M704.884 96.513h-8.656" fill="none"/><path data-name="Path 1424" d="M730.762 96.513h-8.656" fill="none"/><path data-name="Path 1420" d="M699.995 91.397h-3.729" fill="none"/><path data-name="Path 1425" d="M725.873 91.397h-3.729" fill="none"/><path data-name="Path 1422" d="M699.995 99.397h-3.729" fill="none"/><path data-name="Path 1423" d="M725.873 99.397h-3.729" fill="none"/><path data-name="Path 1428" d="M738.783 84.966V95.83h53.724V62.184" fill="none" stroke-linejoin="round"/><path data-name="Path 1429" d="M745.336 90.779v4.913" fill="none"/><path data-name="Path 1430" d="M750.336 90.779v4.913" fill="none"/><path data-name="Path 1431" d="M755.336 85.849v9.843" fill="none"/><path data-name="Path 1432" d="M760.336 75.75v19.941" fill="none"/><path data-name="Path 1433" d="M765.336 67.134v28.563" fill="none"/><path data-name="Path 1434" d="M770.336 75.75v19.941" fill="none"/><path data-name="Path 1435" d="M775.336 85.849v9.843" fill="none"/><path data-name="Path 1436" d="M780.336 80.528v15.164" fill="none"/><path data-name="Path 1437" d="M785.336 67.135v28.557" fill="none"/><g data-name="Rectangle 228" fill="none" stroke-linejoin="round"><path d="M736.166 34.143h58v19h-58z" stroke="none"/><path d="M737.166 35.143h56v17h-56z"/></g><path data-name="Path 1438" d="m745.002 51.999 12.4-6.792 8.721 1.193 8.748-6.185 10.656 2.907 7.394-4.418" fill="none" stroke-linejoin="round"/><g data-name="Ellipse 178" transform="translate(755.166 43.143)" fill="#707070" stroke-linejoin="round"><circle cx="2" cy="2" r="2" stroke="none"/><circle cx="2" cy="2" r="1" fill="none"/></g><g data-name="Ellipse 179" transform="translate(773.166 38.143)" fill="#707070" stroke-linejoin="round"><circle cx="2" cy="2" r="2" stroke="none"/><circle cx="2" cy="2" r="1" fill="none"/></g><path data-name="Path 1439" d="M740.666 118.143v28.652" fill="none"/><g data-name="Rectangle 229" fill="none" stroke-linejoin="round"><path d="M738.166 146.143h5v10h-5z" stroke="none"/><path d="M739.166 147.143h3v8h-3z"/></g><path data-name="Path 1440" d="M737.084 142.821h6.611" fill="none"/><path data-name="Path 1441" d="m738.166 153.368-23.689 10.646h54.689l-26.229-10.646" fill="none" stroke-linejoin="round"/><path data-name="Path 1442" d="M725.219 159.222h32.193" fill="none"/></g><g data-name="Group 273" stroke="#707070" stroke-linecap="round" stroke-width="2"><path data-name="Path 1443" d="M876.533 168.212h195.1s-.009 6.611-4 6.5-183.044 0-183.044 0-8.619.828-8.056-6.5Z" fill="none" stroke-linejoin="round"/><path data-name="Path 1444" d="M903.191 135.532v7.2l11.878-7.2h59.294s3.442.471 3.39-2.936 0-24.146 0-24.146.2-2.958-3.39-2.781-75.022 0-75.022 0-3.878-.438-3.878 3.517v23.831s-.472 2.519 3.29 2.515 4.438 0 4.438 0Z" fill="none" stroke-linejoin="round"/><g data-name="Ellipse 180" transform="translate(941.051 112.446)" fill="none" stroke-linejoin="round"><ellipse cx="8.574" cy="9.11" rx="8.574" ry="9.11" stroke="none"/><ellipse cx="8.574" cy="9.11" rx="7.574" ry="8.11"/></g><path data-name="Path 1445" d="M946.167 123.836s1.112 2.469 3.492 2.4a4.2 4.2 0 0 0 3.424-2.4" fill="none" stroke-linejoin="round"/><g data-name="Ellipse 181" transform="translate(945.338 117.805)" fill="#fff" stroke-linejoin="round"><circle cx="1.608" cy="1.608" r="1.608" stroke="none"/><circle cx="1.608" cy="1.608" r=".608" fill="none"/></g><g data-name="Ellipse 190" transform="translate(950.696 117.805)" fill="#fff" stroke-linejoin="round"><circle cx="1.608" cy="1.608" r="1.608" stroke="none"/><circle cx="1.608" cy="1.608" r=".608" fill="none"/></g><path data-name="Path 1446" d="M964.161 118.886c.644-.949 3.388-2.9 3.616-3.515s.815-1.389 1.263-1.306c0 0 2.282-.918 1.6 1.088a14.013 14.013 0 0 1-2.074 3.733h3.129s2.213-.257 2.13 1.878-.373 5.486-.682 5.658-.509 1.765-5.733 1.2-3.816-4.887-3.816-4.887-.077-2.899.567-3.849Z" fill="none" stroke-linejoin="round"/><path data-name="Path 1447" d="M905.102 127.419h23.479" fill="none" stroke-linejoin="round"/><path data-name="Path 1448" d="M904.161 121.198s4.253-4.5 4.829-4.561 2.541 3.722 2.541 4.561 2.068-2.332 2.068-2.332-.153 3.906.291 3.771 5.185-4.138 5.185-4.138 2.563 4.3 5.04 2.386 1.576-6.6 1.576-6.6-2.363-2.34-3.466.308.978 7.525 3.965 7.586a5.28 5.28 0 0 0 4.443-2.388 2.158 2.158 0 0 0 2.707.354s-.115 2.381 3.058 2.034" fill="none" stroke-linejoin="round"/><path data-name="Path 1449" d="M987.294 168.212s5.973-.218 4.193-6.579-13.644-42.437-13.644-42.437" fill="none" stroke-linejoin="round"/><path data-name="Path 1450" d="m974.072 105.656-2.311-6.677" fill="none"/><path data-name="Path 1451" d="M932.676 82.318h-77.375s-6.93-.505-5.4 5.766 21.217 70.18 21.217 70.18 2.158 9.417 5.721 9.838" fill="none" stroke-linejoin="round"/><path data-name="Path 1452" d="M852.311 82.732s-8.134 2.007-6 10.68 19.541 67.658 19.541 67.658 1.863 8.717 10.123 7.232" fill="none" stroke-linejoin="round"/><path data-name="Path 1453" d="M1007.396 98.98v6.7l-11.445-6.7h-57.327s-5.882 2.049-5.855-7.523 0-28.267 0-28.267-.972-4.676 5.855-4.61 71.431 0 71.431 0 4.888-.788 4.854 3.525 0 32.553 0 32.553.568 4.249-3.4 4.323Z" fill="none" stroke-linejoin="round"/><path data-name="Path 1454" d="M940.72 83.12h66.377" fill="none"/><path data-name="Path 1455" d="M940.72 88.192h66.377" fill="none"/><path data-name="Path 1456" d="M940.72 93.263h55.773" fill="none"/><path data-name="Path 1457" d="M960.185 75.512h24.647" fill="none"/><path data-name="Path 1458" d="M959.758 71.834s4.268-2.491 5.549-4.54-1.133-2.54-2.8-1.65-2.133 7.262 1.354 5.626a16.046 16.046 0 0 0 5.823-4.373s-2.063 7.506 3.4 2.227c0 0 .122 5.805 9.824-.731 0 0 1.549 4.631 5.014-1.1 0 0-.773 4.669 6.464 1.83 0 0-8.908 5.67 8.361.909" fill="none" stroke-linejoin="round"/><path data-name="Path 1459" d="M947.595 69.588V65.56l-6.956 5.326 6.956 5.375v-3.636s4.7-1.041 5.248 1.118-.122 3.512 1.861 3.461 1.2-3.886 1.2-3.886-.533-4.321-4.923-3.962Z" fill="none" stroke-linejoin="round"/><path data-name="Path 1460" d="m976.184 135.652 8.106 25.026H878.216l-21.134-70.073h75.315" fill="none" stroke-linejoin="round"/><path data-name="Path 1461" d="m966.71 98.979 2.32 6.757" fill="none"/><path data-name="Path 1462" d="M859.885 98.979h76.065" fill="none"/><g data-name="Ellipse 183" transform="translate(863.886 93.155)" fill="none" stroke-linejoin="round"><circle cx="1.608" cy="1.608" r="1.608" stroke="none"/><circle cx="1.608" cy="1.608" r=".608"/></g><g data-name="Ellipse 188" transform="translate(870.317 93.155)" fill="none" stroke-linejoin="round"><circle cx="1.608" cy="1.608" r="1.608" stroke="none"/><circle cx="1.608" cy="1.608" r=".608"/></g><g data-name="Ellipse 189" transform="translate(876.747 93.155)" fill="none" stroke-linejoin="round"><circle cx="1.608" cy="1.608" r="1.608" stroke="none"/><circle cx="1.608" cy="1.608" r=".608"/></g><path data-name="Path 1463" d="M895.444 106.822h-26.831l3.433 10.606h23.4" fill="none" stroke-linejoin="round"/><path data-name="Path 1464" d="M895.383 122.764h-21.7l3.433 10.606h18.266" fill="none" stroke-linejoin="round"/><path data-name="Path 1465" d="M903.115 139.247h-24.36l3.433 10.606h29.1l-3.533-9.8" fill="none" stroke-linejoin="round"/><path data-name="Path 1466" d="m885.864 160.384-1.883-5.009h29.076l1.9 5.009" fill="none" stroke-linejoin="round"/><path data-name="Path 1467" d="M923.689 155.954h48.7" fill="none"/><g data-name="Ellipse 186" transform="rotate(-47 624.957 -982.3)" fill="none" stroke-linejoin="round"><ellipse cx="5.706" cy="6.974" rx="5.706" ry="6.974" stroke="none"/><ellipse cx="5.706" cy="6.974" rx="4.706" ry="5.974"/></g><path data-name="Path 1468" d="m923.689 147.717 1.438-1.431s-1.8-1.025-.837-2.335 2.4 0 2.4 0 1.255 1.125 1.066 1.765l-.256.868 1.335.794" fill="none" stroke-linejoin="round"/><path data-name="Path 1469" d="M934.174 148.957s5.055-3.537 5.055-6.889-3.025-2.114-3.025-2.114-3.7 4.565 2.623 7.086c0 0 1.166 1.033 3.113-2.517l2.041 3.925 1.773-2.417s1.928 1.394 3.623.5a5.769 5.769 0 0 1 3.152-.695l2.355-2.372a18.338 18.338 0 0 1 1.406 8.195c-.27 2.192-3.777 1.78-4.062-.425-.168-1.12 2.361-3.777 4.99-4.7 0 0 5.217-1.078 8.928.242" fill="none" stroke-linejoin="round"/><g data-name="Ellipse 187" transform="translate(968.916 12.776)" fill="none" stroke-linejoin="round"><ellipse cx="8.574" cy="9.11" rx="8.574" ry="9.11" stroke="none"/><ellipse cx="8.574" cy="9.11" rx="7.574" ry="8.11"/></g><path data-name="Path 1470" d="M977.49 17.611v5" fill="none"/><path data-name="Path 1471" d="M977.49 25.932v.078" fill="none"/><path data-name="Path 1472" d="M977.489 30.526v16.162s.758 5.328-3.254 5.3-59.929 0-59.929 0l-11.289 6.872v-6.872h-5.339s-2.391-.214-2.245-5.3V25.616s-1.308-4.356 6.527-4.268h67.173" fill="none" stroke-linejoin="round"/><path data-name="Path 1473" d="M928.111 40.106h37.966" fill="none"/><path data-name="Path 1474" d="M927.699 33.954s6.821 4.682 9.636-.359c0 0 .818-3.246-3.206-2.1s-.905 5.991 3.206 4.3a9.245 9.245 0 0 0 5.234-5.065s1.137 6.111 3.844 4.122 3.1-2.4 5.268-.9 5.324 1.53 7-.359" fill="none" stroke-linejoin="round"/><g data-name="Rectangle 230" fill="none" stroke-linejoin="round"><path d="M900.325 30.995h23.578v15.004h-23.578z" stroke="none"/><path d="M901.325 31.995h21.578v13.004h-21.578z"/></g><path data-name="Path 1475" d="m902.376 32.382 10.117 6.845 10.087-6.845" fill="none" stroke-linejoin="round"/><path data-name="Path 1476" d="m904.962 40.443 3.509-3.554" fill="none"/><path data-name="Path 1477" d="m919.681 40.442-3.115-2.722" fill="none"/></g><g data-name="Group 274" fill="none" stroke="#707070" stroke-linecap="round" stroke-linejoin="round" stroke-width="2"><g data-name="Rectangle 231" transform="translate(532.791 120.313)"><rect width="54" height="54" rx="8" stroke="none"/><rect x="1" y="1" width="52" height="52" rx="7"/></g><path data-name="Path 1478" d="m540.117 172.669 28.569-25.093s5.185-5.324 9.924 0l6.691 7.115"/><path data-name="Path 1479" d="M585.27 146.455h0l-4.4-4.458s-3.309-2.911 0-6.018l4.4-4.107"/><path data-name="Path 1480" d="m561.191 121.713 7.214 7.5s3.479 3.588 6.868 0l6.187-6.669"/><path data-name="Path 1481" d="m552.702 121.775 10.163 10.627s4.137 3.451 0 7.029l-9.155 8.327s-3.4 4.292-7.28 0l-12.4-12.867"/><path data-name="Path 1482" d="m534.256 142.613 8.5 8.772s4.923 4.02 0 8.069l-8.5 7.219"/><path data-name="Path 1483" d="m567.958 160.73 5.525 10.032 6.246-10.032s1.651-3.735 0-6.526-2.938-3.4-6.246-3.3a6.735 6.735 0 0 0-5.525 3.3 8.234 8.234 0 0 0 0 6.526Z"/><g data-name="Ellipse 191" transform="translate(569.791 153.313)"><circle cx="4" cy="4" r="4" stroke="none"/><circle cx="4" cy="4" r="3"/></g></g><g data-name="Group 275" fill="none" stroke="#707070" stroke-linecap="round" stroke-width="2"><g data-name="Ellipse 192" transform="translate(557.114 37.682)" stroke-linejoin="round"><circle cx="15" cy="15" r="15" stroke="none"/><circle cx="15" cy="15" r="14"/></g><g data-name="Ellipse 193" transform="translate(550.114 30.682)" stroke-linejoin="round"><circle cx="22" cy="22" r="22" stroke="none"/><circle cx="22" cy="22" r="21"/></g><path data-name="Path 1484" d="M565.624 82.67h13.767v22.952s.23 7.543-6.354 7.687-7.51-3.158-7.413-7.687 0-22.952 0-22.952Z" stroke-linejoin="round"/><path data-name="Path 1485" d="M568.622 74.131v8.326"/><path data-name="Path 1486" d="M576.622 74.131v8.326"/><path data-name="Path 1487" d="M596.95 65.632h51.65"/><path data-name="Path 1488" d="M608.123 76.912h35.706"/><path data-name="Path 1489" d="M608.123 96.912h35.706"/><path data-name="Path 1490" d="M608.123 86.912h14.652"/><path data-name="Path 1493" d="M608.123 106.912h14.652"/><path data-name="Path 1494" d="M601.811 106.912h3.049"/><path data-name="Path 1495" d="M601.811 96.912h3.049"/><path data-name="Path 1496" d="M601.811 86.912h3.049"/><path data-name="Path 1497" d="M601.811 76.912h3.049"/><path data-name="Path 1491" d="M629.357 86.912h14.472"/><path data-name="Path 1492" d="M629.357 106.912h14.472"/><path data-name="Path 1498" d="M598.486 65.632V42.944h9.25v22.688" stroke-linejoin="round"/><path data-name="Path 1499" d="M611.609 65.637V38.615h9.25v27.022" stroke-linejoin="round"/><path data-name="Path 1500" d="M624.732 65.632v-32.2h9.25v32.2" stroke-linejoin="round"/><path data-name="Path 1501" d="M637.855 65.631v-43.67h9.25v43.67" stroke-linejoin="round"/><path data-name="Path 1502" d="M572.501 44.66s29.7 3.1 56.083-30.422"/><path data-name="Path 1503" d="m618.164 15.024 10.449-.708-1.092 10.771" stroke-linejoin="round"/></g><g data-name="Group 276" fill="none" stroke="#707070" stroke-linecap="round" stroke-width="2"><g data-name="Ellipse 194" transform="translate(625.197 129.313)" stroke-linejoin="round"><circle cx="24" cy="24" r="24" stroke="none"/><circle cx="24" cy="24" r="23"/></g><g data-name="Ellipse 195" transform="translate(630.197 134.313)" stroke-linejoin="round"><circle cx="19" cy="19" r="19" stroke="none"/><circle cx="19" cy="19" r="18"/></g><g data-name="Ellipse 196" transform="translate(645.197 149.313)" stroke-linejoin="round"><circle cx="4" cy="4" r="4" stroke="none"/><circle cx="4" cy="4" r="3"/></g><path data-name="Path 1504" d="m652.124 155.546 10.1 9.012"/><path data-name="Path 1505" d="M647.447 129.631v-4.03"/><path data-name="Path 1506" d="M650.447 129.631v-4.03"/><g data-name="Rectangle 232" transform="translate(642.197 120.313)" stroke-linejoin="round"><rect width="14" height="6" rx="3" stroke="none"/><rect x="1" y="1" width="12" height="4" rx="2"/></g><g data-name="Rectangle 233" transform="rotate(-40 495.288 -790.505)" stroke-linejoin="round"><rect width="9.554" height="4.777" rx="2" stroke="none"/><rect x="1" y="1" width="7.554" height="2.777" rx="1"/></g><path data-name="Path 1507" d="m629.597 134.513 2.143 2.569"/><path data-name="Path 1508" d="m631.74 132.513 2.143 2.569"/></g><path data-name="Path 1509" d="M696.659 118.143v32.688h-23.462" fill="none" stroke="#707070" stroke-linecap="round" stroke-linejoin="round" stroke-width="2"/><g data-name="Ellipse 197" transform="translate(488.791 155.313)" fill="none" stroke="#707070" stroke-width="2"><circle cx="5" cy="5" r="5" stroke="none"/><circle cx="5" cy="5" r="4"/></g><g data-name="Ellipse 219" transform="translate(520.641 40.768)" fill="none" stroke="#707070" stroke-width="2"><circle cx="5" cy="5" r="5" stroke="none"/><circle cx="5" cy="5" r="4"/></g><g data-name="Ellipse 208" transform="translate(380.54 146.781)" fill="none" stroke="#707070" stroke-width="2"><circle cx="5" cy="5" r="5" stroke="none"/><circle cx="5" cy="5" r="4"/></g><g data-name="Ellipse 210" transform="translate(215.064 143.112)" fill="none" stroke="#707070" stroke-width="2"><circle cx="5" cy="5" r="5" stroke="none"/><circle cx="5" cy="5" r="4"/></g><g data-name="Ellipse 211" transform="translate(195.189 38.112)" fill="none" stroke="#707070" stroke-width="2"><circle cx="5" cy="5" r="5" stroke="none"/><circle cx="5" cy="5" r="4"/></g><g data-name="Ellipse 209" transform="translate(336.54 12.837)" fill="none" stroke="#707070" stroke-width="2"><circle cx="5" cy="5" r="5" stroke="none"/><circle cx="5" cy="5" r="4"/></g><g data-name="Ellipse 199" transform="translate(854.791 31.313)" fill="none" stroke="#707070" stroke-width="2"><circle cx="5" cy="5" r="5" stroke="none"/><circle cx="5" cy="5" r="4"/></g><g data-name="Ellipse 218" transform="translate(822.919 146.031)" fill="none" stroke="#707070" stroke-width="2"><circle cx="5" cy="5" r="5" stroke="none"/><circle cx="5" cy="5" r="4"/></g><g data-name="Ellipse 212" transform="translate(1043.791 109.313)" fill="none" stroke="#707070" stroke-width="2"><circle cx="5" cy="5" r="5" stroke="none"/><circle cx="5" cy="5" r="4"/></g><g data-name="Ellipse 220" transform="translate(1033.791 29.459)" fill="none" stroke="#707070" stroke-width="2"><circle cx="5" cy="5" r="5" stroke="none"/><circle cx="5" cy="5" r="4"/></g><g data-name="Ellipse 213" transform="translate(1195.101 145.313)" fill="none" stroke="#707070" stroke-width="2"><circle cx="5" cy="5" r="5" stroke="none"/><circle cx="5" cy="5" r="4"/></g><g data-name="Ellipse 214" transform="translate(1327.101 41.313)" fill="none" stroke="#707070" stroke-width="2"><circle cx="5" cy="5" r="5" stroke="none"/><circle cx="5" cy="5" r="4"/></g><g data-name="Ellipse 215" transform="translate(1470.398 165.313)" fill="none" stroke="#707070" stroke-width="2"><circle cx="5" cy="5" r="5" stroke="none"/><circle cx="5" cy="5" r="4"/></g><g data-name="Ellipse 216" transform="translate(1499.9 58.053)" fill="none" stroke="#707070" stroke-width="2"><circle cx="5" cy="5" r="5" stroke="none"/><circle cx="5" cy="5" r="4"/></g><g data-name="Ellipse 217" transform="translate(1613.108 8.904)" fill="none" stroke="#707070" stroke-width="2"><circle cx="5" cy="5" r="5" stroke="none"/><circle cx="5" cy="5" r="4"/></g><g data-name="Ellipse 198" transform="translate(609.791 129.313)" fill="none" stroke="#707070" stroke-width="2"><circle cx="5" cy="5" r="5" stroke="none"/><circle cx="5" cy="5" r="4"/></g><path data-name="Path 1510" d="M498.791 160.313h34.614" fill="none" stroke="#707070" stroke-linecap="round" stroke-width="2"/><path data-name="Path 1511" d="M493.791 155.313v-17.065" fill="none" stroke="#707070" stroke-linecap="round" stroke-width="2"/><path data-name="Path 1512" d="M609.791 134.313h-23.7" fill="none" stroke="#707070" stroke-linecap="round" stroke-width="2"/><path data-name="Path 1513" d="M614.791 129.965v-22.452" fill="none" stroke="#707070" stroke-width="2"/><path data-name="Path 1514" d="M647.67 45.769h28.991" fill="none" stroke="#707070" stroke-width="2"/><path data-name="Path 1515" d="M855.543 36.313H806.12" fill="none" stroke="#707070" stroke-width="2"/><path data-name="Path 1516" d="M859.791 40.567v41.379" fill="none" stroke="#707070" stroke-width="2"/><g data-name="Group 277" fill="none" stroke="#707070" stroke-linecap="round" stroke-width="2"><path data-name="Path 1517" d="M1585.26 70.88c1.439-.712 10.416-3.648 10.416-3.648s1.905-1.032 2.526.449 2.037 4.832 2.037 4.832a2.27 2.27 0 0 1-1.538 3.316c-2.757.841-8.79 3.165-8.79 3.165s-2.867 1.264-3.558-1.21a26.978 26.978 0 0 0-1.78-4.586s-.753-1.606.687-2.319Z" stroke-linejoin="round"/><path data-name="Path 1518" d="m1585.409 73.905 12.92-4.482"/><path data-name="Path 1519" d="m1586.543 76.783 12.75-4.525"/><path data-name="Path 1520" d="m1590.244 79.062 2.143 2.603 6.99-2.534-.51-3.216" stroke-linejoin="round"/><path data-name="Path 1521" d="M1585.626 70.64s-.801-5.058-11.838-10.657-14.218-10.998-14.681-19.312 5.926-16.279 13.451-18.873 13.13-3.226 20.96.385 10.712 16.022 8.928 23.338-3.823 8.9-3.823 8.9-4.993 6.789-2.327 12.384" stroke-linejoin="round"/><path data-name="Path 1522" d="M1588.666 69.099s2.328-4.074-7.259-16.61c0 0-4.465-4.027-3.766.596s8.148.247 8.192-1.877-.71-4.482-2.4-3.925-1.533 2.795.53 3.336 2.739 1.085 4.705-.745 3.326-3.34 3.326-3.34-1.08-3.326-2.716-1.807-1.273 2.396-1.158 3.8.852 12.24 5.208 18.895" stroke-linejoin="round"/><g data-name="Ellipse 200" transform="rotate(-9 979.622 -9919.088)" stroke-linejoin="round"><ellipse cx="4" cy="3.5" rx="4" ry="3.5" stroke="none"/><ellipse cx="4" cy="3.5" rx="3" ry="2.5"/></g><path data-name="Path 1523" d="M1565.202 41.081c.514-.71 1.537-1.297 3.368-.533s1.779 3.787 1.903 4.755.314 4.633 1.069 5.336c0 0-.301 7.556-4.44.525s-2.414-9.37-1.9-10.083Z" stroke-linejoin="round"/></g><g data-name="Group 278" fill="none" stroke="#707070" stroke-linecap="round" stroke-width="2"><path data-name="Path 1524" d="m45.242 114.468 3.825-1.764s1.252-.269 1.583-2.824 2.555-4.312 3.012-4.735 1.465-6.292 1.886-8.191 1.712-13.349 9.52-12.756 3.03 12.067 3.03 12.067-4.044 10.15-4.044 13.615-1.658 6.931-.5 12.767-3.013 11.048-3.013 11.048-7.618 8.428-9.033 10.5-7.085 3.952-7.551 6.774" stroke-linejoin="round"/><path data-name="Path 1525" d="M39.226 75.581A16.808 16.808 0 0 0 33.3 88.659a25.773 25.773 0 0 1-1.9 7.479c-1.686 4.06-2.724 7.616-.813 14.51s3.683 13.162 3.918 18.027" stroke-linejoin="round"/><path data-name="Path 1526" d="M29.563 104.466s-.8 6.257.854 22.541c0 0 .209 6.75-.854 11.016a28.351 28.351 0 0 0-.891 5.275c-.154 2.655-8.75 21.366-11.441 24.184" stroke-linejoin="round"/><path data-name="Path 1527" d="M52.044 143.624s-2.958 10.383-3.744 13.9-2.687 13.762-2.1 16.893" stroke-linejoin="round"/><path data-name="Path 1528" d="M41.402 102.557s7.917 3.228 9.752 5.482"/><path data-name="Path 1529" d="M38.895 93.164s6.42 2.479 6.173-3.744"/><path data-name="Path 1530" d="M52.114 106.225 24.028 39.696l65.5-27.157 37.885 90.618-64.625 26.956" stroke-linejoin="round"/><path data-name="Path 1531" d="m69.548 92.625 28.7-12.037"/><path data-name="Path 1533" d="m47.708 79.006 7.6 18.192"/><path data-name="Path 1534" d="m68.583 103.653 44.3-18.526"/><path data-name="Path 1535" d="m65.28 110.693 50.126-21.364"/><path data-name="Path 1536" d="m63.117 117.194 54.1-22.545"/><path data-name="Path 1538" d="m66.791 121.652 30.6-13"/><path data-name="Path 1539" d="M64.865 83.84v-5.375s-.306-3.792 2.172-1.085a79.979 79.979 0 0 1 5.363 6.864s2.22 3.086 2.661-1.411 2.141-2.441 2.141-2.441l2.324 2.224s3.207 3.094 5.673-1.881c0 0 .262-3.855 2.863-2.493s2.4-.861 2.4-.861v-2.217s.051-2.761 3.243-.412" stroke-linejoin="round"/><path data-name="Path 1540" d="M68.21 78.663s5 5.629 6.263-.243c0 0-.181-2.933 3.758-.828s3.78 1.541 4.129-.629-.965-7.222 3.717-5.372 4.231-.017 4.265-4.491" stroke-linejoin="round"/><path data-name="Path 1541" d="m36.41 52.456 8.35 19.785 42.654-18.335" stroke-linejoin="round"/><path data-name="Path 1542" d="m60.216 69.47 14.521-6.253"/><path data-name="Path 1543" d="M43.993 70.669s.109-2.988 2.926-2.316a2.576 2.576 0 0 0 3.438-2.394c.092-.748 1.264-1.381 4.033-.822s3.788-2.524 3.788-2.524 1.085-1.642 3.539-.611 2.112-2.952 2.112-2.952-.2-3.123 2.816-1.78 3.2-2.908 3.2-2.908-.843-2.72 2.356-1.849 3.7 3.444 4.988-.332 2.582-2.813 3.547-2.357 1.623-.748 1.254-2.783" stroke-linejoin="round"/><path data-name="Path 1544" d="M43.533 68.399s.521-2.5 2.746-2.55 3.271-2.427 3.394-2.985.972-1.9 3.245-1.161 3.336-.208 3.351-3.093-.352-6.483 2.789-4.392 4.281 3.364 4.883.254 1.2-3.244 3.367-2.221 2.128-3.26 2.128-4.073.159-5.36 3.75-3.594 5.119 1.13 5.119 1.13 1.535-.209.956-4.993" stroke-linejoin="round"/><g data-name="Rectangle 234" transform="rotate(-23 110.004 -87.512)" stroke-linejoin="round"><rect width="33.394" height="5.332" rx="2.666" stroke="none"/><rect x="1" y="1" width="31.394" height="3.332" rx="1.666"/></g><path data-name="Path 1545" d="m53.25 39.892 14.824-6.328"/><g data-name="Rectangle 237" stroke-linejoin="round"><path d="m96.376 72.623 5.473-2.211 2.211 5.473-5.473 2.211z" stroke="none"/><path d="m97.678 73.176 3.619-1.463 1.462 3.62-3.62 1.461z"/></g><g data-name="Rectangle 251" stroke-linejoin="round"><path d="m85.412 45.583 5.473-2.211 2.211 5.473-5.473 2.211z" stroke="none"/><path d="m86.714 46.136 3.619-1.463 1.462 3.62-3.62 1.461z"/></g><g data-name="Rectangle 249" stroke-linejoin="round"><path d="m92.635 65.196 5.473-2.211 2.211 5.473-5.473 2.211z" stroke="none"/><path d="m93.937 65.749 3.619-1.463 1.462 3.62-3.62 1.461z"/></g><g data-name="Rectangle 250" stroke-linejoin="round"><path d="m81.67 38.156 5.473-2.211 2.211 5.473-5.473 2.211z" stroke="none"/><path d="m82.972 38.709 3.619-1.463 1.462 3.62-3.62 1.461z"/></g><path data-name="Path 1551" d="m104.668 72.453 3.641-1.547" stroke-width="1.999"/><path data-name="Path 1604" d="m93.703 45.413 3.641-1.547" stroke-width="1.999"/><path data-name="Path 1602" d="m100.926 65.025 3.641-1.547" stroke-width="1.999"/><path data-name="Path 1603" d="m89.962 37.985 3.641-1.547" stroke-width="1.999"/><g data-name="Ellipse 201" transform="translate(123.398 38.828)" stroke-linejoin="round"><circle cx="13.5" cy="13.5" r="13.5" stroke="none"/><circle cx="13.5" cy="13.5" r="12.5"/></g><path data-name="Path 1554" d="m125.323 56.644 11-5.082 10.449 5.838" stroke-linejoin="round"/><path data-name="Path 1555" d="m136.674 40.73-.339 10.873"/><path data-name="Path 1556" d="m145.696 44.198-9.147 7.408"/><path data-name="Path 1557" d="M130.515 130.113s5.753 6.764 11.031 10.207a8.208 8.208 0 0 1 3.132 4.643c.726 3.068 1.431 6 3.429 7.786s7.629 5.46 8.117 8.656" stroke-linejoin="round"/><path data-name="Path 1558" d="M148.534 153.201s6.082 19.966 7.645 31.827"/><path data-name="Path 1559" d="M125.367 104.365a7.6 7.6 0 0 0 .444 6.086c1.7 2.816 2.954 8.876 3 11.165" stroke-linejoin="round"/><path data-name="Path 1560" d="M125.359 97.895s-.981-4.362 1.258-4.868 4.851 1.023 6.526 4.032 1.558 8.4 1.548 9.121a11.666 11.666 0 0 0 2.448 6.25" stroke-linejoin="round"/><path data-name="Path 1561" d="m144.285 110.766 1.164.793-9.143 14.608h-2.4c-3.22 3.723-11.363 11.053-11.363 11.053l-2.294-2.011c.928-3.816 12.439-18.539 12.439-18.539l4.576 3.422 9.055-12.457" stroke-linejoin="round"/><path data-name="Path 1562" d="m133.583 117.07 11.978-14.951"/><path data-name="Path 1563" d="M139.572 120.837a4.272 4.272 0 0 0 3.83 1.62"/><path data-name="Path 1564" d="M146.869 113.521s-1.222-14.128-1.253-15.086-.984-8.837-.984-8.837-6.759-6.272-5.094-14.3c0 0 2.418-7.466 5.8-.938s4.811 6.812 4.811 6.812 4.618 3.177 5.952 7.878 1.888 11.769 4.233 13.187" stroke-linejoin="round"/><path data-name="Path 1565" d="m156.098 88.412 13.052-15.906 4.28-2.7-1.712 4.515-14.519 18.931" stroke-linejoin="round"/><path data-name="Path 1566" d="M157.677 96.194a12.163 12.163 0 0 0 4.909 4.1"/><path data-name="Path 1567" d="M164.041 84.862s3.853 17.382 6.78 17.8"/><path data-name="Path 1568" d="M155.161 86.179s-2.2-14.948-1.753-18.861 3.017-5.733 5.248-4.965 1.4 5.135 1.4 5.135-.819 8.288 2.584 12.7" stroke-linejoin="round"/><path data-name="Path 1569" d="M166.036 75.751s.911-8.222 3.729-9.784 4.669 1.746 4.669 1.746-2.589 24.051 2.972 37.177" stroke-linejoin="round"/><path data-name="Path 1570" d="M174.139 89.09s-.029-14.082 4.93-12.478c0 0 .691-.532 2.2 12.986s.817 13.005 2.2 16.256-.687 17.092-.687 17.092-2.219 16.755-4.777 21.84" stroke-linejoin="round"/><path data-name="Path 1571" d="M175.031 137.391s2.29 8.8 3.632 10.918.276 5.35.276 5.35-.608.357.455 3.394 5.647 17.738 8.313 23.533" stroke-linejoin="round"/><path data-name="Path 1572" d="M169.001 105.617s2.795-.339 1.457 5.283-3.651 13.748-3.168 18.35" stroke-linejoin="round"/><path data-name="Path 1573" d="M178.237 110.013s2.212-.67.359 5.687-3.759 11.378-3.769 15.228" stroke-linejoin="round"/><path data-name="Path 1574" d="M108.36 111.432v3.956l19.59 1.65" stroke-linejoin="round"/><path data-name="Path 1577" d="m134.792 106.954 5.349.289"/><path data-name="Path 1578" d="m134.786 102.686 10.673.813"/><path data-name="Path 1579" d="m133.924 98.007 11.534.84"/><path data-name="Path 1581" d="m120.891 77.648 18.237 1.534"/><path data-name="Path 1582" d="m121.224 72.422 18.652 1.386"/><path data-name="Path 1583" d="m127.416 68.276 25.451 1.829"/><path data-name="Path 1584" d="m145.295 73.989 8.229.557"/><path data-name="Path 1585" d="m147.874 79.181 6.1.423"/><path data-name="Path 1586" d="m160.331 74.545 5.563.368"/><path data-name="Path 1587" d="m173.956 74.913 3.174.253"/><g data-name="Rectangle 239" stroke-linejoin="round"><path d="m154.149 50.08 6.814.837-.837 6.813-6.814-.836z" stroke="none"/><path d="m155.02 51.194 4.828.593-.592 4.829-4.83-.593z"/></g><g data-name="Rectangle 252" stroke-linejoin="round"><path d="m155.331 41.731 6.814.837-.837 6.813-6.814-.836z" stroke="none"/><path d="m156.202 42.845 4.828.593-.592 4.829-4.83-.593z"/></g><path data-name="Path 1589" d="m163.847 54.324 13.979 1.596" stroke-width="2.001"/><path data-name="Path 1605" d="m165.029 45.976 13.979 1.596" stroke-width="2.001"/><path data-name="Path 1594" d="m112.632 66.536 5.571-49.239 70.316 7.3-6.9 68.082" stroke-linejoin="round"/><g data-name="Rectangle 244" transform="rotate(5.13 -198.41 1573.846)" stroke-linejoin="round"><rect width="33.394" height="4.945" rx="2" stroke="none"/><rect x="1" y="1" width="31.394" height="2.945" rx="1"/></g><path data-name="Path 1595" d="m144.188 31.267 16.137 1.436"/><g data-name="Rectangle 245" transform="rotate(18.01 -288.247 87.563)" stroke-linejoin="round"><rect width="15" height="15" rx="4" stroke="none"/><rect x="1" y="1" width="13" height="13" rx="3"/></g><g data-name="Rectangle 246" transform="rotate(1 -9127.35 3859.304)" stroke-linejoin="round"><rect width="15" height="15" rx="4" stroke="none"/><rect x="1" y="1" width="13" height="13" rx="3"/></g><g data-name="Rectangle 247" transform="rotate(-10 691.27 -1019.314)" stroke-linejoin="round"><rect width="15" height="15" rx="4" stroke="none"/><rect x="1" y="1" width="13" height="13" rx="3"/></g><g data-name="Rectangle 248" transform="rotate(-12.04 91.936 -455.983)" stroke-linejoin="round"><rect width="15" height="15" rx="4" stroke="none"/><rect x="1" y="1" width="13" height="13" rx="3"/></g><path data-name="Path 1596" d="m13.82 104.465 7.38-3.461"/><path data-name="Path 1597" d="m70.585 167.203 6.168.223"/><path data-name="Path 1598" d="m193.522 109.008 5.515 3.645"/><path data-name="Path 1601" d="m105.046 11.577 1.212 6.499"/><path data-name="Path 1599" d="m198.101 107.879-3.645 5.515"/><path data-name="Path 1600" d="m109.102 14.232-6.499 1.212"/><g data-name="Ellipse 204" transform="translate(85.398 140.828)" stroke-linejoin="round"><circle cx="6" cy="6" r="6" stroke="none"/><circle cx="6" cy="6" r="5"/></g><g data-name="Ellipse 206" transform="translate(124.398 142.828)" stroke-linejoin="round"><circle cx="6" cy="6" r="6" stroke="none"/><circle cx="6" cy="6" r="5"/></g><g data-name="Ellipse 205" transform="translate(82.398 137.828)" stroke-linejoin="round"><circle cx="9" cy="9" r="9" stroke="none"/><circle cx="9" cy="9" r="8"/></g><g data-name="Ellipse 207" transform="translate(121.398 139.828)" stroke-linejoin="round"><circle cx="9" cy="9" r="9" stroke="none"/><circle cx="9" cy="9" r="8"/></g></g><path data-name="Path 1606" d="M381.759 151.781h-18.713" fill="none" stroke="#707070" stroke-width="2"/><path data-name="Path 1607" d="M390.54 151.781h18.125v-13.337" fill="none" stroke="#707070" stroke-linecap="round" stroke-linejoin="round" stroke-width="2"/><path data-name="Path 1608" d="M346.128 17.837h42.8" fill="none" stroke="#707070" stroke-linecap="round" stroke-width="2"/><path data-name="Path 1609" d="M341.54 22.168v9.9" fill="none" stroke="#707070" stroke-width="2"/><path data-name="Path 1610" d="M225.064 148.112h13.25v-30.139" fill="none" stroke="#707070" stroke-linecap="round" stroke-linejoin="round" stroke-width="2"/><path data-name="Path 1611" d="M215.064 148.112h-35.909" fill="none" stroke="#707070" stroke-linecap="round" stroke-width="2"/><path data-name="Path 1612" d="M204.881 43.112h28.933" fill="none" stroke="#707070" stroke-linecap="round" stroke-width="2"/><path data-name="Path 1613" d="M195.189 43.112h-8.39" fill="none" stroke="#707070" stroke-linecap="round" stroke-width="2"/><path data-name="Path 1614" d="M1015.487 77.465h13.354v36.848h15.343" fill="none" stroke="#707070" stroke-linecap="round" stroke-linejoin="round" stroke-width="2"/><path data-name="Path 1615" d="M1053.791 114.313h12.016v18.6h22.68" fill="none" stroke="#707070" stroke-linecap="round" stroke-linejoin="round" stroke-width="2"/><path data-name="Path 1616" d="M1195.824 150.313h-34.47" fill="none" stroke="#707070" stroke-linecap="round" stroke-width="2"/><path data-name="Path 1617" d="M1205.098 150.313h24.325v-61.72" fill="none" stroke="#707070" stroke-linecap="round" stroke-linejoin="round" stroke-width="2"/><path data-name="Path 1618" d="M1336.234 46.313h27.369" fill="none" stroke="#707070" stroke-width="2"/><path data-name="Path 1619" d="M1304.234 46.313h24.517" fill="none" stroke="#707070" stroke-width="2"/><path data-name="Path 1620" d="M1471.256 170.313h-33.19v-14.944" fill="none" stroke="#707070" stroke-linecap="round" stroke-linejoin="round" stroke-width="2"/><path data-name="Path 1621" d="M1479.515 170.313h36.483" fill="none" stroke="#707070" stroke-linecap="round" stroke-width="2"/><path data-name="Path 1622" d="M1501.045 63.053h-21.114" fill="none" stroke="#707070" stroke-width="2"/><path data-name="Path 1623" d="M1509.898 63.053h10.6V43.145h38" fill="none" stroke="#707070" stroke-linecap="round" stroke-linejoin="round" stroke-width="2"/><path data-name="Path 1624" d="M1603.776 42.145h14.332V18.903" fill="none" stroke="#707070" stroke-linecap="round" stroke-linejoin="round" stroke-width="2"/><path data-name="Path 1625" d="M789.572 117.808v33.22h33.348" fill="none" stroke="#707070" stroke-linecap="round" stroke-linejoin="round" stroke-width="2"/><path data-name="Path 1626" d="M480.615 27.117h45.026v13.651" fill="none" stroke="#707070" stroke-linecap="round" stroke-linejoin="round" stroke-width="2"/><path data-name="Path 1627" d="M977.598 34.459h56.193" fill="none" stroke="#707070" stroke-linecap="round" stroke-width="2"/></g></svg>