<?xml version="1.0" standalone="no"?>
<!DOCTYPE svg PUBLIC "-//W3C//DTD SVG 20010904//EN"
 "http://www.w3.org/TR/2001/REC-SVG-20010904/DTD/svg10.dtd">
<svg version="1.0" xmlns="http://www.w3.org/2000/svg"
 width="700.000000pt" height="700.000000pt" viewBox="0 0 700.000000 700.000000"
 preserveAspectRatio="xMidYMid meet">
<metadata>
Created by potrace 1.14, written by Peter Selinger 2001-2017
</metadata>
<g transform="translate(0.000000,700.000000) scale(0.100000,-0.100000)"
fill="#000000" stroke="none">
<path d="M789 5976 c-2 -2 -21 -6 -43 -9 -59 -8 -179 -72 -242 -130 -83 -75
-169 -196 -230 -322 -54 -111 -117 -288 -128 -359 -3 -21 -8 -41 -10 -45 -2
-3 -7 -22 -10 -41 -3 -19 -10 -62 -16 -95 -25 -148 -34 -471 -17 -630 70 -667
390 -1147 754 -1130 60 2 72 5 279 56 66 16 129 31 140 33 10 3 75 18 144 36
69 17 134 33 145 36 11 2 47 10 80 18 336 83 699 171 745 181 8 2 100 24 203
50 103 25 195 48 205 50 9 2 165 40 346 84 181 45 338 83 350 86 50 10 69 15
86 20 10 3 27 8 37 10 15 3 113 27 538 131 33 8 69 16 80 19 11 2 103 24 205
49 102 25 286 71 410 101 124 30 317 78 430 105 211 52 441 108 473 115 10 2
26 6 35 9 9 3 28 7 42 10 14 3 106 25 205 50 151 37 183 49 202 71 43 50 21
128 -44 153 -22 9 -157 43 -263 67 -79 18 -223 53 -765 185 -115 28 -219 53
-230 56 -11 2 -94 22 -185 44 -91 22 -241 58 -335 81 -93 22 -253 61 -355 85
-174 43 -747 181 -780 189 -38 9 -380 91 -620 150 -323 78 -729 176 -750 180
-8 2 -100 24 -205 50 -346 85 -574 139 -626 150 -9 2 -47 13 -84 24 -60 19
-187 36 -196 27z m157 -229 c154 -80 297 -314 373 -613 11 -44 23 -98 26 -120
4 -21 8 -46 10 -54 32 -119 38 -533 10 -675 -3 -11 -7 -38 -10 -59 -15 -107
-62 -285 -95 -361 -78 -179 -130 -264 -213 -346 -66 -67 -126 -98 -200 -106
-197 -20 -418 274 -513 682 -17 76 -18 78 -33 180 -26 179 -29 469 -6 600 3
17 8 50 11 75 10 79 51 242 84 335 56 158 126 280 212 372 115 121 226 150
344 90z m444 -102 c15 -3 109 -26 375 -90 83 -20 157 -38 165 -40 8 -2 108
-26 221 -54 114 -27 217 -52 230 -55 28 -6 589 -141 769 -186 69 -17 134 -32
145 -34 11 -3 103 -25 205 -50 203 -49 417 -101 580 -140 58 -14 200 -48 315
-76 116 -29 217 -53 225 -55 8 -2 83 -19 165 -40 142 -34 261 -63 295 -70 8
-2 125 -30 260 -63 135 -33 270 -65 300 -72 87 -20 88 -25 8 -44 -40 -10 -163
-40 -273 -67 -110 -27 -209 -51 -220 -53 -11 -3 -112 -27 -224 -55 -112 -28
-213 -53 -225 -55 -11 -2 -28 -7 -36 -10 -8 -3 -26 -7 -40 -10 -14 -2 -92 -21
-174 -41 -82 -20 -156 -38 -165 -40 -9 -2 -81 -20 -161 -40 -80 -20 -155 -38
-167 -40 -27 -6 -466 -113 -633 -155 -69 -17 -136 -33 -150 -36 -14 -3 -43
-10 -65 -16 -22 -5 -47 -11 -55 -13 -8 -2 -35 -8 -60 -15 -25 -7 -56 -14 -70
-16 -14 -3 -32 -7 -40 -10 -8 -3 -25 -8 -36 -10 -12 -2 -158 -37 -325 -78
-394 -97 -720 -177 -739 -181 -8 -2 -118 -28 -244 -59 -126 -31 -231 -54 -234
-51 -3 3 2 13 10 22 29 32 125 246 156 344 31 98 65 246 77 329 3 25 8 56 10
70 17 113 23 392 10 512 -13 125 -16 144 -31 228 -36 201 -108 412 -189 554
l-44 78 32 -6 c18 -4 39 -9 47 -11z"/>
<path d="M6045 3749 c-33 -10 -89 -26 -125 -34 -36 -9 -90 -22 -120 -30 -30
-8 -113 -29 -185 -46 -71 -17 -222 -53 -335 -80 -113 -28 -225 -55 -250 -60
-25 -6 -52 -12 -60 -14 -32 -7 -284 -68 -475 -115 -168 -40 -244 -58 -275 -65
-3 -1 -14 -4 -25 -8 -11 -3 -31 -8 -45 -11 -14 -2 -101 -23 -195 -46 -93 -23
-178 -43 -189 -45 -10 -3 -55 -13 -100 -24 -157 -39 -476 -115 -526 -126 -8
-2 -82 -20 -165 -40 -82 -20 -157 -38 -165 -40 -19 -5 -269 -65 -460 -111
-172 -42 -178 -44 -210 -50 -14 -3 -50 -11 -80 -19 -91 -24 -293 -73 -320 -78
-14 -3 -101 -24 -195 -47 -151 -37 -271 -65 -315 -75 -118 -27 -401 -98 -422
-106 -34 -14 -62 -70 -53 -108 12 -54 39 -67 240 -116 105 -26 198 -48 208
-50 11 -2 85 -21 165 -41 81 -19 154 -37 162 -39 8 -2 83 -20 165 -40 83 -20
157 -38 165 -40 8 -2 92 -22 185 -45 193 -47 440 -107 595 -144 58 -14 218
-52 355 -86 138 -34 304 -74 370 -90 66 -16 233 -57 370 -90 138 -34 257 -63
265 -65 8 -2 38 -9 65 -15 28 -6 57 -13 65 -15 8 -2 107 -26 220 -54 206 -50
466 -113 895 -217 211 -52 803 -198 850 -210 34 -9 142 -5 187 7 171 46 350
229 466 480 157 338 216 849 145 1264 -2 17 -6 39 -8 50 -36 231 -126 473
-240 645 -90 136 -216 245 -330 285 -74 26 -196 28 -270 4z m239 -206 c213
-108 397 -513 432 -953 13 -154 8 -386 -11 -510 -52 -352 -168 -627 -329 -778
-192 -181 -395 -104 -569 218 -68 127 -137 347 -162 520 -4 25 -11 70 -15 100
-9 57 -7 480 3 515 2 11 8 46 11 77 9 79 59 279 90 361 104 272 254 449 406
477 40 7 98 -4 144 -27z m-624 -145 c-82 -141 -166 -372 -194 -533 -3 -16 -9
-56 -15 -87 -34 -193 -36 -528 -5 -753 11 -81 56 -266 86 -357 34 -104 105
-262 138 -309 12 -16 20 -32 18 -35 -3 -2 -142 29 -309 70 -167 41 -360 88
-429 105 -172 41 -448 109 -745 181 -137 33 -270 66 -295 71 -25 6 -52 12 -60
14 -8 2 -116 28 -240 59 -237 57 -718 174 -748 181 -9 2 -71 17 -137 33 -428
105 -684 167 -850 207 -104 25 -237 57 -295 71 -58 14 -113 28 -123 30 -10 2
-27 6 -37 9 -10 3 -27 7 -37 9 -10 2 -38 10 -63 16 l-45 13 55 13 c30 7 64 15
75 18 11 2 99 23 195 46 96 23 181 43 190 45 15 3 204 49 520 126 91 23 172
42 180 44 8 2 38 9 65 15 28 6 57 13 65 15 8 2 80 19 160 39 254 61 879 211
1065 256 72 17 175 42 230 56 55 14 110 28 123 30 12 2 98 23 190 45 92 22
175 42 185 44 10 2 27 7 37 10 10 3 27 7 37 10 51 10 608 144 873 210 184 45
177 46 140 -17z"/>
</g>
</svg>
